<?xml version="1.0" standalone="no"?>
<!DOCTYPE svg PUBLIC "-//W3C//DTD SVG 20010904//EN"
 "http://www.w3.org/TR/2001/REC-SVG-20010904/DTD/svg10.dtd">
<svg version="1.0" xmlns="http://www.w3.org/2000/svg"
 width="256.000000pt" height="256.000000pt" viewBox="0 0 256.000000 256.000000"
 preserveAspectRatio="xMidYMid meet">

<g transform="translate(0.000000,256.000000) scale(0.100000,-0.100000)"
fill="#000000" stroke="none">
<path d="M1060 2541 c-537 -99 -949 -515 -1041 -1049 -136 -798 508 -1526
1316 -1489 328 16 613 141 847 373 502 499 503 1302 2 1806 -175 176 -386 292
-634 349 -129 30 -355 34 -490 10z m-150 -806 l0 -145 260 0 260 0 9 -22 c4
-13 48 -177 97 -365 49 -189 91 -343 94 -343 3 0 43 143 90 318 46 174 90 338
98 365 l14 47 164 0 c90 0 164 -3 164 -7 -1 -5 -77 -217 -169 -473 l-168 -465
-194 0 -193 0 -103 285 c-56 157 -114 318 -129 358 l-26 72 -135 0 -134 0 3
-225 3 -225 27 -26 c37 -38 116 -44 182 -16 25 12 46 20 46 19 0 -1 7 -40 15
-87 8 -47 15 -91 15 -98 0 -19 -95 -59 -174 -73 -39 -6 -101 -9 -141 -6 -132
12 -214 55 -261 140 l-29 52 -5 270 -5 270 -83 3 -83 3 3 112 3 112 83 3 82 3
0 104 0 104 43 11 c23 7 87 24 142 40 149 42 135 54 135 -115z"/>
</g>
</svg>
