<svg width="24" height="24" viewBox="0 0 24 24" fill="none" xmlns="http://www.w3.org/2000/svg">
<path d="M19.2027 13.977V19.2027H16.9598V14.625V14.6183C16.9598 14.0356 16.9598 13.2462 16.7057 12.6033C16.5724 12.2662 16.3608 11.9441 16.0249 11.7098C15.6879 11.4747 15.2687 11.3578 14.7727 11.3578C14.2858 11.3578 13.8657 11.4531 13.5145 11.6476C13.1604 11.8436 12.9062 12.124 12.7288 12.4454C12.3869 13.0648 12.3258 13.8472 12.3258 14.5375V19.2027H10.0855V9.76289H12.1973V10.6902V11.1902H12.6973H12.741H13.0428L13.1834 10.9232C13.533 10.2595 14.4253 9.50312 15.8117 9.50312C17.3319 9.50312 18.1195 9.99251 18.5667 10.7024C19.0472 11.4654 19.2027 12.5823 19.2027 13.977ZM22.0625 0.5625H1.9375C1.17737 0.5625 0.5625 1.17737 0.5625 1.9375V22.0625C0.5625 22.8226 1.17737 23.4375 1.9375 23.4375H22.0625C22.8226 23.4375 23.4375 22.8226 23.4375 22.0625V1.9375C23.4375 1.17737 22.8226 0.5625 22.0625 0.5625ZM7.05117 19.2027H4.80547V9.76289H7.05117V19.2027ZM5.92969 7.33555C5.6565 7.33555 5.38945 7.25454 5.16231 7.10276C4.93516 6.95099 4.75812 6.73527 4.65358 6.48288C4.54904 6.23049 4.52168 5.95276 4.57498 5.68483C4.62827 5.41689 4.75982 5.17078 4.953 4.97761C5.14617 4.78443 5.39228 4.65288 5.66022 4.59959C5.92816 4.54629 6.20588 4.57364 6.45827 4.67819C6.71066 4.78273 6.92638 4.95977 7.07816 5.18692C7.22982 5.41389 7.31082 5.68072 7.31094 5.95369C7.30854 6.71804 6.68891 7.33555 5.92969 7.33555Z" fill="black" stroke="white"/>
</svg>
