<svg width="28" height="28" viewBox="0 0 28 28" fill="none" xmlns="http://www.w3.org/2000/svg">
<g clip-path="url(#clip0)">
<path d="M13.083 0.00702376C13.0223 0.0128571 12.831 0.0326904 12.6583 0.0455238C8.68233 0.404857 4.95833 2.55036 2.597 5.84852C1.29302 7.65887 0.44534 9.75725 0.126 11.9654C0.014 12.7354 0 12.9617 0 14.0047C0 15.0477 0.014 15.2752 0.126 16.044C0.886667 21.3022 4.62933 25.7192 9.70317 27.356C10.612 27.6489 11.5698 27.8484 12.6583 27.9697C13.083 28.0164 14.917 28.0164 15.3417 27.9697C17.2212 27.7609 18.8148 27.2954 20.3852 26.4939C20.6267 26.3714 20.6733 26.3375 20.6407 26.3107C20.6173 26.2944 19.5918 24.9177 18.3598 23.254L16.121 20.2289L13.3163 16.0767C12.3831 14.6879 11.4412 13.305 10.4907 11.928C10.4802 11.9245 10.4697 13.769 10.4638 16.023C10.4557 19.9664 10.4522 20.125 10.4032 20.2184C10.3554 20.3273 10.2701 20.4155 10.1628 20.4669C10.0753 20.5112 9.9995 20.5194 9.58533 20.5194H9.11167L8.98567 20.44C8.9077 20.3908 8.84443 20.3215 8.8025 20.2394L8.74417 20.1169L8.75 14.6289L8.75817 9.13852L8.84333 9.03119C8.90067 8.96409 8.96939 8.90761 9.04633 8.86436C9.15833 8.80952 9.2015 8.80486 9.67633 8.80486C10.234 8.80486 10.3273 8.82586 10.472 8.98452C10.5128 9.02886 12.0318 11.3179 13.8495 14.0735L19.3725 22.4409L21.5892 25.7985L21.7023 25.725C22.7691 25.0158 23.7363 24.1671 24.5782 23.2015C26.3424 21.1824 27.4867 18.6972 27.874 16.044C27.986 15.274 28 15.0477 28 14.0047C28 12.9617 27.986 12.7354 27.874 11.9654C27.1133 6.70836 23.3707 2.29019 18.2968 0.653357C17.3485 0.351855 16.3721 0.147417 15.3825 0.0431904C15.1188 0.0151904 13.3105 -0.0151429 13.0842 0.00819043L13.083 0.00702376ZM18.8148 8.47702C18.8799 8.50979 18.9378 8.55511 18.9853 8.61038C19.0327 8.66564 19.0688 8.72976 19.0913 8.79902C19.1123 8.86902 19.1182 10.3915 19.1123 13.8215L19.1042 18.7425L18.2373 17.4125L17.367 16.0825V12.5055C17.367 10.192 17.3775 8.89236 17.3938 8.82936C17.4133 8.75648 17.4473 8.68831 17.4938 8.62895C17.5403 8.5696 17.5984 8.52029 17.6645 8.48402C17.7777 8.42569 17.8185 8.42102 18.2478 8.42102C18.6527 8.42102 18.7238 8.42686 18.8148 8.47586V8.47702Z" fill="black"/>
</g>
<defs>
<clipPath id="clip0">
<rect width="28" height="28" fill="white"/>
</clipPath>
</defs>
</svg>
