<svg width="28" height="28" viewBox="0 0 28 28" fill="none" xmlns="http://www.w3.org/2000/svg">
<path d="M7.02144 13.4446C6.91206 14.8217 8.12191 15.8361 8.94759 15.8361C9.77441 15.7975 12.9946 13.0839 12.9946 13.0839C14.5091 11.1684 14.5156 10.3167 14.5156 9.64731C14.3893 6.69184 9.00479 11.1933 7.02144 13.4446ZM20.3414 12.3006C21.0723 10.7537 20.089 9.03563 17.95 10.5447C16.2503 11.625 14.0499 13.8474 12.9968 14.7174C12.5083 15.704 13.7465 18.4116 15.7087 16.982C18.028 15.297 19.7217 13.7125 20.3414 12.3006ZM22.332 2.94295L22.803 0H28V5.37217L26.0954 5.39492L23.8021 13.1624C23.9448 15.9038 22.5547 15.9484 22.3771 17.2063C21.9308 20.3678 18.3953 22.9546 17.0436 22.9546C16.1421 22.9284 15.483 21.8952 15.2616 20.9948C17.8035 18.1833 21.2217 15.9739 21.2217 15.9739C21.4351 14.4953 20.966 14.0246 22.5437 12.7646L24.0491 4.84925C22.7634 4.00023 22.1635 4.01341 22.332 2.94295ZM12.1882 16.0515C13.5063 18.7074 15.4108 18.7766 18.3635 15.3954C18.4337 15.7079 18.5105 16.0355 18.3695 16.8219C12.3629 22.1943 6.70545 27.423 4.9834 28H0V26.6634C0.810469 25.5395 7.462 20.0533 12.1882 16.0515ZM21.0655 21.1938C20.7951 23.4927 18.6992 25.5043 15.8985 28H7.02253L14.5053 21.697C15.797 24.6367 18.0914 24.2109 21.0656 21.1938H21.0655ZM10.5689 15.9759L0 24.9842V19.1398L6.21961 14.0766C6.55233 15.9611 8.59059 17.6206 10.5689 15.976V15.9759Z" fill="black"/>
</svg>
