<svg xmlns="http://www.w3.org/2000/svg" viewBox="0 0 161.74 117.34"><defs><style>.cls-1{fill:none;stroke:#000;stroke-miterlimit:10;stroke-width:3px;}</style></defs><title>crosses</title><g id="Layer_2" data-name="Layer 2"><g id="Layer_1-2" data-name="Layer 1"><line class="cls-1" y1="11.47" x2="22.94" y2="11.47"/><line class="cls-1" x1="11.47" x2="11.47" y2="22.94"/><line class="cls-1" x1="45.83" y1="11.47" x2="68.77" y2="11.47"/><line class="cls-1" x1="57.3" x2="57.3" y2="22.94"/><line class="cls-1" y1="58.67" x2="22.94" y2="58.67"/><line class="cls-1" x1="11.47" y1="47.2" x2="11.47" y2="70.14"/><line class="cls-1" x1="45.83" y1="58.67" x2="68.77" y2="58.67"/><line class="cls-1" x1="57.3" y1="47.2" x2="57.3" y2="70.14"/><line class="cls-1" x1="92.97" y1="58.67" x2="115.9" y2="58.67"/><line class="cls-1" x1="104.43" y1="47.2" x2="104.43" y2="70.14"/><line class="cls-1" x1="138.8" y1="58.67" x2="161.74" y2="58.67"/><line class="cls-1" x1="150.27" y1="47.2" x2="150.27" y2="70.14"/><line class="cls-1" x1="92.97" y1="105.87" x2="115.9" y2="105.87"/><line class="cls-1" x1="104.43" y1="94.4" x2="104.43" y2="117.34"/><line class="cls-1" x1="138.8" y1="105.87" x2="161.74" y2="105.87"/><line class="cls-1" x1="150.27" y1="94.4" x2="150.27" y2="117.34"/></g></g></svg>