<svg xmlns="http://www.w3.org/2000/svg" viewBox="0 0 268.63 289.8"><defs><style>.cls-1{fill:#000000;}</style></defs><title>dots-grid</title><g id="Layer_2" data-name="Layer 2"><g id="Layer_1-2" data-name="Layer 1"><circle class="cls-1" cx="266.31" cy="2.32" r="2.32"/><path class="cls-1" d="M266.16,4.48a2.17,2.17,0,1,1,2.16-2.16A2.17,2.17,0,0,1,266.16,4.48Z" transform="translate(-18.86)"/><path class="cls-1" d="M247.14,4.33a2,2,0,1,1,2-2A2,2,0,0,1,247.14,4.33Z" transform="translate(-18.86)"/><path class="cls-1" d="M228.13,4.17A1.86,1.86,0,1,1,230,2.32,1.85,1.85,0,0,1,228.13,4.17Z" transform="translate(-18.86)"/><path class="cls-1" d="M209.12,4a1.7,1.7,0,1,1,1.7-1.7A1.7,1.7,0,0,1,209.12,4Z" transform="translate(-18.86)"/><path class="cls-1" d="M190.11,3.86a1.55,1.55,0,1,1,1.55-1.54A1.54,1.54,0,0,1,190.11,3.86Z" transform="translate(-18.86)"/><path class="cls-1" d="M171.1,3.71a1.39,1.39,0,1,1,1.39-1.39A1.39,1.39,0,0,1,171.1,3.71Z" transform="translate(-18.86)"/><path class="cls-1" d="M152.09,3.55a1.24,1.24,0,1,1,1.23-1.23A1.24,1.24,0,0,1,152.09,3.55Z" transform="translate(-18.86)"/><path class="cls-1" d="M133.08,3.4a1.08,1.08,0,1,1,1.08-1.08A1.08,1.08,0,0,1,133.08,3.4Z" transform="translate(-18.86)"/><path class="cls-1" d="M114.07,3.24a.93.93,0,1,1,.92-.92A.92.92,0,0,1,114.07,3.24Z" transform="translate(-18.86)"/><path class="cls-1" d="M95.06,3.09a.77.77,0,1,1,0-1.54.77.77,0,0,1,0,1.54Z" transform="translate(-18.86)"/><path class="cls-1" d="M76,2.94a.62.62,0,1,1,.62-.62A.61.61,0,0,1,76,2.94Z" transform="translate(-18.86)"/><path class="cls-1" d="M57,2.78a.47.47,0,1,1,.47-.46A.47.47,0,0,1,57,2.78Z" transform="translate(-18.86)"/><path class="cls-1" d="M38,2.63a.31.31,0,1,1,.31-.31A.31.31,0,0,1,38,2.63Z" transform="translate(-18.86)"/><path class="cls-1" d="M19,2.47a.15.15,0,0,1-.15-.15A.16.16,0,0,1,19,2.16a.16.16,0,0,1,.16.16A.16.16,0,0,1,19,2.47Z" transform="translate(-18.86)"/><path class="cls-1" d="M0,2.32Z" transform="translate(-18.86)"/><circle class="cls-1" cx="266.31" cy="19.09" r="2.32"/><path class="cls-1" d="M266.16,21.26a2.17,2.17,0,1,1,2.16-2.17A2.17,2.17,0,0,1,266.16,21.26Z" transform="translate(-18.86)"/><path class="cls-1" d="M247.14,21.1a2,2,0,1,1,2-2A2,2,0,0,1,247.14,21.1Z" transform="translate(-18.86)"/><path class="cls-1" d="M228.13,21A1.86,1.86,0,1,1,230,19.09,1.85,1.85,0,0,1,228.13,21Z" transform="translate(-18.86)"/><path class="cls-1" d="M209.12,20.79a1.7,1.7,0,1,1,1.7-1.7A1.7,1.7,0,0,1,209.12,20.79Z" transform="translate(-18.86)"/><path class="cls-1" d="M190.11,20.64a1.55,1.55,0,1,1,1.55-1.55A1.54,1.54,0,0,1,190.11,20.64Z" transform="translate(-18.86)"/><path class="cls-1" d="M171.1,20.48a1.39,1.39,0,1,1,1.39-1.39A1.39,1.39,0,0,1,171.1,20.48Z" transform="translate(-18.86)"/><path class="cls-1" d="M152.09,20.33a1.24,1.24,0,1,1,0-2.47,1.24,1.24,0,0,1,0,2.47Z" transform="translate(-18.86)"/><path class="cls-1" d="M133.08,20.17a1.08,1.08,0,1,1,1.08-1.08A1.08,1.08,0,0,1,133.08,20.17Z" transform="translate(-18.86)"/><path class="cls-1" d="M114.07,20a.93.93,0,1,1,0-1.85.93.93,0,0,1,0,1.85Z" transform="translate(-18.86)"/><path class="cls-1" d="M95.06,19.86a.77.77,0,1,1,.77-.77A.77.77,0,0,1,95.06,19.86Z" transform="translate(-18.86)"/><path class="cls-1" d="M76,19.71a.62.62,0,1,1,.62-.62A.61.61,0,0,1,76,19.71Z" transform="translate(-18.86)"/><path class="cls-1" d="M57,19.56a.47.47,0,1,1,.47-.47A.47.47,0,0,1,57,19.56Z" transform="translate(-18.86)"/><path class="cls-1" d="M38,19.4a.31.31,0,1,1,.31-.31A.31.31,0,0,1,38,19.4Z" transform="translate(-18.86)"/><path class="cls-1" d="M19,19.25a.16.16,0,0,1-.15-.16.15.15,0,0,1,.15-.15.16.16,0,0,1,.16.15A.16.16,0,0,1,19,19.25Z" transform="translate(-18.86)"/><path class="cls-1" d="M0,19.09Z" transform="translate(-18.86)"/><circle class="cls-1" cx="266.31" cy="35.87" r="2.32"/><path class="cls-1" d="M266.16,38a2.17,2.17,0,1,1,2.16-2.16A2.17,2.17,0,0,1,266.16,38Z" transform="translate(-18.86)"/><path class="cls-1" d="M247.14,37.88a2,2,0,1,1,2-2A2,2,0,0,1,247.14,37.88Z" transform="translate(-18.86)"/><path class="cls-1" d="M228.13,37.72A1.86,1.86,0,1,1,230,35.87,1.85,1.85,0,0,1,228.13,37.72Z" transform="translate(-18.86)"/><path class="cls-1" d="M209.12,37.57a1.7,1.7,0,1,1,1.7-1.7A1.7,1.7,0,0,1,209.12,37.57Z" transform="translate(-18.86)"/><path class="cls-1" d="M190.11,37.41a1.55,1.55,0,1,1,1.55-1.54A1.54,1.54,0,0,1,190.11,37.41Z" transform="translate(-18.86)"/><path class="cls-1" d="M171.1,37.26a1.39,1.39,0,1,1,1.39-1.39A1.39,1.39,0,0,1,171.1,37.26Z" transform="translate(-18.86)"/><path class="cls-1" d="M152.09,37.1a1.24,1.24,0,1,1,1.23-1.23A1.24,1.24,0,0,1,152.09,37.1Z" transform="translate(-18.86)"/><path class="cls-1" d="M133.08,37a1.08,1.08,0,1,1,1.08-1.08A1.08,1.08,0,0,1,133.08,37Z" transform="translate(-18.86)"/><path class="cls-1" d="M114.07,36.79a.93.93,0,1,1,.92-.92A.92.92,0,0,1,114.07,36.79Z" transform="translate(-18.86)"/><path class="cls-1" d="M95.06,36.64a.78.78,0,1,1,.77-.77A.78.78,0,0,1,95.06,36.64Z" transform="translate(-18.86)"/><path class="cls-1" d="M76,36.48a.61.61,0,0,1-.61-.61.62.62,0,1,1,1.23,0A.61.61,0,0,1,76,36.48Z" transform="translate(-18.86)"/><path class="cls-1" d="M57,36.33a.47.47,0,1,1,.47-.46A.47.47,0,0,1,57,36.33Z" transform="translate(-18.86)"/><path class="cls-1" d="M38,36.18a.31.31,0,1,1,.31-.31A.31.31,0,0,1,38,36.18Z" transform="translate(-18.86)"/><path class="cls-1" d="M19,36a.15.15,0,0,1-.15-.15.16.16,0,0,1,.15-.16.16.16,0,0,1,.16.16A.16.16,0,0,1,19,36Z" transform="translate(-18.86)"/><path class="cls-1" d="M0,35.87Z" transform="translate(-18.86)"/><circle class="cls-1" cx="266.31" cy="52.64" r="2.32"/><path class="cls-1" d="M266.16,54.8a2.16,2.16,0,1,1,2.16-2.16A2.16,2.16,0,0,1,266.16,54.8Z" transform="translate(-18.86)"/><path class="cls-1" d="M247.14,54.65a2,2,0,1,1,2-2A2,2,0,0,1,247.14,54.65Z" transform="translate(-18.86)"/><path class="cls-1" d="M228.13,54.5A1.86,1.86,0,1,1,230,52.64,1.85,1.85,0,0,1,228.13,54.5Z" transform="translate(-18.86)"/><path class="cls-1" d="M209.12,54.34a1.7,1.7,0,1,1,1.7-1.7A1.7,1.7,0,0,1,209.12,54.34Z" transform="translate(-18.86)"/><path class="cls-1" d="M190.11,54.19a1.55,1.55,0,1,1,1.55-1.55A1.55,1.55,0,0,1,190.11,54.19Z" transform="translate(-18.86)"/><path class="cls-1" d="M171.1,54a1.39,1.39,0,1,1,1.39-1.39A1.39,1.39,0,0,1,171.1,54Z" transform="translate(-18.86)"/><path class="cls-1" d="M152.09,53.88a1.24,1.24,0,1,1,0-2.47,1.24,1.24,0,0,1,0,2.47Z" transform="translate(-18.86)"/><path class="cls-1" d="M133.08,53.72a1.08,1.08,0,1,1,1.08-1.08A1.08,1.08,0,0,1,133.08,53.72Z" transform="translate(-18.86)"/><path class="cls-1" d="M114.07,53.57a.93.93,0,1,1,.92-.93A.93.93,0,0,1,114.07,53.57Z" transform="translate(-18.86)"/><path class="cls-1" d="M95.06,53.41a.77.77,0,1,1,.77-.77A.77.77,0,0,1,95.06,53.41Z" transform="translate(-18.86)"/><path class="cls-1" d="M76,53.26a.62.62,0,1,1,.62-.62A.61.61,0,0,1,76,53.26Z" transform="translate(-18.86)"/><path class="cls-1" d="M57,53.1a.46.46,0,0,1-.46-.46.47.47,0,1,1,.46.46Z" transform="translate(-18.86)"/><path class="cls-1" d="M38,53a.31.31,0,1,1,.31-.31A.31.31,0,0,1,38,53Z" transform="translate(-18.86)"/><path class="cls-1" d="M19,52.8a.16.16,0,0,1-.15-.16.15.15,0,0,1,.15-.15.16.16,0,0,1,.16.15A.16.16,0,0,1,19,52.8Z" transform="translate(-18.86)"/><path class="cls-1" d="M0,52.64Z" transform="translate(-18.86)"/><circle class="cls-1" cx="266.31" cy="69.42" r="2.32"/><path class="cls-1" d="M266.16,71.58a2.17,2.17,0,1,1,2.16-2.16A2.17,2.17,0,0,1,266.16,71.58Z" transform="translate(-18.86)"/><path class="cls-1" d="M247.14,71.42a2,2,0,1,1,2-2A2,2,0,0,1,247.14,71.42Z" transform="translate(-18.86)"/><path class="cls-1" d="M228.13,71.27A1.86,1.86,0,1,1,230,69.42,1.85,1.85,0,0,1,228.13,71.27Z" transform="translate(-18.86)"/><path class="cls-1" d="M209.12,71.12a1.7,1.7,0,1,1,1.7-1.7A1.7,1.7,0,0,1,209.12,71.12Z" transform="translate(-18.86)"/><path class="cls-1" d="M190.11,71a1.55,1.55,0,1,1,1.55-1.54A1.54,1.54,0,0,1,190.11,71Z" transform="translate(-18.86)"/><path class="cls-1" d="M171.1,70.81a1.39,1.39,0,1,1,1.39-1.39A1.39,1.39,0,0,1,171.1,70.81Z" transform="translate(-18.86)"/><path class="cls-1" d="M152.09,70.65a1.24,1.24,0,1,1,1.23-1.23A1.24,1.24,0,0,1,152.09,70.65Z" transform="translate(-18.86)"/><path class="cls-1" d="M133.08,70.5a1.09,1.09,0,1,1,1.08-1.08A1.08,1.08,0,0,1,133.08,70.5Z" transform="translate(-18.86)"/><path class="cls-1" d="M114.07,70.34a.93.93,0,1,1,.92-.92A.92.92,0,0,1,114.07,70.34Z" transform="translate(-18.86)"/><path class="cls-1" d="M95.06,70.19a.78.78,0,1,1,.77-.77A.78.78,0,0,1,95.06,70.19Z" transform="translate(-18.86)"/><path class="cls-1" d="M76,70a.62.62,0,1,1,.62-.61A.61.61,0,0,1,76,70Z" transform="translate(-18.86)"/><path class="cls-1" d="M57,69.88a.47.47,0,1,1,.47-.46A.47.47,0,0,1,57,69.88Z" transform="translate(-18.86)"/><path class="cls-1" d="M38,69.72a.3.3,0,0,1-.31-.3.31.31,0,0,1,.62,0A.3.3,0,0,1,38,69.72Z" transform="translate(-18.86)"/><path class="cls-1" d="M19,69.57a.15.15,0,0,1-.15-.15.16.16,0,0,1,.15-.16.16.16,0,0,1,.16.16A.16.16,0,0,1,19,69.57Z" transform="translate(-18.86)"/><path class="cls-1" d="M0,69.42Z" transform="translate(-18.86)"/><circle class="cls-1" cx="266.31" cy="86.19" r="2.32"/><path class="cls-1" d="M266.16,88.35a2.16,2.16,0,1,1,2.16-2.16A2.17,2.17,0,0,1,266.16,88.35Z" transform="translate(-18.86)"/><path class="cls-1" d="M247.14,88.2a2,2,0,1,1,2-2A2,2,0,0,1,247.14,88.2Z" transform="translate(-18.86)"/><path class="cls-1" d="M228.13,88A1.85,1.85,0,1,1,230,86.19,1.85,1.85,0,0,1,228.13,88Z" transform="translate(-18.86)"/><path class="cls-1" d="M209.12,87.89a1.7,1.7,0,1,1,1.7-1.7A1.7,1.7,0,0,1,209.12,87.89Z" transform="translate(-18.86)"/><path class="cls-1" d="M190.11,87.74a1.55,1.55,0,1,1,1.55-1.55A1.55,1.55,0,0,1,190.11,87.74Z" transform="translate(-18.86)"/><path class="cls-1" d="M171.1,87.58a1.39,1.39,0,1,1,1.39-1.39A1.39,1.39,0,0,1,171.1,87.58Z" transform="translate(-18.86)"/><path class="cls-1" d="M152.09,87.43a1.24,1.24,0,1,1,1.23-1.24A1.25,1.25,0,0,1,152.09,87.43Z" transform="translate(-18.86)"/><path class="cls-1" d="M133.08,87.27a1.08,1.08,0,1,1,1.08-1.08A1.08,1.08,0,0,1,133.08,87.27Z" transform="translate(-18.86)"/><path class="cls-1" d="M114.07,87.12a.93.93,0,1,1,.92-.93A.93.93,0,0,1,114.07,87.12Z" transform="translate(-18.86)"/><path class="cls-1" d="M95.06,87a.77.77,0,1,1,.77-.77A.77.77,0,0,1,95.06,87Z" transform="translate(-18.86)"/><path class="cls-1" d="M76,86.81a.62.62,0,1,1,.62-.62A.61.61,0,0,1,76,86.81Z" transform="translate(-18.86)"/><path class="cls-1" d="M57,86.65a.46.46,0,1,1,.47-.46A.46.46,0,0,1,57,86.65Z" transform="translate(-18.86)"/><path class="cls-1" d="M38,86.5a.31.31,0,1,1,.31-.31A.31.31,0,0,1,38,86.5Z" transform="translate(-18.86)"/><path class="cls-1" d="M19,86.34a.15.15,0,0,1,0-.3.15.15,0,1,1,0,.3Z" transform="translate(-18.86)"/><path class="cls-1" d="M0,86.19Z" transform="translate(-18.86)"/><circle class="cls-1" cx="266.31" cy="102.96" r="2.32"/><path class="cls-1" d="M266.16,105.13a2.17,2.17,0,1,1,2.16-2.17A2.17,2.17,0,0,1,266.16,105.13Z" transform="translate(-18.86)"/><path class="cls-1" d="M247.14,105a2,2,0,1,1,2-2A2,2,0,0,1,247.14,105Z" transform="translate(-18.86)"/><path class="cls-1" d="M228.13,104.82A1.86,1.86,0,1,1,230,103,1.85,1.85,0,0,1,228.13,104.82Z" transform="translate(-18.86)"/><path class="cls-1" d="M209.12,104.66a1.7,1.7,0,1,1,1.7-1.7A1.7,1.7,0,0,1,209.12,104.66Z" transform="translate(-18.86)"/><path class="cls-1" d="M190.11,104.51a1.55,1.55,0,1,1,1.55-1.55A1.54,1.54,0,0,1,190.11,104.51Z" transform="translate(-18.86)"/><path class="cls-1" d="M171.1,104.36a1.4,1.4,0,1,1,1.39-1.4A1.4,1.4,0,0,1,171.1,104.36Z" transform="translate(-18.86)"/><path class="cls-1" d="M152.09,104.2a1.24,1.24,0,1,1,1.23-1.24A1.24,1.24,0,0,1,152.09,104.2Z" transform="translate(-18.86)"/><path class="cls-1" d="M133.08,104.05a1.09,1.09,0,1,1,1.08-1.09A1.08,1.08,0,0,1,133.08,104.05Z" transform="translate(-18.86)"/><path class="cls-1" d="M114.07,103.89A.93.93,0,1,1,115,103,.92.92,0,0,1,114.07,103.89Z" transform="translate(-18.86)"/><path class="cls-1" d="M95.06,103.74a.78.78,0,1,1,.77-.78A.78.78,0,0,1,95.06,103.74Z" transform="translate(-18.86)"/><path class="cls-1" d="M76,103.58a.62.62,0,1,1,.62-.62A.61.61,0,0,1,76,103.58Z" transform="translate(-18.86)"/><path class="cls-1" d="M57,103.43a.47.47,0,1,1,.47-.47A.47.47,0,0,1,57,103.43Z" transform="translate(-18.86)"/><path class="cls-1" d="M38,103.27a.31.31,0,1,1,.31-.31A.31.31,0,0,1,38,103.27Z" transform="translate(-18.86)"/><path class="cls-1" d="M19,103.12a.16.16,0,0,1-.15-.16.15.15,0,0,1,.15-.15.16.16,0,0,1,.16.15A.16.16,0,0,1,19,103.12Z" transform="translate(-18.86)"/><path class="cls-1" d="M0,103Z" transform="translate(-18.86)"/><circle class="cls-1" cx="266.31" cy="119.74" r="2.32"/><path class="cls-1" d="M266.16,121.9a2.16,2.16,0,1,1,2.16-2.16A2.17,2.17,0,0,1,266.16,121.9Z" transform="translate(-18.86)"/><path class="cls-1" d="M247.14,121.75a2,2,0,1,1,2-2A2,2,0,0,1,247.14,121.75Z" transform="translate(-18.86)"/><path class="cls-1" d="M228.13,121.59a1.85,1.85,0,1,1,1.86-1.85A1.85,1.85,0,0,1,228.13,121.59Z" transform="translate(-18.86)"/><path class="cls-1" d="M209.12,121.44a1.7,1.7,0,1,1,1.7-1.7A1.7,1.7,0,0,1,209.12,121.44Z" transform="translate(-18.86)"/><path class="cls-1" d="M190.11,121.28a1.55,1.55,0,0,1,0-3.09,1.55,1.55,0,1,1,0,3.09Z" transform="translate(-18.86)"/><path class="cls-1" d="M171.1,121.13a1.39,1.39,0,1,1,1.39-1.39A1.39,1.39,0,0,1,171.1,121.13Z" transform="translate(-18.86)"/><path class="cls-1" d="M152.09,121a1.24,1.24,0,1,1,1.23-1.24A1.25,1.25,0,0,1,152.09,121Z" transform="translate(-18.86)"/><path class="cls-1" d="M133.08,120.82a1.08,1.08,0,1,1,1.08-1.08A1.08,1.08,0,0,1,133.08,120.82Z" transform="translate(-18.86)"/><path class="cls-1" d="M114.07,120.67a.93.93,0,1,1,.92-.93A.93.93,0,0,1,114.07,120.67Z" transform="translate(-18.86)"/><path class="cls-1" d="M95.06,120.51a.77.77,0,1,1,.77-.77A.77.77,0,0,1,95.06,120.51Z" transform="translate(-18.86)"/><path class="cls-1" d="M76,120.36a.62.62,0,1,1,.62-.62A.61.61,0,0,1,76,120.36Z" transform="translate(-18.86)"/><path class="cls-1" d="M57,120.2a.46.46,0,1,1,.47-.46A.46.46,0,0,1,57,120.2Z" transform="translate(-18.86)"/><path class="cls-1" d="M38,120.05a.31.31,0,1,1,.31-.31A.31.31,0,0,1,38,120.05Z" transform="translate(-18.86)"/><path class="cls-1" d="M19,119.89a.15.15,0,0,1-.15-.15.16.16,0,0,1,.15-.16.16.16,0,0,1,.16.16A.16.16,0,0,1,19,119.89Z" transform="translate(-18.86)"/><path class="cls-1" d="M0,119.74Z" transform="translate(-18.86)"/><circle class="cls-1" cx="266.31" cy="136.51" r="2.32"/><path class="cls-1" d="M266.16,138.68a2.17,2.17,0,1,1,2.16-2.17A2.17,2.17,0,0,1,266.16,138.68Z" transform="translate(-18.86)"/><path class="cls-1" d="M247.14,138.52a2,2,0,1,1,2-2A2,2,0,0,1,247.14,138.52Z" transform="translate(-18.86)"/><path class="cls-1" d="M228.13,138.37a1.86,1.86,0,1,1,1.86-1.86A1.85,1.85,0,0,1,228.13,138.37Z" transform="translate(-18.86)"/><path class="cls-1" d="M209.12,138.21a1.7,1.7,0,1,1,1.7-1.7A1.7,1.7,0,0,1,209.12,138.21Z" transform="translate(-18.86)"/><path class="cls-1" d="M190.11,138.06a1.55,1.55,0,1,1,1.55-1.55A1.54,1.54,0,0,1,190.11,138.06Z" transform="translate(-18.86)"/><path class="cls-1" d="M171.1,137.9a1.39,1.39,0,1,1,1.39-1.39A1.39,1.39,0,0,1,171.1,137.9Z" transform="translate(-18.86)"/><path class="cls-1" d="M152.09,137.75a1.24,1.24,0,1,1,1.23-1.24A1.24,1.24,0,0,1,152.09,137.75Z" transform="translate(-18.86)"/><path class="cls-1" d="M133.08,137.6a1.09,1.09,0,1,1,1.08-1.09A1.08,1.08,0,0,1,133.08,137.6Z" transform="translate(-18.86)"/><path class="cls-1" d="M114.07,137.44a.93.93,0,1,1,.92-.93A.92.92,0,0,1,114.07,137.44Z" transform="translate(-18.86)"/><path class="cls-1" d="M95.06,137.29a.78.78,0,1,1,.77-.78A.78.78,0,0,1,95.06,137.29Z" transform="translate(-18.86)"/><path class="cls-1" d="M76,137.13a.62.62,0,1,1,.62-.62A.61.61,0,0,1,76,137.13Z" transform="translate(-18.86)"/><path class="cls-1" d="M57,137a.47.47,0,1,1,.47-.47A.47.47,0,0,1,57,137Z" transform="translate(-18.86)"/><path class="cls-1" d="M38,136.82a.31.31,0,1,1,.31-.31A.31.31,0,0,1,38,136.82Z" transform="translate(-18.86)"/><path class="cls-1" d="M19,136.67a.16.16,0,0,1-.15-.16.15.15,0,0,1,.15-.15.16.16,0,0,1,.16.15A.16.16,0,0,1,19,136.67Z" transform="translate(-18.86)"/><path class="cls-1" d="M0,136.51Z" transform="translate(-18.86)"/><circle class="cls-1" cx="266.31" cy="153.29" r="2.32"/><path class="cls-1" d="M266.16,155.45a2.16,2.16,0,1,1,2.16-2.16A2.17,2.17,0,0,1,266.16,155.45Z" transform="translate(-18.86)"/><path class="cls-1" d="M247.14,155.3a2,2,0,1,1,2-2A2,2,0,0,1,247.14,155.3Z" transform="translate(-18.86)"/><path class="cls-1" d="M228.13,155.14a1.86,1.86,0,1,1,1.86-1.85A1.85,1.85,0,0,1,228.13,155.14Z" transform="translate(-18.86)"/><path class="cls-1" d="M209.12,155a1.7,1.7,0,1,1,1.7-1.7A1.7,1.7,0,0,1,209.12,155Z" transform="translate(-18.86)"/><path class="cls-1" d="M190.11,154.83a1.55,1.55,0,1,1,1.55-1.54A1.54,1.54,0,0,1,190.11,154.83Z" transform="translate(-18.86)"/><path class="cls-1" d="M171.1,154.68a1.39,1.39,0,1,1,1.39-1.39A1.39,1.39,0,0,1,171.1,154.68Z" transform="translate(-18.86)"/><path class="cls-1" d="M152.09,154.52a1.24,1.24,0,1,1,1.23-1.23A1.24,1.24,0,0,1,152.09,154.52Z" transform="translate(-18.86)"/><path class="cls-1" d="M133.08,154.37a1.08,1.08,0,1,1,1.08-1.08A1.08,1.08,0,0,1,133.08,154.37Z" transform="translate(-18.86)"/><path class="cls-1" d="M114.07,154.22a.93.93,0,1,1,.92-.93A.93.93,0,0,1,114.07,154.22Z" transform="translate(-18.86)"/><path class="cls-1" d="M95.06,154.06a.77.77,0,1,1,.77-.77A.77.77,0,0,1,95.06,154.06Z" transform="translate(-18.86)"/><path class="cls-1" d="M76,153.91a.62.62,0,1,1,.62-.62A.61.61,0,0,1,76,153.91Z" transform="translate(-18.86)"/><path class="cls-1" d="M57,153.75a.47.47,0,1,1,.47-.46A.47.47,0,0,1,57,153.75Z" transform="translate(-18.86)"/><path class="cls-1" d="M38,153.6a.31.31,0,1,1,.31-.31A.31.31,0,0,1,38,153.6Z" transform="translate(-18.86)"/><path class="cls-1" d="M19,153.44a.15.15,0,0,1-.15-.15.16.16,0,0,1,.15-.16.16.16,0,0,1,.16.16A.16.16,0,0,1,19,153.44Z" transform="translate(-18.86)"/><path class="cls-1" d="M0,153.29Z" transform="translate(-18.86)"/><circle class="cls-1" cx="266.31" cy="170.06" r="2.32"/><path class="cls-1" d="M266.16,172.23a2.17,2.17,0,1,1,2.16-2.17A2.17,2.17,0,0,1,266.16,172.23Z" transform="translate(-18.86)"/><circle class="cls-1" cx="228.29" cy="170.06" r="2.01"/><path class="cls-1" d="M228.13,171.92a1.86,1.86,0,1,1,1.86-1.86A1.85,1.85,0,0,1,228.13,171.92Z" transform="translate(-18.86)"/><path class="cls-1" d="M209.12,171.76a1.7,1.7,0,1,1,1.7-1.7A1.7,1.7,0,0,1,209.12,171.76Z" transform="translate(-18.86)"/><path class="cls-1" d="M190.11,171.61a1.55,1.55,0,1,1,1.55-1.55A1.54,1.54,0,0,1,190.11,171.61Z" transform="translate(-18.86)"/><path class="cls-1" d="M171.1,171.45a1.39,1.39,0,1,1,1.39-1.39A1.39,1.39,0,0,1,171.1,171.45Z" transform="translate(-18.86)"/><path class="cls-1" d="M152.09,171.3a1.24,1.24,0,1,1,1.23-1.24A1.24,1.24,0,0,1,152.09,171.3Z" transform="translate(-18.86)"/><path class="cls-1" d="M133.08,171.14a1.08,1.08,0,1,1,1.08-1.08A1.08,1.08,0,0,1,133.08,171.14Z" transform="translate(-18.86)"/><path class="cls-1" d="M114.07,171a.93.93,0,1,1,0-1.85.93.93,0,0,1,0,1.85Z" transform="translate(-18.86)"/><path class="cls-1" d="M95.06,170.84a.78.78,0,1,1,.77-.78A.78.78,0,0,1,95.06,170.84Z" transform="translate(-18.86)"/><path class="cls-1" d="M76,170.68a.62.62,0,1,1,.62-.62A.61.61,0,0,1,76,170.68Z" transform="translate(-18.86)"/><path class="cls-1" d="M57,170.53a.47.47,0,1,1,.47-.47A.47.47,0,0,1,57,170.53Z" transform="translate(-18.86)"/><path class="cls-1" d="M38,170.37a.31.31,0,1,1,.31-.31A.31.31,0,0,1,38,170.37Z" transform="translate(-18.86)"/><path class="cls-1" d="M19,170.22a.16.16,0,0,1-.15-.16.15.15,0,0,1,.15-.15.16.16,0,0,1,.16.15A.16.16,0,0,1,19,170.22Z" transform="translate(-18.86)"/><path class="cls-1" d="M0,170.06Z" transform="translate(-18.86)"/><circle class="cls-1" cx="266.31" cy="186.84" r="2.32"/><path class="cls-1" d="M266.16,189a2.17,2.17,0,1,1,2.16-2.16A2.17,2.17,0,0,1,266.16,189Z" transform="translate(-18.86)"/><circle class="cls-1" cx="228.29" cy="186.84" r="2.01"/><path class="cls-1" d="M228.13,188.69a1.86,1.86,0,1,1,1.86-1.85A1.85,1.85,0,0,1,228.13,188.69Z" transform="translate(-18.86)"/><path class="cls-1" d="M209.12,188.54a1.7,1.7,0,1,1,1.7-1.7A1.7,1.7,0,0,1,209.12,188.54Z" transform="translate(-18.86)"/><path class="cls-1" d="M190.11,188.38a1.55,1.55,0,1,1,1.55-1.54A1.54,1.54,0,0,1,190.11,188.38Z" transform="translate(-18.86)"/><path class="cls-1" d="M171.1,188.23a1.39,1.39,0,1,1,1.39-1.39A1.39,1.39,0,0,1,171.1,188.23Z" transform="translate(-18.86)"/><path class="cls-1" d="M152.09,188.07a1.24,1.24,0,1,1,1.23-1.23A1.24,1.24,0,0,1,152.09,188.07Z" transform="translate(-18.86)"/><path class="cls-1" d="M133.08,187.92a1.08,1.08,0,1,1,1.08-1.08A1.08,1.08,0,0,1,133.08,187.92Z" transform="translate(-18.86)"/><path class="cls-1" d="M114.07,187.76a.93.93,0,1,1,.92-.92A.92.92,0,0,1,114.07,187.76Z" transform="translate(-18.86)"/><path class="cls-1" d="M95.06,187.61a.78.78,0,1,1,.77-.77A.78.78,0,0,1,95.06,187.61Z" transform="translate(-18.86)"/><path class="cls-1" d="M76,187.46a.62.62,0,1,1,.62-.62A.61.61,0,0,1,76,187.46Z" transform="translate(-18.86)"/><path class="cls-1" d="M57,187.3a.47.47,0,1,1,.47-.46A.47.47,0,0,1,57,187.3Z" transform="translate(-18.86)"/><path class="cls-1" d="M38,187.15a.31.31,0,1,1,.31-.31A.31.31,0,0,1,38,187.15Z" transform="translate(-18.86)"/><path class="cls-1" d="M19,187a.15.15,0,0,1-.15-.15.16.16,0,0,1,.15-.16.16.16,0,0,1,.16.16A.16.16,0,0,1,19,187Z" transform="translate(-18.86)"/><path class="cls-1" d="M0,186.84Z" transform="translate(-18.86)"/><circle class="cls-1" cx="266.31" cy="203.61" r="2.32"/><path class="cls-1" d="M266.16,205.78a2.17,2.17,0,1,1,2.16-2.17A2.17,2.17,0,0,1,266.16,205.78Z" transform="translate(-18.86)"/><circle class="cls-1" cx="228.29" cy="203.61" r="2.01"/><path class="cls-1" d="M228.13,205.47a1.86,1.86,0,1,1,1.86-1.86A1.85,1.85,0,0,1,228.13,205.47Z" transform="translate(-18.86)"/><path class="cls-1" d="M209.12,205.31a1.7,1.7,0,1,1,1.7-1.7A1.7,1.7,0,0,1,209.12,205.31Z" transform="translate(-18.86)"/><circle class="cls-1" cx="171.25" cy="203.61" r="1.55"/><path class="cls-1" d="M171.1,205a1.39,1.39,0,1,1,1.39-1.39A1.39,1.39,0,0,1,171.1,205Z" transform="translate(-18.86)"/><path class="cls-1" d="M152.09,204.85a1.24,1.24,0,1,1,0-2.47,1.24,1.24,0,0,1,0,2.47Z" transform="translate(-18.86)"/><path class="cls-1" d="M133.08,204.69a1.08,1.08,0,1,1,1.08-1.08A1.08,1.08,0,0,1,133.08,204.69Z" transform="translate(-18.86)"/><path class="cls-1" d="M114.07,204.54a.93.93,0,1,1,.92-.93A.93.93,0,0,1,114.07,204.54Z" transform="translate(-18.86)"/><path class="cls-1" d="M95.06,204.38a.77.77,0,1,1,.77-.77A.77.77,0,0,1,95.06,204.38Z" transform="translate(-18.86)"/><path class="cls-1" d="M76,204.23a.62.62,0,1,1,.62-.62A.61.61,0,0,1,76,204.23Z" transform="translate(-18.86)"/><path class="cls-1" d="M57,204.08a.47.47,0,1,1,.47-.47A.47.47,0,0,1,57,204.08Z" transform="translate(-18.86)"/><path class="cls-1" d="M38,203.92a.31.31,0,1,1,.31-.31A.31.31,0,0,1,38,203.92Z" transform="translate(-18.86)"/><path class="cls-1" d="M19,203.77a.16.16,0,0,1-.15-.16.15.15,0,0,1,.15-.15.16.16,0,0,1,.16.15A.16.16,0,0,1,19,203.77Z" transform="translate(-18.86)"/><path class="cls-1" d="M0,203.61Z" transform="translate(-18.86)"/><circle class="cls-1" cx="266.31" cy="220.39" r="2.32"/><path class="cls-1" d="M266.16,222.55a2.17,2.17,0,1,1,2.16-2.16A2.17,2.17,0,0,1,266.16,222.55Z" transform="translate(-18.86)"/><circle class="cls-1" cx="228.29" cy="220.39" r="2.01"/><path class="cls-1" d="M228.13,222.24a1.86,1.86,0,1,1,1.86-1.85A1.85,1.85,0,0,1,228.13,222.24Z" transform="translate(-18.86)"/><path class="cls-1" d="M209.12,222.09a1.7,1.7,0,1,1,1.7-1.7A1.7,1.7,0,0,1,209.12,222.09Z" transform="translate(-18.86)"/><circle class="cls-1" cx="171.25" cy="220.39" r="1.55"/><path class="cls-1" d="M171.1,221.78a1.39,1.39,0,1,1,1.39-1.39A1.39,1.39,0,0,1,171.1,221.78Z" transform="translate(-18.86)"/><path class="cls-1" d="M152.09,221.62a1.24,1.24,0,1,1,1.23-1.23A1.24,1.24,0,0,1,152.09,221.62Z" transform="translate(-18.86)"/><path class="cls-1" d="M133.08,221.47a1.09,1.09,0,1,1,1.08-1.08A1.08,1.08,0,0,1,133.08,221.47Z" transform="translate(-18.86)"/><path class="cls-1" d="M114.07,221.31a.93.93,0,1,1,.92-.92A.92.92,0,0,1,114.07,221.31Z" transform="translate(-18.86)"/><path class="cls-1" d="M95.06,221.16a.78.78,0,1,1,.77-.77A.78.78,0,0,1,95.06,221.16Z" transform="translate(-18.86)"/><path class="cls-1" d="M76,221a.62.62,0,1,1,.62-.61A.61.61,0,0,1,76,221Z" transform="translate(-18.86)"/><path class="cls-1" d="M57,220.85a.47.47,0,1,1,.47-.46A.47.47,0,0,1,57,220.85Z" transform="translate(-18.86)"/><path class="cls-1" d="M38,220.7a.31.31,0,1,1,.31-.31A.31.31,0,0,1,38,220.7Z" transform="translate(-18.86)"/><path class="cls-1" d="M19,220.54a.15.15,0,0,1-.15-.15.16.16,0,0,1,.15-.16.16.16,0,0,1,.16.16A.16.16,0,0,1,19,220.54Z" transform="translate(-18.86)"/><path class="cls-1" d="M0,220.39Z" transform="translate(-18.86)"/><circle class="cls-1" cx="266.31" cy="237.16" r="2.32"/><path class="cls-1" d="M266.16,239.32a2.16,2.16,0,1,1,2.16-2.16A2.16,2.16,0,0,1,266.16,239.32Z" transform="translate(-18.86)"/><circle class="cls-1" cx="228.29" cy="237.16" r="2.01"/><path class="cls-1" d="M228.13,239a1.86,1.86,0,1,1,1.86-1.86A1.86,1.86,0,0,1,228.13,239Z" transform="translate(-18.86)"/><path class="cls-1" d="M209.12,238.86a1.7,1.7,0,1,1,1.7-1.7A1.7,1.7,0,0,1,209.12,238.86Z" transform="translate(-18.86)"/><circle class="cls-1" cx="171.25" cy="237.16" r="1.55"/><path class="cls-1" d="M171.1,238.55a1.39,1.39,0,1,1,1.39-1.39A1.39,1.39,0,0,1,171.1,238.55Z" transform="translate(-18.86)"/><path class="cls-1" d="M152.09,238.4a1.24,1.24,0,1,1,1.23-1.24A1.25,1.25,0,0,1,152.09,238.4Z" transform="translate(-18.86)"/><circle class="cls-1" cx="114.22" cy="237.16" r="1.08"/><path class="cls-1" d="M114.07,238.09a.93.93,0,1,1,.92-.93A.93.93,0,0,1,114.07,238.09Z" transform="translate(-18.86)"/><path class="cls-1" d="M95.06,237.93a.77.77,0,1,1,.77-.77A.77.77,0,0,1,95.06,237.93Z" transform="translate(-18.86)"/><path class="cls-1" d="M76,237.78a.62.62,0,1,1,.62-.62A.61.61,0,0,1,76,237.78Z" transform="translate(-18.86)"/><path class="cls-1" d="M57,237.62a.46.46,0,1,1,.47-.46A.46.46,0,0,1,57,237.62Z" transform="translate(-18.86)"/><path class="cls-1" d="M38,237.47a.31.31,0,1,1,.31-.31A.31.31,0,0,1,38,237.47Z" transform="translate(-18.86)"/><path class="cls-1" d="M19,237.32a.16.16,0,0,1-.15-.16A.15.15,0,0,1,19,237a.16.16,0,0,1,.16.15A.16.16,0,0,1,19,237.32Z" transform="translate(-18.86)"/><path class="cls-1" d="M0,237.16Z" transform="translate(-18.86)"/><circle class="cls-1" cx="266.31" cy="253.94" r="2.32"/><path class="cls-1" d="M266.16,256.1a2.17,2.17,0,1,1,2.16-2.16A2.17,2.17,0,0,1,266.16,256.1Z" transform="translate(-18.86)"/><circle class="cls-1" cx="228.29" cy="253.94" r="2.01"/><path class="cls-1" d="M228.13,255.79a1.86,1.86,0,1,1,1.86-1.85A1.85,1.85,0,0,1,228.13,255.79Z" transform="translate(-18.86)"/><path class="cls-1" d="M209.12,255.63a1.7,1.7,0,1,1,1.7-1.69A1.7,1.7,0,0,1,209.12,255.63Z" transform="translate(-18.86)"/><circle class="cls-1" cx="171.25" cy="253.94" r="1.55"/><path class="cls-1" d="M171.1,255.33a1.4,1.4,0,1,1,1.39-1.39A1.39,1.39,0,0,1,171.1,255.33Z" transform="translate(-18.86)"/><path class="cls-1" d="M152.09,255.17a1.24,1.24,0,1,1,1.23-1.23A1.24,1.24,0,0,1,152.09,255.17Z" transform="translate(-18.86)"/><circle class="cls-1" cx="114.22" cy="253.94" r="1.08"/><path class="cls-1" d="M114.07,254.86a.93.93,0,1,1,.92-.92A.92.92,0,0,1,114.07,254.86Z" transform="translate(-18.86)"/><path class="cls-1" d="M95.06,254.71a.78.78,0,1,1,.77-.77A.78.78,0,0,1,95.06,254.71Z" transform="translate(-18.86)"/><circle class="cls-1" cx="57.19" cy="253.94" r="0.62"/><path class="cls-1" d="M57,254.4a.47.47,0,1,1,.47-.46A.47.47,0,0,1,57,254.4Z" transform="translate(-18.86)"/><path class="cls-1" d="M38,254.24a.31.31,0,1,1,.31-.3A.3.3,0,0,1,38,254.24Z" transform="translate(-18.86)"/><path class="cls-1" d="M19,254.09a.15.15,0,0,1-.15-.15.16.16,0,0,1,.15-.16.16.16,0,0,1,.16.16A.16.16,0,0,1,19,254.09Z" transform="translate(-18.86)"/><path class="cls-1" d="M0,253.94Z" transform="translate(-18.86)"/><circle class="cls-1" cx="266.31" cy="270.71" r="2.32"/><path class="cls-1" d="M266.16,272.87a2.16,2.16,0,1,1,2.16-2.16A2.17,2.17,0,0,1,266.16,272.87Z" transform="translate(-18.86)"/><circle class="cls-1" cx="228.29" cy="270.71" r="2.01"/><path class="cls-1" d="M228.13,272.56a1.85,1.85,0,1,1,1.86-1.85A1.85,1.85,0,0,1,228.13,272.56Z" transform="translate(-18.86)"/><path class="cls-1" d="M209.12,272.41a1.7,1.7,0,1,1,1.7-1.7A1.7,1.7,0,0,1,209.12,272.41Z" transform="translate(-18.86)"/><circle class="cls-1" cx="171.25" cy="270.71" r="1.55"/><path class="cls-1" d="M171.1,272.1a1.39,1.39,0,1,1,1.39-1.39A1.39,1.39,0,0,1,171.1,272.1Z" transform="translate(-18.86)"/><path class="cls-1" d="M152.09,272a1.24,1.24,0,1,1,1.23-1.24A1.25,1.25,0,0,1,152.09,272Z" transform="translate(-18.86)"/><circle class="cls-1" cx="114.22" cy="270.71" r="1.08"/><path class="cls-1" d="M114.07,271.64a.93.93,0,1,1,.92-.93A.93.93,0,0,1,114.07,271.64Z" transform="translate(-18.86)"/><path class="cls-1" d="M95.06,271.48a.77.77,0,1,1,.77-.77A.77.77,0,0,1,95.06,271.48Z" transform="translate(-18.86)"/><circle class="cls-1" cx="57.19" cy="270.71" r="0.62"/><path class="cls-1" d="M57,271.17a.46.46,0,1,1,.47-.46A.46.46,0,0,1,57,271.17Z" transform="translate(-18.86)"/><circle class="cls-1" cx="19.17" cy="270.71" r="0.31"/><path class="cls-1" d="M19,270.86a.15.15,0,0,1,0-.3.15.15,0,1,1,0,.3Z" transform="translate(-18.86)"/><path class="cls-1" d="M0,270.71Z" transform="translate(-18.86)"/><circle class="cls-1" cx="266.31" cy="287.48" r="2.32"/><path class="cls-1" d="M266.16,289.65a2.17,2.17,0,1,1,2.16-2.17A2.17,2.17,0,0,1,266.16,289.65Z" transform="translate(-18.86)"/><circle class="cls-1" cx="228.29" cy="287.48" r="2.01"/><path class="cls-1" d="M228.13,289.34a1.86,1.86,0,1,1,1.86-1.86A1.85,1.85,0,0,1,228.13,289.34Z" transform="translate(-18.86)"/><path class="cls-1" d="M209.12,289.18a1.7,1.7,0,1,1,1.7-1.7A1.7,1.7,0,0,1,209.12,289.18Z" transform="translate(-18.86)"/><circle class="cls-1" cx="171.25" cy="287.48" r="1.55"/><path class="cls-1" d="M171.1,288.87a1.39,1.39,0,1,1,1.39-1.39A1.39,1.39,0,0,1,171.1,288.87Z" transform="translate(-18.86)"/><path class="cls-1" d="M152.09,288.72a1.24,1.24,0,1,1,1.23-1.24A1.24,1.24,0,0,1,152.09,288.72Z" transform="translate(-18.86)"/><circle class="cls-1" cx="114.22" cy="287.48" r="1.08"/><path class="cls-1" d="M114.07,288.41a.93.93,0,1,1,.92-.93A.92.92,0,0,1,114.07,288.41Z" transform="translate(-18.86)"/><path class="cls-1" d="M95.06,288.26a.78.78,0,1,1,.77-.78A.78.78,0,0,1,95.06,288.26Z" transform="translate(-18.86)"/><circle class="cls-1" cx="57.19" cy="287.48" r="0.62"/><path class="cls-1" d="M57,288a.47.47,0,1,1,.47-.47A.47.47,0,0,1,57,288Z" transform="translate(-18.86)"/><circle class="cls-1" cx="19.17" cy="287.48" r="0.31"/><path class="cls-1" d="M19,287.64a.16.16,0,0,1-.15-.16.15.15,0,0,1,.15-.15.16.16,0,0,1,.16.15A.16.16,0,0,1,19,287.64Z" transform="translate(-18.86)"/><path class="cls-1" d="M0,287.48Z" transform="translate(-18.86)"/></g></g></svg>