<svg xmlns="http://www.w3.org/2000/svg" xmlns:xlink="http://www.w3.org/1999/xlink" viewBox="0 0 1044.32 618.95"><defs><style>.cls-1,.cls-4{fill:none;}.cls-2{opacity:1;}.cls-3{clip-path:url(#clip-path);}.cls-4{stroke:#000;stroke-linecap:round;stroke-linejoin:round;stroke-width:0.25px;}</style><clipPath id="clip-path" transform="translate(-208.73 -412.12)"><path class="cls-1" d="M817.18,68.7a226.72,226.72,0,0,0-72.93,211.54c3.66,19.76-14,37.06-33.61,32.54a241.77,241.77,0,0,0-296.1,245.58A252.31,252.31,0,0,0,184.21,611.5C79,702.55,67.73,863.41,159.06,968.34c90.86,104.38,249.06,116.27,354.53,26.21A252.69,252.69,0,0,0,560.86,941a160.35,160.35,0,0,0,298.22-97,233.77,233.77,0,0,0,260.1-34.52c91.11-81.07,104.33-220.28,29.91-316.89a234,234,0,0,0-66.18-58.75,228.61,228.61,0,0,0,31.61-22.64c96.07-82,106.72-227,23.08-322.19C1055.22-4.76,910.81-13.87,817.18,68.7Z"/></clipPath></defs><title>waves-grid</title><g id="Layer_2" data-name="Layer 2"><g id="Layer_1-2" data-name="Layer 1"><g class="cls-2"><g class="cls-3"><path class="cls-4" d="M208.85,742.29c36.88-9,71-23.17,84.37-61.34,4.07-11.59,3-32.23,14.67-39.53,11.44-7.18,33.65-1,46.14-.69,13.48.38,27.27,0,40.51-2.7,21.95-4.56,41.23-18.39,61.36-27.72,66.29-30.7,150.38-42,206-92.32,22-19.94,36.79-46.27,58.07-66.86C759.4,412.9,808,416.81,859.19,412.24c21.45,39.79,73.43,47.86,114,56.19,45,9.23,90.49,16.39,134.76,28.91,33.1,9.37,65.59,21.67,94.88,39.9,10,6.23,27.28,14.82,32.93,25.57,8.59,16.34-2.73,32.13,17.15,45.09-77.23,20.7-149.34,51.49-222.85,82.07-45.18,18.8-74.37,61.3-107,95.54-35.35,37-70.25,76.51-114.18,103.71-37.62,23.3-79.72,34.2-123.53,37.78-49.1,4-98.6-1.24-147.6,3.83-21.94,2.28-46.71,6.68-63.62,22-21.93,19.94-20.53,50.84-21.76,78.07-70-13.08-148.29-38.79-181.72-107.59-6.3-13-10.86-26.76-14.71-40.63a345.19,345.19,0,0,1-9.62-45C241.13,800.53,230.21,773.19,208.85,742.29Z" transform="translate(-208.73 -412.12)"/><path class="cls-4" d="M412.87,1022.89c5.92-28.8,11.26-61.09,35.8-80.26,18.95-14.81,43.64-19.88,67-22.6,53-6.19,106.65.39,159.82-3.23,46.12-3.14,90.51-14.45,129.33-40.27,44.22-29.41,78.14-71.86,111.9-112.17,22-26.26,47.16-50.06,71.42-74.34,6.28-6.28,11.83-11.33,19.68-15.42,72.09-37.52,156.66-59.6,235.16-76.92" transform="translate(-208.73 -412.12)"/><path class="cls-4" d="M380.3,1012.82C390.57,986,402,952.78,425.74,935c21.06-15.81,48.29-21.51,73.87-24.53,55.73-6.58,112.08.58,168-2.95,47.36-3,92.85-14.6,131.89-42.46,44.66-31.87,71.54-78.09,108.59-117.17,20.75-21.88,44.24-41.28,60.75-66.74,4.5-6.94,7.46-13.47,14.08-18.55,14.8-11.36,37.21-17.44,54.23-23.89,65.12-24.7,132.42-42.13,200.78-55.18" transform="translate(-208.73 -412.12)"/><path class="cls-4" d="M353.73,1001.53c14.84-25.83,31.49-50.64,53.19-71.28,21-20,50.92-25.45,78.92-28.77,58.16-6.9,116.89.78,175.22-2.86,48.47-3,94.75-15.31,133.59-45.48,39.06-30.34,66.23-73.11,98.19-110.3,16.94-19.71,43.37-39.92,52.92-64.4,3.49-8.93,4.28-17.73,11-24.9C970.64,638.73,998.44,631,1016.4,624c71.36-27.66,146.08-45.3,221.31-58.54" transform="translate(-208.73 -412.12)"/><path class="cls-4" d="M332.33,989.65c17.9-23.2,37.09-45.29,59.95-63.79C417.85,905.15,441,896,473.35,892.22c60.33-7,121.12,1.3,181.59-2.46,49.46-3.08,96.21-16.27,134.49-48.87,33-28.09,57.65-65.71,84.2-99.68,13.81-17.67,37.57-38.34,45.71-59.15,4.67-11.94,1.71-23.79,10.28-34.46,15.25-19,46.18-29.46,67.55-38.23,30.33-12.45,61.56-22.75,93.05-31.82,22.37-6.45,45-12.51,67.72-17.41,24-5.17,46-4.86,70.63-4.86" transform="translate(-208.73 -412.12)"/><path class="cls-4" d="M315.3,977.72c39.73-41.16,89.12-87.91,147.91-96.4,62.11-9,126.05,3,188.52-1.24,48.21-3.3,93.88-17.25,129.9-50.67,27-25,48.23-58,69.62-87.8,11.83-16.49,26.63-33.22,36.07-51.21,7.43-14.15,4.31-30.85,13.8-44.83,16.69-24.55,51-38.64,76.83-50.22,33.71-15.11,68.78-27.44,104.16-38,44.06-13.15,88.34-10,133.87-11.44" transform="translate(-208.73 -412.12)"/><path class="cls-4" d="M301.92,966.15c44.19-38.65,93.78-79.68,151.78-95.1,58.5-15.54,125.56,1.72,185.71-1.51,51.33-2.75,96.08-16.54,131.21-55.11a615.27,615.27,0,0,0,56-71.72q14.11-21,26.58-43.11c9.49-16.72,8.74-36,18.87-52.57,18.9-30.94,56.92-50.24,88.18-65.66,34.7-17.12,74.43-37.61,113.38-40.07,42.5-2.69,85.19-2.4,127.73-5" transform="translate(-208.73 -412.12)"/><path class="cls-4" d="M291.54,955.22c45.95-35.46,92.82-71.52,148-91.55,61.23-22.24,124.44-4.44,188-6.74,24.43-.89,51.74-3.33,74.08-14.08,17.82-8.57,33.32-23.63,47.45-37.42a368,368,0,0,0,51.2-61.81,332.33,332.33,0,0,0,20-36c9.73-19.91,13.71-42.06,25.57-60.89,23.77-37.73,66.51-62.56,104.82-82.82,14.92-7.89,31.28-18,47.84-22.25,18.42-4.75,39.36-4.52,58.38-6,42.55-3.22,85.16-5.23,127.68-9" transform="translate(-208.73 -412.12)"/><path class="cls-4" d="M283.54,945.11c47.45-33.5,94.23-70.06,148.29-92.44,29.22-12.11,58.29-19,89.85-17.29,31,1.72,61.49,6.68,92.63,6,64-1.32,123-45.95,158.38-97.91,19-27.84,27.47-61.43,44.36-90.3,26.13-44.68,79.63-90.52,128.54-107,68.59-23.06,148.41-20.72,219.68-28.72" transform="translate(-208.73 -412.12)"/><path class="cls-4" d="M277.39,935.85c49.05-32.59,95.63-70.48,148.75-96.42,23-11.24,47.75-20.16,73.32-23.15,27.77-3.25,55.64,5.43,83.48,5.89,59,1,125.36-34,161.76-80.52,19.08-24.38,30.77-55.67,46.1-82.26C820.56,607.75,868,564,924.72,545c70.19-23.47,146.31-26.51,219.17-36.11" transform="translate(-208.73 -412.12)"/><path class="cls-4" d="M272.61,927.36c47.87-30.51,91.53-67.08,139.52-97.34,21.93-13.82,45.25-26.84,70.64-33,24.46-6,46.88-.46,71.5.26,57.61,1.69,120.49-18.66,162.4-59.61,20.06-19.59,33.78-46.81,48.5-70.19,35.21-55.92,76-99.76,138.71-124.22,68.53-26.74,144.43-31.56,216.53-42.21" transform="translate(-208.73 -412.12)"/><path class="cls-4" d="M268.77,919.45c47.3-29.25,89.12-65,132.25-99.81,18.53-15,38.65-33.08,61.06-41.95,18.08-7.16,37-6.36,56.1-5.16,60.94,3.84,119.48-7,170.73-41.26,24.56-16.44,40.87-41.49,57.84-65.25C785.47,611.83,824.2,565.36,887.39,539c65.52-27.37,138.18-34,207.7-45.11" transform="translate(-208.73 -412.12)"/><path class="cls-4" d="M265.53,911.79c49.06-29.53,91.25-66.59,130.94-107.67,27.74-28.72,52.08-51,93.88-52.33,40.24-1.25,77.67,1.73,117.19-9.12,18.67-5.13,36.51-12.42,54.19-20.24,31-13.7,51-37,72.07-63.63,38.06-48,70.6-92.9,127.27-120.78,63.92-31.44,137.79-38.93,207.16-50.64" transform="translate(-208.73 -412.12)"/><path class="cls-4" d="M262.57,903.94c52.52-30.6,91.56-69.73,129.52-116.51,19.27-23.75,44.39-47.48,75.73-52.22,34.41-5.2,69.37-.34,104.05-6.85,21.63-4.06,42.52-10.6,63.5-17.1,38.41-11.9,62-33.34,87.23-65.42,34.42-43.74,68.88-87.13,119.4-113,60.94-31.24,131.69-39.76,198.27-51.34" transform="translate(-208.73 -412.12)"/><path class="cls-4" d="M259.66,895.33C313.27,865.48,349,826.51,386,778.59c16.65-21.53,33.69-49.1,61.36-57.3,29.27-8.68,62.54-3.9,92.65-8.25,23.66-3.42,46.77-9.17,69.93-15,12.75-3.2,25.75-6,37.82-11.3,27.36-12.13,44.6-34.53,63.72-56.69,31-35.9,61.68-74.31,103.18-98.54,59.32-34.64,130.53-43.93,197-55.62" transform="translate(-208.73 -412.12)"/><path class="cls-4" d="M256.62,885.28c53.5-27.92,91.13-65.28,123.56-115.84,13-20.26,24.84-49.43,48.1-60,21.82-9.92,50.64-7.67,73.85-10.27,28.19-3.16,55.89-9.21,83.45-15.8,16.95-4.05,34-8,50.06-14.94,25.87-11.15,46.28-35.18,65.31-55.33,29.52-31.27,57.91-65.28,95-87.89,56-34.15,123.75-43.7,187.26-54.75" transform="translate(-208.73 -412.12)"/><path class="cls-4" d="M253.34,873c55.94-26.65,93.62-64.15,122.3-119,9.11-17.41,16-44.46,33.95-55.45,15.85-9.72,42.64-10.16,60.38-12.52a781.14,781.14,0,0,0,92.21-18.21c51.58-13.28,90.7-34.86,129.19-72.36,26.48-25.8,50.83-53.76,81.75-74.51,53.63-36,120-45.75,182.32-56.3" transform="translate(-208.73 -412.12)"/><path class="cls-4" d="M249.77,857.48C303.32,835,344.27,792.9,367,739.33c6.46-15.26,9.61-39.53,23.14-50.48,12.39-10,35-9.32,49.73-12.7,33.42-7.66,66.88-14.14,99.82-23.82,53.3-15.68,103.84-37.94,145.12-76,23.57-21.71,44.52-46,71.05-64.28,50.57-34.92,114.09-44.43,173.39-54" transform="translate(-208.73 -412.12)"/><path class="cls-4" d="M246.22,836.44c46.38-25.74,88.1-57.55,107.08-108.78,5.08-13.72,5.92-38.83,17.55-49.4,10.21-9.29,30.86-7.66,43.55-10.18,34.78-6.9,70-18.64,103.48-30.12,54.92-18.8,115.66-39.32,159.76-78.41,22.78-20.2,42.08-44.2,67.3-61.6C791,466.16,851.4,458.29,905.43,450.22" transform="translate(-208.73 -412.12)"/><path class="cls-4" d="M240.82,804.36c43.52-20.18,82.38-46.22,97.09-94.19,3.7-12.08,3.07-33.74,12.85-43,9.61-9.06,31.57-5.93,43.71-7.67,34.78-5,69.78-20.51,102.12-33.56,57.75-23.29,127.55-40.39,175.26-82.14,20.87-18.27,37.59-40.88,59.55-58,42.46-33.05,102.14-38.51,153.69-45.42" transform="translate(-208.73 -412.12)"/><path class="cls-4" d="M228.38,772.7c39.07-14,75.23-33.51,88.67-75.28,3.77-11.73,2.25-34.61,13.09-42.77,10.15-7.63,31.2-3.2,42.93-3.84,37.88-2,69.61-18.58,103.31-34.67,61.21-29.22,136.77-39.72,189.1-85.2,22.19-19.28,38.32-44.5,61-63.26,39.86-33,93.59-34,142.8-39.64" transform="translate(-208.73 -412.12)"/><path class="cls-4" d="M824.48,414.09c24.56,42,67.62,52.2,112.81,62.05,42.61,9.29,85.73,16.24,127.85,27.68,32.33,8.78,64.36,19.83,93.41,36.78,5.3,3.1,13,6.24,17,10.82,5.72,6.65,3.93,14.73,5.54,23.91,3.39,19.42,13.24,33.1,28.86,44.66" transform="translate(-208.73 -412.12)"/><path class="cls-4" d="M789.05,416.64c26,42.81,62.91,56.37,110.16,67.17,41.16,9.41,82.92,15.93,123.88,26.24,28,7.06,65.3,14.4,89.29,31.68,14.67,10.57,11.93,28.87,19,45.2,8.57,19.75,23.14,33.6,40.71,45.42" transform="translate(-208.73 -412.12)"/><path class="cls-4" d="M761.52,424c22.73,43,55.64,58.3,101.53,69.06,39.46,9.25,79.64,15.1,119.19,24,15.41,3.47,30.78,7.25,45.9,11.85,9.28,2.83,32.21,6.92,38.09,15.27,4.7,6.69,5,20.45,8.22,28.29a137.73,137.73,0,0,0,14.23,26.29c13.39,19.13,31.18,33.18,50.72,45.58" transform="translate(-208.73 -412.12)"/><path class="cls-4" d="M740.13,434.74c18.51,40.8,46,59.89,89,70,37.55,8.84,75.94,13.81,113.82,21,14.61,2.77,29.19,5.76,43.63,9.31,4.81,1.18,15.13,2.33,19.66,5.2,6.92,4.39,8.15,13.31,11.82,21.07,19.46,41.22,55.59,70.64,93.64,93.95" transform="translate(-208.73 -412.12)"/><path class="cls-4" d="M723.27,447.79c13.06,33.86,35.17,61.78,71.41,71.48,36,9.63,74,12.71,110.75,18.11,13.63,2,28.8,2.56,41.94,6.65,14.48,4.51,19.32,20.35,28.65,31.81,30.19,37.08,72.19,64.68,112.68,89.07" transform="translate(-208.73 -412.12)"/><path class="cls-4" d="M709.48,462.14c9.33,31.64,29,60.47,59.38,75,29.45,14,68.75,13,100.85,16,13.17,1.24,27.74.2,38.16,7.77,12.31,8.94,22.39,22.09,35,31.34,40.39,29.63,84.35,55,127.25,80.71" transform="translate(-208.73 -412.12)"/><path class="cls-4" d="M697.45,477c7.61,29.8,23.34,58.25,48.13,77.12,26.58,20.23,58.17,19.37,90.13,20.3,28.83.85,57.44,23,83.91,34.57a1167.37,1167.37,0,0,1,135.87,70.44" transform="translate(-208.73 -412.12)"/><path class="cls-4" d="M686,491.62c6.93,29.6,20.45,58,41.22,80.41,10.2,11,22.87,21.91,37.07,27.39,13.19,5.1,25.29,2,38.94,3.52,31.67,3.41,65.91,12.61,97,20,51.83,12.27,98.73,33.32,144,61.3" transform="translate(-208.73 -412.12)"/><path class="cls-4" d="M674.15,505.65c7.22,30.6,19.78,60.09,37.87,85.88,14.14,20.15,34.91,46.58,61.45,48.56,35.8,2.67,72.79-6.62,109.13-4.37,55.94,3.45,106.15,21.9,153.16,52" transform="translate(-208.73 -412.12)"/><path class="cls-4" d="M661,518.74a424.87,424.87,0,0,0,35,89.49c12.62,23.63,27.59,58.47,57.26,62.12,17.52,2.15,33.71-5,50.24-9.41a383,383,0,0,1,69.57-12.28c57-4.42,108.81,9.69,156.12,41.63" transform="translate(-208.73 -412.12)"/><path class="cls-4" d="M645.89,530.77c10.52,30.32,20.67,60.62,33.32,90.16,13.06,30.5,22.52,66.07,60.23,69.83,45.82,4.57,88.24-22.33,132.33-30.23,55.48-9.94,106.19-1.51,152.1,31.92" transform="translate(-208.73 -412.12)"/><path class="cls-4" d="M628.21,541.77c14.19,29.86,23.78,62.16,35.27,93.12,13.07,35.23,23.93,66,66.14,69.72,48.87,4.28,93.68-18.22,139.17-31.57,53.58-15.73,105.15-14,149.84,21.86" transform="translate(-208.73 -412.12)"/><path class="cls-4" d="M607.56,552c37.8,55.82,31.35,153.6,115.26,161.81,46.21,4.51,96.29-11.63,139.51-25.93,53.16-17.6,104.6-31.11,150.16,10.67" transform="translate(-208.73 -412.12)"/><path class="cls-4" d="M583.69,561.73c27,25.63,31.85,67.82,48.4,99.37,17.64,33.62,48.54,54.29,86.16,58.48,46.53,5.19,94.15-8.86,138.5-21.12,50.43-13.93,106.29-39.54,147.52,5.83" transform="translate(-208.73 -412.12)"/><path class="cls-4" d="M556.47,571.64c31.29,19.6,38.8,64.28,59.44,92.66,24,33,58.34,54,99,59.21,47.12,6,94.71-5.15,140.25-16.19,44.18-10.71,105.27-39.2,137.58,6.07" transform="translate(-208.73 -412.12)"/><path class="cls-4" d="M526,582.41c17.76,7.07,28.61,23.81,38.83,38.88,12.47,18.39,25.83,36,41.71,51.64,29,28.54,64.85,47.66,105.16,53.93,45.84,7.12,92.13-.42,137.18-9.21,32.26-6.3,112.27-36,127.56,9.49" transform="translate(-208.73 -412.12)"/><path class="cls-4" d="M492.32,594.94c21,5,35.2,22.37,50.42,36.26,16,14.59,31.57,29.6,48.49,43.14,34.35,27.48,73.14,47.81,116.6,56.11,43.31,8.27,87.41,4.71,130.79-.93,23.19-3,46.76-7.59,70.24-7.24,24.88.37,40.34,4.07,43.6,30.55" transform="translate(-208.73 -412.12)"/><path class="cls-4" d="M455.9,610.31c45.48,10,83.16,42.54,121.24,67.53,38.81,25.48,80.08,46.48,125.59,56.92,41.91,9.62,84.56,9.73,127.27,7.79,20.08-.91,41.31-3.56,61.24,0,25.52,4.59,24.75,20.55,31.79,42.94" transform="translate(-208.73 -412.12)"/><path class="cls-4" d="M424.5,626.3c8.72,7.39,23.57,6.13,33.95,8.28,13.28,2.74,26.32,7.72,38.66,13.23,21,9.38,41,21,61.15,32.15,44,24.38,88.68,46.89,137.37,60.21,41.44,11.34,83.59,14.84,126.28,17.74,14.87,1,35.49.1,49.07,7.43,15.2,8.21,16.82,35.4,22.84,50.76" transform="translate(-208.73 -412.12)"/><path class="cls-4" d="M399.45,637.17c22.73,9.34,47.64,11,71,18.3,23.78,7.43,46.54,18,69,28.66,48.1,22.8,95.68,46.35,146.46,62.73,40.33,13,81.6,19.87,122.89,28.84,13.4,2.91,32,5.1,40.05,17.5,8.84,13.67,10.62,35.11,17.65,50.16" transform="translate(-208.73 -412.12)"/><path class="cls-4" d="M377.14,640.34c43.37,22.87,94.82,29.34,140.13,48.06,52.19,21.55,102.9,46.35,155.8,66.22,39.5,14.85,81,24.92,120,41,16.48,6.82,23.55,12.2,29.71,28.85,5.29,14.32,9.76,28.92,17.19,42.35" transform="translate(-208.73 -412.12)"/><path class="cls-4" d="M357.56,640.86c42,23,88.75,35,133.47,51.43,56.32,20.65,110.56,46.94,165.6,70.73,38.6,16.68,83.21,30.07,117.84,54.39,21.89,15.37,24.78,47.21,38.86,69" transform="translate(-208.73 -412.12)"/><path class="cls-4" d="M341,640.09c38.43,22.56,80.89,37.71,121.78,55.18,58.24,24.86,116.46,48.18,173.42,76.09,36.67,18,87.65,36.33,114.72,68.14,15.6,18.34,20.71,43.09,35,62.34" transform="translate(-208.73 -412.12)"/><path class="cls-4" d="M327.59,639.19c90.1,54.34,191.65,89,284,139.52,38.21,20.93,83.33,43.55,110.85,78.5,13.76,17.47,20.65,39,35,56.18" transform="translate(-208.73 -412.12)"/><path class="cls-4" d="M317.24,639.08c39.12,23.7,80.87,41.81,121.16,63.27,48.34,25.74,97,53.14,143.84,81.51,37.43,22.68,78.45,48.19,106.74,82.33,14.39,17.36,23,38.41,38.34,55.12" transform="translate(-208.73 -412.12)"/><path class="cls-4" d="M309.71,640.48c37.59,22.63,76.92,41.89,115,63.56,42.85,24.36,82.49,54.28,123.62,81.3,36.39,23.9,75.69,51.32,104.28,84.74,15.44,18.07,26.21,39.08,43.21,56" transform="translate(-208.73 -412.12)"/><path class="cls-4" d="M304.59,643.89c36.81,22,74.66,42.36,110.93,65.24,34.38,21.7,65.17,47.39,96.5,73.15,35,28.74,72.77,54.48,102.46,89,16.47,19.16,29.85,39.84,48.67,57" transform="translate(-208.73 -412.12)"/><path class="cls-4" d="M301.27,649.6c66.19,39.58,127.62,80.58,183.6,133.85,30,28.57,61.93,55.46,89.18,86.78,17.93,20.59,34.38,41.15,55.6,58.67" transform="translate(-208.73 -412.12)"/><path class="cls-4" d="M299,657.69c34.31,20.87,68.66,42.42,98.53,69.47,22.24,20.13,41.12,43.41,61.15,65.65,24,26.62,50.67,50.47,74.53,77.23A449.74,449.74,0,0,0,596,928.8" transform="translate(-208.73 -412.12)"/><path class="cls-4" d="M296.75,668c33.2,21,67.37,43.43,92.11,74.56,16.19,20.36,27.48,44.08,43.37,64.78,36.22,47.22,81.66,88.65,130.82,121.86" transform="translate(-208.73 -412.12)"/><path class="cls-4" d="M293.46,680.23c32.84,22.27,70.25,47.86,86.31,85.95,8.65,20.51,13.67,39.91,25.82,59.19,30.56,48.5,77.65,77.87,126.32,106.12" transform="translate(-208.73 -412.12)"/><path class="cls-4" d="M287.79,693.76c33.52,25.09,70.7,54.76,76.45,99.12,2.46,19,5.7,35,14.52,52.52,25.73,51.25,75.6,67.88,125.11,91.76" transform="translate(-208.73 -412.12)"/><path class="cls-4" d="M278.25,707.83c38.66,32.87,62.39,62.28,64.3,113.2a130.9,130.9,0,0,0,9.28,45.12c6.05,14.89,14.7,29.74,26.81,40.55,10,9,20.41,12.66,33,16.56,23.3,7.22,46,16,68.82,24.68" transform="translate(-208.73 -412.12)"/><path class="cls-4" d="M263.18,721.45C284,742.16,303.69,763.21,313,791.83c5.77,17.75,4.17,33.88,4.49,52,.25,14.64,2.3,29,7.34,42.76,22.71,62.06,82.83,63.38,138.59,79.12" transform="translate(-208.73 -412.12)"/><path class="cls-4" d="M240.72,733.41c18.94,22.45,36,45.79,42.81,75,4.17,18,2.74,36.64,4.72,54.93,1.57,14.48,4.1,28.92,9.46,42.52,25.51,64.8,95,78.52,157,86.7" transform="translate(-208.73 -412.12)"/></g></g></g></g></svg>