<svg xmlns="http://www.w3.org/2000/svg" xmlns:xlink="http://www.w3.org/1999/xlink" viewBox="0 0 458.5 457.3"><defs><style>.cls-1,.cls-3{fill:none;}.cls-2{clip-path:url(#clip-path);}.cls-3{stroke:#000;stroke-linecap:round;stroke-linejoin:round;stroke-width:0.25px;}</style><clipPath id="clip-path"><rect class="cls-1" x="186.48" y="126.53" width="125.76" height="125.76" rx="62.88" ry="62.88"/></clipPath></defs><title>waves-2</title><g id="Layer_2" data-name="Layer 2"><g id="Layer_1-2" data-name="Layer 1"><g class="cls-2"><path class="cls-3" d="M186.49.12c-.47,2.06-2,4.3-1.77,6.83,1.18,14.34-3.19,28.29-3.27,42.74-.36,11.07,4.45,23,16.15,25.84,25.13,6,50.47-5.87,69.56-22,2.43-2.13,4.79-4.4,7.11-6.73s4.62-4.86,6.93-7.37,4.67-4.93,7.18-7.14c7-7.31,19.83-10.92,28.15-2.69,11.2,12.24,5.92,30.51,12.94,43.52A13,13,0,0,0,336,78.88C346.82,82.74,358.7,77.51,370,80a9.86,9.86,0,0,1,7.2,4.92,12.55,12.55,0,0,1,.71,8.54,14.5,14.5,0,0,1-4.51,7.07,86.66,86.66,0,0,0-11,18.5,63.21,63.21,0,0,0-2.64,6.74c-3.28,20-5.82,50.85,18.73,56.78,14.81,3.38,25.39-10.58,36-19.05,2.54-2.11,5.72-1.58,9.17-.63s7.19,2.33,10.86,1.91a19.07,19.07,0,0,0,9.67-2.89,57.9,57.9,0,0,0,7.5-4.56,74.21,74.21,0,0,0,6.79-5.48"/><path class="cls-3" d="M183.88,4.22c-.47,2.05-2,4.29-1.76,6.82C183,22,180.8,32.65,179.74,43.46q-.5,5-.53,10.09c-.09,11,4.63,22.77,16.31,25.54a57.52,57.52,0,0,0,8.25,1.31,61.06,61.06,0,0,0,12.17-.2,62.32,62.32,0,0,0,6.65-1.11A78,78,0,0,0,233,76a106.53,106.53,0,0,0,31.72-19.18c2.45-2.11,4.79-4.4,7.11-6.72s4.61-4.85,6.94-7.33,4.78-4.8,7.2-7.09a29.62,29.62,0,0,1,4.28-3.47,26,26,0,0,1,5.75-2.7,22.25,22.25,0,0,1,6-1.07,18.28,18.28,0,0,1,5.88.75A16.29,16.29,0,0,1,313,31.78a14.33,14.33,0,0,1,1.4,1.2c7.78,7.81,7.87,18.58,9.4,28.8.74,5,1.72,9.91,4.1,14.19a12.83,12.83,0,0,0,6.56,5.83,20.49,20.49,0,0,0,3.53,1,32.23,32.23,0,0,0,5.28.61c8.14.29,16.59-1.75,24.7.12,3,.68,5.68,2.12,7.07,5a12.37,12.37,0,0,1,.69,8.59,14.52,14.52,0,0,1-4.46,7.07,88.92,88.92,0,0,0-11,18.47,65,65,0,0,0-2.66,6.71,148.75,148.75,0,0,0-2,17.09,83.64,83.64,0,0,0,0,9.5,53.33,53.33,0,0,0,1.73,11,30.86,30.86,0,0,0,4.66,10A23.22,23.22,0,0,0,372,184.84a27,27,0,0,0,4,1.3,19.73,19.73,0,0,0,9,.09,28.48,28.48,0,0,0,9.18-4,78.64,78.64,0,0,0,8.93-7c3-2.63,5.93-5.29,8.81-7.61,2.57-2.05,5.72-1.55,9.16-.62s7.17,2.15,10.84,1.86a22.72,22.72,0,0,0,9.65-2.9,83.85,83.85,0,0,0,7.48-4.56,72.41,72.41,0,0,0,6.77-5.46"/><path class="cls-3" d="M181.28,8.31c-.48,2-2,4.29-1.76,6.81.86,10.9-1.2,21.55-2.14,32.28-.29,3.33-.43,6.66-.42,10,0,10.87,4.83,22.52,16.48,25.24a55.76,55.76,0,0,0,8.23,1.27,60.85,60.85,0,0,0,12.15-.24,63.58,63.58,0,0,0,6.62-1.15,80.38,80.38,0,0,0,10.36-3.2A108.83,108.83,0,0,0,262.35,60c2.44-2.12,4.77-4.4,7.1-6.71s4.62-4.83,6.95-7.29,4.78-4.77,7.22-7A28.52,28.52,0,0,1,288,35.58,25.88,25.88,0,0,1,293.74,33a22.75,22.75,0,0,1,6-1,18.41,18.41,0,0,1,5.91.72,16.11,16.11,0,0,1,5.11,2.55,12.86,12.86,0,0,1,1.42,1.16c7.85,7.6,8.15,18,9.83,28.26.82,5,1.84,9.9,4.24,14.21a13.22,13.22,0,0,0,6.55,5.9,20.27,20.27,0,0,0,3.49,1.06,29.88,29.88,0,0,0,5.23.7c8,.45,16.4-1.39,24.37.62,2.92.73,5.59,2.21,7,5.13a12.75,12.75,0,0,1,.66,8.65,14.47,14.47,0,0,1-4.41,7.07,91.84,91.84,0,0,0-10.95,18.43,66.68,66.68,0,0,0-2.66,6.7,146.79,146.79,0,0,0-2.11,17,83.16,83.16,0,0,0-.05,9.47,52.67,52.67,0,0,0,1.69,11,30.81,30.81,0,0,0,4.61,10,23.16,23.16,0,0,0,10,7.91,26.26,26.26,0,0,0,3.93,1.33,19.62,19.62,0,0,0,8.9.18,28.09,28.09,0,0,0,9.15-3.9,78.2,78.2,0,0,0,8.93-6.82c3-2.58,5.93-5.19,8.83-7.47,2.56-2,5.71-1.52,9.14-.6s7.16,2.1,10.82,1.8A22.94,22.94,0,0,0,439,170a85.82,85.82,0,0,0,7.46-4.55,73.59,73.59,0,0,0,6.76-5.46"/><path class="cls-3" d="M178.68,12.4c-.49,2-2,4.29-1.76,6.8.84,10.88-1.09,21.5-1.91,32.15-.25,3.3-.34,6.6-.29,9.92.16,10.77,5,22.28,16.64,24.93a55.54,55.54,0,0,0,8.22,1.24,59.81,59.81,0,0,0,12.12-.29A55,55,0,0,0,218.29,86a80.12,80.12,0,0,0,10.28-3.27A110.71,110.71,0,0,0,260,63.28c2.43-2.11,4.76-4.39,7.09-6.68s4.62-4.82,7-7.26,4.79-4.74,7.24-7A28.44,28.44,0,0,1,285.61,39a27,27,0,0,1,5.83-2.54,23.49,23.49,0,0,1,6-1,19.12,19.12,0,0,1,5.94.69,16.73,16.73,0,0,1,5.15,2.47A12.76,12.76,0,0,1,310,39.73c7.92,7.38,8.42,17.48,10.26,27.72.89,5,2,9.89,4.38,14.21a13.62,13.62,0,0,0,6.53,6,21.91,21.91,0,0,0,3.47,1.12,31.53,31.53,0,0,0,5.17.79c7.95.61,16.21-1,24.05,1.11,2.87.78,5.49,2.3,6.83,5.24a13,13,0,0,1,.64,8.69,14.55,14.55,0,0,1-4.37,7.08A94.93,94.93,0,0,0,356,130.07a66.4,66.4,0,0,0-2.67,6.68,145.21,145.21,0,0,0-2.19,16.95,80.59,80.59,0,0,0-.09,9.45,52.57,52.57,0,0,0,1.65,11,30.84,30.84,0,0,0,4.55,9.95,23.32,23.32,0,0,0,9.92,7.95,26.28,26.28,0,0,0,3.9,1.35,19.7,19.7,0,0,0,8.84.27,27.83,27.83,0,0,0,9.12-3.77,74.54,74.54,0,0,0,8.93-6.67c3-2.52,5.94-5.08,8.84-7.32,2.57-2,5.71-1.49,9.13-.59s7.14,2.06,10.8,1.74a22.83,22.83,0,0,0,9.6-2.92,84.77,84.77,0,0,0,7.46-4.54,74.59,74.59,0,0,0,6.74-5.45"/><path class="cls-3" d="M176.07,16.5c-.49,2-1.94,4.28-1.75,6.78.82,10.85-1,21.44-1.67,32-.21,3.28-.27,6.55-.18,9.85.29,10.66,5.22,22,16.81,24.62a55.29,55.29,0,0,0,8.21,1.2,58.81,58.81,0,0,0,12.09-.34,54.23,54.23,0,0,0,6.56-1.22,78.94,78.94,0,0,0,10.2-3.35,112.46,112.46,0,0,0,31.2-19.52c2.44-2.11,4.76-4.39,7.09-6.67s4.63-4.8,7-7.22,4.8-4.71,7.26-6.92a28,28,0,0,1,4.42-3.34,28.47,28.47,0,0,1,5.87-2.47,25.06,25.06,0,0,1,6.06-1,20.25,20.25,0,0,1,6,.67,17,17,0,0,1,5.19,2.4,13.4,13.4,0,0,1,1.44,1.1c8,7.17,8.69,16.94,10.69,27.18,1,5,2.08,9.88,4.52,14.22a14,14,0,0,0,6.51,6A21.53,21.53,0,0,0,333,91.73a31.37,31.37,0,0,0,5.12.89c7.86.77,16-.69,23.73,1.6,2.82.84,5.39,2.39,6.7,5.35a13.37,13.37,0,0,1,.62,8.74,14.47,14.47,0,0,1-4.32,7.07A97.27,97.27,0,0,0,354,133.76a65.26,65.26,0,0,0-2.69,6.66A141.5,141.5,0,0,0,349,157.31a82.35,82.35,0,0,0-.13,9.42,53,53,0,0,0,1.6,10.93,31,31,0,0,0,4.51,10,23.35,23.35,0,0,0,9.84,8,25.54,25.54,0,0,0,3.87,1.38,19.6,19.6,0,0,0,8.77.36,27.67,27.67,0,0,0,9.09-3.64,73.07,73.07,0,0,0,8.93-6.51c3-2.47,5.95-5,8.85-7.18,2.58-1.94,5.71-1.46,9.12-.57s7.13,2,10.78,1.68a23.06,23.06,0,0,0,9.58-2.93,84.44,84.44,0,0,0,7.44-4.54A72.67,72.67,0,0,0,448,168.2"/><path class="cls-3" d="M173.47,20.59c-.49,2.05-1.93,4.28-1.75,6.77.8,10.83-.86,21.38-1.43,31.88q-.25,4.88-.06,9.76c.41,10.56,5.41,21.77,17,24.32a56.39,56.39,0,0,0,8.2,1.16,59.23,59.23,0,0,0,12.06-.38A51.76,51.76,0,0,0,214,92.84a80.24,80.24,0,0,0,10.11-3.43,115.06,115.06,0,0,0,31-19.63c2.43-2.11,4.75-4.38,7.08-6.66s4.63-4.77,7-7.19,4.8-4.67,7.28-6.85a27.45,27.45,0,0,1,4.47-3.3,29.14,29.14,0,0,1,5.91-2.39,25.76,25.76,0,0,1,6.09-1,21.24,21.24,0,0,1,6,.64,17.45,17.45,0,0,1,5.21,2.32,13.65,13.65,0,0,1,1.46,1.07c8.05,7,9,16.39,11.11,26.64,1.05,5,2.21,9.87,4.66,14.23a14.39,14.39,0,0,0,6.5,6.13,21.23,21.23,0,0,0,3.42,1.23,32.07,32.07,0,0,0,5.06,1c7.77.92,15.82-.35,23.41,2.09a10,10,0,0,1,6.58,5.45A13.77,13.77,0,0,1,367,112a14.44,14.44,0,0,1-4.27,7.08,100.29,100.29,0,0,0-10.84,18.35,69.22,69.22,0,0,0-2.7,6.63,142.33,142.33,0,0,0-2.34,16.83,79.67,79.67,0,0,0-.18,9.39,52.85,52.85,0,0,0,1.56,10.92,30.87,30.87,0,0,0,4.46,9.93,23.45,23.45,0,0,0,9.75,8,26.73,26.73,0,0,0,3.84,1.4A19.73,19.73,0,0,0,375,201a27.33,27.33,0,0,0,9.05-3.51,74.35,74.35,0,0,0,8.94-6.35c3-2.42,5.95-4.88,8.85-7,2.58-1.91,5.71-1.44,9.11-.57s7.12,2,10.75,1.63a23.24,23.24,0,0,0,9.56-2.94,86.64,86.64,0,0,0,7.43-4.53,74.29,74.29,0,0,0,6.71-5.43"/><path class="cls-3" d="M170.87,24.68c-.5,2.05-1.93,4.27-1.75,6.76.77,10.81-.74,21.33-1.19,31.74-.13,3.23-.11,6.45,0,9.68.54,10.46,5.61,21.52,17.14,24A56.23,56.23,0,0,0,193.3,98a59.74,59.74,0,0,0,12-.44,50.66,50.66,0,0,0,6.51-1.29,81.8,81.8,0,0,0,10-3.51A117.27,117.27,0,0,0,252.74,73c2.42-2.11,4.74-4.37,7.07-6.64s4.64-4.75,7-7.15,4.8-4.64,7.29-6.8a26.6,26.6,0,0,1,4.52-3.25,29.77,29.77,0,0,1,5.94-2.31,26.58,26.58,0,0,1,6.13-.92,21.4,21.4,0,0,1,6,.62A17.68,17.68,0,0,1,302,48.8a14.53,14.53,0,0,1,1.47,1c8.12,6.76,9.23,15.85,11.54,26.1,1.12,5,2.33,9.87,4.8,14.25a14.86,14.86,0,0,0,6.49,6.2,23.66,23.66,0,0,0,3.38,1.29,34.49,34.49,0,0,0,5,1.08c7.68,1.08,15.63,0,23.08,2.58a10.08,10.08,0,0,1,6.46,5.56,14.05,14.05,0,0,1,.57,8.84,14.59,14.59,0,0,1-4.22,7.08,102.87,102.87,0,0,0-10.8,18.32,68,68,0,0,0-2.72,6.61,141,141,0,0,0-2.42,16.77,79.21,79.21,0,0,0-.22,9.36,52.57,52.57,0,0,0,1.51,10.89,31,31,0,0,0,4.42,9.93,23.63,23.63,0,0,0,9.67,8.06,26.69,26.69,0,0,0,3.8,1.43,19.69,19.69,0,0,0,8.66.54,27.29,27.29,0,0,0,9-3.37,74.11,74.11,0,0,0,8.94-6.2c3-2.37,5.95-4.78,8.87-6.89,2.58-1.88,5.7-1.41,9.09-.56s7.11,1.93,10.73,1.58a23.48,23.48,0,0,0,9.54-2.95,86.3,86.3,0,0,0,7.41-4.53,72.38,72.38,0,0,0,6.7-5.42"/><path class="cls-3" d="M168.27,28.78c-.51,2-1.92,4.26-1.75,6.74.75,10.78-.63,21.27-1,31.6-.09,3.21,0,6.4.17,9.6.66,10.36,5.8,21.28,17.3,23.71a55.82,55.82,0,0,0,8.17,1.1,58.73,58.73,0,0,0,12-.49,48,48,0,0,0,6.48-1.32,84,84,0,0,0,10-3.59,119.62,119.62,0,0,0,30.68-19.86c2.42-2.11,4.74-4.37,7.07-6.63s4.64-4.73,7-7.11,4.81-4.61,7.31-6.74a26.38,26.38,0,0,1,4.56-3.21,31.82,31.82,0,0,1,6-2.24,28.53,28.53,0,0,1,6.16-.89,22.76,22.76,0,0,1,6.07.6,18,18,0,0,1,5.29,2.16,16,16,0,0,1,1.48,1c8.18,6.55,9.49,15.3,12,25.56,1.19,4.94,2.45,9.86,4.94,14.26a15.41,15.41,0,0,0,6.47,6.28,23.28,23.28,0,0,0,3.36,1.34,32.91,32.91,0,0,0,4.95,1.18c7.58,1.23,15.44.35,22.76,3.07a10.2,10.2,0,0,1,6.33,5.67,14.63,14.63,0,0,1-3.62,16,106.31,106.31,0,0,0-10.77,18.29c-1,2.15-1.94,4.34-2.73,6.59a139.63,139.63,0,0,0-2.5,16.7,78.87,78.87,0,0,0-.26,9.34,52.56,52.56,0,0,0,1.47,10.87,31.06,31.06,0,0,0,4.37,9.92,23.72,23.72,0,0,0,9.58,8.1,27.22,27.22,0,0,0,3.78,1.45,19.74,19.74,0,0,0,8.59.63,27,27,0,0,0,9-3.24,70.59,70.59,0,0,0,8.94-6.05c3-2.31,6-4.67,8.88-6.74,2.58-1.84,5.7-1.37,9.08-.54s7.1,1.88,10.71,1.52a23.39,23.39,0,0,0,9.51-3,83.58,83.58,0,0,0,7.4-4.52,73.49,73.49,0,0,0,6.69-5.41"/><path class="cls-3" d="M165.66,32.87c-.51,2-1.91,4.26-1.74,6.73.73,10.76-.51,21.22-.71,31.47-.06,3.18,0,6.34.28,9.51.79,10.26,6,21,17.47,23.41a55.59,55.59,0,0,0,8.16,1.06,59.13,59.13,0,0,0,12-.53,44.14,44.14,0,0,0,6.45-1.37,82.28,82.28,0,0,0,9.87-3.67,121.74,121.74,0,0,0,30.51-20c2.41-2.11,4.73-4.37,7.06-6.62s4.65-4.71,7-7.07,4.81-4.58,7.33-6.69A27.07,27.07,0,0,1,274,56a33.35,33.35,0,0,1,6-2.16,29.58,29.58,0,0,1,6.2-.86,23.79,23.79,0,0,1,6.1.57,18.82,18.82,0,0,1,5.32,2.08,16,16,0,0,1,1.5,1c8.25,6.34,9.76,14.76,12.4,25,1.26,4.93,2.57,9.85,5.07,14.27a15.87,15.87,0,0,0,6.46,6.35,23.14,23.14,0,0,0,3.33,1.4,34,34,0,0,0,4.9,1.28c7.49,1.39,15.25.7,22.44,3.56a10.36,10.36,0,0,1,6.21,5.77,14.93,14.93,0,0,1,.52,8.94,14.6,14.6,0,0,1-4.12,7.09,109.68,109.68,0,0,0-10.73,18.26,69.87,69.87,0,0,0-2.75,6.56,138.74,138.74,0,0,0-2.58,16.64,76.58,76.58,0,0,0-.3,9.32,52.46,52.46,0,0,0,1.43,10.85,31.11,31.11,0,0,0,4.32,9.91,23.83,23.83,0,0,0,9.5,8.13,27.22,27.22,0,0,0,3.74,1.48,19.87,19.87,0,0,0,8.53.72,26.58,26.58,0,0,0,9-3.11,71,71,0,0,0,8.94-5.89c3-2.26,6-4.57,8.89-6.6,2.59-1.8,5.7-1.34,9.07-.53s7.08,1.84,10.69,1.47a23.74,23.74,0,0,0,9.49-3,84.08,84.08,0,0,0,7.38-4.51,73.43,73.43,0,0,0,6.67-5.4"/><path class="cls-3" d="M163.06,37c-.52,2-1.9,4.26-1.74,6.72.71,10.74-.4,21.16-.48,31.33q0,4.74.41,9.43c.91,10.15,6.19,20.78,17.63,23.11a55.22,55.22,0,0,0,8.14,1,58.2,58.2,0,0,0,12-.58,43.61,43.61,0,0,0,6.43-1.4,82.22,82.22,0,0,0,9.78-3.75c10.88-4.89,21.23-12.09,30.34-20.08,2.4-2.11,4.72-4.35,7.05-6.6s4.65-4.69,7-7,4.82-4.55,7.35-6.63a26.51,26.51,0,0,1,4.66-3.12,33.56,33.56,0,0,1,6.06-2.08,31.23,31.23,0,0,1,6.23-.84A25,25,0,0,1,290,57a19.08,19.08,0,0,1,5.36,2,12.6,12.6,0,0,1,1.51.94c8.31,6.12,10,14.2,12.82,24.47,1.34,4.92,2.7,9.85,5.22,14.29a16.42,16.42,0,0,0,6.45,6.42,23.9,23.9,0,0,0,3.3,1.46,33.7,33.7,0,0,0,4.84,1.36c7.4,1.55,15.06,1.06,22.12,4.06a10.51,10.51,0,0,1,6.08,5.88,15.25,15.25,0,0,1,.5,9,14.65,14.65,0,0,1-4.08,7.09,115.12,115.12,0,0,0-10.69,18.23,70.63,70.63,0,0,0-2.75,6.54,135,135,0,0,0-2.67,16.58,76.06,76.06,0,0,0-.34,9.28,52.18,52.18,0,0,0,1.38,10.83,31.13,31.13,0,0,0,4.28,9.91,23.84,23.84,0,0,0,9.41,8.16A26.51,26.51,0,0,0,356.5,215a19.79,19.79,0,0,0,8.46.81,26.38,26.38,0,0,0,8.93-3,70.36,70.36,0,0,0,8.94-5.73c3-2.21,6-4.47,8.9-6.46,2.59-1.77,5.7-1.31,9.06-.52s7.07,1.79,10.67,1.41a23.86,23.86,0,0,0,9.47-3,85.25,85.25,0,0,0,7.36-4.51,72.87,72.87,0,0,0,6.66-5.39"/><path class="cls-3" d="M160.46,41.05c-.53,2.05-1.9,4.26-1.74,6.71.69,10.71-.3,21.1-.24,31.2,0,3.13.2,6.24.52,9.35,1,10,6.39,20.53,17.79,22.8a56.66,56.66,0,0,0,8.14,1,57.92,57.92,0,0,0,11.93-.63,41.47,41.47,0,0,0,6.4-1.43A83.57,83.57,0,0,0,213,106.2C223.76,101.23,234,94,243.12,86c2.4-2.11,4.72-4.35,7-6.59s4.66-4.66,7-7,4.83-4.51,7.37-6.57a25.75,25.75,0,0,1,4.71-3.07,35.34,35.34,0,0,1,6.09-2,32.42,32.42,0,0,1,6.27-.8,26.35,26.35,0,0,1,6.17.52,19.63,19.63,0,0,1,5.39,1.93,14.89,14.89,0,0,1,1.52.91C303.11,69.24,305,77,308,87.27c1.41,4.9,2.82,9.83,5.36,14.29a16.94,16.94,0,0,0,6.43,6.5,25.83,25.83,0,0,0,3.27,1.51,35.42,35.42,0,0,0,4.79,1.46c7.31,1.71,14.87,1.4,21.79,4.55a10.66,10.66,0,0,1,6,6,15.73,15.73,0,0,1,.48,9,14.69,14.69,0,0,1-4,7.09,119.58,119.58,0,0,0-10.66,18.2c-1,2.13-2,4.29-2.76,6.52a133.68,133.68,0,0,0-2.75,16.51,75.72,75.72,0,0,0-.38,9.26A52.08,52.08,0,0,0,336.82,199a31.08,31.08,0,0,0,4.23,9.9,24,24,0,0,0,9.33,8.2,27.79,27.79,0,0,0,3.68,1.53,19.93,19.93,0,0,0,8.4.9,26.31,26.31,0,0,0,8.9-2.84,70.32,70.32,0,0,0,8.95-5.58c3-2.15,6-4.37,8.91-6.32,2.59-1.73,5.69-1.28,9-.5s7.06,1.74,10.65,1.35a24,24,0,0,0,9.44-3,83.58,83.58,0,0,0,7.35-4.51,72.64,72.64,0,0,0,6.65-5.38"/><path class="cls-3" d="M157.85,45.15c-.53,2-1.88,4.25-1.73,6.69.67,10.69-.19,21,0,31.06.06,3.11.28,6.19.64,9.27,1.16,9.94,6.58,20.28,18,22.49a55.07,55.07,0,0,0,8.13,1,58.38,58.38,0,0,0,11.9-.67,40.32,40.32,0,0,0,6.37-1.47,87.53,87.53,0,0,0,9.63-3.91c10.71-5,20.91-12.32,30-20.3,2.39-2.11,4.71-4.35,7-6.58s4.66-4.64,7.05-7,4.84-4.48,7.39-6.51a25.24,25.24,0,0,1,4.76-3,36.8,36.8,0,0,1,6.13-1.93,33.29,33.29,0,0,1,6.3-.77,27.68,27.68,0,0,1,6.2.49A20.55,20.55,0,0,1,291,65.82a16.92,16.92,0,0,1,1.54.88c8.44,5.71,10.56,13.11,13.68,23.4,1.48,4.88,2.94,9.82,5.5,14.3a17.49,17.49,0,0,0,6.41,6.58,26,26,0,0,0,3.25,1.56,35,35,0,0,0,4.74,1.56c7.21,1.86,14.67,1.75,21.46,5a10.87,10.87,0,0,1,5.84,6.09,16.25,16.25,0,0,1,.45,9.09,14.68,14.68,0,0,1-4,7.09,123.22,123.22,0,0,0-10.62,18.18c-1,2.12-2,4.28-2.78,6.49a133.14,133.14,0,0,0-2.82,16.46,71.55,71.55,0,0,0-.43,9.23,51.8,51.8,0,0,0,1.3,10.78,31.15,31.15,0,0,0,4.18,9.89,24,24,0,0,0,9.24,8.24,27.44,27.44,0,0,0,3.65,1.56,20,20,0,0,0,8.35,1,26.15,26.15,0,0,0,8.86-2.71,66.94,66.94,0,0,0,8.95-5.43c3-2.09,6-4.26,8.92-6.17,2.6-1.69,5.69-1.25,9-.49s7,1.7,10.63,1.3a24,24,0,0,0,9.42-3,82.24,82.24,0,0,0,7.33-4.5,70.63,70.63,0,0,0,6.63-5.37"/><path class="cls-3" d="M155.25,49.24c-.54,2-1.88,4.25-1.73,6.68.65,10.67-.08,21,.24,30.92.1,3.09.36,6.14.75,9.19,1.28,9.84,6.78,20,18.12,22.19a56.24,56.24,0,0,0,8.12.92,58.25,58.25,0,0,0,11.88-.73A37.77,37.77,0,0,0,199,116.9a86.94,86.94,0,0,0,9.55-4c10.63-5.11,20.76-12.44,29.81-20.42,2.39-2.1,4.7-4.34,7-6.56S250,81.32,252.41,79a95.82,95.82,0,0,1,7.41-6.45,25.16,25.16,0,0,1,4.8-3,39.21,39.21,0,0,1,6.18-1.85,35.3,35.3,0,0,1,6.33-.75,29.85,29.85,0,0,1,6.23.47,21,21,0,0,1,5.46,1.78,16.65,16.65,0,0,1,1.55.84c8.5,5.5,10.82,12.57,14.11,22.86,1.55,4.87,3,9.82,5.63,14.32a18.26,18.26,0,0,0,6.4,6.64,27.06,27.06,0,0,0,3.22,1.63,37.53,37.53,0,0,0,4.69,1.65c7.11,2,14.48,2.1,21.14,5.53a11,11,0,0,1,5.71,6.2,16.69,16.69,0,0,1,.43,9.14,14.72,14.72,0,0,1-3.93,7.09,127.86,127.86,0,0,0-10.59,18.15c-1,2.12-2,4.26-2.79,6.47a131.94,131.94,0,0,0-2.9,16.39,71.22,71.22,0,0,0-.47,9.21,51.77,51.77,0,0,0,1.25,10.76,31.35,31.35,0,0,0,4.14,9.88,24.2,24.2,0,0,0,9.16,8.28,27.07,27.07,0,0,0,3.62,1.58,19.87,19.87,0,0,0,8.28,1.08,26,26,0,0,0,8.83-2.58,66.32,66.32,0,0,0,8.95-5.27c3-2,6-4.16,8.93-6,2.6-1.66,5.69-1.22,9-.47s7,1.65,10.61,1.24a24.19,24.19,0,0,0,9.39-3,82.89,82.89,0,0,0,7.32-4.49,73.73,73.73,0,0,0,6.62-5.36"/><path class="cls-3" d="M152.65,53.33c-.55,2-1.87,4.24-1.72,6.67.62,10.64,0,20.94.47,30.79a89,89,0,0,0,.87,9.1c1.4,9.74,7,19.78,18.28,21.89a57.3,57.3,0,0,0,8.1.88,58,58,0,0,0,11.86-.78,36.38,36.38,0,0,0,6.31-1.54,91.28,91.28,0,0,0,9.46-4.06c10.54-5.18,20.61-12.55,29.63-20.53,2.39-2.11,4.7-4.33,7-6.55s4.67-4.6,7.07-6.88a95.42,95.42,0,0,1,7.43-6.4A25.09,25.09,0,0,1,262.29,73a40.88,40.88,0,0,1,6.21-1.78,37.76,37.76,0,0,1,6.37-.71,30.09,30.09,0,0,1,6.26.44,21.76,21.76,0,0,1,5.49,1.7,15.37,15.37,0,0,1,1.56.81c8.58,5.29,11.1,12,14.55,22.32,1.62,4.86,3.17,9.81,5.77,14.33a18.91,18.91,0,0,0,6.39,6.72,28,28,0,0,0,3.19,1.68,39.28,39.28,0,0,0,4.63,1.75c7,2.17,14.29,2.45,20.82,6a11.27,11.27,0,0,1,5.58,6.31,17.15,17.15,0,0,1,.41,9.19,14.76,14.76,0,0,1-3.88,7.09A133.45,133.45,0,0,0,335.09,167c-1,2.11-2,4.25-2.81,6.45a130.44,130.44,0,0,0-3,16.32,71,71,0,0,0-.51,9.18A51.68,51.68,0,0,0,330,209.67a31.17,31.17,0,0,0,4.09,9.87,24.18,24.18,0,0,0,9.08,8.31,26.6,26.6,0,0,0,3.58,1.61,20.05,20.05,0,0,0,8.22,1.17,25.73,25.73,0,0,0,8.8-2.45,66.78,66.78,0,0,0,9-5.11c3-2,6-4.06,8.94-5.89,2.61-1.62,5.69-1.18,9-.46s7,1.61,10.59,1.19a24.52,24.52,0,0,0,9.37-3,82.56,82.56,0,0,0,7.3-4.49,73.49,73.49,0,0,0,6.61-5.35"/><path class="cls-3" d="M150,57.43c-.55,2-1.86,4.23-1.71,6.65.6,10.62.14,20.88.71,30.65a90.11,90.11,0,0,0,1,9c1.53,9.64,7.17,19.54,18.45,21.59a57.07,57.07,0,0,0,8.09.84,57.72,57.72,0,0,0,11.83-.82,35.84,35.84,0,0,0,6.28-1.58,93,93,0,0,0,9.38-4.14C214.5,114.36,224.51,107,233.51,99c2.38-2.11,4.69-4.33,7-6.54s4.68-4.58,7.08-6.84a89.15,89.15,0,0,1,7.45-6.34,24.83,24.83,0,0,1,4.9-2.91,43.73,43.73,0,0,1,6.25-1.69,39.16,39.16,0,0,1,6.4-.69,32.61,32.61,0,0,1,6.29.42A22.48,22.48,0,0,1,284.43,76c.53.24,1.07.48,1.57.77,8.64,5.09,11.36,11.48,15,21.78,1.7,4.85,3.3,9.8,5.92,14.34a19.48,19.48,0,0,0,6.37,6.8,29.83,29.83,0,0,0,3.16,1.73,40.28,40.28,0,0,0,4.58,1.85c6.93,2.33,14.1,2.79,20.49,6.51a11.52,11.52,0,0,1,5.47,6.41,17.73,17.73,0,0,1,.38,9.24,14.84,14.84,0,0,1-3.83,7.1A140.36,140.36,0,0,0,333,170.66c-1,2.1-2,4.23-2.82,6.42a129.63,129.63,0,0,0-3.06,16.27,72.26,72.26,0,0,0-.56,9.15,51.4,51.4,0,0,0,1.18,10.72,31.08,31.08,0,0,0,4,9.87,24.29,24.29,0,0,0,9,8.34,26.41,26.41,0,0,0,3.56,1.64,20,20,0,0,0,8.15,1.26,25.79,25.79,0,0,0,8.77-2.31,66.75,66.75,0,0,0,8.95-5c3-1.94,6-4,9-5.75,2.6-1.58,5.68-1.15,9-.45s7,1.57,10.57,1.13a24.77,24.77,0,0,0,9.35-3,83.7,83.7,0,0,0,7.28-4.49,70.1,70.1,0,0,0,6.59-5.34"/><path class="cls-3" d="M147.44,61.52c-.56,2-1.85,4.23-1.71,6.64.57,10.6.25,20.82.94,30.52.22,3,.6,6,1.11,8.93,1.65,9.54,7.36,19.29,18.61,21.28a57.58,57.58,0,0,0,19.88-.06,34,34,0,0,0,6.25-1.61,96,96,0,0,0,9.3-4.22c10.37-5.35,20.31-12.79,29.29-20.76,2.37-2.1,4.68-4.32,7-6.52s4.69-4.56,7.11-6.81a87.26,87.26,0,0,1,7.46-6.28,24.49,24.49,0,0,1,4.95-2.86,45.8,45.8,0,0,1,6.28-1.61,42.09,42.09,0,0,1,6.44-.66,34.8,34.8,0,0,1,6.33.39,23.61,23.61,0,0,1,5.56,1.55,16.25,16.25,0,0,1,1.58.75c8.7,4.87,11.62,10.92,15.4,21.23,1.77,4.83,3.42,9.8,6,14.36a20.45,20.45,0,0,0,6.36,6.87,29.38,29.38,0,0,0,3.14,1.78,42.51,42.51,0,0,0,4.52,1.95c6.84,2.48,13.91,3.14,20.17,7a11.75,11.75,0,0,1,5.34,6.52,18.23,18.23,0,0,1,.36,9.29,14.82,14.82,0,0,1-3.79,7.1,147.21,147.21,0,0,0-10.47,18.06c-1,2.09-2,4.22-2.84,6.4a128.53,128.53,0,0,0-3.14,16.2,70.33,70.33,0,0,0-.6,9.13,52,52,0,0,0,1.13,10.7,31.59,31.59,0,0,0,4,9.86,24.66,24.66,0,0,0,8.92,8.38,27.2,27.2,0,0,0,3.52,1.66A20.19,20.19,0,0,0,350,238a25.72,25.72,0,0,0,8.74-2.18,64.18,64.18,0,0,0,9-4.81c3-1.88,6-3.85,9-5.6,2.61-1.55,5.68-1.12,9-.43s7,1.52,10.55,1.07a24.86,24.86,0,0,0,9.32-3.05,81.86,81.86,0,0,0,7.27-4.47,73.19,73.19,0,0,0,6.58-5.33"/><path class="cls-3" d="M144.84,65.61c-.56,2-1.84,4.23-1.71,6.63.55,10.58.37,20.77,1.18,30.38.26,3,.67,5.93,1.22,8.85,1.78,9.44,7.56,19,18.78,21a55.08,55.08,0,0,0,8.06.77,57.23,57.23,0,0,0,11.78-.91,32.55,32.55,0,0,0,6.22-1.66,97.89,97.89,0,0,0,9.22-4.29c10.28-5.43,20.15-12.9,29.11-20.87,2.37-2.1,4.68-4.32,7-6.51s4.7-4.53,7.12-6.77A83.3,83.3,0,0,1,250.3,86a24.66,24.66,0,0,1,5-2.82,49.6,49.6,0,0,1,6.33-1.53,42.33,42.33,0,0,1,6.47-.63,37,37,0,0,1,6.36.36A24.6,24.6,0,0,1,280,82.85a12.75,12.75,0,0,1,1.6.71c8.76,4.67,11.89,10.38,15.83,20.69,1.84,4.82,3.54,9.79,6.19,14.37a21.09,21.09,0,0,0,6.35,6.94,30.5,30.5,0,0,0,3.1,1.85,41.67,41.67,0,0,0,4.47,2c6.75,2.65,13.72,3.5,19.85,7.5a12,12,0,0,1,5.21,6.63,18.76,18.76,0,0,1,.34,9.34,15,15,0,0,1-3.74,7.1,155,155,0,0,0-10.44,18c-1,2.09-2,4.21-2.84,6.38a125.85,125.85,0,0,0-3.23,16.14,69.81,69.81,0,0,0-.64,9.09,51.72,51.72,0,0,0,1.09,10.68,31.6,31.6,0,0,0,3.94,9.86A24.79,24.79,0,0,0,336,238.6a27.51,27.51,0,0,0,3.49,1.69,20.23,20.23,0,0,0,8,1.44,25.42,25.42,0,0,0,8.71-2,64.11,64.11,0,0,0,9-4.65c3-1.83,6-3.75,9-5.46,2.61-1.51,5.68-1.09,9-.42s7,1.48,10.52,1a24.9,24.9,0,0,0,9.31-3.06,77.12,77.12,0,0,0,7.25-4.47,72.62,72.62,0,0,0,6.57-5.32"/><path class="cls-3" d="M142.23,69.7c-.56,2-1.83,4.23-1.7,6.62.53,10.55.48,20.71,1.42,30.25a85.48,85.48,0,0,0,1.34,8.77c1.9,9.33,7.75,18.78,18.94,20.67a57.86,57.86,0,0,0,19.8-.23,32.36,32.36,0,0,0,6.2-1.69,99.92,99.92,0,0,0,9.13-4.37c10.2-5.5,20-13,28.94-21,2.36-2.11,4.66-4.32,7-6.5s4.7-4.51,7.13-6.73a83,83,0,0,1,7.5-6.17,24.8,24.8,0,0,1,5-2.77,53.88,53.88,0,0,1,6.37-1.46,48.47,48.47,0,0,1,6.5-.6,39.52,39.52,0,0,1,6.39.34,26.07,26.07,0,0,1,5.63,1.4c.55.21,1.09.42,1.61.68,8.82,4.46,12.15,9.83,16.26,20.15,1.91,4.81,3.66,9.78,6.33,14.38a22,22,0,0,0,6.33,7,32.07,32.07,0,0,0,3.08,1.9,44.26,44.26,0,0,0,4.41,2.13c6.65,2.81,13.53,3.84,19.53,8a12.35,12.35,0,0,1,5.09,6.73,19.43,19.43,0,0,1,.31,9.39,14.91,14.91,0,0,1-3.69,7.1,166.41,166.41,0,0,0-10.41,18c-1,2.08-2,4.19-2.85,6.36a124.52,124.52,0,0,0-3.3,16.07,67.92,67.92,0,0,0-.69,9.07,50.93,50.93,0,0,0,1.05,10.66,31.55,31.55,0,0,0,3.89,9.85,24.9,24.9,0,0,0,8.75,8.45A28.56,28.56,0,0,0,337,243.9a20.35,20.35,0,0,0,8,1.53,25.47,25.47,0,0,0,8.69-1.92,64,64,0,0,0,8.95-4.49c3-1.78,6-3.65,9-5.32,2.62-1.47,5.68-1.06,9-.41s7,1.44,10.5,1a25.14,25.14,0,0,0,9.28-3.07,75.7,75.7,0,0,0,7.24-4.47,72.38,72.38,0,0,0,6.56-5.31"/><path class="cls-3" d="M139.63,73.8c-.57,2-1.82,4.22-1.7,6.6.51,10.53.59,20.66,1.66,30.11A86.05,86.05,0,0,0,141,119.2c2,9.23,8,18.53,19.11,20.37a57.87,57.87,0,0,0,19.76-.32,30.15,30.15,0,0,0,6.17-1.72c3-1.3,6-2.8,9-4.45C205.24,127.51,215,120,223.9,112c2.35-2.1,4.65-4.3,7-6.48s4.71-4.49,7.14-6.69a80.92,80.92,0,0,1,7.52-6.11A24.3,24.3,0,0,1,250.63,90a57,57,0,0,1,6.4-1.38,49.19,49.19,0,0,1,6.54-.57,42.31,42.31,0,0,1,6.42.31,26.79,26.79,0,0,1,5.67,1.32c.55.2,1.1.4,1.62.65,8.89,4.26,12.41,9.29,16.69,19.62,2,4.79,3.78,9.77,6.47,14.39a23,23,0,0,0,6.31,7.09,33.77,33.77,0,0,0,3.05,1.95,46.19,46.19,0,0,0,4.36,2.23c6.56,3,13.34,4.19,19.2,8.48a12.62,12.62,0,0,1,5,6.84,20,20,0,0,1,.29,9.44,15,15,0,0,1-3.64,7.1,172.85,172.85,0,0,0-10.37,18c-1,2.07-2,4.18-2.87,6.33a122.2,122.2,0,0,0-3.38,16,65.82,65.82,0,0,0-.73,9,51.56,51.56,0,0,0,1,10.64,31.7,31.7,0,0,0,3.85,9.83,24.9,24.9,0,0,0,8.66,8.49,29,29,0,0,0,3.43,1.74,19,19,0,0,0,7.91,1.62,27.7,27.7,0,0,0,8.65-1.79,62.89,62.89,0,0,0,8.95-4.33c3-1.73,6-3.55,9-5.18,2.62-1.44,5.67-1,8.94-.39s7,1.39,10.48.91a25.44,25.44,0,0,0,9.26-3.08,78.69,78.69,0,0,0,7.22-4.46,73.74,73.74,0,0,0,6.54-5.3"/><path class="cls-3" d="M137,77.89c-.58,2-1.82,4.21-1.7,6.59.49,10.51.71,20.6,1.9,30a81.61,81.61,0,0,0,1.57,8.61c2.15,9.13,8.15,18.29,19.27,20.06a57.35,57.35,0,0,0,8,.67,56.52,56.52,0,0,0,11.69-1.06,30.33,30.33,0,0,0,6.14-1.76q4.5-2,9-4.53c10-5.65,19.69-13.25,28.58-21.21,2.35-2.1,4.65-4.3,7-6.47s4.72-4.46,7.15-6.65a76.22,76.22,0,0,1,7.54-6,23.36,23.36,0,0,1,5.14-2.69,57.75,57.75,0,0,1,6.44-1.3,53.24,53.24,0,0,1,6.57-.55,47.06,47.06,0,0,1,6.45.29,28.3,28.3,0,0,1,5.7,1.25c.56.19,1.11.37,1.64.61,8.95,4,12.67,8.74,17.11,19.08,2.06,4.78,3.91,9.76,6.61,14.4a24.11,24.11,0,0,0,6.3,7.17c1,.75,2,1.4,3,2,1.46.88,2.89,1.64,4.3,2.32,6.47,3.12,13.15,4.54,18.88,9a13,13,0,0,1,4.84,6.95,20.7,20.7,0,0,1,.27,9.48,15.09,15.09,0,0,1-3.59,7.11,184,184,0,0,0-10.34,18c-1,2.07-2,4.16-2.88,6.31a121.25,121.25,0,0,0-3.46,16,65.62,65.62,0,0,0-.77,9,51.28,51.28,0,0,0,1,10.61,31.37,31.37,0,0,0,3.8,9.83,25.08,25.08,0,0,0,8.58,8.52,26.56,26.56,0,0,0,3.4,1.77,19,19,0,0,0,7.84,1.71,28,28,0,0,0,8.62-1.65,60.93,60.93,0,0,0,8.95-4.19c3-1.67,6-3.44,9-5,2.62-1.4,5.67-1,8.93-.38s6.95,1.35,10.46.86a25.64,25.64,0,0,0,9.24-3.1,77.61,77.61,0,0,0,7.21-4.45,74.82,74.82,0,0,0,6.52-5.29"/><path class="cls-3" d="M134.43,82c-.59,2-1.81,4.21-1.7,6.58.47,10.48.82,20.55,2.14,29.84a82.26,82.26,0,0,0,1.68,8.52c2.28,9,8.35,18,19.44,19.76a55.53,55.53,0,0,0,8,.63,56.3,56.3,0,0,0,11.67-1.11,28.48,28.48,0,0,0,6.11-1.79q4.46-2.06,8.9-4.61c9.94-5.72,19.54-13.37,28.41-21.32,2.35-2.11,4.64-4.3,7-6.46s4.72-4.44,7.16-6.61a75.94,75.94,0,0,1,7.56-6A23.88,23.88,0,0,1,246,96.77c2.07-.49,4.25-.93,6.48-1.23a58.28,58.28,0,0,1,6.61-.51,49.39,49.39,0,0,1,6.49.26,30,30,0,0,1,5.73,1.17c.56.18,1.12.35,1.65.58,9,3.85,12.93,8.2,17.54,18.54,2.12,4.76,4,9.75,6.75,14.41a24.79,24.79,0,0,0,6.29,7.24c1,.78,2,1.44,3,2.07,1.45.91,2.86,1.7,4.25,2.42,6.38,3.27,13,4.89,18.56,9.46a13.48,13.48,0,0,1,4.72,7,21.52,21.52,0,0,1,.24,9.54,15.15,15.15,0,0,1-3.54,7.11,195.64,195.64,0,0,0-10.3,17.92c-1,2.06-2,4.15-2.9,6.29A122,122,0,0,0,314,215a65.42,65.42,0,0,0-.81,9,50.52,50.52,0,0,0,.92,10.6,31.66,31.66,0,0,0,3.75,9.82,25.26,25.26,0,0,0,8.49,8.56,26.88,26.88,0,0,0,3.37,1.78,20.48,20.48,0,0,0,7.78,1.81,25,25,0,0,0,8.59-1.52,62,62,0,0,0,9-4c3-1.62,6-3.34,9-4.89,2.63-1.36,5.67-1,8.92-.36s6.94,1.3,10.44.79a25.63,25.63,0,0,0,9.21-3.1,77.46,77.46,0,0,0,7.2-4.45,74.23,74.23,0,0,0,6.51-5.28"/><path class="cls-3" d="M131.82,86.08c-.59,2-1.8,4.2-1.69,6.56.45,10.46.94,20.49,2.37,29.7a80.51,80.51,0,0,0,1.81,8.44c2.4,8.93,8.54,17.79,19.6,19.46a56.78,56.78,0,0,0,8,.59,55.32,55.32,0,0,0,11.64-1.16,27.44,27.44,0,0,0,6.09-1.83c2.94-1.39,5.88-3,8.81-4.68,9.85-5.79,19.38-13.48,28.24-21.44,2.34-2.1,4.63-4.29,7-6.44s4.73-4.42,7.17-6.58a74.35,74.35,0,0,1,7.58-5.93,23.2,23.2,0,0,1,5.23-2.6c2.08-.46,4.28-.87,6.52-1.15a58.45,58.45,0,0,1,6.64-.48,53.7,53.7,0,0,1,6.52.23,30.53,30.53,0,0,1,5.77,1.1c.56.16,1.12.33,1.66.54,9.07,3.65,13.19,7.65,18,18,2.19,4.75,4.15,9.75,6.89,14.42a26,26,0,0,0,6.27,7.32c1,.79,2,1.48,3,2.12,1.43.95,2.83,1.77,4.19,2.52,6.29,3.43,12.77,5.23,18.24,10a13.88,13.88,0,0,1,4.59,7.16,22,22,0,0,1,.22,9.59,15.13,15.13,0,0,1-3.5,7.11c-3.65,5.73-7.11,11.7-10.26,17.89-1,2-2,4.13-2.91,6.26a121.39,121.39,0,0,0-3.62,15.83,63.43,63.43,0,0,0-.85,9,50.93,50.93,0,0,0,.87,10.57,31.84,31.84,0,0,0,3.71,9.82,25.37,25.37,0,0,0,8.41,8.59,25.93,25.93,0,0,0,3.34,1.81,20.63,20.63,0,0,0,7.71,1.9,25,25,0,0,0,8.56-1.39,61.51,61.51,0,0,0,9-3.87c3-1.57,6-3.24,9-4.75,2.63-1.33,5.67-.94,8.91-.35s6.93,1.25,10.42.74A26,26,0,0,0,390,247.5a79.23,79.23,0,0,0,7.18-4.44,72.49,72.49,0,0,0,6.49-5.28"/><path class="cls-3" d="M129.22,90.17c-.6,2-1.79,4.2-1.69,6.55a236.74,236.74,0,0,0,2.61,29.57,79.11,79.11,0,0,0,1.92,8.35c2.52,8.83,8.74,17.54,19.77,19.16a59.6,59.6,0,0,0,8,.55,53.16,53.16,0,0,0,11.61-1.2,26.53,26.53,0,0,0,6.06-1.87q4.37-2.15,8.73-4.76c9.77-5.87,19.23-13.6,28.06-21.55,2.34-2.1,4.63-4.28,7-6.43s4.73-4.4,7.18-6.54a75.21,75.21,0,0,1,7.6-5.88,23.55,23.55,0,0,1,5.28-2.55c2.1-.43,4.3-.81,6.56-1.07s4.43-.42,6.67-.46a58.69,58.69,0,0,1,6.55.21,33.27,33.27,0,0,1,5.8,1c.57.16,1.14.31,1.68.52,9.13,3.44,13.45,7.1,18.4,17.45,2.26,4.74,4.27,9.74,7,14.44a27.72,27.72,0,0,0,6.26,7.39c1,.81,2,1.51,2.94,2.18,1.41,1,2.8,1.82,4.14,2.61,6.2,3.58,12.58,5.58,17.92,10.45a14.31,14.31,0,0,1,4.47,7.26,23.18,23.18,0,0,1,.2,9.63,15.43,15.43,0,0,1-3.46,7.12c-3.61,5.73-7.07,11.69-10.22,17.86-1.05,2-2.05,4.12-2.92,6.24a117.37,117.37,0,0,0-3.71,15.76,63.4,63.4,0,0,0-.89,8.94,50.13,50.13,0,0,0,.83,10.55,31.89,31.89,0,0,0,3.66,9.81,25.76,25.76,0,0,0,8.32,8.63,27.63,27.63,0,0,0,3.31,1.83,20.88,20.88,0,0,0,7.65,2,24.77,24.77,0,0,0,8.53-1.26,59.47,59.47,0,0,0,9-3.71c3-1.51,6-3.14,9-4.61,2.63-1.29,5.66-.91,8.89-.34s6.91,1.21,10.4.69a26.23,26.23,0,0,0,9.16-3.12,79.08,79.08,0,0,0,7.17-4.44,73.93,73.93,0,0,0,6.48-5.26"/><path class="cls-3" d="M126.62,94.26c-.61,2-1.79,4.2-1.69,6.54a207.46,207.46,0,0,0,2.85,29.43,78.18,78.18,0,0,0,2,8.28c2.64,8.72,8.93,17.28,19.93,18.84a59.41,59.41,0,0,0,8,.52,52.33,52.33,0,0,0,11.58-1.25,26,26,0,0,0,6-1.9q4.32-2.19,8.65-4.84c9.69-5.94,19.08-13.71,27.89-21.66,2.33-2.1,4.62-4.28,7-6.42s4.74-4.38,7.19-6.5a71.06,71.06,0,0,1,7.62-5.82A22.9,22.9,0,0,1,239,107c2.11-.4,4.33-.75,6.59-1s4.46-.39,6.71-.42a61.77,61.77,0,0,1,6.58.19,34.74,34.74,0,0,1,5.84.93c.57.15,1.14.29,1.69.49,9.19,3.23,13.71,6.55,18.82,16.91,2.34,4.73,4.39,9.73,7.17,14.45a29,29,0,0,0,6.24,7.47c1,.82,2,1.54,2.92,2.23,1.39,1,2.76,1.89,4.08,2.7,6.1,3.75,12.39,5.94,17.59,11a14.73,14.73,0,0,1,4.35,7.36,24,24,0,0,1,.18,9.69,15.49,15.49,0,0,1-3.41,7.12c-3.57,5.73-7,11.68-10.19,17.83-1.05,2-2.05,4.1-2.93,6.22a117.88,117.88,0,0,0-3.79,15.7,63,63,0,0,0-.93,8.9,50.06,50.06,0,0,0,.79,10.54,31.58,31.58,0,0,0,3.61,9.8,25.69,25.69,0,0,0,8.24,8.66,27.21,27.21,0,0,0,3.27,1.86,21,21,0,0,0,7.59,2.08,25,25,0,0,0,8.5-1.12,59.72,59.72,0,0,0,9-3.57c3-1.45,6.05-3,9.05-4.46,2.63-1.25,5.66-.87,8.88-.32s6.9,1.16,10.38.63a26.38,26.38,0,0,0,9.14-3.14,75.21,75.21,0,0,0,7.15-4.43,73.35,73.35,0,0,0,6.47-5.25"/><path class="cls-3" d="M124,98.36c-.61,2-1.77,4.19-1.68,6.52a185.58,185.58,0,0,0,3.09,29.3,74,74,0,0,0,2.15,8.19c2.77,8.62,9.13,17,20.1,18.54a59.15,59.15,0,0,0,8,.48,52.13,52.13,0,0,0,11.56-1.3,24.84,24.84,0,0,0,6-1.93c2.85-1.49,5.72-3.14,8.57-4.92,9.6-6,18.93-13.83,27.72-21.77,2.32-2.11,4.61-4.28,6.94-6.4s4.74-4.37,7.2-6.47a69,69,0,0,1,7.65-5.77,22.59,22.59,0,0,1,5.37-2.46c2.12-.36,4.35-.69,6.63-.92s4.48-.36,6.74-.4,4.48,0,6.61.17a36.51,36.51,0,0,1,5.88.86c.57.14,1.14.27,1.7.45,9.25,3,14,6,19.25,16.37,2.4,4.72,4.51,9.73,7.31,14.46A29.9,29.9,0,0,0,297,148.9c1,.84,1.94,1.59,2.88,2.29,1.38,1,2.73,1.95,4,2.8,6,3.9,12.2,6.28,17.27,11.44a15.23,15.23,0,0,1,4.22,7.47,24.77,24.77,0,0,1,.16,9.74,15.52,15.52,0,0,1-3.36,7.11c-3.53,5.74-7,11.68-10.16,17.81-1,2-2,4.09-2.94,6.19a116.1,116.1,0,0,0-3.86,15.64,61.37,61.37,0,0,0-1,8.88,50.52,50.52,0,0,0,.74,10.51,31.8,31.8,0,0,0,3.57,9.79,25.94,25.94,0,0,0,8.15,8.71,28.45,28.45,0,0,0,3.25,1.88,21.16,21.16,0,0,0,7.53,2.17,24.71,24.71,0,0,0,8.46-1,57.8,57.8,0,0,0,9-3.41c3-1.4,6-2.93,9.06-4.32,2.64-1.22,5.66-.84,8.87-.31,3.37.56,6.89,1.12,10.36.58a26.52,26.52,0,0,0,9.12-3.15,76.19,76.19,0,0,0,7.13-4.43,70.16,70.16,0,0,0,6.45-5.24"/><path class="cls-3" d="M121.41,102.45c-.62,2-1.76,4.19-1.68,6.51a165.38,165.38,0,0,0,3.33,29.16,72.44,72.44,0,0,0,2.27,8.11c2.89,8.52,9.32,16.79,20.25,18.24a57.6,57.6,0,0,0,8,.45,55,55,0,0,0,11.53-1.35,24.28,24.28,0,0,0,6-2q4.23-2.28,8.48-5c9.52-6.09,18.78-13.94,27.54-21.89,2.32-2.1,4.61-4.27,6.94-6.38s4.75-4.35,7.22-6.43a65.38,65.38,0,0,1,7.66-5.71,22.49,22.49,0,0,1,5.41-2.42c2.14-.33,4.39-.63,6.67-.84s4.51-.34,6.78-.37,4.51,0,6.65.14a39.24,39.24,0,0,1,5.9.78c.58.13,1.16.25,1.72.42,9.31,2.83,14.23,5.46,19.68,15.83,2.47,4.71,4.63,9.72,7.45,14.48a31.66,31.66,0,0,0,6.21,7.61c1,.86,1.92,1.62,2.86,2.35,1.36,1.06,2.69,2,4,2.89,5.92,4.06,12,6.63,16.95,11.93a15.9,15.9,0,0,1,4.1,7.58,26,26,0,0,1,.13,9.78,15.68,15.68,0,0,1-3.31,7.12c-3.5,5.74-6.94,11.67-10.12,17.78-1.05,2-2.07,4.07-3,6.17A115,115,0,0,0,303,233a59.85,59.85,0,0,0-1,8.86,49.72,49.72,0,0,0,.7,10.49,32,32,0,0,0,3.52,9.78,26.07,26.07,0,0,0,8.07,8.74,27.45,27.45,0,0,0,3.21,1.91A21.3,21.3,0,0,0,325,275a24.51,24.51,0,0,0,8.43-.86,57.46,57.46,0,0,0,9-3.25c3-1.35,6.05-2.83,9.06-4.18,2.65-1.18,5.66-.81,8.86-.3,3.36.55,6.88,1.08,10.34.52a26.58,26.58,0,0,0,9.09-3.15,76.74,76.74,0,0,0,7.12-4.42,73,73,0,0,0,6.44-5.23"/><path class="cls-3" d="M118.81,106.54c-.63,2-1.76,4.18-1.68,6.5a149.77,149.77,0,0,0,3.57,29,73,73,0,0,0,2.38,8c3,8.42,9.52,16.54,20.42,17.94a57.39,57.39,0,0,0,7.95.41A54.4,54.4,0,0,0,163,167a23.44,23.44,0,0,0,5.94-2c2.79-1.55,5.6-3.24,8.4-5.08,9.43-6.15,18.62-14,27.37-22,2.31-2.1,4.6-4.26,6.93-6.37s4.75-4.32,7.23-6.4a65,65,0,0,1,7.68-5.64,22.47,22.47,0,0,1,5.46-2.38c2.16-.3,4.41-.58,6.71-.77s4.53-.3,6.81-.33,4.53,0,6.68.11a41.25,41.25,0,0,1,5.94.71c.58.12,1.16.22,1.73.38,9.37,2.63,14.49,4.92,20.11,15.3,2.54,4.68,4.75,9.7,7.58,14.48a33.49,33.49,0,0,0,6.2,7.69c.95.87,1.91,1.65,2.83,2.4,1.35,1.09,2.66,2.07,3.92,3,5.83,4.21,11.83,7,16.63,12.42a16.51,16.51,0,0,1,4,7.68,26.7,26.7,0,0,1,.11,9.84,15.76,15.76,0,0,1-3.26,7.12c-3.46,5.75-6.9,11.66-10.09,17.75-1,2-2.07,4.06-3,6.15a114.41,114.41,0,0,0-4,15.51,58.11,58.11,0,0,0-1.06,8.83,49.45,49.45,0,0,0,.66,10.46,31.76,31.76,0,0,0,3.47,9.78,27.41,27.41,0,0,0,11.17,10.71,21.49,21.49,0,0,0,7.4,2.35,24.26,24.26,0,0,0,8.4-.73,58,58,0,0,0,9-3.09c3-1.3,6.06-2.73,9.08-4,2.64-1.14,5.65-.78,8.84-.28a32.74,32.74,0,0,0,10.32.46,27,27,0,0,0,9.07-3.17,74.27,74.27,0,0,0,7.1-4.41,72.8,72.8,0,0,0,6.43-5.22"/><path class="cls-3" d="M116.2,110.63c-.62,2-1.74,4.18-1.67,6.49a138.18,138.18,0,0,0,3.8,28.89,71.9,71.9,0,0,0,2.51,7.94c3.14,8.32,9.71,16.29,20.58,17.63a57.06,57.06,0,0,0,7.93.38,53.56,53.56,0,0,0,11.49-1.45,22.59,22.59,0,0,0,5.91-2q4.14-2.37,8.32-5.16c9.35-6.23,18.47-14.17,27.2-22.1,2.31-2.11,4.59-4.26,6.92-6.36s4.76-4.3,7.24-6.36a64.83,64.83,0,0,1,7.7-5.59,22.08,22.08,0,0,1,5.51-2.33c2.17-.27,4.44-.52,6.75-.69s4.55-.28,6.84-.31,4.55,0,6.71.09a44.76,44.76,0,0,1,6,.63c.59.11,1.18.21,1.75.35,9.43,2.43,14.74,4.37,20.54,14.76,2.6,4.67,4.87,9.7,7.72,14.49a35.45,35.45,0,0,0,6.19,7.77c.94.88,1.88,1.69,2.8,2.45,1.33,1.12,2.62,2.14,3.86,3.09,5.74,4.37,11.64,7.32,16.3,12.91a17.05,17.05,0,0,1,3.85,7.79,27.63,27.63,0,0,1,.09,9.89,15.79,15.79,0,0,1-3.22,7.12c-3.41,5.75-6.85,11.65-10,17.72-1.06,2-2.08,4-3,6.12a114.25,114.25,0,0,0-4.1,15.45,58,58,0,0,0-1.1,8.8,50,50,0,0,0,.61,10.45,32.23,32.23,0,0,0,3.42,9.77A26.81,26.81,0,0,0,309.5,278a28.34,28.34,0,0,0,3.15,2,21.59,21.59,0,0,0,7.34,2.44,24.06,24.06,0,0,0,8.37-.6,55.62,55.62,0,0,0,9-2.94c3-1.24,6.07-2.62,9.09-3.89,2.65-1.11,5.65-.75,8.83-.27a32.57,32.57,0,0,0,10.29.41,27.24,27.24,0,0,0,9-3.18,66.36,66.36,0,0,0,13.51-9.62"/><path class="cls-3" d="M113.6,114.73c-.63,2-1.74,4.17-1.66,6.47A126.27,126.27,0,0,0,116,150a69.63,69.63,0,0,0,2.62,7.86c3.27,8.22,9.91,16,20.75,17.33a55.37,55.37,0,0,0,7.92.34A53.88,53.88,0,0,0,158.72,174a22.15,22.15,0,0,0,5.88-2.08c2.73-1.62,5.49-3.36,8.25-5.24,9.26-6.3,18.31-14.28,27-22.22,2.31-2.1,4.59-4.25,6.92-6.34s4.76-4.28,7.25-6.32a63.47,63.47,0,0,1,7.72-5.53,22.09,22.09,0,0,1,5.56-2.3c2.18-.22,4.46-.45,6.78-.6s4.58-.25,6.87-.28,4.58,0,6.75.06a51.58,51.58,0,0,1,6,.55c.59.1,1.18.19,1.76.33,9.48,2.22,15,3.82,21,14.21,2.68,4.66,5,9.69,7.87,14.51a37.82,37.82,0,0,0,6.17,7.84c.93.9,1.87,1.72,2.77,2.5,1.32,1.15,2.59,2.2,3.81,3.19,5.64,4.53,11.45,7.67,16,13.4a17.85,17.85,0,0,1,3.73,7.9,29,29,0,0,1,.06,9.93,16,16,0,0,1-3.17,7.13c-3.37,5.75-6.81,11.64-10,17.69-1.06,2-2.08,4-3,6.1a113.34,113.34,0,0,0-4.18,15.39,56.49,56.49,0,0,0-1.14,8.77A49.22,49.22,0,0,0,295.9,263a32.28,32.28,0,0,0,3.37,9.76,28.18,28.18,0,0,0,10.94,10.83,22,22,0,0,0,7.28,2.53,24.34,24.34,0,0,0,8.34-.46,55.93,55.93,0,0,0,9-2.79c3.05-1.19,6.07-2.52,9.1-3.75,2.65-1.07,5.65-.72,8.82-.26a32.44,32.44,0,0,0,10.27.36,27.62,27.62,0,0,0,9-3.19,75.77,75.77,0,0,0,7.07-4.4,72.27,72.27,0,0,0,6.4-5.21"/><path class="cls-3" d="M111,118.82c-.64,2-1.73,4.17-1.66,6.46a117.15,117.15,0,0,0,4.27,28.62,69.48,69.48,0,0,0,2.74,7.78c3.39,8.11,10.1,15.78,20.91,17a56.62,56.62,0,0,0,7.91.3,53,53,0,0,0,11.43-1.54,21.56,21.56,0,0,0,5.86-2.12c2.69-1.64,5.43-3.41,8.16-5.31,9.17-6.37,18.16-14.4,26.84-22.33,2.3-2.1,4.58-4.25,6.91-6.33s4.77-4.26,7.26-6.28a61.49,61.49,0,0,1,7.74-5.48,22.5,22.5,0,0,1,5.6-2.25c2.2-.19,4.5-.39,6.83-.53s4.6-.22,6.9-.24,4.61,0,6.78,0a52.41,52.41,0,0,1,6.05.48c.59.09,1.19.16,1.77.29,9.54,2,15.26,3.28,21.39,13.67,2.75,4.65,5.12,9.68,8,14.52a39.24,39.24,0,0,0,6.15,7.91c.93.92,1.85,1.76,2.75,2.57,1.3,1.18,2.55,2.26,3.75,3.28,5.54,4.69,11.26,8,15.66,13.89a18.6,18.6,0,0,1,3.6,8,30.18,30.18,0,0,1,0,10,16.05,16.05,0,0,1-3.12,7.13c-3.33,5.75-6.76,11.62-10,17.65-1.07,2-2.09,4-3,6.09a112.31,112.31,0,0,0-4.27,15.32,57.45,57.45,0,0,0-1.19,8.75,49.62,49.62,0,0,0,.54,10.4,31.92,31.92,0,0,0,3.32,9.76,27.14,27.14,0,0,0,7.74,8.88,29.3,29.3,0,0,0,3.09,2,22.21,22.21,0,0,0,7.21,2.62,24.16,24.16,0,0,0,8.31-.33,55.23,55.23,0,0,0,9-2.63c3.05-1.14,6.08-2.42,9.11-3.61,2.66-1,5.65-.69,8.81-.24a32.91,32.91,0,0,0,10.25.3,27.86,27.86,0,0,0,9-3.2,76.8,76.8,0,0,0,7.05-4.4,75.29,75.29,0,0,0,6.39-5.19"/><path class="cls-3" d="M108.4,122.91c-.65,2-1.73,4.17-1.66,6.45a108.74,108.74,0,0,0,4.51,28.48,68,68,0,0,0,2.85,7.7c3.52,8,10.3,15.53,21.08,16.72a56.44,56.44,0,0,0,7.9.26,53.43,53.43,0,0,0,11.4-1.58,20.82,20.82,0,0,0,5.83-2.16q4-2.5,8.08-5.39c9.09-6.45,18-14.51,26.67-22.44,2.29-2.1,4.57-4.25,6.9-6.32s4.77-4.24,7.27-6.24A60.25,60.25,0,0,1,217,133a22,22,0,0,1,5.65-2.21c2.22-.16,4.52-.33,6.86-.45s4.63-.19,6.94-.22,4.63-.05,6.82,0a58.36,58.36,0,0,1,6.07.4c.6.08,1.2.15,1.79.26,9.6,1.83,15.51,2.73,21.82,13.13,2.81,4.64,5.24,9.68,8.14,14.53a42.28,42.28,0,0,0,6.14,8c.92.94,1.84,1.79,2.72,2.62,1.29,1.21,2.52,2.32,3.71,3.37,5.44,4.86,11.06,8.38,15.33,14.39a19.46,19.46,0,0,1,3.47,8.11,31.6,31.6,0,0,1,0,10,16,16,0,0,1-3.07,7.12c-3.29,5.76-6.72,11.62-9.94,17.63-1.06,2-2.1,4-3,6.06A109.19,109.19,0,0,0,292.1,251a56,56,0,0,0-1.24,8.72,50.18,50.18,0,0,0,.49,10.38,32.43,32.43,0,0,0,3.28,9.75,27.31,27.31,0,0,0,7.66,8.91,28.91,28.91,0,0,0,3,2,22.16,22.16,0,0,0,7.15,2.7,24,24,0,0,0,8.28-.19,54.29,54.29,0,0,0,9-2.48c3-1.08,6.08-2.31,9.12-3.46,2.65-1,5.64-.66,8.79-.23a32.79,32.79,0,0,0,10.23.25,27.82,27.82,0,0,0,9-3.22,72,72,0,0,0,7-4.39,73.15,73.15,0,0,0,6.38-5.18"/><path class="cls-3" d="M105.79,127c-.65,2-1.71,4.16-1.65,6.43a101.61,101.61,0,0,0,4.75,28.34,65.79,65.79,0,0,0,3,7.62c3.64,7.91,10.49,15.29,21.24,16.41a57.74,57.74,0,0,0,7.88.24,53.87,53.87,0,0,0,11.38-1.64,20.41,20.41,0,0,0,5.8-2.19c2.64-1.71,5.32-3.53,8-5.47,9-6.52,17.85-14.63,26.49-22.56,2.29-2.1,4.57-4.23,6.9-6.3s4.78-4.22,7.28-6.2a59.41,59.41,0,0,1,7.78-5.37,21.89,21.89,0,0,1,5.7-2.16c2.23-.13,4.55-.27,6.9-.37s4.64-.17,7-.19,4.65-.06,6.85,0,4.17.1,6.11.33c.6.07,1.21.12,1.8.22,9.66,1.63,15.77,2.19,22.25,12.59,2.88,4.63,5.36,9.67,8.28,14.55a45.09,45.09,0,0,0,6.13,8.06c.91.95,1.82,1.83,2.69,2.67,1.27,1.24,2.49,2.39,3.65,3.47,5.35,5,10.87,8.72,15,14.88a20.33,20.33,0,0,1,3.36,8.22,33.08,33.08,0,0,1,0,10.08,16.18,16.18,0,0,1-3,7.13c-3.26,5.76-6.68,11.61-9.91,17.6-1.06,2-2.1,4-3,6a109,109,0,0,0-4.42,15.2,54.75,54.75,0,0,0-1.28,8.69,49.34,49.34,0,0,0,.45,10.36,32.29,32.29,0,0,0,3.23,9.74,28.73,28.73,0,0,0,10.6,11,22.35,22.35,0,0,0,7.09,2.79,23.75,23.75,0,0,0,8.24-.06,53.66,53.66,0,0,0,9-2.32c3-1,6.08-2.21,9.13-3.32,2.66-1,5.64-.63,8.78-.21a32.66,32.66,0,0,0,10.21.18,28,28,0,0,0,9-3.22,74.81,74.81,0,0,0,7-4.38,73.2,73.2,0,0,0,6.36-5.18"/><path class="cls-3" d="M103.19,131.1c-.66,2-1.71,4.15-1.65,6.42a95.48,95.48,0,0,0,5,28.21,67.86,67.86,0,0,0,3.09,7.53c3.77,7.81,10.69,15,21.41,16.11a59.2,59.2,0,0,0,7.87.2,53.66,53.66,0,0,0,11.35-1.69,19.55,19.55,0,0,0,5.77-2.22c2.61-1.74,5.26-3.58,7.92-5.55,8.92-6.59,17.7-14.75,26.32-22.67,2.28-2.1,4.55-4.23,6.89-6.29s4.78-4.19,7.29-6.17a59.8,59.8,0,0,1,7.8-5.3,21.73,21.73,0,0,1,5.75-2.12c2.24-.09,4.57-.21,6.94-.3s4.66-.13,7-.16,4.67-.06,6.88,0,4.19.06,6.15.25c.6.06,1.21.1,1.81.19,9.72,1.43,16,1.65,22.67,12.05,2.95,4.62,5.49,9.66,8.43,14.56a48.83,48.83,0,0,0,6.11,8.14c.9,1,1.8,1.86,2.66,2.73,1.26,1.26,2.46,2.44,3.6,3.56,5.25,5.17,10.68,9.07,14.68,15.37a21.28,21.28,0,0,1,3.23,8.32,34.12,34.12,0,0,1,0,10.14,16.27,16.27,0,0,1-3,7.13c-3.22,5.77-6.64,11.6-9.87,17.57-1.07,2-2.11,4-3,6a109.86,109.86,0,0,0-4.5,15.13,54.63,54.63,0,0,0-1.32,8.67,49.2,49.2,0,0,0,.41,10.34A32.05,32.05,0,0,0,290,287a27.84,27.84,0,0,0,7.49,9,28.38,28.38,0,0,0,3,2.09,22.49,22.49,0,0,0,7,2.88,24.09,24.09,0,0,0,8.21.08,54.09,54.09,0,0,0,9-2.17c3.05-1,6.09-2.11,9.14-3.18,2.66-.92,5.64-.6,8.77-.2a33.14,33.14,0,0,0,10.19.13,28.55,28.55,0,0,0,8.93-3.23,73.39,73.39,0,0,0,7-4.38,74.38,74.38,0,0,0,6.35-5.16"/><path class="cls-3" d="M100.59,135.19c-.67,2-1.7,4.15-1.65,6.41a89.87,89.87,0,0,0,5.22,28.07,62.84,62.84,0,0,0,3.21,7.45c3.89,7.72,10.88,14.79,21.57,15.81a57.34,57.34,0,0,0,7.86.16,53.44,53.44,0,0,0,11.32-1.73,19.62,19.62,0,0,0,5.75-2.26c2.57-1.77,5.2-3.64,7.83-5.63,8.84-6.67,17.55-14.86,26.15-22.78,2.27-2.1,4.54-4.23,6.88-6.28s4.79-4.17,7.3-6.13a57.66,57.66,0,0,1,7.82-5.24,21.37,21.37,0,0,1,5.8-2.08c2.25-.06,4.6-.16,7-.22s4.69-.11,7-.13l6.91-.07c2.15,0,4.22,0,6.18.17.62,0,1.23.09,1.83.16,9.78,1.24,16.28,1.1,23.1,11.52,3,4.6,5.6,9.65,8.56,14.56a52.75,52.75,0,0,0,6.1,8.21c.9,1,1.79,1.9,2.64,2.79l3.54,3.66c5.16,5.33,10.49,9.42,14.36,15.86a22.28,22.28,0,0,1,3.1,8.43,35.87,35.87,0,0,1-.05,10.19,16.31,16.31,0,0,1-2.93,7.13c-3.17,5.77-6.58,11.59-9.83,17.54-1.07,2-2.11,4-3.06,6a107.71,107.71,0,0,0-4.58,15.07,54.4,54.4,0,0,0-1.36,8.64,49.76,49.76,0,0,0,.36,10.32,32.38,32.38,0,0,0,3.14,9.72,28.15,28.15,0,0,0,7.4,9,29.26,29.26,0,0,0,3,2.12,22.88,22.88,0,0,0,7,3,23.94,23.94,0,0,0,8.18.21,53.77,53.77,0,0,0,9-2c3.06-.93,6.1-2,9.15-3,2.67-.89,5.64-.57,8.76-.19a33,33,0,0,0,10.17.08,28.81,28.81,0,0,0,8.91-3.24,74.36,74.36,0,0,0,7-4.38,70.81,70.81,0,0,0,6.34-5.15"/><path class="cls-3" d="M98,139.28c-.67,2-1.69,4.15-1.64,6.4a84.44,84.44,0,0,0,5.46,27.94,62.92,62.92,0,0,0,3.32,7.36c4,7.62,11.08,14.54,21.74,15.51a58.68,58.68,0,0,0,7.84.12,52.69,52.69,0,0,0,11.3-1.78,18.62,18.62,0,0,0,5.72-2.3c2.54-1.8,5.14-3.69,7.75-5.7,8.75-6.74,17.4-15,26-22.9,2.27-2.09,4.54-4.22,6.88-6.26s4.79-4.15,7.32-6.09a57.12,57.12,0,0,1,7.83-5.19,21.59,21.59,0,0,1,5.84-2c2.28,0,4.63-.1,7-.14s4.71-.08,7.07-.1,4.72-.08,6.94-.1,4.24,0,6.22.1c.62,0,1.23.06,1.84.13,9.84,1,16.53.55,23.53,11,3.08,4.59,5.72,9.64,8.7,14.58a56.35,56.35,0,0,0,6.09,8.28c.88,1,1.76,1.94,2.6,2.84l3.49,3.76c5.07,5.48,10.3,9.76,14,16.35a23.55,23.55,0,0,1,3,8.54,37.69,37.69,0,0,1-.08,10.23,16.52,16.52,0,0,1-2.88,7.14c-3.13,5.77-6.54,11.58-9.79,17.51-1.08,2-2.13,4-3.08,6a107.37,107.37,0,0,0-4.66,15,53.06,53.06,0,0,0-1.4,8.61,49.57,49.57,0,0,0,.32,10.3,32.58,32.58,0,0,0,3.09,9.72,28.39,28.39,0,0,0,7.32,9.06,29.41,29.41,0,0,0,2.93,2.14,23,23,0,0,0,6.9,3.06,24,24,0,0,0,8.15.34,51.57,51.57,0,0,0,9-1.86c3.06-.87,6.11-1.9,9.17-2.88,2.67-.86,5.64-.55,8.74-.18a33.21,33.21,0,0,0,10.15,0,29,29,0,0,0,8.89-3.26,73.86,73.86,0,0,0,7-4.36,72.3,72.3,0,0,0,6.32-5.15"/><path class="cls-3" d="M95.38,143.38c-.68,2-1.68,4.14-1.64,6.38a79.9,79.9,0,0,0,5.7,27.8,62.46,62.46,0,0,0,3.44,7.29c4.13,7.51,11.27,14.28,21.9,15.19a56.88,56.88,0,0,0,7.83.09,52.49,52.49,0,0,0,11.27-1.83,18.12,18.12,0,0,0,5.69-2.33c2.51-1.83,5.09-3.75,7.67-5.78,8.67-6.81,17.25-15.09,25.8-23,2.27-2.1,4.53-4.21,6.87-6.25s4.79-4.13,7.33-6.05a55.15,55.15,0,0,1,7.85-5.13,21.57,21.57,0,0,1,5.89-2c2.29,0,4.66,0,7.05-.07l7.11-.07c2.41,0,4.74-.08,7-.12s4.25-.07,6.25,0c.62,0,1.23,0,1.85.1,9.9.84,16.79,0,24,10.43,3.15,4.58,5.84,9.63,8.84,14.59a60.49,60.49,0,0,0,6.07,8.36c.88,1,1.75,2,2.58,2.9,1.21,1.35,2.35,2.62,3.43,3.85,5,5.64,10.12,10.11,13.71,16.84a24.75,24.75,0,0,1,2.86,8.64,39.4,39.4,0,0,1-.1,10.29,16.67,16.67,0,0,1-2.83,7.14c-3.09,5.77-6.5,11.57-9.76,17.48-1.07,2-2.13,3.94-3.09,6a106.63,106.63,0,0,0-4.74,15,52.84,52.84,0,0,0-1.44,8.58A49.44,49.44,0,0,0,280,287.9a32.62,32.62,0,0,0,3,9.71,28.71,28.71,0,0,0,7.23,9.09,30.4,30.4,0,0,0,2.9,2.17A23.53,23.53,0,0,0,300,312a23.92,23.92,0,0,0,8.12.47,52.32,52.32,0,0,0,9-1.7c3.05-.82,6.1-1.8,9.17-2.74,2.67-.83,5.64-.52,8.73-.17a33.41,33.41,0,0,0,10.13,0,29.41,29.41,0,0,0,8.86-3.27,73.71,73.71,0,0,0,7-4.36,72,72,0,0,0,6.31-5.13"/><path class="cls-3" d="M92.78,147.47c-.69,2-1.67,4.14-1.64,6.37a75.77,75.77,0,0,0,5.94,27.67,61.71,61.71,0,0,0,3.55,7.2c4.26,7.41,11.47,14,22.07,14.89a58.32,58.32,0,0,0,7.82.05,52.18,52.18,0,0,0,11.24-1.87,17.78,17.78,0,0,0,5.66-2.37c2.49-1.86,5-3.81,7.59-5.86,8.59-6.88,17.09-15.21,25.63-23.12,2.26-2.1,4.52-4.21,6.86-6.24s4.8-4.11,7.34-6a54.49,54.49,0,0,1,7.87-5.08,21.41,21.41,0,0,1,5.94-1.94c2.3,0,4.68,0,7.09,0l7.14,0c2.42,0,4.76-.1,7-.15s4.28-.11,6.28,0c.63,0,1.25,0,1.87.06,10,.64,17-.53,24.39,9.89,3.21,4.57,6,9.63,9,14.6a66.14,66.14,0,0,0,6,8.44c.87,1,1.73,2,2.55,3,1.2,1.38,2.32,2.69,3.38,3.95,4.88,5.79,9.93,10.46,13.39,17.33a26.11,26.11,0,0,1,2.73,8.75,41.55,41.55,0,0,1-.12,10.33,16.77,16.77,0,0,1-2.78,7.15c-3.05,5.77-6.46,11.56-9.72,17.45-1.08,1.95-2.14,3.92-3.1,5.93A106.63,106.63,0,0,0,279,272.64a52.55,52.55,0,0,0-1.48,8.56,49.19,49.19,0,0,0,.23,10.25,32.56,32.56,0,0,0,3,9.71,30.33,30.33,0,0,0,10,11.32,21.09,21.09,0,0,0,14.86,3.84,50.94,50.94,0,0,0,9-1.54c3.06-.77,6.11-1.7,9.18-2.6,2.68-.79,5.64-.49,8.72-.16a33,33,0,0,0,10.11-.09,29.47,29.47,0,0,0,8.84-3.27,66.4,66.4,0,0,0,13.24-9.48"/><path class="cls-3" d="M90.17,151.56c-.69,2-1.66,4.14-1.63,6.36a72,72,0,0,0,6.18,27.53,58.23,58.23,0,0,0,3.67,7.12c4.38,7.31,11.66,13.78,22.23,14.59a58.16,58.16,0,0,0,7.81,0,52.62,52.62,0,0,0,11.21-1.93,17.46,17.46,0,0,0,5.64-2.4c2.45-1.9,5-3.87,7.51-5.94,8.49-7,16.93-15.32,25.44-23.24,2.26-2.09,4.52-4.2,6.86-6.22s4.8-4.09,7.35-6a54.81,54.81,0,0,1,7.89-5,21.39,21.39,0,0,1,6-1.9c2.32.07,4.71.08,7.13.09s4.78,0,7.17,0,4.79-.1,7-.17,4.3-.16,6.32-.13c.63,0,1.25,0,1.88,0,10,.45,17.3-1.08,24.81,9.35,3.29,4.56,6.09,9.62,9.12,14.61a73.87,73.87,0,0,0,6,8.51c.87,1,1.72,2,2.53,3,1.17,1.41,2.28,2.75,3.32,4,4.79,6,9.74,10.82,13.07,17.83a27.74,27.74,0,0,1,2.61,8.86,44,44,0,0,1-.15,10.38,16.91,16.91,0,0,1-2.73,7.14c-3,5.78-6.41,11.55-9.69,17.43-1.08,2-2.14,3.91-3.11,5.9a104.2,104.2,0,0,0-4.9,14.82,50.6,50.6,0,0,0-1.53,8.54,49.05,49.05,0,0,0,.19,10.23,32.44,32.44,0,0,0,2.95,9.69,29.4,29.4,0,0,0,7.06,9.17,31.26,31.26,0,0,0,2.84,2.22,21.23,21.23,0,0,0,14.77,4.07,51.64,51.64,0,0,0,9-1.39c3.06-.72,6.12-1.6,9.19-2.46,2.68-.75,5.64-.46,8.71-.14A33.1,33.1,0,0,0,340,316a29.55,29.55,0,0,0,8.82-3.28,73.4,73.4,0,0,0,6.94-4.36,70.84,70.84,0,0,0,6.27-5.11"/><path class="cls-3" d="M87.57,155.66c-.69,2-1.65,4.12-1.63,6.34a68.67,68.67,0,0,0,6.41,27.39,59.88,59.88,0,0,0,3.79,7c4.51,7.21,11.86,13.53,22.4,14.29a59.55,59.55,0,0,0,7.79,0,51.79,51.79,0,0,0,11.19-2,16.64,16.64,0,0,0,5.61-2.44c2.42-1.92,4.92-3.91,7.43-6,8.41-7,16.78-15.44,25.27-23.35,2.25-2.1,4.51-4.2,6.85-6.21s4.81-4.07,7.36-5.94a53.27,53.27,0,0,1,7.91-5,21,21,0,0,1,6-1.86c2.34.1,4.74.14,7.17.16s4.81,0,7.21,0,4.81-.11,7.07-.2,4.33-.22,6.35-.2c.64,0,1.27-.06,1.9,0,10.06.81,17.55-1.62,25.24,8.81,3.35,4.54,6.21,9.61,9.26,14.63a79,79,0,0,0,6,8.58c.85,1.07,1.69,2.08,2.49,3.07Q278.44,195,280,197c4.69,6.12,9.55,11.16,12.75,18.32a29.27,29.27,0,0,1,2.48,9,46.18,46.18,0,0,1-.17,10.44,17.08,17.08,0,0,1-2.68,7.14c-3,5.79-6.37,11.54-9.66,17.4-1.08,1.94-2.15,3.89-3.12,5.88a103.12,103.12,0,0,0-5,14.76,50.29,50.29,0,0,0-1.57,8.5,48.33,48.33,0,0,0,.15,10.22,32.39,32.39,0,0,0,2.9,9.68,31.06,31.06,0,0,0,9.78,11.45A21.35,21.35,0,0,0,300.53,324a50.36,50.36,0,0,0,9-1.24c3.06-.66,6.12-1.49,9.21-2.31,2.68-.72,5.63-.43,8.69-.13a33.3,33.3,0,0,0,10.06-.2,30.16,30.16,0,0,0,8.8-3.3,65.33,65.33,0,0,0,13.18-9.45"/><path class="cls-3" d="M85,159.75c-.7,2-1.65,4.12-1.63,6.33A65.67,65.67,0,0,0,90,193.34a57.88,57.88,0,0,0,3.91,6.95c4.63,7.11,12,13.28,22.55,14a57.83,57.83,0,0,0,7.79-.05,51.79,51.79,0,0,0,11.17-2,16.37,16.37,0,0,0,5.57-2.48c2.39-2,4.86-4,7.35-6.09,8.32-7.1,16.63-15.56,25.1-23.46,2.24-2.1,4.5-4.2,6.84-6.2s4.81-4,7.37-5.9a52.36,52.36,0,0,1,7.93-4.9,20.94,20.94,0,0,1,6.08-1.81c2.35.13,4.77.2,7.21.24s4.83.06,7.24.05,4.83-.12,7.1-.23,4.35-.24,6.39-.28c.64,0,1.27-.07,1.91,0,10.13.6,17.8-2.16,25.67,8.27,3.42,4.53,6.33,9.6,9.4,14.64a88.33,88.33,0,0,0,6,8.66c.85,1.08,1.68,2.11,2.47,3.12,1.15,1.46,2.21,2.87,3.21,4.23,4.6,6.27,9.36,11.51,12.42,18.81A30.3,30.3,0,0,1,293,227.9a49,49,0,0,1-.19,10.48,17.12,17.12,0,0,1-2.64,7.15c-2.93,5.79-6.32,11.53-9.61,17.37-1.09,1.93-2.16,3.88-3.14,5.86a104,104,0,0,0-5.06,14.69,47.74,47.74,0,0,0-1.51,18.67,33,33,0,0,0,2.85,9.68,30.11,30.11,0,0,0,6.9,9.24,32.67,32.67,0,0,0,2.78,2.27,24.25,24.25,0,0,0,6.59,3.51,23.94,23.94,0,0,0,8,1,50.15,50.15,0,0,0,9-1.08c3.07-.61,6.13-1.39,9.22-2.17,2.68-.68,5.63-.39,8.68-.11a33.51,33.51,0,0,0,10-.26,30.65,30.65,0,0,0,8.78-3.31,71.87,71.87,0,0,0,6.9-4.34,75.71,75.71,0,0,0,6.25-5.09"/><path class="cls-3" d="M82.36,163.84c-.7,2-1.63,4.12-1.62,6.32,0,10,3.1,19.44,6.89,27.12a58,58,0,0,0,4,6.87c4.76,7,12.25,13,22.72,13.68a59.38,59.38,0,0,0,7.78-.09,51.61,51.61,0,0,0,11.14-2.07,16.11,16.11,0,0,0,5.55-2.51c2.35-2,4.8-4,7.26-6.17,8.24-7.18,16.48-15.67,24.92-23.58,2.24-2.09,4.5-4.18,6.84-6.18s4.82-4,7.38-5.86a52.22,52.22,0,0,1,7.95-4.84,20.84,20.84,0,0,1,6.13-1.77c2.36.17,4.79.25,7.24.32s4.85.09,7.28.07,4.85-.12,7.14-.24,4.37-.3,6.42-.37c.64,0,1.28-.09,1.91-.06,10.21.38,18.07-2.71,26.11,7.72A163.19,163.19,0,0,1,265,186.85a102.07,102.07,0,0,0,6,8.74c.84,1.09,1.67,2.14,2.44,3.17,1.14,1.5,2.18,2.94,3.16,4.33,4.51,6.43,9.17,11.86,12.1,19.3a32.34,32.34,0,0,1,2.24,9.18,52.3,52.3,0,0,1-.22,10.53,17.33,17.33,0,0,1-2.59,7.15c-2.89,5.79-6.28,11.52-9.58,17.34-1.09,1.93-2.16,3.86-3.15,5.83a102.72,102.72,0,0,0-5.14,14.64,47.33,47.33,0,0,0-1.59,18.62,33,33,0,0,0,2.8,9.67,30.38,30.38,0,0,0,6.82,9.27,30.84,30.84,0,0,0,2.74,2.3,24.74,24.74,0,0,0,6.53,3.6,22.62,22.62,0,0,0,8,1.13,56.17,56.17,0,0,0,9-.92c3.06-.56,6.13-1.29,9.22-2,2.69-.64,5.63-.36,8.67-.1a33.38,33.38,0,0,0,10-.31,31.1,31.1,0,0,0,8.75-3.32,70.51,70.51,0,0,0,6.89-4.34,73.46,73.46,0,0,0,6.24-5.08"/><path class="cls-3" d="M79.76,167.94c-.71,2-1.63,4.11-1.62,6.3,0,10,3.22,19.38,7.13,27A57.68,57.68,0,0,0,89.41,208c4.88,6.9,12.45,12.77,22.88,13.37a57.53,57.53,0,0,0,7.77-.13,50.94,50.94,0,0,0,11.11-2.12,15.81,15.81,0,0,0,5.52-2.54c2.32-2,4.74-4.09,7.18-6.25,8.16-7.25,16.32-15.79,24.75-23.69,2.23-2.09,4.49-4.18,6.83-6.17s4.82-4,7.39-5.82a51.34,51.34,0,0,1,8-4.79,21.13,21.13,0,0,1,6.18-1.73c2.38.21,4.82.32,7.28.4s4.87.12,7.31.11,4.87-.13,7.17-.27,4.39-.34,6.45-.44c.65,0,1.29-.08,1.93-.1,10.28-.34,18.32-3.25,26.53,7.19a147.51,147.51,0,0,1,9.68,14.66c2,3.22,4,6.14,6,8.8l2.41,3.23c1.12,1.53,2.14,3,3.1,4.43,4.41,6.58,9,12.21,11.78,19.79a34.32,34.32,0,0,1,2.11,9.28,55.23,55.23,0,0,1-.24,10.59A17.51,17.51,0,0,1,286,253c-2.85,5.79-6.23,11.51-9.54,17.31-1.09,1.92-2.17,3.85-3.17,5.81A102.87,102.87,0,0,0,268,290.66a49.06,49.06,0,0,0-1.69,8.42,47.8,47.8,0,0,0,0,10.15,33,33,0,0,0,2.75,9.67,31,31,0,0,0,6.73,9.31,34.2,34.2,0,0,0,2.72,2.32,25,25,0,0,0,6.46,3.69,24.34,24.34,0,0,0,7.94,1.27,50.78,50.78,0,0,0,9-.77c3.06-.51,6.14-1.2,9.23-1.89,2.7-.61,5.63-.33,8.66-.09a33.59,33.59,0,0,0,10-.36,31.64,31.64,0,0,0,8.73-3.33,72.07,72.07,0,0,0,6.87-4.33,75.14,75.14,0,0,0,6.22-5.08"/><path class="cls-3" d="M77.16,172c-.72,2-1.62,4.11-1.62,6.29,0,10,3.33,19.33,7.37,26.85a55.26,55.26,0,0,0,4.25,6.71c5,6.81,12.65,12.52,23,13.07a58.92,58.92,0,0,0,7.75-.17,51.32,51.32,0,0,0,11.09-2.16,15.2,15.2,0,0,0,5.49-2.59c2.29-2.05,4.69-4.14,7.1-6.32,8.07-7.32,16.17-15.9,24.58-23.8,2.23-2.1,4.48-4.18,6.82-6.16s4.83-4,7.4-5.78a51.21,51.21,0,0,1,8-4.73,21.05,21.05,0,0,1,6.22-1.69c2.4.24,4.85.38,7.33.48s4.89.15,7.34.13,4.9-.14,7.2-.29,4.41-.38,6.49-.52c.65,0,1.3-.1,1.94-.13,10.35-.53,18.57-3.79,27,6.65a140.32,140.32,0,0,1,9.82,14.67c2,3.23,4,6.17,6,8.88.82,1.13,1.63,2.22,2.38,3.29,1.1,1.55,2.11,3,3.05,4.52,4.32,6.74,8.8,12.55,11.46,20.28a36.37,36.37,0,0,1,2,9.39,59.14,59.14,0,0,1-.26,10.63,17.69,17.69,0,0,1-2.49,7.16c-2.81,5.79-6.19,11.5-9.51,17.28-1.09,1.91-2.17,3.83-3.18,5.79a103.86,103.86,0,0,0-5.3,14.5,46.81,46.81,0,0,0-1.76,18.53,33,33,0,0,0,2.71,9.66,31.31,31.31,0,0,0,6.65,9.34,30.43,30.43,0,0,0,2.68,2.35,25.43,25.43,0,0,0,6.4,3.78,24.5,24.5,0,0,0,7.91,1.4,48.73,48.73,0,0,0,9-.62c3.07-.45,6.14-1.09,9.25-1.74a31.13,31.13,0,0,1,8.64-.07,33.83,33.83,0,0,0,10-.43,31.06,31.06,0,0,0,8.7-3.34,69.89,69.89,0,0,0,6.86-4.32,74.77,74.77,0,0,0,6.21-5.06"/><path class="cls-3" d="M74.56,176.12c-.73,2-1.62,4.11-1.61,6.28,0,9.95,3.44,19.27,7.6,26.72a54.91,54.91,0,0,0,4.37,6.62c5.13,6.71,12.84,12.27,23.21,12.76a57.09,57.09,0,0,0,7.74-.2,50.56,50.56,0,0,0,11.06-2.21,14.93,14.93,0,0,0,5.46-2.62c2.26-2.08,4.64-4.2,7-6.41,8-7.38,16-16,24.4-23.91,2.23-2.09,4.48-4.17,6.81-6.14s4.84-4,7.43-5.75a50.09,50.09,0,0,1,8-4.67,21.32,21.32,0,0,1,6.27-1.64c2.41.27,4.88.44,7.36.56s4.92.17,7.38.16,4.92-.15,7.23-.32,4.44-.43,6.53-.59l2-.17c10.41-.72,18.82-4.33,27.39,6.11a133.48,133.48,0,0,1,10,14.68c2,3.25,4,6.21,5.95,9,.82,1.15,1.61,2.25,2.36,3.34q1.62,2.37,3,4.62c4.23,6.89,8.61,12.9,11.13,20.77a38.55,38.55,0,0,1,1.87,9.5,63.72,63.72,0,0,1-.29,10.68,17.88,17.88,0,0,1-2.44,7.15c-2.77,5.8-6.15,11.5-9.47,17.26-1.1,1.9-2.19,3.82-3.19,5.76a99.78,99.78,0,0,0-5.38,14.45,47.78,47.78,0,0,0-1.79,8.37,48.86,48.86,0,0,0-.06,10.11,32.93,32.93,0,0,0,2.66,9.65,31.78,31.78,0,0,0,6.56,9.37,33.5,33.5,0,0,0,2.65,2.38,26,26,0,0,0,6.34,3.87,24.44,24.44,0,0,0,7.88,1.53,48.53,48.53,0,0,0,9-.46c3.07-.4,6.15-1,9.26-1.6a33.13,33.13,0,0,1,8.63-.06,34,34,0,0,0,10-.48,31.92,31.92,0,0,0,8.68-3.35,69.6,69.6,0,0,0,6.84-4.32,74.51,74.51,0,0,0,6.2-5.05"/><path class="cls-3" d="M72,180.21a19,19,0,0,0-1.6,6.27c-.06,9.93,3.56,19.22,7.83,26.58a55.49,55.49,0,0,0,4.49,6.54c5.26,6.61,13,12,23.38,12.46a60.39,60.39,0,0,0,7.73-.23,51,51,0,0,0,11-2.26,14.64,14.64,0,0,0,5.44-2.66c2.22-2.11,4.57-4.25,6.93-6.49,7.9-7.46,15.87-16.13,24.23-24,2.22-2.09,4.47-4.16,6.8-6.13s4.85-3.94,7.44-5.71a50.42,50.42,0,0,1,8-4.61,21.3,21.3,0,0,1,6.32-1.6c2.42.3,4.9.5,7.4.63s4.94.21,7.41.2,4.94-.16,7.26-.35,4.46-.47,6.56-.67l2-.2c10.47-.92,19.08-4.87,27.82,5.57a123.38,123.38,0,0,1,10.09,14.7c2,3.25,4,6.24,5.94,9,.81,1.16,1.6,2.28,2.33,3.39q1.61,2.41,2.94,4.71c4.13,7.06,8.42,13.26,10.81,21.27a41,41,0,0,1,1.74,9.6A66.71,66.71,0,0,1,282,257a18.18,18.18,0,0,1-2.39,7.15c-2.73,5.81-6.11,11.49-9.44,17.23-1.1,1.9-2.19,3.8-3.2,5.74a99.57,99.57,0,0,0-5.46,14.38,45.33,45.33,0,0,0-1.93,18.43,33.1,33.1,0,0,0,2.61,9.64,32.06,32.06,0,0,0,6.48,9.42,35.34,35.34,0,0,0,2.62,2.4,25.83,25.83,0,0,0,6.28,4,24.33,24.33,0,0,0,7.84,1.66,49.28,49.28,0,0,0,9-.3c3.07-.35,6.16-.89,9.27-1.46a35.91,35.91,0,0,1,8.62-.05,33.91,33.91,0,0,0,9.94-.53,32.62,32.62,0,0,0,8.66-3.36,71.13,71.13,0,0,0,6.82-4.31,72.6,72.6,0,0,0,6.18-5.05"/><path class="cls-3" d="M69.35,184.31a18.6,18.6,0,0,0-1.6,6.25c-.08,9.91,3.67,19.16,8.07,26.44a53.35,53.35,0,0,0,4.61,6.46C85.81,230,93.66,235.23,104,235.62a60,60,0,0,0,7.71-.27,50.78,50.78,0,0,0,11-2.31,14.46,14.46,0,0,0,5.41-2.69c2.19-2.15,4.52-4.31,6.86-6.57,7.81-7.53,15.71-16.24,24-24.13,2.21-2.1,4.46-4.16,6.79-6.11a92,92,0,0,1,7.45-5.68,48.82,48.82,0,0,1,8-4.55,20.91,20.91,0,0,1,6.37-1.56c2.44.34,4.93.56,7.43.71s5,.23,7.45.22,5-.16,7.3-.37,4.48-.51,6.59-.75l2-.23c10.54-1.11,19.33-5.41,28.25,5a117.61,117.61,0,0,1,10.23,14.71c2,3.26,4,6.28,5.93,9.1.8,1.18,1.57,2.33,2.3,3.46q1.58,2.46,2.88,4.8c4,7.22,8.23,13.61,10.49,21.76a44.23,44.23,0,0,1,1.61,9.71,72.18,72.18,0,0,1-.33,10.78,18.23,18.23,0,0,1-2.35,7.16c-2.69,5.81-6.05,11.48-9.4,17.2-1.1,1.89-2.19,3.79-3.21,5.72a100.23,100.23,0,0,0-5.54,14.32,46.58,46.58,0,0,0-1.87,8.31,48.58,48.58,0,0,0-.15,10.07,33.37,33.37,0,0,0,2.57,9.63,32.27,32.27,0,0,0,6.4,9.45A33.15,33.15,0,0,0,268.8,345a26.38,26.38,0,0,0,6.22,4,24.79,24.79,0,0,0,7.81,1.8,49.18,49.18,0,0,0,9-.15c3.07-.3,6.17-.79,9.28-1.32a38.65,38.65,0,0,1,8.61,0,34.16,34.16,0,0,0,9.92-.59,33,33,0,0,0,8.63-3.37,69.76,69.76,0,0,0,6.81-4.31,72,72,0,0,0,6.17-5"/><path class="cls-3" d="M66.75,188.4a18.61,18.61,0,0,0-1.6,6.24c-.1,9.88,3.79,19.1,8.31,26.31a53.32,53.32,0,0,0,4.72,6.37c5.51,6.41,13.43,11.52,23.71,11.86a59.88,59.88,0,0,0,7.7-.31,49.91,49.91,0,0,0,11-2.36c2-.68,4.11-1.45,5.38-2.72,2.16-2.18,4.46-4.37,6.78-6.65,7.73-7.6,15.55-16.36,23.87-24.25,2.21-2.09,4.46-4.15,6.79-6.09a89.47,89.47,0,0,1,7.46-5.64,49.08,49.08,0,0,1,8.06-4.5,21.17,21.17,0,0,1,6.42-1.51c2.45.37,4.95.62,7.47.79s5,.27,7.48.25,5-.17,7.33-.4,4.5-.56,6.63-.82l2-.26c10.6-1.31,19.58-6,28.67,4.48a111.31,111.31,0,0,1,10.38,14.72c2,3.27,4,6.32,5.91,9.18.79,1.2,1.56,2.36,2.27,3.51q1.56,2.51,2.83,4.9c3.95,7.37,8,13.95,10.17,22.25a47.76,47.76,0,0,1,1.49,9.82,78.83,78.83,0,0,1-.36,10.83,18.56,18.56,0,0,1-2.3,7.16,192.53,192.53,0,0,1-9.36,17.17c-1.11,1.88-2.2,3.78-3.23,5.7a99.35,99.35,0,0,0-5.62,14.25,46.73,46.73,0,0,0-1.91,8.29,47.67,47.67,0,0,0-.19,10,32.42,32.42,0,0,0,8.83,19.12c.81.84,1.65,1.67,2.56,2.45a26.9,26.9,0,0,0,6.15,4.14,24.76,24.76,0,0,0,7.78,1.93,49.19,49.19,0,0,0,9,0c3.07-.24,6.16-.68,9.29-1.17a41.73,41.73,0,0,1,8.59,0,34.38,34.38,0,0,0,9.9-.64,33.09,33.09,0,0,0,8.61-3.39,68.69,68.69,0,0,0,6.79-4.3,73.58,73.58,0,0,0,6.16-5"/><path class="cls-3" d="M64.14,192.49a18.83,18.83,0,0,0-1.59,6.23c-.12,9.86,3.9,19.05,8.55,26.17a51.5,51.5,0,0,0,4.84,6.3c5.63,6.3,13.62,11.26,23.87,11.54a59.81,59.81,0,0,0,7.69-.34,50.31,50.31,0,0,0,11-2.4c2-.69,4.11-1.48,5.35-2.77,2.14-2.2,4.41-4.42,6.7-6.72,7.64-7.68,15.4-16.47,23.7-24.36,2.2-2.09,4.44-4.15,6.78-6.08a85.52,85.52,0,0,1,7.47-5.6,48,48,0,0,1,8.08-4.44,20.81,20.81,0,0,1,6.46-1.47c2.47.4,5,.68,7.52.86s5,.3,7.51.28,5-.17,7.36-.42,4.52-.6,6.66-.9l2-.29c10.67-1.5,19.83-6.49,29.1,3.94a105.44,105.44,0,0,1,10.51,14.74c2,3.27,4,6.35,5.9,9.25.79,1.21,1.55,2.39,2.25,3.56q1.53,2.55,2.77,5c3.85,7.53,7.86,14.3,9.84,22.75a50,50,0,0,1,1.37,9.91,86.68,86.68,0,0,1-.37,10.89,19,19,0,0,1-2.26,7.16,177.39,177.39,0,0,1-9.33,17.14c-1.1,1.88-2.21,3.76-3.24,5.67a99,99,0,0,0-5.7,14.2,46.18,46.18,0,0,0-1.95,8.26,47.5,47.5,0,0,0-.23,10,33,33,0,0,0,2.47,9.62,33.34,33.34,0,0,0,6.23,9.52,32.82,32.82,0,0,0,2.52,2.48,27.16,27.16,0,0,0,6.09,4.23,24.94,24.94,0,0,0,7.75,2.06,48.23,48.23,0,0,0,9,.16c3.07-.19,6.17-.58,9.3-1a45.52,45.52,0,0,1,8.58,0,34.26,34.26,0,0,0,9.88-.71,33.12,33.12,0,0,0,8.58-3.39,67.4,67.4,0,0,0,6.78-4.3,69.75,69.75,0,0,0,6.14-5"/><path class="cls-3" d="M61.54,196.59A18.72,18.72,0,0,0,60,202.8c-.14,9.84,4,19,8.79,26a51.27,51.27,0,0,0,5,6.21c5.76,6.21,13.82,11,24,11.24a59.68,59.68,0,0,0,7.68-.38,49.7,49.7,0,0,0,10.92-2.45c2-.7,4.1-1.49,5.33-2.8,2.1-2.24,4.34-4.48,6.61-6.8,7.56-7.75,15.25-16.59,23.53-24.47,2.19-2.09,4.43-4.14,6.77-6.07a85.35,85.35,0,0,1,7.48-5.57,48.91,48.91,0,0,1,8.1-4.38,21.06,21.06,0,0,1,6.51-1.42c2.48.43,5,.73,7.55.94s5,.33,7.55.31a72.43,72.43,0,0,0,7.39-.45c2.33-.26,4.55-.64,6.7-1l2-.33c10.73-1.7,20.08-7,29.53,3.4a101.51,101.51,0,0,1,10.65,14.75c2,3.29,4,6.38,5.89,9.33.77,1.23,1.52,2.43,2.21,3.62,1,1.72,1.91,3.42,2.72,5.09,3.76,7.68,7.67,14.65,9.52,23.24a53.39,53.39,0,0,1,1.24,10,95.8,95.8,0,0,1-.39,10.93A19.13,19.13,0,0,1,271,279a166.15,166.15,0,0,1-9.29,17.11c-1.11,1.87-2.22,3.75-3.26,5.65a98.89,98.89,0,0,0-5.78,14.13,45.49,45.49,0,0,0-2,8.24,48,48,0,0,0-.28,10A33,33,0,0,0,259,353.29c.79.87,1.61,1.71,2.49,2.51a28,28,0,0,0,6,4.32,25,25,0,0,0,7.72,2.19,48.2,48.2,0,0,0,9,.32c3.07-.14,6.18-.48,9.31-.89a50.06,50.06,0,0,1,8.57,0A34.09,34.09,0,0,0,312,361a33.67,33.67,0,0,0,8.57-3.4,70.05,70.05,0,0,0,6.76-4.29,73,73,0,0,0,6.13-5"/><path class="cls-3" d="M58.94,200.68a18.73,18.73,0,0,0-1.59,6.2c-.16,9.82,4.14,18.94,9,25.9a50.49,50.49,0,0,0,5.07,6.13,34,34,0,0,0,24.2,10.94,59.4,59.4,0,0,0,7.66-.42,48.94,48.94,0,0,0,10.9-2.5c2-.7,4.09-1.51,5.3-2.83,2.07-2.27,4.29-4.54,6.53-6.88,7.47-7.82,15.1-16.71,23.35-24.59,2.19-2.09,4.43-4.13,6.77-6a79.91,79.91,0,0,1,7.49-5.53,47.39,47.39,0,0,1,8.12-4.32,20.71,20.71,0,0,1,6.56-1.38c2.5.47,5,.79,7.59,1s5.06.36,7.58.34a67.53,67.53,0,0,0,7.42-.48c2.34-.28,4.57-.69,6.73-1l2-.36c10.8-1.89,20.33-7.57,30,2.87a97.18,97.18,0,0,1,10.79,14.75c2.05,3.3,4,6.42,5.87,9.4.77,1.25,1.51,2.47,2.19,3.68,1,1.76,1.87,3.48,2.67,5.19,3.66,7.84,7.47,15,9.19,23.73a58,58,0,0,1,1.12,10.13,107.13,107.13,0,0,1-.42,11,19.31,19.31,0,0,1-2.16,7.17,153.68,153.68,0,0,1-9.26,17.08c-1.11,1.86-2.22,3.73-3.27,5.63a98.81,98.81,0,0,0-5.86,14.06,45.77,45.77,0,0,0-2,8.21,47.24,47.24,0,0,0-.32,10,33.37,33.37,0,0,0,2.38,9.61,35.9,35.9,0,0,0,8.52,12.12,28.32,28.32,0,0,0,6,4.41,25.19,25.19,0,0,0,7.69,2.32,48.16,48.16,0,0,0,9,.48c3.08-.09,6.19-.38,9.32-.75a56.93,56.93,0,0,1,8.56,0A32.13,32.13,0,0,0,318,361.67a68.7,68.7,0,0,0,6.75-4.29,72.66,72.66,0,0,0,6.12-5"/><path class="cls-3" d="M56.33,204.77A18.78,18.78,0,0,0,54.75,211c-.18,9.79,4.25,18.88,9.26,25.76a50.79,50.79,0,0,0,5.19,6.05,34.71,34.71,0,0,0,24.37,10.64,61.11,61.11,0,0,0,7.65-.45,49.93,49.93,0,0,0,10.87-2.55c2-.72,4.08-1.53,5.27-2.87,2-2.3,4.24-4.59,6.45-7,7.39-7.89,14.95-16.82,23.18-24.7,2.19-2.09,4.42-4.13,6.76-6a77.93,77.93,0,0,1,7.5-5.49,48.45,48.45,0,0,1,8.14-4.27,21,21,0,0,1,6.61-1.33,81.94,81.94,0,0,0,15.24,1.46,61.59,61.59,0,0,0,7.46-.5c2.34-.29,4.59-.73,6.76-1.13l2-.39c10.86-2.08,20.58-8.11,30.38,2.33a93.06,93.06,0,0,1,10.94,14.77c2,3.3,4,6.45,5.85,9.47.76,1.26,1.49,2.5,2.16,3.73,1,1.79,1.84,3.55,2.62,5.29,3.56,8,7.28,15.35,8.87,24.22a62.17,62.17,0,0,1,1,10.23c0,3.64-.14,7.31-.44,11a19.64,19.64,0,0,1-2.11,7.16,142.91,142.91,0,0,1-9.22,17.06c-1.12,1.85-2.23,3.72-3.28,5.6a96.73,96.73,0,0,0-5.94,14,43.66,43.66,0,0,0-2.08,8.18,47.08,47.08,0,0,0-.36,10,33.38,33.38,0,0,0,2.33,9.6,34.83,34.83,0,0,0,6,9.62c.77.88,1.57,1.75,2.43,2.56a28.33,28.33,0,0,0,5.9,4.5,25.5,25.5,0,0,0,7.66,2.46,47.36,47.36,0,0,0,9,.62c3.08,0,6.19-.27,9.34-.6a64.2,64.2,0,0,1,8.54,0,34.54,34.54,0,0,0,9.81-.87,35,35,0,0,0,8.52-3.43,67.65,67.65,0,0,0,6.73-4.28,72,72,0,0,0,6.11-5"/><path class="cls-3" d="M53.73,208.86A18.73,18.73,0,0,0,52.15,215c-.2,9.77,4.37,18.82,9.5,25.63a49.82,49.82,0,0,0,5.31,6A35.32,35.32,0,0,0,91.49,257a61.1,61.1,0,0,0,7.64-.48,49.21,49.21,0,0,0,10.84-2.6c2-.73,4.07-1.55,5.24-2.91,2-2.33,4.18-4.64,6.37-7,7.31-8,14.79-16.94,23-24.81,2.18-2.09,4.41-4.13,6.75-6a74.86,74.86,0,0,1,7.51-5.45,46.6,46.6,0,0,1,8.16-4.21,20.62,20.62,0,0,1,6.65-1.29,71,71,0,0,0,7.67,1.17,70,70,0,0,0,7.65.4,59.88,59.88,0,0,0,7.49-.53c2.36-.31,4.61-.78,6.8-1.2l2.06-.43c10.93-2.27,20.84-8.65,30.81,1.79a89.6,89.6,0,0,1,11.07,14.78c2.07,3.31,4,6.49,5.84,9.55.76,1.28,1.48,2.54,2.14,3.78,1,1.82,1.8,3.61,2.56,5.38,3.47,8.16,7.09,15.7,8.54,24.72a64.31,64.31,0,0,1,.87,10.34c0,3.65-.18,7.33-.46,11.08a19.7,19.7,0,0,1-2.07,7.17,132.8,132.8,0,0,1-9.18,17c-1.12,1.85-2.23,3.7-3.29,5.58a96.22,96.22,0,0,0-6,13.94,43.83,43.83,0,0,0-2.12,8.16,46.86,46.86,0,0,0-.41,9.93,33.18,33.18,0,0,0,2.29,9.59,35,35,0,0,0,5.89,9.67,34.11,34.11,0,0,0,2.4,2.58,28.68,28.68,0,0,0,5.84,4.59,25.27,25.27,0,0,0,7.62,2.59,48.23,48.23,0,0,0,9,.78c3.07,0,6.19-.17,9.34-.46a73.81,73.81,0,0,1,8.53.05,32.78,32.78,0,0,0,18.29-4.36,67.94,67.94,0,0,0,6.71-4.27,72.09,72.09,0,0,0,6.09-5"/><path class="cls-3" d="M51.13,213a18.37,18.37,0,0,0-1.58,6.16c-.23,9.75,4.49,18.77,9.74,25.49a49.13,49.13,0,0,0,5.42,5.88c6.26,5.82,14.6,10.1,24.7,10A66.79,66.79,0,0,0,97,260a49,49,0,0,0,10.82-2.65c2-.73,4.07-1.56,5.22-2.94,2-2.36,4.12-4.7,6.28-7.11,7.22-8,14.64-17.05,22.83-24.92,2.18-2.09,4.41-4.13,6.75-6a73.64,73.64,0,0,1,7.53-5.41,46.1,46.1,0,0,1,8.17-4.15,20.89,20.89,0,0,1,6.7-1.25A71.56,71.56,0,0,0,179,206.8a68.17,68.17,0,0,0,7.68.43,56.55,56.55,0,0,0,7.52-.56c2.37-.33,4.63-.82,6.83-1.28.69-.14,1.39-.3,2.08-.46,11-2.46,21.09-9.18,31.24,1.25A86.91,86.91,0,0,1,245.6,221c2.08,3.32,4,6.53,5.83,9.63.74,1.29,1.45,2.57,2.1,3.84.95,1.84,1.77,3.67,2.51,5.47,3.38,8.31,6.9,16.05,8.22,25.21a70.27,70.27,0,0,1,.75,10.45c0,3.66-.22,7.36-.49,11.13a19.84,19.84,0,0,1-2,7.17,126.24,126.24,0,0,1-9.15,17c-1.12,1.84-2.24,3.69-3.3,5.56a96.33,96.33,0,0,0-6.1,13.88,43.42,43.42,0,0,0-2.16,8.12,46.83,46.83,0,0,0-.45,9.92,33.43,33.43,0,0,0,2.23,9.58,36.18,36.18,0,0,0,5.81,9.7c.75.9,1.53,1.78,2.37,2.61a29.31,29.31,0,0,0,5.78,4.68,25.67,25.67,0,0,0,7.59,2.72,47.41,47.41,0,0,0,9,.94,92,92,0,0,0,9.35-.32c2.73-.21,5.6,0,8.52.06a34.68,34.68,0,0,0,9.77-1,35.48,35.48,0,0,0,8.47-3.44,67.8,67.8,0,0,0,6.7-4.27,73.46,73.46,0,0,0,6.08-5"/><path class="cls-3" d="M48.53,217.05A18.38,18.38,0,0,0,47,223.2c-.25,9.72,4.6,18.71,10,25.36a48.33,48.33,0,0,0,5.54,5.79,36.25,36.25,0,0,0,24.86,9.73,64.45,64.45,0,0,0,7.61-.56,49.08,49.08,0,0,0,10.8-2.69c2-.75,4.05-1.59,5.18-3,1.94-2.39,4.06-4.76,6.2-7.19,7.14-8.11,14.49-17.17,22.66-25,2.17-2.09,4.4-4.11,6.74-6a71.92,71.92,0,0,1,7.54-5.37,45.84,45.84,0,0,1,8.2-4.1A20.71,20.71,0,0,1,169,209a66.21,66.21,0,0,0,7.74,1.32,62.47,62.47,0,0,0,7.72.46,52.3,52.3,0,0,0,7.55-.58c2.38-.35,4.66-.86,6.87-1.35l2.09-.49c11.06-2.66,21.34-9.73,31.67.7A84.94,84.94,0,0,1,244,223.81c2.09,3.33,4,6.57,5.81,9.7.74,1.32,1.44,2.61,2.08,3.9.93,1.87,1.73,3.73,2.45,5.57,3.28,8.47,6.72,16.4,7.9,25.7a75.52,75.52,0,0,1,.62,10.55c0,3.68-.25,7.39-.51,11.18a20.31,20.31,0,0,1-2,7.18,120.18,120.18,0,0,1-9.11,17c-1.12,1.83-2.25,3.67-3.32,5.53a95.85,95.85,0,0,0-6.18,13.82,42.85,42.85,0,0,0-2.2,8.1,46.61,46.61,0,0,0-.49,9.89,33.43,33.43,0,0,0,2.18,9.58,36.66,36.66,0,0,0,5.73,9.73c.74.91,1.5,1.8,2.33,2.64a30.26,30.26,0,0,0,5.72,4.77,25.59,25.59,0,0,0,7.56,2.85,47.53,47.53,0,0,0,9,1.1,89,89,0,0,0,9.36-.18c2.73-.18,5.6,0,8.51.08a35,35,0,0,0,9.75-1,36.22,36.22,0,0,0,8.45-3.45,68.84,68.84,0,0,0,6.69-4.27,75,75,0,0,0,6.06-4.95"/><path class="cls-3" d="M45.92,221.14a18.43,18.43,0,0,0-1.57,6.14c-.27,9.7,4.72,18.65,10.22,25.22a48.5,48.5,0,0,0,5.65,5.72,37.47,37.47,0,0,0,25,9.42,62.44,62.44,0,0,0,7.61-.6,48.39,48.39,0,0,0,10.77-2.74c2-.75,4-1.6,5.15-3,1.91-2.43,4-4.82,6.13-7.27,7-8.18,14.33-17.28,22.48-25.15,2.16-2.09,4.39-4.11,6.73-6a71.8,71.8,0,0,1,7.55-5.34,45.76,45.76,0,0,1,8.22-4,20.71,20.71,0,0,1,6.79-1.16,64.74,64.74,0,0,0,7.78,1.4,61.09,61.09,0,0,0,7.75.49,52.64,52.64,0,0,0,7.58-.61c2.4-.36,4.68-.91,6.91-1.43.69-.16,1.4-.34,2.1-.52,11.13-2.85,21.59-10.27,32.1.16a81.52,81.52,0,0,1,11.48,14.82c2.1,3.34,4,6.59,5.8,9.77.73,1.33,1.42,2.64,2.05,3.95.92,1.91,1.7,3.8,2.4,5.67,3.19,8.62,6.53,16.75,7.58,26.19a81.32,81.32,0,0,1,.49,10.66c-.06,3.7-.28,7.42-.53,11.23a20.58,20.58,0,0,1-1.92,7.18,113.34,113.34,0,0,1-9.08,16.94c-1.12,1.83-2.25,3.66-3.33,5.51a97,97,0,0,0-6.26,13.75,42.84,42.84,0,0,0-2.24,8.08,46.46,46.46,0,0,0-.54,9.87,33.72,33.72,0,0,0,2.14,9.57,37.31,37.31,0,0,0,5.64,9.77c.73.91,1.49,1.81,2.31,2.66a30.17,30.17,0,0,0,5.65,4.86,26.22,26.22,0,0,0,7.53,3,47.56,47.56,0,0,0,9,1.24,83.73,83.73,0,0,0,9.37,0c2.74-.14,5.6.06,8.5.09a35.24,35.24,0,0,0,9.73-1.09,36.78,36.78,0,0,0,8.42-3.47,67.33,67.33,0,0,0,6.68-4.25,73,73,0,0,0,6-4.95"/><path class="cls-3" d="M43.32,225.24a18.32,18.32,0,0,0-1.57,6.12c-.29,9.68,4.84,18.6,10.46,25.09A47.85,47.85,0,0,0,58,262.08a38.12,38.12,0,0,0,25.18,9.11,60.38,60.38,0,0,0,7.6-.63,48.4,48.4,0,0,0,10.74-2.79c2-.76,4-1.62,5.12-3,1.88-2.45,4-4.86,6-7.34,7-8.25,14.17-17.4,22.3-25.26,2.16-2.09,4.39-4.11,6.73-6a67.82,67.82,0,0,1,7.56-5.3,45.76,45.76,0,0,1,8.24-4,20.93,20.93,0,0,1,6.84-1.12,62.11,62.11,0,0,0,7.81,1.49,58.34,58.34,0,0,0,7.79.51,49.16,49.16,0,0,0,7.62-.63c2.4-.38,4.7-1,6.93-1.5l2.12-.56c11.19-3.05,21.84-10.8,32.52-.38a79.2,79.2,0,0,1,11.63,14.83c2.11,3.35,4.05,6.63,5.78,9.85q1.1,2,2,4c.9,1.93,1.67,3.85,2.34,5.76,3.1,8.78,6.34,17.1,7.25,26.68a87.68,87.68,0,0,1,.38,10.77c-.09,3.71-.32,7.45-.56,11.28a20.81,20.81,0,0,1-1.87,7.18c-2.29,5.84-5.62,11.37-9,16.9-1.13,1.83-2.26,3.65-3.35,5.5a96.7,96.7,0,0,0-6.34,13.69,41.8,41.8,0,0,0-2.28,8.05,46.3,46.3,0,0,0-.58,9.85,33.73,33.73,0,0,0,2.09,9.56,37.83,37.83,0,0,0,5.56,9.8c.72.92,1.46,1.83,2.27,2.69A31.17,31.17,0,0,0,250,386a26.56,26.56,0,0,0,7.5,3.12,47.75,47.75,0,0,0,9,1.4,81.51,81.51,0,0,0,9.39.11c2.74-.1,5.6.09,8.48.1a35.11,35.11,0,0,0,9.71-1.14,37.13,37.13,0,0,0,8.4-3.48,68.22,68.22,0,0,0,6.66-4.25,74.43,74.43,0,0,0,6-4.94"/><path class="cls-3" d="M40.72,229.33a18.33,18.33,0,0,0-1.57,6.11c-.31,9.65,5,18.54,10.69,24.95a48.76,48.76,0,0,0,5.89,5.55,38.94,38.94,0,0,0,25.35,8.81,62,62,0,0,0,7.58-.66,49.33,49.33,0,0,0,10.72-2.84c2-.78,4-1.64,5.1-3.09,1.84-2.48,3.89-4.92,6-7.42,6.88-8.33,14-17.52,22.13-25.38,2.15-2.09,4.38-4.1,6.72-6a66.32,66.32,0,0,1,7.57-5.26,45.07,45.07,0,0,1,8.26-3.92,20.92,20.92,0,0,1,6.88-1.08,59.7,59.7,0,0,0,7.86,1.56,57.22,57.22,0,0,0,7.82.55,47.14,47.14,0,0,0,7.65-.66c2.41-.4,4.72-1,7-1.58.71-.19,1.42-.38,2.13-.59,11.26-3.24,22.09-11.34,32.95-.91a77.35,77.35,0,0,1,11.77,14.83q3.18,5,5.77,9.93c.71,1.36,1.39,2.71,2,4.06a60,60,0,0,1,2.29,5.86c3,8.93,6.15,17.44,6.93,27.17a96.91,96.91,0,0,1,.25,10.87c-.12,3.73-.35,7.48-.58,11.33a21.16,21.16,0,0,1-1.83,7.18c-2.24,5.85-5.57,11.37-9,16.88-1.13,1.82-2.27,3.64-3.35,5.47a93.68,93.68,0,0,0-6.42,13.63,41.24,41.24,0,0,0-2.33,8,45.53,45.53,0,0,0-.62,9.83,33.39,33.39,0,0,0,2,9.56,38.87,38.87,0,0,0,5.47,9.84c.71.92,1.45,1.84,2.25,2.71a31.09,31.09,0,0,0,5.52,5A26.9,26.9,0,0,0,255,393a48,48,0,0,0,9,1.56,81.25,81.25,0,0,0,9.39.25c2.74-.07,5.6.15,8.47.12a37,37,0,0,0,9.69-1.2,38.16,38.16,0,0,0,8.38-3.49,67.93,67.93,0,0,0,6.64-4.25,74.05,74.05,0,0,0,6-4.92"/><path class="cls-3" d="M38.11,233.42a18.25,18.25,0,0,0-1.56,6.1c-.33,9.63,5.07,18.48,10.93,24.81a48.21,48.21,0,0,0,6,5.47A39.77,39.77,0,0,0,79,278.31a61.92,61.92,0,0,0,7.57-.7,49.21,49.21,0,0,0,10.69-2.89c2-.78,4-1.65,5.07-3.12,1.81-2.52,3.84-5,5.88-7.5,6.79-8.4,13.87-17.63,22-25.49a88,88,0,0,1,6.71-6,64,64,0,0,1,7.58-5.22,45.08,45.08,0,0,1,8.28-3.87,21.13,21.13,0,0,1,6.93-1,57.94,57.94,0,0,0,7.89,1.64,54.92,54.92,0,0,0,7.86.58,45.22,45.22,0,0,0,7.68-.69,71.75,71.75,0,0,0,7-1.66c.71-.19,1.42-.4,2.14-.62,11.33-3.43,22.34-11.87,33.38-1.45a75.39,75.39,0,0,1,11.91,14.85c2.12,3.36,4.05,6.7,5.75,10q1.07,2.06,2,4.11a61,61,0,0,1,2.23,6c2.91,9.09,6,17.79,6.61,27.66a105,105,0,0,1,.12,11c-.14,3.74-.38,7.51-.6,11.38a21.47,21.47,0,0,1-1.78,7.18c-2.2,5.85-5.53,11.36-9,16.85-1.14,1.81-2.28,3.62-3.37,5.45a95,95,0,0,0-6.5,13.57,41.15,41.15,0,0,0-2.37,8,46.07,46.07,0,0,0-.67,9.81,33.62,33.62,0,0,0,2,9.54,38.85,38.85,0,0,0,5.39,9.88c.7.94,1.42,1.86,2.21,2.74a31.44,31.44,0,0,0,5.47,5.13,26.65,26.65,0,0,0,7.43,3.38,47.91,47.91,0,0,0,9,1.72,79.08,79.08,0,0,0,9.4.39c2.75,0,5.6.17,8.46.13a36.88,36.88,0,0,0,9.67-1.25,38.75,38.75,0,0,0,8.35-3.5,69.61,69.61,0,0,0,6.63-4.24,73.74,73.74,0,0,0,6-4.92"/><path class="cls-3" d="M35.51,237.52A17.89,17.89,0,0,0,34,243.6c-.36,9.61,5.18,18.43,11.16,24.68a48.32,48.32,0,0,0,6.12,5.38,40.65,40.65,0,0,0,25.68,8.21,64.06,64.06,0,0,0,7.56-.74,48.38,48.38,0,0,0,10.66-2.94c2-.79,4-1.67,5-3.15,1.78-2.55,3.78-5,5.8-7.58,6.71-8.47,13.7-17.76,21.78-25.6a83.78,83.78,0,0,1,6.71-5.94,63.87,63.87,0,0,1,7.59-5.18,44.76,44.76,0,0,1,8.3-3.81,20.9,20.9,0,0,1,7-1,58.25,58.25,0,0,0,15.81,2.32,42.7,42.7,0,0,0,7.72-.7,71.69,71.69,0,0,0,7-1.74q1.08-.31,2.16-.66c11.4-3.62,22.59-12.41,33.81-2a73.81,73.81,0,0,1,12,14.86c2.14,3.38,4.07,6.74,5.74,10.07.7,1.4,1.36,2.79,1.94,4.18a58.49,58.49,0,0,1,2.18,6c2.82,9.25,5.77,18.15,6.29,28.16.18,3.62.17,7.23,0,11.09s-.42,7.53-.63,11.43a21.72,21.72,0,0,1-1.73,7.18c-2.17,5.85-5.48,11.35-8.93,16.82-1.13,1.81-2.28,3.61-3.38,5.43a94.06,94.06,0,0,0-6.58,13.5,41.2,41.2,0,0,0-2.42,8,46.49,46.49,0,0,0-.7,9.78,33.89,33.89,0,0,0,2,9.54,39.72,39.72,0,0,0,5.3,9.91c.69.95,1.41,1.88,2.18,2.77a32.08,32.08,0,0,0,5.41,5.22,26.72,26.72,0,0,0,7.4,3.51,47.38,47.38,0,0,0,9,1.87,69.84,69.84,0,0,0,9.41.54c2.75,0,5.6.17,8.45.15a35.93,35.93,0,0,0,9.65-1.32,38.85,38.85,0,0,0,8.33-3.51,66.14,66.14,0,0,0,6.61-4.23,73.47,73.47,0,0,0,6-4.91"/><path class="cls-3" d="M32.91,241.61a18,18,0,0,0-1.55,6.07c-.38,9.59,5.29,18.37,11.4,24.54a46.45,46.45,0,0,0,6.24,5.3,41.45,41.45,0,0,0,25.84,7.9,63.73,63.73,0,0,0,7.55-.77,48.23,48.23,0,0,0,10.63-3c2-.8,4-1.69,5-3.19,1.75-2.58,3.73-5.1,5.72-7.66,6.63-8.54,13.55-17.88,21.61-25.72a81.7,81.7,0,0,1,6.7-5.92,63,63,0,0,1,7.6-5.15,44.36,44.36,0,0,1,8.32-3.74,20.91,20.91,0,0,1,7-.95,56.43,56.43,0,0,0,8,1.79,52.94,52.94,0,0,0,7.91.64,42.11,42.11,0,0,0,7.75-.73,67.88,67.88,0,0,0,7.08-1.82c.72-.21,1.44-.44,2.17-.68,11.47-3.82,22.84-12.95,34.24-2.54a72.65,72.65,0,0,1,12.18,14.87A108.68,108.68,0,0,1,240,251q1,2.11,1.91,4.23a62.94,62.94,0,0,1,2.12,6.14c2.72,9.41,5.58,18.5,6,28.65.14,3.68.08,7.32-.12,11.19s-.45,7.57-.65,11.48a22.3,22.3,0,0,1-1.68,7.19c-2.13,5.85-5.44,11.34-8.9,16.79-1.13,1.8-2.28,3.59-3.39,5.4a94.88,94.88,0,0,0-6.66,13.44,41.21,41.21,0,0,0-2.46,8,45.67,45.67,0,0,0-.74,9.76,33.89,33.89,0,0,0,1.9,9.53,40.73,40.73,0,0,0,5.22,10c.68.95,1.39,1.89,2.15,2.79a32.3,32.3,0,0,0,5.34,5.31,27.4,27.4,0,0,0,7.37,3.65,48.29,48.29,0,0,0,9,2,73.43,73.43,0,0,0,9.43.68c2.75,0,5.59.2,8.43.16a35.72,35.72,0,0,0,9.62-1.37,39.12,39.12,0,0,0,8.31-3.52,66,66,0,0,0,6.6-4.23,74.84,74.84,0,0,0,6-4.89"/><path class="cls-3" d="M30.3,245.7a18.17,18.17,0,0,0-1.54,6.06c-.4,9.56,5.41,18.31,11.64,24.41a48.1,48.1,0,0,0,6.35,5.22,42.44,42.44,0,0,0,26,7.59,61.45,61.45,0,0,0,7.53-.81,48,48,0,0,0,10.61-3c2-.81,4-1.71,5-3.23,1.71-2.6,3.66-5.14,5.63-7.73,6.54-8.62,13.4-18,21.44-25.83a78.07,78.07,0,0,1,6.69-5.91,61.65,61.65,0,0,1,7.61-5.11,45,45,0,0,1,8.34-3.69,21.09,21.09,0,0,1,7.07-.9,56.24,56.24,0,0,0,8,1.87,52.2,52.2,0,0,0,7.95.66,40.05,40.05,0,0,0,7.79-.75,67.69,67.69,0,0,0,7.1-1.89q1.09-.34,2.19-.72c11.54-4,23.09-13.49,34.66-3.08a70.54,70.54,0,0,1,12.33,14.89,100.47,100.47,0,0,1,5.71,10.22c.68,1.43,1.32,2.85,1.88,4.28a60.76,60.76,0,0,1,2.07,6.24c2.63,9.56,5.4,18.85,5.64,29.14.09,3.73,0,7.41-.25,11.3s-.48,7.59-.67,11.53a22.58,22.58,0,0,1-1.63,7.19c-2.09,5.85-5.4,11.33-8.86,16.76-1.14,1.79-2.3,3.58-3.41,5.38a94.14,94.14,0,0,0-6.74,13.38,40.36,40.36,0,0,0-2.5,7.91,46.32,46.32,0,0,0-.79,9.75,33.84,33.84,0,0,0,1.86,9.52,41.2,41.2,0,0,0,5.14,10c.66,1,1.36,1.91,2.11,2.82a33.36,33.36,0,0,0,5.28,5.4,27.49,27.49,0,0,0,7.34,3.78,47.85,47.85,0,0,0,9,2.18,73.74,73.74,0,0,0,9.44.82c2.76.08,5.59.23,8.42.17a36.44,36.44,0,0,0,9.6-1.42,40.28,40.28,0,0,0,8.29-3.53,65.72,65.72,0,0,0,6.58-4.23,72.68,72.68,0,0,0,6-4.88"/><path class="cls-3" d="M27.7,249.79a17.94,17.94,0,0,0-1.54,6.05c-.43,9.54,5.53,18.25,11.88,24.27a47.69,47.69,0,0,0,6.47,5.14,43.44,43.44,0,0,0,26.17,7.29,63.38,63.38,0,0,0,7.52-.85,47.9,47.9,0,0,0,10.58-3.07c2-.82,4-1.73,5-3.27,1.67-2.64,3.61-5.2,5.55-7.82,6.46-8.68,13.25-18.1,21.26-25.93a77.75,77.75,0,0,1,6.69-5.9,58.06,58.06,0,0,1,7.63-5.07,43.73,43.73,0,0,1,8.35-3.63,21.09,21.09,0,0,1,7.12-.86,54.79,54.79,0,0,0,8,2,50.2,50.2,0,0,0,8,.69,38.84,38.84,0,0,0,7.82-.78,64.54,64.54,0,0,0,7.14-2c.73-.24,1.46-.48,2.2-.75,11.61-4.2,23.34-14,35.09-3.62a69,69,0,0,1,12.46,14.9,90.6,90.6,0,0,1,5.7,10.3c.68,1.44,1.3,2.88,1.86,4.34a61,61,0,0,1,2,6.33c2.54,9.72,5.21,19.2,5.32,29.63,0,3.78-.11,7.5-.37,11.41s-.52,7.62-.7,11.58a22.87,22.87,0,0,1-1.58,7.19c-2,5.86-5.36,11.32-8.83,16.73-1.14,1.79-2.3,3.57-3.42,5.36a94.37,94.37,0,0,0-6.82,13.31,40.38,40.38,0,0,0-2.54,7.89,45.46,45.46,0,0,0-.83,9.72,33.83,33.83,0,0,0,1.81,9.52,42.46,42.46,0,0,0,5.05,10c.66,1,1.35,1.92,2.09,2.84a33.55,33.55,0,0,0,5.21,5.49,27.72,27.72,0,0,0,7.31,3.91,48.7,48.7,0,0,0,9,2.34,71.7,71.7,0,0,0,9.44,1c2.76.11,5.59.26,8.41.19a36.72,36.72,0,0,0,9.58-1.48,41.29,41.29,0,0,0,8.27-3.54,66.5,66.5,0,0,0,6.56-4.22,74.25,74.25,0,0,0,5.95-4.88"/><path class="cls-3" d="M25.1,253.89a17.84,17.84,0,0,0-1.54,6c-.45,9.52,5.64,18.2,12.11,24.14a47.84,47.84,0,0,0,6.59,5.05,44.46,44.46,0,0,0,26.34,7,63.3,63.3,0,0,0,7.51-.89,47.42,47.42,0,0,0,10.55-3.12c2-.83,4-1.75,4.93-3.3,1.64-2.67,3.56-5.26,5.47-7.9,6.38-8.75,13.1-18.21,21.09-26a74.51,74.51,0,0,1,6.68-5.88,56.93,56.93,0,0,1,7.64-5,44,44,0,0,1,8.37-3.58,21.3,21.3,0,0,1,7.17-.81,53,53,0,0,0,8.08,2,49.72,49.72,0,0,0,8,.73,39,39,0,0,0,7.85-.81,59.93,59.93,0,0,0,7.18-2c.73-.24,1.47-.5,2.21-.78,11.67-4.4,23.59-14.56,35.52-4.16a68.31,68.31,0,0,1,12.6,14.91,86.65,86.65,0,0,1,5.68,10.37q1,2.19,1.83,4.4a59.22,59.22,0,0,1,2,6.43c2.44,9.87,5,19.54,5,30.12,0,3.83-.21,7.59-.5,11.51s-.55,7.66-.72,11.63a23.25,23.25,0,0,1-1.54,7.2c-2,5.86-5.3,11.3-8.78,16.7-1.15,1.78-2.31,3.55-3.44,5.34a94.74,94.74,0,0,0-6.9,13.25,40.31,40.31,0,0,0-2.58,7.86,45.29,45.29,0,0,0-.87,9.7,34.12,34.12,0,0,0,1.76,9.51,43.16,43.16,0,0,0,5,10.05c.64,1,1.32,1.94,2,2.87a34.21,34.21,0,0,0,5.15,5.58,28.11,28.11,0,0,0,7.28,4,47.55,47.55,0,0,0,9,2.49,68.68,68.68,0,0,0,9.45,1.11c2.77.15,5.59.29,8.4.2a36.63,36.63,0,0,0,9.56-1.53,41.71,41.71,0,0,0,8.24-3.56,63.4,63.4,0,0,0,6.55-4.21,70.27,70.27,0,0,0,5.94-4.87"/><path class="cls-3" d="M22.49,258A17.88,17.88,0,0,0,21,264c-.47,9.49,5.76,18.14,12.35,24A47.48,47.48,0,0,0,40,293a45.36,45.36,0,0,0,26.5,6.68,65.15,65.15,0,0,0,7.49-.91,47.8,47.8,0,0,0,10.53-3.18c1.94-.84,4-1.76,4.9-3.33,1.61-2.7,3.5-5.32,5.4-8,6.28-8.82,12.94-18.33,20.91-26.16a71.43,71.43,0,0,1,6.67-5.87,55.22,55.22,0,0,1,7.65-5,43.16,43.16,0,0,1,8.39-3.52,21.31,21.31,0,0,1,7.22-.77,52.73,52.73,0,0,0,8.12,2.1,48,48,0,0,0,8,.75,37.25,37.25,0,0,0,7.88-.83,59.52,59.52,0,0,0,7.21-2.12c.74-.26,1.48-.53,2.23-.82,11.74-4.59,23.84-15.09,36-4.7a67.05,67.05,0,0,1,12.74,14.93,82.5,82.5,0,0,1,5.67,10.44q1,2.22,1.8,4.45a60.45,60.45,0,0,1,1.9,6.53c2.35,10,4.83,19.89,4.67,30.61-.05,3.89-.3,7.68-.62,11.62s-.59,7.68-.74,11.68a23.49,23.49,0,0,1-1.49,7.19c-2,5.87-5.26,11.3-8.75,16.68-1.15,1.77-2.31,3.54-3.44,5.31a93.59,93.59,0,0,0-7,13.19,38.38,38.38,0,0,0-2.63,7.83,45.91,45.91,0,0,0-.92,9.68,34.13,34.13,0,0,0,1.72,9.51,44.35,44.35,0,0,0,4.88,10.09c.64,1,1.31,1.95,2,2.89a34.46,34.46,0,0,0,5.09,5.67,28.85,28.85,0,0,0,7.25,4.18,49.25,49.25,0,0,0,9,2.64,69.11,69.11,0,0,0,9.47,1.26,83.44,83.44,0,0,0,8.38.2,36.49,36.49,0,0,0,9.54-1.59,42.14,42.14,0,0,0,8.22-3.56,64.22,64.22,0,0,0,6.53-4.21,71.9,71.9,0,0,0,5.93-4.85"/><path class="cls-3" d="M19.89,262.07a17.83,17.83,0,0,0-1.53,6c-.49,9.47,5.89,18.07,12.59,23.86a47.62,47.62,0,0,0,6.82,4.89,46.44,46.44,0,0,0,26.67,6.38,62.94,62.94,0,0,0,7.48-.95A47.67,47.67,0,0,0,82.42,299c1.94-.85,4-1.78,4.88-3.38,1.57-2.72,3.44-5.37,5.31-8.05,6.2-8.89,12.79-18.44,20.73-26.27a69.9,69.9,0,0,1,6.67-5.86,54.18,54.18,0,0,1,7.66-4.95,43.83,43.83,0,0,1,8.41-3.47,21.24,21.24,0,0,1,7.26-.72,52.86,52.86,0,0,0,8.17,2.18,47.23,47.23,0,0,0,8.08.78,36.25,36.25,0,0,0,7.91-.86,57.43,57.43,0,0,0,7.25-2.2c.74-.26,1.49-.54,2.24-.85,11.81-4.78,24.09-15.63,36.37-5.23a65.79,65.79,0,0,1,12.89,14.93,76.61,76.61,0,0,1,5.65,10.52q1,2.24,1.77,4.5a59.55,59.55,0,0,1,1.85,6.63c2.26,10.18,4.64,20.24,4.35,31.1-.1,3.94-.41,7.76-.74,11.73s-.63,7.71-.77,11.73a24.06,24.06,0,0,1-1.44,7.19c-1.92,5.87-5.22,11.29-8.71,16.65-1.15,1.76-2.32,3.52-3.46,5.29a92.91,92.91,0,0,0-7.06,13.13,38.33,38.33,0,0,0-2.67,7.8,45.09,45.09,0,0,0-1,9.66,34.34,34.34,0,0,0,1.66,9.49,45.25,45.25,0,0,0,4.81,10.13c.62,1,1.28,2,2,2.92a34.64,34.64,0,0,0,5,5.76,28.55,28.55,0,0,0,7.21,4.31,49.47,49.47,0,0,0,9,2.8,69.42,69.42,0,0,0,9.48,1.4,73,73,0,0,0,8.37.22,36.77,36.77,0,0,0,9.52-1.65,42.28,42.28,0,0,0,8.19-3.57,64.6,64.6,0,0,0,6.52-4.2,71.58,71.58,0,0,0,5.91-4.85"/><path class="cls-3" d="M17.29,266.17a17.49,17.49,0,0,0-1.53,6c-.51,9.45,6,18,12.83,23.73a47.56,47.56,0,0,0,33.77,10.88,67.6,67.6,0,0,0,7.47-1,47.57,47.57,0,0,0,10.47-3.27c1.94-.86,4-1.8,4.85-3.41,1.54-2.76,3.38-5.42,5.23-8.13,6.12-9,12.64-18.56,20.56-26.39a68.38,68.38,0,0,1,6.66-5.84,54.42,54.42,0,0,1,7.67-4.92,44.1,44.1,0,0,1,8.43-3.4,21.25,21.25,0,0,1,7.31-.68,50.62,50.62,0,0,0,8.2,2.25,45.89,45.89,0,0,0,8.12.81,34.84,34.84,0,0,0,7.95-.88,55.9,55.9,0,0,0,7.28-2.27c.74-.28,1.49-.57,2.25-.88,11.88-5,24.34-16.17,36.8-5.78a64.77,64.77,0,0,1,13,14.94,72.65,72.65,0,0,1,5.64,10.6c.65,1.51,1.24,3,1.75,4.56a59.9,59.9,0,0,1,1.79,6.71c2.16,10.35,4.45,20.6,4,31.6-.15,4-.51,7.85-.87,11.83s-.66,7.74-.79,11.78a24.79,24.79,0,0,1-1.39,7.2c-1.89,5.87-5.18,11.28-8.68,16.62-1.15,1.76-2.33,3.51-3.47,5.27a92.23,92.23,0,0,0-7.14,13.06,37.76,37.76,0,0,0-2.71,7.78,44.92,44.92,0,0,0-1,9.64,34.26,34.26,0,0,0,1.61,9.48,46,46,0,0,0,4.72,10.16c.62,1,1.27,2,2,2.95a35.76,35.76,0,0,0,5,5.85,28.83,28.83,0,0,0,7.19,4.44,49.35,49.35,0,0,0,9,3,68.5,68.5,0,0,0,9.49,1.54,61.45,61.45,0,0,0,8.36.23,37.12,37.12,0,0,0,9.5-1.7,44.06,44.06,0,0,0,8.17-3.58,64.32,64.32,0,0,0,6.5-4.2,73.4,73.4,0,0,0,5.9-4.84"/><path class="cls-3" d="M14.69,270.26a17.49,17.49,0,0,0-1.53,6c-.53,9.42,6.12,18,13.07,23.59a47.19,47.19,0,0,0,7.05,4.73,48.85,48.85,0,0,0,27,5.77,67.21,67.21,0,0,0,7.46-1A47.19,47.19,0,0,0,78.19,306c1.92-.86,3.93-1.81,4.81-3.44,1.51-2.79,3.33-5.48,5.15-8.21,6-9,12.49-18.67,20.39-26.5a65.65,65.65,0,0,1,6.65-5.82,52.08,52.08,0,0,1,7.68-4.89,43.23,43.23,0,0,1,8.45-3.34,21.24,21.24,0,0,1,7.36-.64,51.17,51.17,0,0,0,8.24,2.33,44.47,44.47,0,0,0,8.15.84,34.54,34.54,0,0,0,8-.91,54.19,54.19,0,0,0,7.31-2.35c.75-.29,1.51-.58,2.27-.91,12-5.17,24.59-16.7,37.23-6.32a63.51,63.51,0,0,1,13.16,15,69.86,69.86,0,0,1,5.63,10.66q1,2.3,1.71,4.62a59.14,59.14,0,0,1,1.74,6.81c2.07,10.5,4.27,20.95,3.71,32.09-.21,4-.61,7.94-1,11.94s-.69,7.77-.81,11.83a25.23,25.23,0,0,1-1.34,7.2c-1.85,5.87-5.13,11.27-8.65,16.59-1.15,1.75-2.33,3.49-3.48,5.24a94.3,94.3,0,0,0-7.22,13,37.79,37.79,0,0,0-2.75,7.76,44.74,44.74,0,0,0-1.05,9.61,34.27,34.27,0,0,0,1.57,9.48,47,47,0,0,0,4.64,10.2c.6,1,1.24,2,1.93,3a35.35,35.35,0,0,0,4.9,5.94,28.77,28.77,0,0,0,7.16,4.57,49.65,49.65,0,0,0,9,3.11,65.44,65.44,0,0,0,9.49,1.69,54.24,54.24,0,0,0,8.35.25,37.49,37.49,0,0,0,9.48-1.76,45,45,0,0,0,8.15-3.6,62.27,62.27,0,0,0,6.48-4.19,74.82,74.82,0,0,0,5.89-4.82"/><path class="cls-3" d="M12.08,274.35a17.71,17.71,0,0,0-1.52,6c-.55,9.4,6.23,17.9,13.31,23.46A47.66,47.66,0,0,0,31,308.42a49.86,49.86,0,0,0,27.16,5.46,67,67,0,0,0,7.44-1.06,47,47,0,0,0,10.43-3.36c1.92-.88,3.92-1.84,4.78-3.48,1.48-2.82,3.28-5.54,5.07-8.29,6-9.11,12.33-18.78,20.21-26.61a64.18,64.18,0,0,1,6.65-5.81,50.36,50.36,0,0,1,7.69-4.85,43.54,43.54,0,0,1,8.47-3.29,21.23,21.23,0,0,1,7.41-.59,51.18,51.18,0,0,0,8.27,2.41,45.05,45.05,0,0,0,8.19.87,33.67,33.67,0,0,0,8-.94,52.72,52.72,0,0,0,7.35-2.43c.75-.29,1.51-.6,2.28-.94,12-5.36,24.84-17.24,37.66-6.86a62.88,62.88,0,0,1,13.3,15A67.46,67.46,0,0,1,227,274.36c.63,1.54,1.2,3.1,1.69,4.67a57.93,57.93,0,0,1,1.68,6.91c2,10.66,4.08,21.3,3.38,32.58-.25,4.1-.69,8-1.11,12.05s-.73,7.79-.84,11.88a25.6,25.6,0,0,1-1.29,7.2c-1.81,5.88-5.09,11.26-8.61,16.56l-3.5,5.22a93.77,93.77,0,0,0-7.3,12.94,37.29,37.29,0,0,0-2.79,7.72,45.37,45.37,0,0,0-1.09,9.6,34.56,34.56,0,0,0,1.52,9.47,48.3,48.3,0,0,0,4.55,10.23c.6,1,1.23,2,1.9,3a35.62,35.62,0,0,0,4.84,6,30,30,0,0,0,7.13,4.71,49.86,49.86,0,0,0,9,3.26,64.4,64.4,0,0,0,9.51,1.83,49.44,49.44,0,0,0,8.33.26,37.78,37.78,0,0,0,9.46-1.81,45.83,45.83,0,0,0,8.12-3.61,62.63,62.63,0,0,0,6.47-4.18,74.89,74.89,0,0,0,5.87-4.82"/><path class="cls-3" d="M9.48,278.44a17.54,17.54,0,0,0-1.52,6c-.57,9.38,6.35,17.84,13.54,23.32a48.43,48.43,0,0,0,7.29,4.56,51,51,0,0,0,27.32,5.16,64.46,64.46,0,0,0,7.44-1.1A46.9,46.9,0,0,0,74,312.93c1.91-.89,3.91-1.85,4.76-3.52,1.44-2.84,3.21-5.59,5-8.36,5.87-9.18,12.18-18.9,20-26.73a62.86,62.86,0,0,1,6.64-5.79,49.48,49.48,0,0,1,7.7-4.81,43.34,43.34,0,0,1,8.49-3.23,21.23,21.23,0,0,1,7.46-.55,50,50,0,0,0,8.31,2.48,42.12,42.12,0,0,0,8.22.9,32.44,32.44,0,0,0,8-1,52.21,52.21,0,0,0,7.39-2.5c.75-.31,1.52-.63,2.28-1,12.11-5.56,25.1-17.77,38.1-7.4a61.83,61.83,0,0,1,13.43,15,63.84,63.84,0,0,1,5.6,10.82q.95,2.34,1.66,4.73a59.17,59.17,0,0,1,1.64,7c1.87,10.81,3.88,21.65,3.05,33.07-.3,4.15-.79,8.12-1.24,12.15s-.76,7.83-.86,11.93a26,26,0,0,1-1.25,7.21c-1.76,5.88-5,11.25-8.57,16.53-1.16,1.74-2.34,3.46-3.51,5.2A93.61,93.61,0,0,0,208.93,388a37.34,37.34,0,0,0-2.83,7.7,44.47,44.47,0,0,0-1.13,9.57,34.56,34.56,0,0,0,1.47,9.47A49.31,49.31,0,0,0,210.91,425c.58,1,1.21,2,1.86,3a36.73,36.73,0,0,0,4.78,6.13,29.93,29.93,0,0,0,7.1,4.84,50.4,50.4,0,0,0,9,3.42,63.82,63.82,0,0,0,9.52,2,43.78,43.78,0,0,0,8.32.27,38.16,38.16,0,0,0,9.44-1.86,47.53,47.53,0,0,0,8.1-3.62,63.45,63.45,0,0,0,6.45-4.18,74.22,74.22,0,0,0,5.86-4.81"/><path class="cls-3" d="M6.88,282.54a17.43,17.43,0,0,0-1.52,5.94c-.59,9.35,6.46,17.79,13.78,23.18a47,47,0,0,0,7.41,4.48A52.09,52.09,0,0,0,54,321a69.41,69.41,0,0,0,7.43-1.13,47,47,0,0,0,10.37-3.47c1.91-.89,3.9-1.86,4.73-3.55a97.57,97.57,0,0,1,4.9-8.44c5.78-9.25,12-19,19.87-26.84a60.59,60.59,0,0,1,6.63-5.78,48.62,48.62,0,0,1,7.71-4.77,43.41,43.41,0,0,1,8.51-3.18,21.68,21.68,0,0,1,7.5-.51A48.52,48.52,0,0,0,140,265.9a42.31,42.31,0,0,0,8.25.93,32.15,32.15,0,0,0,8.07-1,50.07,50.07,0,0,0,7.42-2.58c.76-.31,1.53-.64,2.3-1,12.18-5.73,25.34-18.28,38.52-7.94a62,62,0,0,1,19.16,25.89c.62,1.57,1.17,3.17,1.64,4.78a60.05,60.05,0,0,1,1.58,7.1c1.78,11,3.69,22,2.73,33.56-.35,4.2-.89,8.21-1.37,12.26s-.8,7.86-.88,12a26.48,26.48,0,0,1-1.2,7.21c-1.72,5.88-5,11.24-8.53,16.5-1.17,1.73-2.36,3.45-3.53,5.17a93.17,93.17,0,0,0-7.45,12.82,36,36,0,0,0-2.88,7.67,45,45,0,0,0-1.18,9.55,34.49,34.49,0,0,0,1.43,9.46,50.79,50.79,0,0,0,4.38,10.3c.58,1,1.19,2.05,1.84,3a36.34,36.34,0,0,0,4.71,6.22,30.36,30.36,0,0,0,7.07,5,50.68,50.68,0,0,0,9,3.58,63.06,63.06,0,0,0,9.53,2.11,40,40,0,0,0,8.31.29,37.85,37.85,0,0,0,9.41-1.93,46.32,46.32,0,0,0,8.08-3.62,60.62,60.62,0,0,0,6.44-4.18,71.8,71.8,0,0,0,5.85-4.8"/><path class="cls-3" d="M4.27,286.63a17.59,17.59,0,0,0-1.51,5.93c-.62,9.33,6.58,17.73,14,23.05A47.87,47.87,0,0,0,24.3,320,53.23,53.23,0,0,0,52,324.56a68.78,68.78,0,0,0,7.41-1.17,46.82,46.82,0,0,0,10.35-3.51c1.9-.91,3.89-1.89,4.7-3.59a93.94,93.94,0,0,1,4.82-8.52c5.7-9.32,11.88-19.13,19.69-26.95a61.34,61.34,0,0,1,6.62-5.77,48.29,48.29,0,0,1,7.74-4.74,43.35,43.35,0,0,1,8.52-3.11,21.91,21.91,0,0,1,7.55-.47,48.37,48.37,0,0,0,8.39,2.65,40.62,40.62,0,0,0,8.29.95,31.62,31.62,0,0,0,8.11-1,50.38,50.38,0,0,0,7.45-2.65c.76-.33,1.54-.67,2.31-1.05,12.25-5.93,25.59-18.82,38.95-8.48a60.57,60.57,0,0,1,19.29,26q.92,2.4,1.6,4.84a59.09,59.09,0,0,1,1.53,7.2c1.69,11.12,3.5,22.34,2.41,34.05-.4,4.25-1,8.3-1.49,12.37a111.7,111.7,0,0,0-.91,12,27.17,27.17,0,0,1-1.15,7.21c-1.68,5.89-4.95,11.23-8.5,16.48-1.16,1.72-2.36,3.43-3.53,5.15a92.72,92.72,0,0,0-7.54,12.75,36.21,36.21,0,0,0-2.92,7.64,44.94,44.94,0,0,0-1.22,9.54,34.34,34.34,0,0,0,1.38,9.44,51.42,51.42,0,0,0,4.3,10.34c.56,1,1.17,2.07,1.8,3.07a37,37,0,0,0,4.66,6.31,30,30,0,0,0,7,5.1,50.5,50.5,0,0,0,9,3.73,61,61,0,0,0,9.54,2.26,36.78,36.78,0,0,0,8.3.3,38.14,38.14,0,0,0,9.39-2,47.32,47.32,0,0,0,8.06-3.64,64.11,64.11,0,0,0,6.43-4.16c2-1.51,4-3.12,5.82-4.79"/><path class="cls-3" d="M1.67,290.72c-5.19,11.61,3.61,22.5,12.75,28.83,10.41,7.21,23,9.81,35.45,8.56a62,62,0,0,0,7.4-1.2,39.24,39.24,0,0,0,10.32-3.56c1.93-.85,4-1.87,4.67-3.62,1.49-2.87,3.07-5.75,4.74-8.6,10.26-16.88,21.68-35.5,42.42-40.58a22.17,22.17,0,0,1,7.6-.42,47.45,47.45,0,0,0,8.43,2.72,41,41,0,0,0,8.32,1,31.42,31.42,0,0,0,8.14-1,44.9,44.9,0,0,0,7.48-2.73c12.93-5.44,27.32-21.1,41.71-10.1a57.41,57.41,0,0,1,22.46,38.24c1.66,11.28,3.35,22.71,2.08,34.56-.84,8.46-2.53,16.08-2.53,24.54-.43,16.08-14.39,27.51-20.74,41.47a28.24,28.24,0,0,0-3,7.62,36.25,36.25,0,0,0-1.26,9.51,34.71,34.71,0,0,0,1.33,9.44,54.68,54.68,0,0,0,4.21,10.38,56,56,0,0,0,6.37,9.49,47.58,47.58,0,0,0,7,5.23,61.72,61.72,0,0,0,9,3.89,60.13,60.13,0,0,0,9.55,2.4c14.21,2.35,27.7-5,37.91-14.31"/></g></g></g></svg>