<svg xmlns="http://www.w3.org/2000/svg" xmlns:xlink="http://www.w3.org/1999/xlink" viewBox="0 0 450 546.65"><defs><style>.cls-1,.cls-3{fill:none;}.cls-2{clip-path:url(#clip-path);}.cls-3{stroke:#000;stroke-linecap:round;stroke-linejoin:round;stroke-width:0.25px;}</style><clipPath id="clip-path"><rect class="cls-1" x="122.18" y="123.04" width="201.3" height="201.3" rx="100.65" ry="100.65"/></clipPath></defs><title>waves-1</title><g id="Layer_2" data-name="Layer 2"><g id="Layer_1-2" data-name="Layer 1"><g class="cls-2"><path class="cls-3" d="M.12,258.86c2.05,1.38,3.73,4.07,6.68,4.85,16.7,4.4,29.92,15.19,46,21.12,12.2,4.9,28.17,4.07,37.78-8.56,20.48-27.15,21.1-61.79,13.52-90.77-1.06-3.73-2.31-7.42-3.63-11.1s-2.92-7.4-4.46-11.14-3-7.5-4.06-11.34c-4.36-11.15-1.35-27.76,12.43-34.23,19.84-8.24,37.39,5.37,55.8,2.37a18.76,18.76,0,0,0,10-5.41c10.23-11.14,10.89-27.24,19.82-39.48,2.32-3.32,5.44-5.86,9.46-6.49a14.1,14.1,0,0,1,9.94,2.63,15.09,15.09,0,0,1,5.45,8.16,89.82,89.82,0,0,0,14.66,20.45,66.09,66.09,0,0,0,6.1,5.84c20.54,11.93,53.73,27.41,73.82.91,11.91-16.07,2.08-34.17-1.6-50.05-1-3.84,1.36-7.37,4.32-11s6.55-7.53,8.09-12A25,25,0,0,0,322.39,21a70.09,70.09,0,0,0-1-10.67A82.11,82.11,0,0,0,319,.12"/><path class="cls-3" d="M1.36,262.09c2,1.57,3.89,4.31,7,5.11C24.9,271.52,38.09,282,54,288c12.16,4.64,27.94,4,37.46-8.51a84,84,0,0,0,11.41-20.4,94.85,94.85,0,0,0,5.67-22.39,119.64,119.64,0,0,0-.62-33.67,125.74,125.74,0,0,0-2.76-13.35c-.43-1.62-.94-3.22-1.46-4.82-.66-2.07-1.38-4.13-2.11-6.18-1.33-3.68-2.89-7.34-4.39-11.05s-2.74-7.49-4-11.24c-3.78-11.28-1.45-27.87,12.29-34,19.39-8.7,37,5.21,55.14,1.94a17.84,17.84,0,0,0,9.94-5.41c6.4-6.68,8.93-15.49,12.14-24,2-5.29,4.22-10.5,7.64-15.15a17.36,17.36,0,0,1,5.16-4.85,11.74,11.74,0,0,1,4.4-1.59,12.84,12.84,0,0,1,2-.08,14.35,14.35,0,0,1,6.35,1.57,13.69,13.69,0,0,1,1.6,1,14,14,0,0,1,3.14,3.1,15.39,15.39,0,0,1,2.35,4.79,89.09,89.09,0,0,0,14.81,19.81c1.4,1.45,2.85,2.86,4.37,4.22.6.52,1.2,1,1.82,1.54a153,153,0,0,0,25.52,12.11c1.89.65,3.79,1.24,5.71,1.75,9.24,2.45,18.69,3,27.23-.16a34.26,34.26,0,0,0,15.29-11.52c7.23-9.29,6.35-19.33,3.88-29.17-.44-1.72-.92-3.44-1.42-5.15-.59-2-1.21-4-1.79-6s-1.18-4.06-1.66-6c-.15-.6-.28-1.19-.42-1.78a7.94,7.94,0,0,1,.74-5.33,26.8,26.8,0,0,1,3.76-5.39l.69-.8c1.26-1.47,2.59-3,3.82-4.55a26.7,26.7,0,0,0,3.49-5.65c.12-.27.22-.55.33-.82a34.6,34.6,0,0,0,1.84-5.45,26.7,26.7,0,0,0,.49-7,97.44,97.44,0,0,0-.8-10.71A81.18,81.18,0,0,0,320.83,7.3"/><path class="cls-3" d="M2.59,265.32c2,1.75,4.05,4.55,7.27,5.38,16.43,4.22,29.52,14.55,45.28,20.52,12.06,4.56,27.69,3.89,37.13-8.45a83.66,83.66,0,0,0,11.37-20.17,94.39,94.39,0,0,0,5.69-22.14,118.61,118.61,0,0,0-.49-33.31,122.9,122.9,0,0,0-2.67-13.23c-.43-1.61-.93-3.19-1.44-4.78-.66-2-1.36-4.09-2.08-6.13-1.31-3.64-2.85-7.27-4.32-10.95s-2.71-7.42-3.94-11.15c-3.73-11.2-1.42-27.66,12.14-33.84,19.14-8.72,36.49,4.86,54.48,1.51a17.88,17.88,0,0,0,9.85-5.4c6.34-6.64,8.88-15.38,12.11-23.79,2-5.24,4.23-10.4,7.63-15a17.88,17.88,0,0,1,5.24-4.81A12.24,12.24,0,0,1,200.27,78a13,13,0,0,1,2-.1,14.68,14.68,0,0,1,6.37,1.48,12.3,12.3,0,0,1,1.61.94,13.52,13.52,0,0,1,3.15,3,14.77,14.77,0,0,1,2.39,4.63,87.69,87.69,0,0,0,15,19.16c1.41,1.42,2.88,2.82,4.43,4.16.6.53,1.21,1,1.84,1.54,7.44,4.2,16.37,8.94,25.64,12.23,1.89.67,3.8,1.29,5.71,1.82,9.22,2.58,18.63,3.29,27.12.35a33.37,33.37,0,0,0,15.21-11c7.22-8.92,6.25-18.54,3.82-28-.43-1.65-.91-3.29-1.39-4.94-.57-1.93-1.17-3.85-1.72-5.75s-1.11-3.91-1.55-5.83c-.13-.58-.25-1.15-.37-1.73a7.59,7.59,0,0,1,.83-5.16,27,27,0,0,1,3.85-5.23l.7-.77c1.29-1.44,2.65-2.91,3.91-4.46a27,27,0,0,0,3.61-5.58c.12-.26.22-.54.34-.8a35.69,35.69,0,0,0,2-5.41,26.4,26.4,0,0,0,.64-7,93.83,93.83,0,0,0-.6-10.75,81.55,81.55,0,0,0-2.1-10.36"/><path class="cls-3" d="M3.82,268.54c2,1.95,4.22,4.79,7.58,5.65,16.29,4.14,29.27,14.36,44.89,20.22,12,4.49,27.41,3.78,36.81-8.39a83.45,83.45,0,0,0,11.31-19.94,93.53,93.53,0,0,0,5.71-21.9,117.23,117.23,0,0,0-.34-33,118.55,118.55,0,0,0-2.6-13.1c-.42-1.59-.9-3.16-1.41-4.74-.65-2-1.34-4-2-6.07-1.29-3.61-2.81-7.21-4.26-10.86s-2.66-7.36-3.88-11.05c-3.66-11.14-1.37-27.46,12-33.65,18.88-8.74,36,4.5,53.82,1.08a17.8,17.8,0,0,0,9.75-5.4c6.28-6.6,8.83-15.25,12.07-23.59,2-5.2,4.24-10.3,7.64-14.84a18.19,18.19,0,0,1,5.31-4.75,12.15,12.15,0,0,1,4.46-1.6,14.43,14.43,0,0,1,2.05-.12,15.15,15.15,0,0,1,6.39,1.38,14,14,0,0,1,1.62.9,13.37,13.37,0,0,1,3.17,2.87,14.22,14.22,0,0,1,2.43,4.48,87.13,87.13,0,0,0,15.1,18.51c1.44,1.39,2.93,2.77,4.5,4.1.61.52,1.23,1,1.86,1.52,7.53,4.19,16.51,9,25.77,12.36,1.89.7,3.79,1.34,5.7,1.9,9.19,2.7,18.58,3.55,27,.86A32.56,32.56,0,0,0,311.38,121c7.2-8.55,6.15-17.74,3.74-26.79-.42-1.57-.89-3.15-1.35-4.72-.55-1.85-1.12-3.69-1.65-5.52s-1-3.76-1.43-5.61c-.12-.56-.23-1.12-.34-1.67a7.23,7.23,0,0,1,.93-5,26.23,26.23,0,0,1,3.94-5.07l.71-.75c1.32-1.4,2.71-2.85,4-4.37a27.08,27.08,0,0,0,3.73-5.5l.35-.8a34.33,34.33,0,0,0,2.08-5.36,26.55,26.55,0,0,0,.78-7,92.08,92.08,0,0,0-.4-10.77,78.87,78.87,0,0,0-1.95-10.44"/><path class="cls-3" d="M5.05,271.77c2,2.13,4.38,5,7.88,5.91,16.15,4.06,29,14.16,44.51,19.92,11.86,4.41,27.15,3.69,36.49-8.34a83.53,83.53,0,0,0,11.26-19.7,93.08,93.08,0,0,0,5.73-21.65,115.91,115.91,0,0,0-.21-32.6,114.34,114.34,0,0,0-2.52-13c-.4-1.58-.88-3.13-1.38-4.69-.64-2-1.32-4-2-6-1.27-3.57-2.76-7.14-4.19-10.76s-2.62-7.29-3.82-11c-3.61-11.07-1.34-27.27,11.87-33.47,18.62-8.74,35.55,4.15,53.15.66a17.85,17.85,0,0,0,9.66-5.39c6.23-6.56,8.79-15.14,12-23.4,2-5.15,4.25-10.2,7.64-14.68a18.71,18.71,0,0,1,5.38-4.71A13,13,0,0,1,201,87.31a16.32,16.32,0,0,1,2.07-.13,15.38,15.38,0,0,1,6.41,1.29,14.77,14.77,0,0,1,1.63.85,13.68,13.68,0,0,1,3.19,2.76,14,14,0,0,1,2.46,4.32c4.05,6.58,9.18,12.19,15.25,17.86,1.45,1.37,3,2.72,4.56,4,.62.51,1.24,1,1.88,1.51,7.62,4.18,16.64,9,25.9,12.49,1.89.71,3.79,1.38,5.69,2,9.17,2.82,18.52,3.81,26.91,1.36A31.55,31.55,0,0,0,312,125.77c7.21-8.18,6.05-17,3.68-25.6-.41-1.51-.88-3-1.33-4.52-.52-1.77-1.07-3.53-1.56-5.28s-1-3.61-1.33-5.4c-.1-.53-.2-1.07-.29-1.6a6.93,6.93,0,0,1,1-4.83,26.45,26.45,0,0,1,4-4.9l.73-.73c1.35-1.37,2.77-2.78,4.08-4.28a26.4,26.4,0,0,0,3.84-5.43c.13-.26.25-.52.37-.78a34.74,34.74,0,0,0,2.19-5.31,26.4,26.4,0,0,0,.94-7,90.68,90.68,0,0,0-.21-10.81,80.48,80.48,0,0,0-1.79-10.52"/><path class="cls-3" d="M6.28,275c1.93,2.33,4.55,5.28,8.18,6.18,16,4,28.79,14,44.13,19.62,11.76,4.33,26.9,3.6,36.16-8.28A82.29,82.29,0,0,0,106,273a92.17,92.17,0,0,0,5.76-21.4,115.34,115.34,0,0,0-.07-32.25,114.18,114.18,0,0,0-2.44-12.84c-.4-1.56-.87-3.11-1.36-4.65-.63-2-1.3-4-2-6-1.25-3.55-2.72-7.08-4.13-10.67S99.15,178,98,174.4c-3.55-11-1.3-27.06,11.73-33.27,18.36-8.76,35.08,3.79,52.49.23a17.84,17.84,0,0,0,9.56-5.39c6.17-6.51,8.74-15,12-23.21a60.19,60.19,0,0,1,7.64-14.52,19.59,19.59,0,0,1,5.46-4.66A13.4,13.4,0,0,1,201.37,92a14.73,14.73,0,0,1,2.08-.14A15.83,15.83,0,0,1,209.88,93a12.42,12.42,0,0,1,1.63.82,13.13,13.13,0,0,1,3.21,2.64,13.42,13.42,0,0,1,2.5,4.16c4.09,6.33,9.24,11.66,15.4,17.22,1.46,1.33,3,2.67,4.62,4,.62.51,1.26,1,1.9,1.5,7.71,4.17,16.78,9,26,12.62,1.89.74,3.78,1.43,5.68,2.05,9.14,3,18.47,4.07,26.8,1.86a30.77,30.77,0,0,0,15-9.32c7.19-7.82,5.95-16.16,3.61-24.41-.41-1.44-.87-2.87-1.3-4.31-.5-1.69-1-3.37-1.49-5s-.9-3.46-1.21-5.17c-.1-.51-.18-1-.26-1.54a6.67,6.67,0,0,1,1.12-4.66,26.2,26.2,0,0,1,4.11-4.75l.74-.71c1.38-1.32,2.83-2.71,4.17-4.18a26.87,26.87,0,0,0,3.95-5.35c.14-.26.26-.52.39-.78a35.39,35.39,0,0,0,2.3-5.26,26.15,26.15,0,0,0,1.09-6.93,87.13,87.13,0,0,0,0-10.84A78.67,78.67,0,0,0,328.2,36"/><path class="cls-3" d="M7.52,278.22c1.9,2.51,4.7,5.52,8.47,6.45,15.88,3.91,28.54,13.77,43.75,19.31,11.66,4.26,26.64,3.51,35.84-8.22a82.29,82.29,0,0,0,11.16-19.24,91.21,91.21,0,0,0,5.77-21.15,113.65,113.65,0,0,0,.07-31.9,110,110,0,0,0-2.36-12.71c-.39-1.55-.85-3.08-1.33-4.61-.62-2-1.28-4-2-5.91-1.23-3.52-2.68-7-4.06-10.58s-2.54-7.16-3.69-10.76C95.68,168,97.92,152,110.76,145.82c18.11-8.77,34.62,3.43,51.83-.19a18,18,0,0,0,9.46-5.39c6.13-6.48,8.7-14.91,12-23a59.8,59.8,0,0,1,7.65-14.37,20.1,20.1,0,0,1,5.52-4.6,13.74,13.74,0,0,1,4.55-1.62,15,15,0,0,1,2.09-.16,16.27,16.27,0,0,1,6.46,1.09,13,13,0,0,1,1.64.77,13.25,13.25,0,0,1,3.23,2.54,13.11,13.11,0,0,1,2.53,4c4.13,6.08,9.31,11.13,15.54,16.57,1.49,1.31,3,2.62,4.69,3.93.63.5,1.27,1,1.92,1.49,7.8,4.16,16.91,9.06,26.15,12.75,1.89.76,3.79,1.47,5.68,2.11,9.11,3.09,18.42,4.34,26.69,2.37a29.86,29.86,0,0,0,14.9-8.76c7.19-7.47,5.85-15.38,3.55-23.23-.4-1.36-.86-2.72-1.27-4.1-.48-1.6-1-3.2-1.41-4.81a49.42,49.42,0,0,1-1.1-5c-.09-.5-.16-1-.23-1.49A6.39,6.39,0,0,1,314,92.25a27.05,27.05,0,0,1,4.19-4.58L319,87c1.41-1.28,2.88-2.64,4.26-4.08a26.72,26.72,0,0,0,4.06-5.29c.15-.25.27-.51.41-.77a35,35,0,0,0,2.41-5.21,26,26,0,0,0,1.24-6.9,85.81,85.81,0,0,0,.19-10.88A76.69,76.69,0,0,0,330,43.17"/><path class="cls-3" d="M8.75,281.44c1.88,2.7,4.87,5.76,8.77,6.72,15.74,3.84,28.3,13.57,43.37,19,11.55,4.17,26.39,3.41,35.52-8.17a81.55,81.55,0,0,0,11.1-19,90.3,90.3,0,0,0,5.8-20.9,113.09,113.09,0,0,0,.21-31.55A112.49,112.49,0,0,0,111.24,215c-.39-1.53-.84-3.05-1.31-4.57-.61-2-1.26-3.91-1.93-5.86-1.21-3.48-2.63-7-4-10.48s-2.51-7.1-3.64-10.67c-3.43-10.86-1.22-26.65,11.45-32.88,17.85-8.79,34.15,3.08,51.17-.62a17.94,17.94,0,0,0,9.36-5.39c6.07-6.43,8.66-14.79,11.92-22.82a59.45,59.45,0,0,1,7.65-14.21,20.81,20.81,0,0,1,5.6-4.56,14.39,14.39,0,0,1,4.58-1.63,16.81,16.81,0,0,1,2.1-.17,17,17,0,0,1,6.48,1,13.61,13.61,0,0,1,1.64.74,12.81,12.81,0,0,1,5.82,6.25c4.18,5.83,9.38,10.6,15.69,15.93,1.5,1.27,3.08,2.57,4.75,3.87.64.5,1.28,1,1.94,1.48,7.89,4.14,17,9.08,26.28,12.87,1.89.78,3.78,1.52,5.67,2.19,9.08,3.22,18.36,4.6,26.59,2.88a29.18,29.18,0,0,0,14.81-8.22c7.19-7.1,5.75-14.58,3.48-22-.39-1.29-.83-2.57-1.23-3.89-.46-1.52-.94-3-1.34-4.57a44.73,44.73,0,0,1-1-4.73c-.07-.48-.12-1-.18-1.43a6.1,6.1,0,0,1,1.31-4.33,27.79,27.79,0,0,1,4.28-4.42L320,94c1.44-1.25,2.94-2.58,4.35-4a27.39,27.39,0,0,0,4.18-5.21l.42-.76a35.23,35.23,0,0,0,2.52-5.17A25.72,25.72,0,0,0,332.83,72a82.66,82.66,0,0,0,.39-10.91,77.87,77.87,0,0,0-1.33-10.77"/><path class="cls-3" d="M10,284.67c1.86,2.89,5,6,9.08,7,15.59,3.78,28.05,13.38,43,18.72,11.45,4.09,26.13,3.32,35.19-8.12a81,81,0,0,0,11.06-18.77,89.94,89.94,0,0,0,5.82-20.66,111.32,111.32,0,0,0,.34-31.19,107.91,107.91,0,0,0-2.2-12.45c-.37-1.52-.82-3-1.29-4.52q-.9-2.91-1.89-5.81c-1.19-3.46-2.59-6.9-3.93-10.39s-2.46-7-3.57-10.57c-3.37-10.8-1.18-26.45,11.31-32.69,17.6-8.81,33.68,2.72,50.5-1a18,18,0,0,0,9.27-5.38c6-6.4,8.61-14.67,11.88-22.63a58.84,58.84,0,0,1,7.65-14.06,21.65,21.65,0,0,1,5.67-4.51,15.25,15.25,0,0,1,4.61-1.63,19.32,19.32,0,0,1,8.62.7,15.43,15.43,0,0,1,1.65.7,12.93,12.93,0,0,1,3.27,2.31,12.4,12.4,0,0,1,2.6,3.68c4.22,5.57,9.44,10.06,15.83,15.28,1.53,1.24,3.12,2.51,4.82,3.8.64.5,1.3,1,2,1.47,8,4.14,17.19,9.1,26.41,13,1.89.8,3.78,1.58,5.66,2.27,9.06,3.34,18.31,4.87,26.48,3.38a28.43,28.43,0,0,0,14.74-7.67c7.17-6.74,5.65-13.79,3.41-20.84-.39-1.22-.82-2.44-1.2-3.68-.44-1.45-.9-2.89-1.27-4.34a37.73,37.73,0,0,1-.87-4.51c-.06-.46-.1-.92-.15-1.37a5.9,5.9,0,0,1,1.41-4.16,27.38,27.38,0,0,1,4.37-4.26l.78-.64c1.47-1.21,3-2.51,4.44-3.9A27.69,27.69,0,0,0,329.71,92c.15-.24.29-.5.44-.75a35.89,35.89,0,0,0,2.63-5.12,25.14,25.14,0,0,0,1.54-6.85,81.15,81.15,0,0,0,.59-10.94,77.94,77.94,0,0,0-1.18-10.85"/><path class="cls-3" d="M11.21,287.89a15.78,15.78,0,0,0,9.38,7.25c15.45,3.72,27.81,13.18,42.6,18.42,11.35,4,25.88,3.23,34.87-8.06a80.27,80.27,0,0,0,11-18.54,88.87,88.87,0,0,0,5.84-20.41,110,110,0,0,0,.48-30.84,103.89,103.89,0,0,0-2.12-12.32c-.36-1.5-.8-3-1.26-4.48q-.89-2.88-1.86-5.76c-1.17-3.42-2.55-6.83-3.86-10.29s-2.43-7-3.51-10.47c-3.32-10.73-1.15-26.25,11.16-32.51,17.35-8.81,33.22,2.37,49.85-1.47A18,18,0,0,0,173,153c6-6.35,8.56-14.55,11.85-22.43a57.64,57.64,0,0,1,7.65-13.9,22,22,0,0,1,5.74-4.46,15.63,15.63,0,0,1,4.64-1.64,19.75,19.75,0,0,1,2.12-.21,18.19,18.19,0,0,1,6.53.8,14.34,14.34,0,0,1,1.66.66,12.45,12.45,0,0,1,3.28,2.19,12,12,0,0,1,2.64,3.52c4.26,5.32,9.51,9.54,16,14.63,1.54,1.22,3.16,2.47,4.88,3.75.65.49,1.31,1,2,1.46,8.05,4.13,17.31,9.12,26.53,13.13,1.89.82,3.77,1.62,5.65,2.34,9,3.46,18.26,5.13,26.37,3.88a27.83,27.83,0,0,0,14.66-7.11c7.17-6.38,5.55-13,3.35-19.66-.38-1.15-.81-2.29-1.17-3.47-.42-1.36-.86-2.72-1.19-4.1a32.06,32.06,0,0,1-.77-4.3c0-.43-.07-.87-.1-1.31a5.63,5.63,0,0,1,1.5-4,28.72,28.72,0,0,1,4.45-4.09l.8-.62c1.5-1.18,3.06-2.45,4.52-3.81a27.24,27.24,0,0,0,4.41-5.06c.16-.24.31-.5.46-.74a37.2,37.2,0,0,0,2.75-5.07,25.61,25.61,0,0,0,1.69-6.83,79.94,79.94,0,0,0,.78-11,75.91,75.91,0,0,0-1-10.92"/><path class="cls-3" d="M12.44,291.12a15.77,15.77,0,0,0,9.68,7.52c15.31,3.65,27.57,13,42.22,18.11,11.25,3.94,25.62,3.14,34.55-8a80.09,80.09,0,0,0,11-18.31,88.6,88.6,0,0,0,5.86-20.16,109.45,109.45,0,0,0,.62-30.49,104,104,0,0,0-2-12.19c-.36-1.49-.79-3-1.24-4.44-.58-1.9-1.2-3.8-1.83-5.7-1.15-3.39-2.5-6.77-3.8-10.2s-2.38-6.9-3.44-10.38c-3.26-10.66-1.11-26,11-32.31,17.09-8.83,32.74,2,49.18-1.9a18,18,0,0,0,9.08-5.37c5.9-6.31,8.52-14.44,11.81-22.24a57.53,57.53,0,0,1,7.65-13.75,23.36,23.36,0,0,1,5.81-4.41,16.18,16.18,0,0,1,4.68-1.65,19.81,19.81,0,0,1,2.12-.22,18.88,18.88,0,0,1,6.56.7,16.28,16.28,0,0,1,1.66.62,13.05,13.05,0,0,1,3.3,2.08,11.82,11.82,0,0,1,2.68,3.36c4.3,5.08,9.57,9,16.13,14,1.56,1.18,3.19,2.41,4.93,3.69.67.48,1.34,1,2,1.44,8.14,4.12,17.45,9.16,26.65,13.26,1.9.85,3.78,1.67,5.65,2.41,9,3.59,18.21,5.4,26.26,4.4a27.29,27.29,0,0,0,14.58-6.57c7.17-6,5.45-12.21,3.29-18.47-.38-1.08-.8-2.15-1.15-3.26-.39-1.28-.81-2.56-1.11-3.86a25.86,25.86,0,0,1-.65-4.08c0-.42-.05-.83-.07-1.25a5.47,5.47,0,0,1,1.6-3.82,29.47,29.47,0,0,1,4.54-3.94l.81-.59c1.53-1.14,3.12-2.38,4.61-3.71a28.23,28.23,0,0,0,4.52-5c.17-.25.32-.49.48-.74a38.55,38.55,0,0,0,2.86-5,25.38,25.38,0,0,0,1.84-6.8,77.27,77.27,0,0,0,1-11,77.36,77.36,0,0,0-.87-11"/><path class="cls-3" d="M13.68,294.34a15.76,15.76,0,0,0,10,7.79C38.82,305.72,51,314.91,65.5,319.94,76.64,323.8,90.86,323,99.71,312a79.05,79.05,0,0,0,10.9-18.08A87.7,87.7,0,0,0,116.5,274a107.7,107.7,0,0,0,.75-30.13,99.89,99.89,0,0,0-2-12.07c-.34-1.47-.76-2.93-1.21-4.4-.58-1.88-1.18-3.77-1.8-5.64-1.13-3.36-2.46-6.71-3.73-10.11s-2.34-6.84-3.39-10.28c-3.2-10.6-1.06-25.84,10.89-32.12,16.83-8.84,32.27,1.66,48.52-2.33a18,18,0,0,0,9-5.37c5.85-6.27,8.47-14.32,11.77-22a57.26,57.26,0,0,1,7.65-13.6,24.27,24.27,0,0,1,5.89-4.36,17,17,0,0,1,4.7-1.65,17.91,17.91,0,0,1,2.14-.23,19.36,19.36,0,0,1,6.58.6,16.36,16.36,0,0,1,1.67.57,13.37,13.37,0,0,1,3.32,2A11.79,11.79,0,0,1,220,126c4.35,4.83,9.64,8.49,16.27,13.34,1.58,1.16,3.24,2.37,5,3.63.68.48,1.35,1,2,1.44,8.23,4.11,17.59,9.18,26.78,13.38,1.89.87,3.77,1.72,5.64,2.49,9,3.72,18.16,5.66,26.16,4.9a26.81,26.81,0,0,0,14.5-6c7.16-5.67,5.35-11.43,3.21-17.28-.36-1-.78-2-1.11-3.06s-.76-2.39-1-3.62a23.91,23.91,0,0,1-.54-3.86l0-1.19a5.37,5.37,0,0,1,1.7-3.66,31.35,31.35,0,0,1,4.62-3.77l.83-.57c1.56-1.1,3.18-2.32,4.7-3.62a28.2,28.2,0,0,0,4.63-4.92c.18-.24.33-.48.5-.72a37.81,37.81,0,0,0,3-5,24.9,24.9,0,0,0,2-6.77,76.07,76.07,0,0,0,1.18-11A74.32,74.32,0,0,0,339.26,79"/><path class="cls-3" d="M14.91,297.57a15.77,15.77,0,0,0,10.27,8.05c15,3.53,27.08,12.59,41.47,17.51,11,3.78,25.1,3,33.89-7.89a78.82,78.82,0,0,0,10.85-17.84,86.91,86.91,0,0,0,5.9-19.66,106.77,106.77,0,0,0,.9-29.78A99.64,99.64,0,0,0,116.31,236c-.34-1.46-.75-2.9-1.19-4.35q-.86-2.8-1.77-5.6c-1.11-3.33-2.42-6.65-3.67-10s-2.3-6.77-3.32-10.19c-3.14-10.52-1-25.63,10.75-31.92,16.57-8.86,31.8,1.3,47.85-2.76a18,18,0,0,0,8.88-5.36c5.8-6.23,8.43-14.2,11.74-21.85a56.24,56.24,0,0,1,7.66-13.44,24.86,24.86,0,0,1,5.95-4.31,17.44,17.44,0,0,1,4.74-1.66,20.69,20.69,0,0,1,2.14-.25,20.45,20.45,0,0,1,6.61.5,14.18,14.18,0,0,1,1.67.54,13.06,13.06,0,0,1,3.34,1.85,11.53,11.53,0,0,1,2.75,3c4.39,4.58,9.7,8,16.42,12.7l5.06,3.57c.68.48,1.36,1,2.06,1.42,8.32,4.1,17.72,9.21,26.91,13.52,1.89.89,3.76,1.76,5.63,2.56,9,3.84,18.11,5.92,26.05,5.4A26.27,26.27,0,0,0,317,164c7.16-5.31,5.25-10.64,3.15-16.09-.36-.94-.77-1.87-1.08-2.85a32.59,32.59,0,0,1-1-3.38,18.56,18.56,0,0,1-.43-3.64c0-.38,0-.76,0-1.13a5.16,5.16,0,0,1,1.79-3.49,31.3,31.3,0,0,1,4.71-3.61c.27-.19.56-.36.84-.55,1.59-1.07,3.24-2.25,4.79-3.53a28.94,28.94,0,0,0,4.75-4.84l.51-.72a37.47,37.47,0,0,0,3.08-4.93,24.88,24.88,0,0,0,2.14-6.75,72.18,72.18,0,0,0,1.37-11.07,72.77,72.77,0,0,0-.56-11.17"/><path class="cls-3" d="M16.14,300.79a15.84,15.84,0,0,0,10.58,8.32c14.88,3.47,26.83,12.39,41.08,17.22,10.94,3.7,24.85,2.86,33.57-7.84a78.11,78.11,0,0,0,10.79-17.61,86,86,0,0,0,5.93-19.41,105.47,105.47,0,0,0,1-29.43,95.79,95.79,0,0,0-1.8-11.81c-.33-1.44-.73-2.87-1.16-4.31q-.84-2.78-1.74-5.54c-1.09-3.3-2.38-6.59-3.6-9.92s-2.26-6.71-3.26-10.09c-3.08-10.46-1-25.43,10.6-31.73,16.32-8.88,31.34.94,47.2-3.19a18,18,0,0,0,8.78-5.36c5.75-6.19,8.38-14.08,11.7-21.65a56.17,56.17,0,0,1,7.66-13.29,26.19,26.19,0,0,1,6-4.26,18,18,0,0,1,4.76-1.66,23.75,23.75,0,0,1,8.79.14,15.76,15.76,0,0,1,1.68.49,13.17,13.17,0,0,1,3.36,1.75,11.12,11.12,0,0,1,2.78,2.88c4.43,4.32,9.77,7.42,16.56,12,1.62,1.1,3.32,2.27,5.13,3.52l2.08,1.41c8.41,4.09,17.86,9.24,27,13.64,1.9.91,3.77,1.81,5.63,2.64,8.92,4,18.06,6.19,25.94,5.91a26,26,0,0,0,14.35-4.92c7.16-4.95,5.14-9.84,3.08-14.9-.36-.86-.75-1.72-1.05-2.63a26.83,26.83,0,0,1-.89-3.15,15.64,15.64,0,0,1-.31-3.43c0-.35,0-.71,0-1.07a5.1,5.1,0,0,1,1.89-3.32,33.76,33.76,0,0,1,4.79-3.45l.86-.52a59.58,59.58,0,0,0,4.88-3.44,29.3,29.3,0,0,0,4.86-4.77c.18-.23.35-.47.52-.7a37.32,37.32,0,0,0,3.2-4.89,25.17,25.17,0,0,0,2.3-6.72,69.94,69.94,0,0,0,1.56-11.11,73.94,73.94,0,0,0-.4-11.25"/><path class="cls-3" d="M17.37,304c1.73,4,6,7.46,10.88,8.59C43,316,54.84,324.8,69,329.52c10.83,3.62,24.59,2.77,33.24-7.78a77.49,77.49,0,0,0,10.75-17.38,86.07,86.07,0,0,0,6-19.17,104.84,104.84,0,0,0,1.17-29.07,93.91,93.91,0,0,0-1.73-11.68c-.31-1.43-.71-2.85-1.13-4.27q-.83-2.74-1.71-5.49c-1.07-3.26-2.33-6.52-3.53-9.82s-2.23-6.64-3.2-10c-3-10.4-1-25.23,10.46-31.55,16.07-8.88,30.87.59,46.54-3.61a18.05,18.05,0,0,0,8.68-5.35c5.69-6.15,8.34-14,11.66-21.46a55.65,55.65,0,0,1,7.66-13.13,27.36,27.36,0,0,1,6.11-4.22,19.42,19.42,0,0,1,4.79-1.67c.74-.14,1.46-.21,2.16-.28a22.71,22.71,0,0,1,6.66.31,16.67,16.67,0,0,1,1.69.46,13.19,13.19,0,0,1,3.37,1.63,11,11,0,0,1,2.82,2.72c4.48,4.07,9.83,6.9,16.71,11.4,1.63,1.07,3.35,2.22,5.19,3.45l2.1,1.41c8.5,4.07,18,9.26,27.16,13.77,1.9.93,3.76,1.85,5.62,2.71A67.76,67.76,0,0,0,304,177.87a24.44,24.44,0,0,0,14.26-4.36c7.16-4.61,5.05-9.06,3-13.72a26.2,26.2,0,0,1-1-2.42,20.54,20.54,0,0,1-.81-2.91,13.73,13.73,0,0,1-.21-3.21c0-.33,0-.67.08-1a5,5,0,0,1,2-3.15,35.41,35.41,0,0,1,4.88-3.29l.87-.5a57,57,0,0,0,5-3.35,29.23,29.23,0,0,0,5-4.69c.19-.23.36-.47.54-.7a37.59,37.59,0,0,0,3.31-4.83,24.85,24.85,0,0,0,2.45-6.7A68,68,0,0,0,345,111.88a72.55,72.55,0,0,0-.25-11.33"/><path class="cls-3" d="M18.6,307.25c1.7,4.21,6.18,7.7,11.18,8.85,14.6,3.36,26.35,12,40.32,16.61,10.73,3.54,24.34,2.68,32.92-7.72a77.71,77.71,0,0,0,10.7-17.15,85.13,85.13,0,0,0,6-18.92A103.15,103.15,0,0,0,121,260.2a90,90,0,0,0-1.64-11.55c-.31-1.41-.7-2.82-1.12-4.23q-.8-2.71-1.67-5.43c-1-3.23-2.29-6.46-3.47-9.73s-2.18-6.58-3.14-9.9c-3-10.32-.91-25,10.33-31.35,15.81-8.9,30.4.24,45.87-4a18.1,18.1,0,0,0,8.59-5.35c5.64-6.1,8.29-13.85,11.62-21.27a55.32,55.32,0,0,1,7.66-13,28.62,28.62,0,0,1,6.18-4.16,19.88,19.88,0,0,1,4.83-1.68c.73-.14,1.46-.23,2.17-.3a23.78,23.78,0,0,1,6.68.22,16.7,16.7,0,0,1,1.69.41,14,14,0,0,1,3.4,1.52,11.3,11.3,0,0,1,2.85,2.56c4.52,3.82,9.89,6.37,16.86,10.75,1.65,1,3.39,2.17,5.25,3.4l2.12,1.39c8.59,4.07,18.13,9.3,27.29,13.9,1.89,1,3.76,1.9,5.61,2.78,8.87,4.21,18,6.72,25.73,6.92a25.36,25.36,0,0,0,14.18-3.81c7.17-4.25,4.95-8.27,2.95-12.52a21,21,0,0,1-1-2.22,16.23,16.23,0,0,1-.74-2.67,11,11,0,0,1-.09-3c0-.32.08-.63.12-.95a5,5,0,0,1,2.08-3,37.42,37.42,0,0,1,5-3.12c.28-.17.58-.32.88-.48a55.16,55.16,0,0,0,5.05-3.25,29.75,29.75,0,0,0,5.09-4.63c.2-.22.38-.46.56-.69a38.39,38.39,0,0,0,3.43-4.78,25.27,25.27,0,0,0,2.59-6.67,67.34,67.34,0,0,0,2-11.18,72.38,72.38,0,0,0-.1-11.41"/><path class="cls-3" d="M19.84,310.47c1.67,4.41,6.33,7.94,11.47,9.12,14.46,3.3,26.1,11.8,39.94,16.31,10.63,3.47,24.08,2.59,32.6-7.67a76.71,76.71,0,0,0,10.64-16.91,84.26,84.26,0,0,0,6-18.67,103,103,0,0,0,1.45-28.37,89.89,89.89,0,0,0-1.57-11.42c-.3-1.4-.68-2.79-1.09-4.18-.53-1.8-1.07-3.59-1.64-5.38-1-3.21-2.25-6.4-3.4-9.64s-2.14-6.51-3.08-9.8c-2.91-10.26-.87-24.82,10.19-31.16,15.55-8.91,29.92-.12,45.21-4.47a18.11,18.11,0,0,0,8.49-5.34c5.58-6.07,8.24-13.73,11.59-21.08A54.45,54.45,0,0,1,194.29,149a29.67,29.67,0,0,1,6.25-4.12,20.62,20.62,0,0,1,4.85-1.68c.74-.15,1.47-.24,2.19-.32a25,25,0,0,1,6.7.12,17,17,0,0,1,1.7.38,13.9,13.9,0,0,1,3.41,1.4,11.1,11.1,0,0,1,2.89,2.4c4.56,3.57,10,5.85,17,10.11,1.67,1,3.43,2.12,5.32,3.34l2.14,1.38c8.68,4.06,18.26,9.32,27.42,14,1.89,1,3.75,1.95,5.6,2.86,8.84,4.34,17.92,7,25.62,7.42a25.24,25.24,0,0,0,14.11-3.25c7.17-3.91,4.84-7.49,2.88-11.34a16.18,16.18,0,0,1-1-2,13.42,13.42,0,0,1-.66-2.43,9.9,9.9,0,0,1,0-2.77c.05-.3.11-.59.16-.89a5,5,0,0,1,2.17-2.83,43.14,43.14,0,0,1,5.06-3l.9-.45a53.1,53.1,0,0,0,5.14-3.16,29.74,29.74,0,0,0,5.21-4.55L340,149a40,40,0,0,0,3.54-4.74,24.72,24.72,0,0,0,2.74-6.65,65.17,65.17,0,0,0,2.16-11.21,72.28,72.28,0,0,0,.06-11.49"/><path class="cls-3" d="M21.07,313.7c1.65,4.59,6.49,8.18,11.78,9.38,14.3,3.25,25.85,11.61,39.55,16,10.53,3.39,23.83,2.5,32.27-7.61a76.48,76.48,0,0,0,10.6-16.68,83.5,83.5,0,0,0,6-18.42,101.72,101.72,0,0,0,1.59-28,86.29,86.29,0,0,0-1.49-11.29c-.29-1.38-.66-2.76-1.06-4.14-.52-1.78-1-3.56-1.61-5.33-1-3.17-2.2-6.33-3.34-9.54s-2.1-6.45-3-9.71c-2.85-10.19-.84-24.61,10-31,15.3-8.93,29.46-.48,44.55-4.89a18.28,18.28,0,0,0,8.4-5.35c5.52-6,8.2-13.61,11.55-20.88a54,54,0,0,1,7.66-12.66,31.74,31.74,0,0,1,6.32-4.07,21.92,21.92,0,0,1,4.89-1.69c.74-.15,1.48-.24,2.19-.32a26,26,0,0,1,6.73,0,17.06,17.06,0,0,1,1.7.33,14.4,14.4,0,0,1,3.43,1.29,11.32,11.32,0,0,1,2.93,2.24c4.6,3.32,10,5.32,17.15,9.46,1.68,1,3.47,2.07,5.38,3.28.72.46,1.43.92,2.16,1.37,8.77,4,18.4,9.35,27.54,14.16,1.9,1,3.76,2,5.6,2.93,8.81,4.46,17.87,7.25,25.51,7.93a25.22,25.22,0,0,0,14-2.71c7.18-3.55,4.75-6.71,2.82-10.15a11.33,11.33,0,0,1-.93-1.8,10.09,10.09,0,0,1-.58-2.19,7.7,7.7,0,0,1,.13-2.56c.06-.27.13-.55.2-.83a5,5,0,0,1,2.26-2.65,44.91,44.91,0,0,1,5.15-2.8c.3-.15.6-.28.91-.44a47.69,47.69,0,0,0,5.23-3.06,30.5,30.5,0,0,0,5.32-4.47c.2-.22.39-.45.59-.68a38.63,38.63,0,0,0,3.65-4.69,24.41,24.41,0,0,0,2.89-6.62,63.51,63.51,0,0,0,2.36-11.24,71.16,71.16,0,0,0,.21-11.58"/><path class="cls-3" d="M22.3,316.92c1.63,4.79,6.66,8.43,12.08,9.66C48.54,329.77,60,338,73.55,342.28c10.43,3.31,23.57,2.41,32-7.55A75.61,75.61,0,0,0,116,318.27a82.38,82.38,0,0,0,6-18.16,100.8,100.8,0,0,0,1.73-27.67,86.17,86.17,0,0,0-1.41-11.16c-.28-1.37-.64-2.73-1-4.1-.51-1.76-1-3.52-1.58-5.27-1-3.14-2.16-6.28-3.27-9.45s-2.06-6.38-3-9.61c-2.79-10.12-.8-24.42,9.9-30.77,15-9,29-.84,43.89-5.32a18.35,18.35,0,0,0,8.29-5.34c5.48-6,8.16-13.5,11.52-20.69a53.38,53.38,0,0,1,7.66-12.51,33.32,33.32,0,0,1,6.4-4,22.62,22.62,0,0,1,4.91-1.7c.75-.15,1.49-.25,2.21-.34a27.94,27.94,0,0,1,6.75-.08q.88.12,1.71.3a14.55,14.55,0,0,1,3.45,1.17,11.83,11.83,0,0,1,3,2.08c4.65,3.07,10.08,4.79,17.29,8.82,1.71.95,3.51,2,5.45,3.22l2.19,1.36c8.85,4,18.52,9.38,27.66,14.28,1.9,1,3.75,2,5.59,3,8.79,4.58,17.82,7.52,25.41,8.43a25.14,25.14,0,0,0,13.94-2.16c7.19-3.2,4.65-5.92,2.75-9a8.44,8.44,0,0,1-.89-1.58,7.64,7.64,0,0,1-.51-2,6.64,6.64,0,0,1,.25-2.34c.07-.25.15-.51.23-.77a5.18,5.18,0,0,1,2.36-2.49,53.52,53.52,0,0,1,5.23-2.64c.31-.13.62-.26.93-.41a44.78,44.78,0,0,0,5.32-3,30.9,30.9,0,0,0,5.43-4.4l.61-.66a39.23,39.23,0,0,0,3.76-4.65,24.92,24.92,0,0,0,3.05-6.59,63.12,63.12,0,0,0,2.55-11.28,71,71,0,0,0,.37-11.65"/><path class="cls-3" d="M23.53,320.15c1.61,5,6.82,8.67,12.38,9.92,14,3.14,25.37,11.21,38.79,15.41C85,348.71,98,347.79,106.33,338a75.18,75.18,0,0,0,10.49-16.22,82.45,82.45,0,0,0,6.05-17.92,99.79,99.79,0,0,0,1.86-27.31,82.44,82.44,0,0,0-1.33-11c-.27-1.35-.62-2.7-1-4.06-.5-1.74-1-3.48-1.55-5.22-1-3.1-2.12-6.21-3.2-9.35s-2-6.32-2.89-9.51c-2.74-10.06-.76-24.22,9.76-30.59,14.79-8.95,28.52-1.18,43.22-5.74a18.43,18.43,0,0,0,8.2-5.34c5.42-5.94,8.11-13.38,11.48-20.49a52.88,52.88,0,0,1,7.67-12.35,34.44,34.44,0,0,1,6.46-4,23.15,23.15,0,0,1,5-1.7c.75-.16,1.49-.27,2.21-.36a29.68,29.68,0,0,1,6.78-.17c.59.06,1.17.14,1.71.25a15.08,15.08,0,0,1,3.47,1.06,11.85,11.85,0,0,1,3,1.93c4.69,2.81,10.15,4.26,17.44,8.17,1.72.92,3.55,2,5.51,3.16.73.44,1.46.9,2.21,1.34,8.94,4,18.66,9.41,27.79,14.42,1.89,1,3.75,2.09,5.58,3.07a81.39,81.39,0,0,0,25.3,8.94,25.34,25.34,0,0,0,13.87-1.6c7.2-2.86,4.54-5.15,2.68-7.77a7.07,7.07,0,0,1-.86-1.38,5.31,5.31,0,0,1-.43-1.72,5.48,5.48,0,0,1,.35-2.12l.27-.71a5.44,5.44,0,0,1,2.46-2.32,56.5,56.5,0,0,1,5.32-2.48l.94-.39a45.7,45.7,0,0,0,5.41-2.88,30.89,30.89,0,0,0,5.54-4.32c.22-.22.42-.44.63-.66a40.72,40.72,0,0,0,3.87-4.59,25,25,0,0,0,3.2-6.57,62.39,62.39,0,0,0,2.75-11.32,72,72,0,0,0,.52-11.73"/><path class="cls-3" d="M24.76,323.37c1.59,5.16,7,8.92,12.68,10.19,13.87,3.1,25.13,11,38.41,15.11,10.23,3.15,23.07,2.22,31.31-7.45a74.49,74.49,0,0,0,10.43-16,81,81,0,0,0,6.07-17.67,98.12,98.12,0,0,0,2-27,80.8,80.8,0,0,0-1.24-10.9c-.27-1.34-.61-2.67-1-4-.49-1.73-1-3.45-1.52-5.17-1-3.08-2.07-6.15-3.14-9.26s-2-6.26-2.83-9.42c-2.67-10-.72-24,9.63-30.39,14.53-9,28.05-1.54,42.56-6.17a18.52,18.52,0,0,0,8.1-5.33c5.37-5.9,8.07-13.26,11.44-20.3a52.4,52.4,0,0,1,7.67-12.2,36.91,36.91,0,0,1,6.54-3.92,25.23,25.23,0,0,1,5-1.71c.75-.16,1.49-.27,2.22-.37a31.5,31.5,0,0,1,6.79-.27c.61,0,1.18.12,1.73.21a16.22,16.22,0,0,1,3.49,1,12.27,12.27,0,0,1,3,1.77c4.74,2.56,10.22,3.73,17.6,7.52,1.74.89,3.58,1.92,5.56,3.1l2.24,1.34c9,4,18.79,9.44,27.91,14.54,1.9,1.06,3.75,2.14,5.58,3.15a87.09,87.09,0,0,0,25.19,9.45A25.61,25.61,0,0,0,322,202.15c7.21-2.5,4.44-4.37,2.62-6.58a4.53,4.53,0,0,1-.83-1.17,3.88,3.88,0,0,1-.36-1.48,4.46,4.46,0,0,1,.47-1.9c.09-.21.2-.43.31-.66a5.72,5.72,0,0,1,2.55-2.15c1.43-.74,3.33-1.48,5.41-2.31l1-.37a44.36,44.36,0,0,0,5.5-2.78,31.81,31.81,0,0,0,5.65-4.26l.65-.64a40.52,40.52,0,0,0,4-4.55,24.8,24.8,0,0,0,3.35-6.54,61.19,61.19,0,0,0,2.95-11.35,71,71,0,0,0,.67-11.82"/><path class="cls-3" d="M26,326.6c1.56,5.35,7.14,9.16,13,10.45,13.73,3.05,24.88,10.82,38,14.81,10.12,3.07,22.81,2.13,31-7.39a74.29,74.29,0,0,0,10.39-15.76,80.87,80.87,0,0,0,6.09-17.42,97.56,97.56,0,0,0,2.14-26.6,79,79,0,0,0-1.17-10.78c-.25-1.32-.59-2.64-1-4-.49-1.71-1-3.41-1.49-5.11-.93-3.05-2-6.09-3.07-9.17s-1.94-6.19-2.77-9.32c-2.62-9.93-.68-23.81,9.48-30.2,14.28-9,27.58-1.9,41.9-6.6a18.61,18.61,0,0,0,8-5.33c5.31-5.86,8-13.14,11.4-20.1a52.07,52.07,0,0,1,7.67-12,39.79,39.79,0,0,1,6.61-3.88,27.39,27.39,0,0,1,5-1.71c.76-.16,1.51-.28,2.23-.39a33.73,33.73,0,0,1,6.82-.36c.61,0,1.18.09,1.74.17a16.48,16.48,0,0,1,3.5.84,12.83,12.83,0,0,1,3.06,1.6c4.79,2.32,10.28,3.21,17.74,6.88,1.76.86,3.63,1.87,5.63,3l2.26,1.32a315.35,315.35,0,0,1,28,14.67c1.9,1.09,3.75,2.19,5.57,3.23a93,93,0,0,0,25.08,10,26.17,26.17,0,0,0,13.72-.5c7.23-2.16,4.33-3.6,2.55-5.4a3.16,3.16,0,0,1-.8-1,2.62,2.62,0,0,1-.29-1.25,4.08,4.08,0,0,1,.58-1.67c.11-.2.23-.39.35-.6a6.09,6.09,0,0,1,2.65-2c1.47-.69,3.38-1.38,5.49-2.16.32-.11.65-.21,1-.34a43.24,43.24,0,0,0,5.59-2.69,32.61,32.61,0,0,0,5.77-4.18l.66-.64a42.37,42.37,0,0,0,4.1-4.5,25.06,25.06,0,0,0,3.49-6.52,59.5,59.5,0,0,0,3.15-11.38,70.83,70.83,0,0,0,.83-11.89"/><path class="cls-3" d="M27.23,329.82c1.54,5.54,7.31,9.41,13.28,10.73,13.58,3,24.63,10.61,37.64,14.5,10,3,22.56,2,30.66-7.33a73.62,73.62,0,0,0,10.33-15.53A80,80,0,0,0,125.26,315a96.26,96.26,0,0,0,2.27-26.25,75.22,75.22,0,0,0-1.09-10.64c-.24-1.32-.57-2.63-.94-3.94-.47-1.69-1-3.37-1.45-5.06-.91-3-2-6-3-9.07s-1.9-6.13-2.7-9.23c-2.56-9.85-.64-23.6,9.34-30,14-9,27.11-2.25,41.24-7a18.73,18.73,0,0,0,7.91-5.32c5.26-5.82,8-13,11.36-19.91a51.3,51.3,0,0,1,7.68-11.89,40.89,40.89,0,0,1,6.68-3.82,27,27,0,0,1,5-1.72c.76-.17,1.51-.29,2.24-.41a37,37,0,0,1,6.84-.46c.61,0,1.19.07,1.74.13a17.69,17.69,0,0,1,3.53.73,13.94,13.94,0,0,1,3.09,1.44c4.83,2.07,10.35,2.68,17.89,6.23,1.77.84,3.66,1.82,5.69,3l2.28,1.31a282.08,282.08,0,0,1,28.17,14.8c1.9,1.1,3.74,2.23,5.57,3.3a99.41,99.41,0,0,0,25,10.45,26.47,26.47,0,0,0,13.63,0c7.25-1.81,4.22-2.82,2.48-4.2a2.54,2.54,0,0,1-.77-.76,1.62,1.62,0,0,1-.2-1,3.58,3.58,0,0,1,.69-1.46l.39-.53a6.65,6.65,0,0,1,2.74-1.82c1.5-.63,3.44-1.27,5.58-2,.32-.11.65-.2,1-.32a40.39,40.39,0,0,0,5.67-2.6,32.4,32.4,0,0,0,5.89-4.11c.23-.2.45-.42.67-.62a42.11,42.11,0,0,0,4.22-4.46,24.87,24.87,0,0,0,3.64-6.49,58.32,58.32,0,0,0,3.35-11.41,70.93,70.93,0,0,0,1-12"/><path class="cls-3" d="M28.46,333.05C30,338.78,35.93,342.7,42,344c13.43,2.95,24.39,10.42,37.26,14.2,9.92,2.92,22.3,1.95,30.34-7.28a73.45,73.45,0,0,0,10.28-15.29,79.12,79.12,0,0,0,6.13-16.92,95.4,95.4,0,0,0,2.42-25.9,75,75,0,0,0-1-10.51c-.24-1.3-.56-2.6-.92-3.9q-.69-2.51-1.42-5c-.89-3-1.94-6-2.94-9s-1.86-6.06-2.64-9.13c-2.5-9.79-.61-23.4,9.2-29.82,13.76-9,26.64-2.6,40.57-7.45a18.68,18.68,0,0,0,7.82-5.32c5.2-5.77,7.93-12.91,11.32-19.71a51,51,0,0,1,7.68-11.74,44.28,44.28,0,0,1,6.76-3.77A29,29,0,0,1,208,175.8c.77-.18,1.52-.3,2.25-.42a38.26,38.26,0,0,1,6.87-.56c.61,0,1.19,0,1.75.09a18.32,18.32,0,0,1,3.54.61,14.8,14.8,0,0,1,3.13,1.28c4.87,1.82,10.41,2.16,18,5.59,1.8.8,3.7,1.77,5.76,2.92l2.3,1.31a254.72,254.72,0,0,1,28.3,14.92c1.89,1.13,3.74,2.28,5.56,3.37a106.2,106.2,0,0,0,24.86,11,27.06,27.06,0,0,0,13.55.6c7.28-1.45,4.09-2.05,2.42-3-.3-.17-.66-.28-.74-.54a.78.78,0,0,1-.13-.78,3.47,3.47,0,0,1,.81-1.24l.42-.47a7.25,7.25,0,0,1,2.84-1.65c1.53-.58,3.5-1.16,5.66-1.83.33-.1.67-.19,1-.3a39.59,39.59,0,0,0,5.76-2.51,32.77,32.77,0,0,0,6-4c.24-.2.46-.41.69-.62a40.91,40.91,0,0,0,4.33-4.41,25,25,0,0,0,3.8-6.46,58,58,0,0,0,3.53-11.45,68.88,68.88,0,0,0,1.14-12.06"/><path class="cls-3" d="M29.69,336.27c1.5,5.92,7.63,9.9,13.88,11.26,13.29,2.9,24.15,10.22,36.88,13.9,9.82,2.84,22,1.85,30-7.22a72.19,72.19,0,0,0,10.23-15.06,78.17,78.17,0,0,0,6.16-16.68,94,94,0,0,0,2.55-25.54,71.76,71.76,0,0,0-.93-10.38c-.23-1.29-.54-2.57-.89-3.85-.45-1.65-.91-3.31-1.39-5-.87-2.95-1.9-5.9-2.88-8.88s-1.82-6-2.58-9c-2.44-9.73-.56-23.2,9.06-29.63,13.52-9,26.18-3,39.92-7.88a18.81,18.81,0,0,0,7.71-5.31c5.15-5.74,7.88-12.8,11.3-19.52a49.59,49.59,0,0,1,7.67-11.58,47.71,47.71,0,0,1,6.83-3.73,31.56,31.56,0,0,1,5.1-1.73c.77-.17,1.52-.31,2.26-.43a42.42,42.42,0,0,1,6.89-.66c.61,0,1.19,0,1.75,0a19.69,19.69,0,0,1,3.56.5A15.82,15.82,0,0,1,226,181c4.92,1.56,10.47,1.62,18.18,4.93,1.81.78,3.74,1.72,5.82,2.87l2.32,1.29a232,232,0,0,1,28.42,15.06c1.9,1.14,3.74,2.32,5.56,3.44A115.62,115.62,0,0,0,311,220.1a28,28,0,0,0,13.48,1.15c7.3-1.11,3.95-1.27,2.35-1.83-.3-.1-.65-.13-.71-.33s-.18-.29-.06-.54a4,4,0,0,1,.92-1l.46-.42a8.65,8.65,0,0,1,2.94-1.48c1.56-.52,3.56-1,5.75-1.67l1-.27a39.76,39.76,0,0,0,5.85-2.42,32.82,32.82,0,0,0,6.11-4c.25-.2.48-.41.71-.62a42.48,42.48,0,0,0,4.44-4.35,25.22,25.22,0,0,0,3.95-6.44,56.8,56.8,0,0,0,3.73-11.49,69.77,69.77,0,0,0,1.3-12.13"/><path class="cls-3" d="M30.92,339.5c1.48,6.11,7.8,10.14,14.18,11.52,13.15,2.86,23.91,10,36.5,13.6,9.72,2.77,21.79,1.76,29.69-7.16a72.1,72.1,0,0,0,10.18-14.83,78.4,78.4,0,0,0,6.18-16.43A93.49,93.49,0,0,0,130.34,301a71.34,71.34,0,0,0-.85-10.25c-.22-1.27-.52-2.54-.87-3.81-.44-1.63-.89-3.27-1.36-4.9-.85-2.92-1.86-5.84-2.81-8.79s-1.78-5.93-2.52-8.94c-2.38-9.66-.52-23,8.92-29.43,13.26-9,25.71-3.31,39.25-8.31a18.84,18.84,0,0,0,7.62-5.31c5.1-5.69,7.83-12.68,11.26-19.33a49.5,49.5,0,0,1,7.68-11.42,50.32,50.32,0,0,1,6.9-3.67,32.15,32.15,0,0,1,5.12-1.74c.78-.18,1.53-.32,2.28-.45a46.12,46.12,0,0,1,6.91-.75c.61,0,1.2,0,1.76,0a20.69,20.69,0,0,1,3.58.38,18.63,18.63,0,0,1,3.2,1c5,1.31,10.54,1.1,18.32,4.29a61.24,61.24,0,0,1,5.89,2.81l2.34,1.28a215.11,215.11,0,0,1,28.55,15.18c1.9,1.17,3.73,2.37,5.55,3.52a126.13,126.13,0,0,0,24.64,12,29,29,0,0,0,13.4,1.7c7.33-.75,3.8-.48,2.29-.64-.3,0-.64,0-.68-.12s-.14-.12,0-.3a5.73,5.73,0,0,1,1-.8l.5-.36a10.39,10.39,0,0,1,3-1.32c1.6-.46,3.62-.93,5.83-1.5.34-.09.69-.15,1-.25a39,39,0,0,0,5.94-2.32,33.81,33.81,0,0,0,6.22-3.89l.73-.6a43.32,43.32,0,0,0,4.55-4.31,25.16,25.16,0,0,0,4.1-6.42,55.56,55.56,0,0,0,3.93-11.51,70,70,0,0,0,1.45-12.22"/><path class="cls-3" d="M32.16,342.72c1.45,6.3,8,10.39,14.47,11.8,13,2.8,23.67,9.82,36.12,13.3,9.62,2.68,21.54,1.66,29.37-7.11a71.84,71.84,0,0,0,10.12-14.6,77.2,77.2,0,0,0,6.2-16.18,91.85,91.85,0,0,0,2.83-24.84A68.24,68.24,0,0,0,130.5,295c-.21-1.26-.5-2.51-.84-3.77-.44-1.61-.87-3.23-1.33-4.84-.83-2.89-1.81-5.78-2.74-8.7s-1.74-5.87-2.46-8.84c-2.32-9.6-.49-22.79,8.78-29.24,13-9.05,25.23-3.67,38.59-8.74a19.09,19.09,0,0,0,7.52-5.3c5-5.65,7.78-12.57,11.22-19.14a48.73,48.73,0,0,1,7.68-11.26,54,54,0,0,1,7-3.63,33.29,33.29,0,0,1,5.16-1.74c.77-.19,1.54-.33,2.28-.47a50.74,50.74,0,0,1,6.94-.85c.61,0,1.2,0,1.77,0a22.74,22.74,0,0,1,3.59.27,21.48,21.48,0,0,1,3.24.81c5,1.06,10.6.57,18.47,3.64a58.22,58.22,0,0,1,5.95,2.75l2.36,1.27a200.84,200.84,0,0,1,28.68,15.31c1.9,1.2,3.73,2.42,5.54,3.6a138,138,0,0,0,24.54,12.47c4.83,1.9,8.84,1.87,13.31,2.26,7.35.63,3.65.34,2.22.55-.3,0-.62.15-.64.08s-.1,0,.09-.06l1.14-.59c.17-.08.35-.18.54-.29a12.63,12.63,0,0,1,3.13-1.15c1.63-.41,3.68-.82,5.92-1.34.34-.08.69-.14,1-.23a37.37,37.37,0,0,0,6-2.23,34.62,34.62,0,0,0,6.34-3.81l.74-.6a44,44,0,0,0,4.67-4.26,25.39,25.39,0,0,0,4.24-6.39,55,55,0,0,0,4.13-11.55,69.06,69.06,0,0,0,1.6-12.3"/><path class="cls-3" d="M33.39,346c1.43,6.49,8.12,10.63,14.78,12.06,12.85,2.76,23.41,9.63,35.73,13,9.52,2.6,21.28,1.57,29-7.06A71,71,0,0,0,123,349.59a76.91,76.91,0,0,0,6.22-15.93,91.36,91.36,0,0,0,3-24.49,66.56,66.56,0,0,0-.7-10c-.2-1.24-.48-2.48-.81-3.73-.43-1.59-.85-3.19-1.3-4.79-.81-2.86-1.77-5.71-2.68-8.6s-1.7-5.81-2.39-8.75c-2.27-9.52-.45-22.58,8.64-29,12.75-9.07,24.76-4,37.92-9.17a19.21,19.21,0,0,0,7.43-5.3c5-5.61,7.73-12.45,11.18-18.94a48.14,48.14,0,0,1,7.68-11.11,59.7,59.7,0,0,1,7-3.58,37.23,37.23,0,0,1,5.19-1.75c.77-.19,1.54-.33,2.29-.48a55.93,55.93,0,0,1,7-.94c.62-.05,1.21-.07,1.77-.08a25.44,25.44,0,0,1,3.62.16,25.81,25.81,0,0,1,3.27.65c5,.81,10.66.05,18.62,3a53.45,53.45,0,0,1,6,2.69l2.39,1.26a187.14,187.14,0,0,1,28.79,15.44c1.9,1.21,3.73,2.46,5.54,3.66a153.1,153.1,0,0,0,24.43,13c4.81,2,8.82,2.18,13.24,2.8,7.32,1,3.51,1.18,2.15,1.74-.3.12-.61.3-.61.29-.11.14-.06.21.17.18a7.74,7.74,0,0,0,1.25-.37,5.14,5.14,0,0,0,.58-.24,17.27,17.27,0,0,1,3.22-1c1.66-.35,3.74-.71,6-1.18.34-.07.7-.12,1.05-.2a36.85,36.85,0,0,0,6.12-2.14,34.71,34.71,0,0,0,6.45-3.74l.76-.58a44,44,0,0,0,4.78-4.22,25.61,25.61,0,0,0,4.4-6.36A54.71,54.71,0,0,0,367,206.19a69.29,69.29,0,0,0,1.76-12.38"/><path class="cls-3" d="M34.62,349.18C36,355.85,42.9,360.05,49.7,361.5c12.7,2.72,23.17,9.43,35.35,12.7,9.42,2.53,21,1.48,28.72-7a71.18,71.18,0,0,0,10-14.13A76.86,76.86,0,0,0,130,337.39a90.06,90.06,0,0,0,3.1-24.14,66.11,66.11,0,0,0-.61-9.86,37.17,37.17,0,0,0-.79-3.68c-.42-1.58-.83-3.16-1.27-4.74-.79-2.83-1.73-5.65-2.61-8.51s-1.66-5.74-2.34-8.65c-2.2-9.46-.4-22.38,8.5-28.86,12.5-9.08,24.3-4.37,37.27-9.58a19.64,19.64,0,0,0,7.33-5.3c4.93-5.57,7.69-12.33,11.14-18.75a47.9,47.9,0,0,1,7.69-11,61.86,61.86,0,0,1,7.11-3.52,38.57,38.57,0,0,1,5.22-1.76c.78-.19,1.55-.34,2.3-.5a65.35,65.35,0,0,1,7-1c.62,0,1.21-.09,1.78-.11a26.76,26.76,0,0,1,3.63,0,33,33,0,0,1,3.31.48c5.09.56,10.72-.48,18.76,2.35a53,53,0,0,1,6.08,2.63c.8.41,1.6.84,2.41,1.25A176.7,176.7,0,0,1,284,219.76c1.9,1.24,3.73,2.51,5.53,3.74A171.27,171.27,0,0,0,313.81,237c4.78,2.22,8.79,2.51,13.16,3.35,7.3,1.42,3.41,2,2.09,2.93-.3.21-.6.45-.59.51-.08.21,0,.37.25.41a4.13,4.13,0,0,0,1.36-.15l.62-.18a23.8,23.8,0,0,1,3.32-.81c1.69-.3,3.79-.6,6.09-1,.35-.07.71-.11,1.07-.18a36,36,0,0,0,6.2-2,35.44,35.44,0,0,0,6.57-3.66c.27-.19.52-.39.78-.58a42.67,42.67,0,0,0,4.89-4.17,25.55,25.55,0,0,0,4.55-6.33,54.35,54.35,0,0,0,4.52-11.62A69.39,69.39,0,0,0,370.6,201"/><path class="cls-3" d="M35.85,352.4c1.38,6.87,8.44,11.12,15.38,12.59,12.56,2.67,22.93,9.24,35,12.4,9.32,2.45,20.77,1.39,28.4-6.94a69.85,69.85,0,0,0,10-13.9,74.67,74.67,0,0,0,6.26-15.43,88.43,88.43,0,0,0,3.24-23.79,63.15,63.15,0,0,0-.53-9.73,34.23,34.23,0,0,0-.77-3.64c-.4-1.56-.8-3.13-1.23-4.69-.77-2.79-1.68-5.58-2.55-8.41s-1.61-5.68-2.27-8.55c-2.14-9.4-.36-22.18,8.36-28.67,12.24-9.09,23.81-4.75,36.61-10a19.88,19.88,0,0,0,7.23-5.3c4.88-5.53,7.64-12.21,11.1-18.55a47.34,47.34,0,0,1,7.69-10.8,68.25,68.25,0,0,1,7.19-3.48,40.44,40.44,0,0,1,5.25-1.76c.78-.2,1.55-.36,2.31-.51,2.62-.55,4.95-.92,7-1.14.62-.07,1.21-.12,1.78-.16a30.48,30.48,0,0,1,3.65-.06c1.3.07,2.42.2,3.35.33,5.13.3,10.79-1,18.91,1.7a48.4,48.4,0,0,1,6.14,2.57c.81.4,1.61.82,2.43,1.24a166.58,166.58,0,0,1,29,15.7c1.9,1.25,3.72,2.55,5.52,3.81a191.29,191.29,0,0,0,24.22,14,34.67,34.67,0,0,0,13.08,3.91c7.46.69,3.3,2.84,2,4.12-.29.28-.6.58-.56.71a.52.52,0,0,0,.32.65,3.37,3.37,0,0,0,1.48.07l.65-.12c.67-.15,1.86-.43,3.42-.65,1.73-.24,3.85-.49,6.18-.86.35,0,.72-.08,1.08-.16a35.27,35.27,0,0,0,6.29-1.95,34.75,34.75,0,0,0,6.68-3.59l.8-.56a46.6,46.6,0,0,0,5-4.12,25.87,25.87,0,0,0,4.7-6.32,53.44,53.44,0,0,0,4.72-11.65,69.26,69.26,0,0,0,2.06-12.53"/><path class="cls-3" d="M37.08,355.63c1.36,7.05,8.61,11.36,15.68,12.86,12.42,2.62,22.69,9,34.59,12.09,9.21,2.37,20.52,1.3,28.07-6.88A69.74,69.74,0,0,0,125.35,360a75.05,75.05,0,0,0,6.28-15.19A87.82,87.82,0,0,0,135,321.41a62.75,62.75,0,0,0-.45-9.6,35.44,35.44,0,0,0-.75-3.6c-.39-1.54-.78-3.09-1.2-4.63-.75-2.76-1.64-5.53-2.48-8.32s-1.58-5.61-2.21-8.46c-2.08-9.33-.33-22,8.22-28.47,12-9.11,23.34-5.1,35.94-10.44a20.06,20.06,0,0,0,7.13-5.29c4.83-5.49,7.6-12.1,11.07-18.36A47.37,47.37,0,0,1,198,213.59a78.11,78.11,0,0,1,7.26-3.43,47.41,47.41,0,0,1,5.28-1.77c.79-.2,1.57-.36,2.32-.52,2.63-.56,5-1,7-1.24.62-.08,1.22-.14,1.79-.19a25.44,25.44,0,0,1,3.67-.18c1.3.07,2.43.1,3.38.17,5.17,0,10.85-1.53,19,1.06A43.6,43.6,0,0,1,254,210l2.46,1.23a158,158,0,0,1,29.18,15.82c1.89,1.28,3.72,2.6,5.51,3.89a219.23,219.23,0,0,0,24.11,14.49,36.54,36.54,0,0,0,13,4.46c7.5,1.07,3.22,3.66,1.95,5.31-.27.36-.58.73-.52.92a.83.83,0,0,0,.4.89,2.58,2.58,0,0,0,1.59.28c.21,0,.44,0,.69-.05.7-.1,1.92-.32,3.51-.48,1.76-.19,3.91-.38,6.26-.7.36-.05.73-.07,1.1-.14a34.88,34.88,0,0,0,6.38-1.85,36.41,36.41,0,0,0,6.8-3.52l.81-.56a46.31,46.31,0,0,0,5.11-4.07,25.66,25.66,0,0,0,4.85-6.29A52.79,52.79,0,0,0,372.07,228a69.67,69.67,0,0,0,2.22-12.62"/><path class="cls-3" d="M38.32,358.85c1.33,7.25,8.76,11.61,16,13.13,12.27,2.58,22.45,8.84,34.21,11.79,9.11,2.29,20.25,1.2,27.75-6.83a69.48,69.48,0,0,0,9.87-13.43,74,74,0,0,0,6.31-14.94,87,87,0,0,0,3.51-23.07,60,60,0,0,0-.37-9.48,32.07,32.07,0,0,0-.72-3.56c-.39-1.52-.77-3-1.17-4.57-.73-2.74-1.6-5.47-2.41-8.23s-1.54-5.55-2.15-8.36c-2-9.27-.29-21.78,8.08-28.28,11.73-9.12,22.87-5.45,35.28-10.87a20.21,20.21,0,0,0,7-5.29c4.78-5.44,7.56-12,11-18.16a45.68,45.68,0,0,1,7.69-10.49c2.35-1.2,4.79-2.38,7.33-3.38a46,46,0,0,1,5.31-1.78c.79-.2,1.57-.37,2.33-.54q3.94-.87,7.06-1.34c.62-.09,1.22-.16,1.79-.23,1.37-.15,2.6-.27,3.69-.29,1.32,0,2.45,0,3.42,0,5.22-.2,10.91-2.06,19.2.41a43.82,43.82,0,0,1,6.26,2.45l2.48,1.22a150.87,150.87,0,0,1,29.3,15.95c1.9,1.3,3.72,2.65,5.51,4,8.43,6.19,17.2,11.07,24,15a39.52,39.52,0,0,0,12.92,5c7.54,1.43,3.14,4.46,1.89,6.49-.27.44-.57.87-.49,1.13a1.24,1.24,0,0,0,.47,1.13,3.14,3.14,0,0,0,1.7.5,4.44,4.44,0,0,0,.73,0c.74,0,2-.2,3.61-.31,1.79-.12,4-.27,6.35-.53.36,0,.74-.06,1.11-.12a33.84,33.84,0,0,0,6.47-1.76,37.43,37.43,0,0,0,6.91-3.44l.83-.55a46.12,46.12,0,0,0,5.22-4,25.91,25.91,0,0,0,5-6.26,52.09,52.09,0,0,0,5.12-11.72,69.5,69.5,0,0,0,2.37-12.7"/><path class="cls-3" d="M39.55,362.08c1.31,7.43,8.93,11.85,16.28,13.39C68,378,78,384.11,89.65,387c9,2.21,20,1.09,27.43-6.78A69.78,69.78,0,0,0,126.9,367a73.17,73.17,0,0,0,6.32-14.69,86.13,86.13,0,0,0,3.66-22.72,58.32,58.32,0,0,0-.3-9.35,29,29,0,0,0-.69-3.51c-.38-1.51-.75-3-1.14-4.53-.71-2.7-1.55-5.4-2.35-8.13s-1.49-5.48-2.09-8.27c-2-9.2-.24-21.57,7.94-28.08,11.48-9.14,22.41-5.81,34.62-11.3a20.46,20.46,0,0,0,6.94-5.28c4.72-5.41,7.51-11.87,11-18a45.39,45.39,0,0,1,7.69-10.34c2.38-1.17,4.85-2.33,7.41-3.33a50.64,50.64,0,0,1,5.34-1.78c.79-.21,1.57-.38,2.33-.56,2.65-.6,5-1.08,7.09-1.43l1.8-.27c1.37-.19,2.6-.35,3.71-.41,1.32-.07,2.47-.1,3.45-.15,5.26-.45,11-2.58,19.35-.23a39.74,39.74,0,0,1,6.32,2.39c.84.39,1.66.8,2.5,1.21a144.1,144.1,0,0,1,29.43,16.08c1.9,1.32,3.72,2.69,5.5,4,8.4,6.31,17.15,11.35,23.89,15.51a41.81,41.81,0,0,0,12.85,5.56c7.57,1.81,3,5.26,1.82,7.68a2.84,2.84,0,0,0-.46,1.34,2,2,0,0,0,.55,1.37,3.32,3.32,0,0,0,1.81.72,6.17,6.17,0,0,0,.77.06c.77,0,2.06-.09,3.7-.14,1.82-.07,4-.16,6.44-.38.37,0,.74,0,1.12-.09a33.61,33.61,0,0,0,6.56-1.67,37.24,37.24,0,0,0,7-3.37l.84-.54a46.11,46.11,0,0,0,5.35-4,26.41,26.41,0,0,0,5.15-6.23,52.61,52.61,0,0,0,5.31-11.75A69.14,69.14,0,0,0,378,229.68"/><path class="cls-3" d="M40.78,365.3c1.29,7.62,9.09,12.1,16.58,13.66,12,2.5,22,8.45,33.44,11.2,8.91,2.13,19.74,1,27.1-6.72a68.5,68.5,0,0,0,9.77-13A72.66,72.66,0,0,0,134,356a84.43,84.43,0,0,0,3.79-22.37,56.73,56.73,0,0,0-.21-9.22,30.31,30.31,0,0,0-.67-3.47c-.37-1.49-.73-3-1.11-4.47-.69-2.67-1.51-5.34-2.28-8s-1.46-5.42-2-8.17c-1.9-9.14-.21-21.37,7.8-27.9,11.22-9.15,21.94-6.15,34-11.72a20.65,20.65,0,0,0,6.84-5.28c4.66-5.36,7.46-11.74,11-17.77a45.18,45.18,0,0,1,7.69-10.19c2.41-1.14,4.9-2.28,7.48-3.28a55.35,55.35,0,0,1,5.37-1.78c.8-.22,1.58-.4,2.35-.58,2.65-.62,5-1.13,7.11-1.53l1.81-.31c1.37-.22,2.61-.42,3.72-.52,1.33-.12,2.49-.2,3.49-.31,5.3-.69,11-3.11,19.49-.88a39.18,39.18,0,0,1,6.39,2.34c.84.38,1.68.79,2.52,1.19A138.29,138.29,0,0,1,288.05,238c1.9,1.35,3.71,2.74,5.49,4.11,8.38,6.43,17.1,11.62,23.79,16a44.6,44.6,0,0,0,12.76,6.12c7.61,2.18,3,6,1.76,8.87a3.44,3.44,0,0,0-.43,1.55,2.7,2.7,0,0,0,.62,1.6,3.79,3.79,0,0,0,1.92.94q.39.07.81.12c.81.08,2.14-.07,3.8,0a56.26,56.26,0,0,0,6.52-.21c.38,0,.76,0,1.14-.07a33.07,33.07,0,0,0,6.65-1.58,38.27,38.27,0,0,0,7.13-3.29l.86-.54a46.72,46.72,0,0,0,5.46-3.93,26.44,26.44,0,0,0,5.3-6.2,52,52,0,0,0,5.51-11.79,69.18,69.18,0,0,0,2.68-12.86"/><path class="cls-3" d="M42,368.53c1.27,7.81,9.25,12.35,16.88,13.93C70.72,384.91,80.6,390.7,92,393.35c8.81,2,19.48.91,26.78-6.66A68.5,68.5,0,0,0,128.45,374a72.45,72.45,0,0,0,6.37-14.19,84,84,0,0,0,3.93-22,55.16,55.16,0,0,0-.14-9.09,29.91,29.91,0,0,0-.64-3.43c-.36-1.47-.71-2.94-1.08-4.42-.67-2.63-1.47-5.27-2.22-7.94s-1.41-5.36-2-8.07c-1.84-9.08-.17-21.17,7.66-27.71,11-9.16,21.47-6.5,33.29-12.15a20.9,20.9,0,0,0,6.75-5.27c4.61-5.32,7.41-11.63,10.92-17.58a44.35,44.35,0,0,1,7.7-10c2.44-1.13,4.95-2.25,7.55-3.23,1.76-.67,3.56-1.3,5.4-1.8l2.35-.59c2.67-.64,5-1.19,7.14-1.62l1.81-.36c1.38-.25,2.62-.48,3.75-.63,1.33-.17,2.51-.31,3.52-.47,5.34-.94,11.1-3.63,19.64-1.52a38.35,38.35,0,0,1,6.45,2.27l2.54,1.19a132.82,132.82,0,0,1,29.69,16.34c1.89,1.36,3.71,2.79,5.48,4.18,8.35,6.55,17,11.9,23.68,16.52A48.46,48.46,0,0,0,330.71,269c7.65,2.57,2.87,6.85,1.69,10.06a4.15,4.15,0,0,0-.4,1.76,3.5,3.5,0,0,0,.7,1.84,4.27,4.27,0,0,0,2,1.16q.4.1.84.18c.86.13,2.22,0,3.9.18a54.47,54.47,0,0,0,6.61,0c.38,0,.76,0,1.15-.05a32.67,32.67,0,0,0,6.73-1.49,37,37,0,0,0,7.25-3.22l.88-.52a47.66,47.66,0,0,0,5.57-3.88,26.62,26.62,0,0,0,5.45-6.19A51.1,51.1,0,0,0,378.83,257,69.19,69.19,0,0,0,381.66,244"/><path class="cls-3" d="M43.24,371.75c1.25,8,9.42,12.6,17.18,14.2C72.1,388.36,81.89,394,93.1,396.54c8.71,2,19.22.82,26.46-6.61a67.53,67.53,0,0,0,9.66-12.5,71.74,71.74,0,0,0,6.39-13.95,82.63,82.63,0,0,0,4.07-21.66,53.61,53.61,0,0,0-.05-9,29.15,29.15,0,0,0-.62-3.39c-.35-1.45-.69-2.91-1-4.36-.65-2.61-1.43-5.22-2.15-7.85s-1.37-5.29-1.9-8c-1.79-9-.13-21,7.52-27.51,10.71-9.18,21-6.85,32.63-12.58a21.28,21.28,0,0,0,6.65-5.27c4.55-5.28,7.37-11.51,10.88-17.39a43.94,43.94,0,0,1,7.7-9.87c2.47-1.1,5-2.2,7.62-3.18,1.78-.66,3.59-1.29,5.43-1.8.81-.22,1.6-.41,2.37-.6,2.67-.67,5-1.25,7.16-1.73l1.82-.39c1.38-.29,2.63-.56,3.76-.74,1.35-.22,2.53-.42,3.56-.63,5.39-1.2,11.16-4.16,19.78-2.18a36,36,0,0,1,6.52,2.22c.86.38,1.71.78,2.56,1.17a127.81,127.81,0,0,1,29.81,16.47c1.9,1.39,3.71,2.84,5.48,4.25,8.32,6.68,17,12.18,23.57,17a51.84,51.84,0,0,0,12.61,7.21c7.67,3,2.77,7.65,1.62,11.25a4.83,4.83,0,0,0-.37,2,4.24,4.24,0,0,0,.78,2.08,4.68,4.68,0,0,0,2.15,1.37,5.65,5.65,0,0,0,.88.24,30.2,30.2,0,0,0,4,.36c1.92.11,4.2.18,6.69.11.39,0,.78,0,1.17,0a33.18,33.18,0,0,0,6.82-1.39,39,39,0,0,0,7.37-3.15c.3-.17.6-.34.89-.52a47.43,47.43,0,0,0,5.68-3.83,27.12,27.12,0,0,0,5.6-6.16,50.46,50.46,0,0,0,5.9-11.85,69.62,69.62,0,0,0,3-13"/><path class="cls-3" d="M44.48,375c1.22,8.19,9.57,12.84,17.47,14.46,11.54,2.37,21.23,7.85,32.3,10.29,8.61,1.9,19,.73,26.13-6.55A67.52,67.52,0,0,0,130,380.91a71.28,71.28,0,0,0,6.41-13.7,81.77,81.77,0,0,0,4.21-21.31,52.08,52.08,0,0,0,0-8.83,26.34,26.34,0,0,0-.6-3.34c-.34-1.44-.66-2.88-1-4.31-.63-2.58-1.38-5.16-2.08-7.76s-1.34-5.23-1.85-7.88c-1.72-8.95-.08-20.76,7.38-27.32,10.46-9.2,20.54-7.2,32-13a21.42,21.42,0,0,0,6.55-5.26c4.51-5.24,7.33-11.4,10.85-17.2a43.66,43.66,0,0,1,7.7-9.71c2.5-1.08,5.07-2.16,7.7-3.14,1.79-.65,3.6-1.29,5.46-1.8.81-.23,1.6-.42,2.38-.62,2.68-.69,5.06-1.3,7.18-1.82l1.82-.44c1.39-.32,2.65-.63,3.78-.85,1.36-.27,2.56-.52,3.6-.79,5.43-1.45,11.22-4.69,19.93-2.82a34.89,34.89,0,0,1,6.58,2.16c.86.37,1.72.77,2.58,1.16a123.82,123.82,0,0,1,29.94,16.59c1.9,1.41,3.71,2.89,5.47,4.33,8.3,6.8,16.95,12.46,23.46,17.53A56.2,56.2,0,0,0,332,278.54c7.71,3.34,2.68,8.44,1.56,12.44a5.27,5.27,0,0,0-.34,2.17,5.12,5.12,0,0,0,.85,2.32,5.2,5.2,0,0,0,2.26,1.59,8.26,8.26,0,0,0,.92.3,26.32,26.32,0,0,0,4.08.52c2,.17,4.27.22,6.79.28.39,0,.78,0,1.18,0a32.46,32.46,0,0,0,6.91-1.3,39.46,39.46,0,0,0,7.48-3.08c.31-.16.61-.33.91-.5a49.74,49.74,0,0,0,5.79-3.79,26.77,26.77,0,0,0,5.75-6.13,50,50,0,0,0,6.1-11.89,68.88,68.88,0,0,0,3.15-13.1"/><path class="cls-3" d="M45.71,378.2c1.2,8.38,9.73,13.09,17.78,14.73,11.38,2.33,21,7.66,31.91,10,8.51,1.82,18.71.64,25.81-6.49a67,67,0,0,0,9.56-12,70.85,70.85,0,0,0,6.44-13.45,81,81,0,0,0,4.34-21,49.58,49.58,0,0,0,.1-8.7,25.61,25.61,0,0,0-.57-3.3c-.33-1.42-.64-2.84-1-4.26-.62-2.54-1.34-5.09-2-7.66s-1.29-5.16-1.78-7.79c-1.66-8.87,0-20.55,7.24-27.12,10.21-9.21,20.07-7.55,31.31-13.44a21.71,21.71,0,0,0,6.45-5.26c4.45-5.19,7.28-11.27,10.81-17a43.12,43.12,0,0,1,7.71-9.56c2.53-1,5.12-2.12,7.76-3.08,1.81-.66,3.63-1.29,5.5-1.82l2.38-.63,7.21-1.92,1.83-.47c1.39-.36,2.65-.71,3.8-1,1.36-.32,2.57-.62,3.63-.95,5.47-1.7,11.28-5.21,20.08-3.47a34.85,34.85,0,0,1,6.64,2.1c.87.37,1.74.76,2.61,1.16a119.18,119.18,0,0,1,30.06,16.72c1.9,1.43,3.7,2.93,5.46,4.4,8.27,6.92,16.9,12.74,23.36,18a60.46,60.46,0,0,0,12.45,8.31c7.73,3.73,2.57,9.24,1.48,13.63a6.19,6.19,0,0,0-.3,2.38,5.93,5.93,0,0,0,.93,2.55,5.8,5.8,0,0,0,2.37,1.82c.3.13.62.25.95.36a25,25,0,0,0,4.18.69c2,.22,4.33.33,6.87.44a6.87,6.87,0,0,0,1.2,0,56.7,56.7,0,0,0,7-1.21,39.59,39.59,0,0,0,7.59-3l.93-.5a48.27,48.27,0,0,0,5.9-3.74,27.36,27.36,0,0,0,5.91-6.1,50.35,50.35,0,0,0,6.29-11.92,69.21,69.21,0,0,0,3.3-13.19"/><path class="cls-3" d="M46.94,381.43c1.18,8.57,9.9,13.34,18.08,15,11.24,2.28,20.74,7.45,31.53,9.69,8.41,1.74,18.46.54,25.49-6.45a67,67,0,0,0,9.51-11.8,70,70,0,0,0,6.45-13.2,79.83,79.83,0,0,0,4.49-20.61,49.09,49.09,0,0,0,.18-8.57,25.22,25.22,0,0,0-.55-3.26c-.32-1.4-.62-2.8-1-4.2-.6-2.52-1.3-5-1.95-7.57s-1.25-5.1-1.72-7.69c-1.6-8.81,0-20.35,7.1-26.94,10-9.22,19.6-7.89,30.64-13.86a22.06,22.06,0,0,0,6.36-5.25c4.4-5.16,7.24-11.16,10.78-16.81a42.28,42.28,0,0,1,7.7-9.41c2.56-1,5.17-2.07,7.84-3,1.82-.65,3.65-1.29,5.52-1.82.81-.23,1.61-.44,2.4-.65,2.7-.73,5.09-1.41,7.22-2l1.85-.52c1.4-.39,2.66-.78,3.81-1.08,1.37-.36,2.6-.72,3.66-1.11,5.53-1.95,11.36-5.73,20.23-4.11a33.1,33.1,0,0,1,6.71,2l2.63,1.14a116,116,0,0,1,30.18,16.85c1.9,1.46,3.71,3,5.46,4.48,8.24,7,16.85,13,23.25,18.54a66.24,66.24,0,0,0,12.37,8.87c7.76,4.12,2.48,10,1.42,14.81a7,7,0,0,0-.27,2.6,6.87,6.87,0,0,0,1,2.78,6.49,6.49,0,0,0,2.48,2,10,10,0,0,0,1,.41,23.13,23.13,0,0,0,4.27.86,63.49,63.49,0,0,0,7,.6,7,7,0,0,0,1.21.05,57.6,57.6,0,0,0,7.09-1.12,40,40,0,0,0,7.7-2.93c.32-.15.64-.32.95-.48a52.37,52.37,0,0,0,6-3.69,27.74,27.74,0,0,0,6-6.09A49.85,49.85,0,0,0,385.58,286,69.57,69.57,0,0,0,389,272.72"/><path class="cls-3" d="M48.17,384.66c1.16,8.75,10.06,13.58,18.38,15.26,11.09,2.24,20.5,7.26,31.15,9.39,8.31,1.66,18.2.44,25.16-6.39a66.12,66.12,0,0,0,9.46-11.57,69.35,69.35,0,0,0,6.48-13,78.88,78.88,0,0,0,4.62-20.26,46.69,46.69,0,0,0,.26-8.44,24.23,24.23,0,0,0-.52-3.22c-.31-1.38-.6-2.76-.92-4.14-.58-2.49-1.25-5-1.89-7.48s-1.2-5-1.65-7.59c-1.54-8.75,0-20.15,7-26.75,9.69-9.24,19.13-8.24,30-14.28A22.65,22.65,0,0,0,181.9,281c4.34-5.11,7.19-11,10.74-16.61a42,42,0,0,1,7.7-9.25c2.6-1,5.23-2,7.91-3,1.84-.64,3.68-1.28,5.56-1.82.81-.24,1.62-.45,2.4-.67,2.71-.75,5.12-1.46,7.25-2.11l1.85-.55c1.41-.43,2.67-.85,3.84-1.2a37.4,37.4,0,0,0,3.69-1.27c5.57-2.2,11.42-6.26,20.38-4.76a31.88,31.88,0,0,1,6.76,2c.89.36,1.77.74,2.66,1.13a112.72,112.72,0,0,1,30.31,17c1.9,1.48,3.7,3,5.45,4.56,8.22,7.16,16.8,13.29,23.14,19a71.47,71.47,0,0,0,12.29,9.42c7.79,4.51,2.39,10.82,1.36,16a7.13,7.13,0,0,0,.83,5.83,7.17,7.17,0,0,0,2.6,2.25,10.8,10.8,0,0,0,1,.48,23,23,0,0,0,4.37,1,65.14,65.14,0,0,0,7.05.76,8.24,8.24,0,0,0,1.22.07,56.69,56.69,0,0,0,7.18-1,41.08,41.08,0,0,0,7.81-2.85c.33-.15.65-.32,1-.48a50,50,0,0,0,6.13-3.64,28.08,28.08,0,0,0,6.2-6.06,49.27,49.27,0,0,0,6.69-12,68.71,68.71,0,0,0,3.61-13.34"/><path class="cls-3" d="M49.4,387.88c1.14,8.95,10.22,13.83,18.68,15.53,11,2.2,20.26,7.06,30.77,9.09,8.21,1.58,18,.35,24.84-6.33a66.59,66.59,0,0,0,9.41-11.34,69.23,69.23,0,0,0,6.5-12.7,77.73,77.73,0,0,0,4.75-19.9,45.42,45.42,0,0,0,.35-8.32,23.44,23.44,0,0,0-.5-3.17c-.3-1.37-.58-2.73-.89-4.1-.56-2.45-1.21-4.9-1.82-7.38s-1.17-5-1.6-7.5c-1.47-8.68.08-19.94,6.82-26.55,9.45-9.25,18.66-8.6,29.32-14.71a23.08,23.08,0,0,0,6.17-5.25c4.28-5.08,7.14-10.93,10.7-16.42a41.18,41.18,0,0,1,7.7-9.1c2.63-1,5.29-2,8-2.93,1.85-.65,3.7-1.29,5.58-1.83l2.42-.69c2.72-.77,5.13-1.51,7.27-2.2l1.86-.6c1.41-.46,2.68-.92,3.85-1.31a35.37,35.37,0,0,0,3.73-1.42c5.61-2.46,11.48-6.79,20.52-5.41a30.8,30.8,0,0,1,6.83,1.92c.9.36,1.79.74,2.68,1.12a109.42,109.42,0,0,1,30.44,17.11c1.9,1.5,3.69,3.07,5.44,4.62,8.19,7.29,16.75,13.57,23,19.55a76.69,76.69,0,0,0,12.22,10c7.8,4.91,2.28,11.62,1.29,17.2a8.62,8.62,0,0,0-.22,3,9.06,9.06,0,0,0,1.16,3.26,7.68,7.68,0,0,0,2.71,2.47,9.72,9.72,0,0,0,1.07.54,22,22,0,0,0,4.46,1.19,62.15,62.15,0,0,0,7.13.93,7.31,7.31,0,0,0,1.24.08,57.19,57.19,0,0,0,7.26-.92,41.69,41.69,0,0,0,7.94-2.78l1-.48a50.51,50.51,0,0,0,6.24-3.59,28.21,28.21,0,0,0,6.35-6,49,49,0,0,0,6.89-12,70,70,0,0,0,3.76-13.43"/><path class="cls-3" d="M50.64,391.11c1.11,9.13,10.38,14.08,19,15.79,10.79,2.16,20,6.87,30.38,8.79,8.11,1.5,17.69.26,24.52-6.27a66.09,66.09,0,0,0,9.35-11.11,68.27,68.27,0,0,0,6.52-12.46,76.84,76.84,0,0,0,4.9-19.54,44.06,44.06,0,0,0,.42-8.19,22.77,22.77,0,0,0-.47-3.13c-.3-1.34-.56-2.7-.86-4-.54-2.42-1.17-4.85-1.76-7.29s-1.12-4.91-1.53-7.4c-1.42-8.62.12-19.75,6.68-26.36C157,300.63,166,301,176.43,294.76a23.53,23.53,0,0,0,6.07-5.25c4.23-5,7.1-10.81,10.66-16.22a40.37,40.37,0,0,1,7.71-8.94c2.65-1,5.34-2,8.06-2.89,1.85-.64,3.72-1.28,5.61-1.84l2.42-.69c2.73-.8,5.15-1.58,7.3-2.31l1.86-.64c1.42-.49,2.7-1,3.88-1.42a33.82,33.82,0,0,0,3.76-1.58c5.65-2.71,11.54-7.31,20.67-6a30.08,30.08,0,0,1,6.89,1.86c.9.35,1.8.73,2.7,1.11a106.79,106.79,0,0,1,30.57,17.23c1.9,1.52,3.69,3.12,5.43,4.7,8.16,7.4,16.69,13.85,22.93,20.06a83.54,83.54,0,0,0,12.13,10.52c7.83,5.3,2.19,12.4,1.22,18.38a9.76,9.76,0,0,0-.18,3.22,10,10,0,0,0,1.23,3.5,8.59,8.59,0,0,0,2.82,2.69q.52.32,1.11.6a22.09,22.09,0,0,0,4.56,1.35,56.08,56.08,0,0,0,7.22,1.09,6.53,6.53,0,0,0,1.25.11,56.64,56.64,0,0,0,7.35-.83,41.87,41.87,0,0,0,8-2.71c.33-.15.67-.3,1-.46a51,51,0,0,0,6.36-3.55,28.62,28.62,0,0,0,6.51-6,49.49,49.49,0,0,0,7.08-12.06,70.19,70.19,0,0,0,3.92-13.5"/><path class="cls-3" d="M51.87,394.33c1.09,9.33,10.54,14.33,19.28,16.07,10.65,2.11,19.77,6.66,30,8.48,8,1.43,17.44.17,24.19-6.22a65.75,65.75,0,0,0,9.31-10.87,68.52,68.52,0,0,0,6.54-12.21,75.88,75.88,0,0,0,5-19.19,41.88,41.88,0,0,0,.5-8.06,20.9,20.9,0,0,0-.44-3.09c-.29-1.32-.55-2.66-.83-4-.52-2.39-1.12-4.78-1.69-7.19s-1.08-4.85-1.47-7.31c-1.36-8.56.15-19.54,6.54-26.16,8.94-9.29,17.71-9.32,28-15.57a24,24,0,0,0,6-5.24c4.18-5,7.06-10.69,10.63-16a40.1,40.1,0,0,1,7.71-8.79c2.69-.92,5.4-1.9,8.13-2.84,1.87-.63,3.75-1.27,5.65-1.84.82-.25,1.63-.48,2.43-.71,2.74-.82,5.16-1.63,7.32-2.4l1.87-.68c1.42-.53,2.7-1.07,3.89-1.53a34.82,34.82,0,0,0,3.8-1.75c5.7-3,11.6-7.84,20.82-6.7a29.33,29.33,0,0,1,7,1.81c.91.35,1.82.72,2.72,1.09a103.78,103.78,0,0,1,30.69,17.37c1.9,1.54,3.69,3.16,5.43,4.77,8.14,7.52,16.64,14.13,22.82,20.56a90.25,90.25,0,0,0,12.05,11.07c7.85,5.7,2.09,13.2,1.16,19.57a10.4,10.4,0,0,0-.15,3.43,11.15,11.15,0,0,0,1.3,3.74,9.61,9.61,0,0,0,2.94,2.91c.36.23.75.45,1.14.65a22.48,22.48,0,0,0,4.66,1.53,57.75,57.75,0,0,0,7.3,1.25,7.7,7.7,0,0,0,1.27.13,56,56,0,0,0,7.44-.74,42.27,42.27,0,0,0,8.16-2.63l1-.46a50.31,50.31,0,0,0,6.47-3.5,28.56,28.56,0,0,0,6.66-6A49.3,49.3,0,0,0,392.34,315a69.87,69.87,0,0,0,4.07-13.59"/><path class="cls-3" d="M53.1,397.56c1.06,9.51,10.7,14.57,19.58,16.33,10.5,2.07,19.53,6.47,29.62,8.18,7.9,1.35,17.18.08,23.87-6.16a65.83,65.83,0,0,0,9.26-10.64,68.48,68.48,0,0,0,6.56-12,75.17,75.17,0,0,0,5.17-18.84,41.35,41.35,0,0,0,.58-7.93,20,20,0,0,0-.43-3c-.27-1.31-.52-2.63-.79-3.94-.5-2.36-1.08-4.72-1.62-7.1s-1-4.78-1.41-7.21c-1.3-8.5.19-19.34,6.39-26,8.69-9.29,17.25-9.66,27.34-16a24.79,24.79,0,0,0,5.87-5.24c4.13-5,7-10.57,10.59-15.83a40,40,0,0,1,7.71-8.64c2.72-.89,5.45-1.85,8.21-2.78,1.88-.64,3.77-1.28,5.67-1.85l2.44-.73c2.75-.84,5.18-1.68,7.35-2.5.65-.24,1.27-.48,1.87-.72,1.43-.56,2.72-1.13,3.91-1.64a32,32,0,0,0,3.84-1.91c5.74-3.21,11.67-8.36,21-7.34a28.49,28.49,0,0,1,7,1.74c.92.35,1.83.72,2.74,1.09a101.4,101.4,0,0,1,30.82,17.49c1.9,1.57,3.69,3.21,5.42,4.85,8.11,7.64,16.59,14.4,22.71,21.06a97.8,97.8,0,0,0,12,11.63c7.86,6.09,2,14,1.09,20.75a11.39,11.39,0,0,0-.12,3.65,12,12,0,0,0,1.38,4,10.11,10.11,0,0,0,3,3.12c.38.26.78.49,1.19.72a21.69,21.69,0,0,0,4.75,1.69,55,55,0,0,0,7.39,1.41,6.14,6.14,0,0,0,1.28.16,57,57,0,0,0,7.53-.65,42.68,42.68,0,0,0,8.27-2.56l1-.44a52.68,52.68,0,0,0,6.58-3.45,29,29,0,0,0,6.81-6A49,49,0,0,0,394,322.25a70,70,0,0,0,4.22-13.67"/><path class="cls-3" d="M54.33,400.78c1,9.71,10.87,14.83,19.88,16.6,10.36,2,19.28,6.27,29.25,7.89,7.79,1.26,16.92,0,23.54-6.11a65.89,65.89,0,0,0,9.2-10.41A67.52,67.52,0,0,0,142.78,397a73.63,73.63,0,0,0,5.31-18.49,39.29,39.29,0,0,0,.66-7.79,19.57,19.57,0,0,0-.4-3c-.26-1.29-.5-2.59-.76-3.88-.48-2.33-1-4.66-1.56-7s-1-4.72-1.35-7.11c-1.23-8.44.24-19.14,6.26-25.79,8.44-9.31,16.77-10,26.68-16.42a25.84,25.84,0,0,0,5.77-5.23c4.07-4.91,7-10.46,10.55-15.64a39,39,0,0,1,7.72-8.48c2.74-.87,5.5-1.81,8.27-2.74,1.9-.63,3.8-1.27,5.71-1.86l2.45-.74c2.76-.86,5.19-1.73,7.37-2.59l1.88-.76c1.43-.6,2.72-1.21,3.93-1.76a31.79,31.79,0,0,0,3.87-2.07c5.78-3.45,11.73-8.88,21.11-8a28.3,28.3,0,0,1,7.08,1.69q1.38.51,2.76,1.08a99.1,99.1,0,0,1,31,17.61c1.9,1.59,3.68,3.26,5.41,4.92,8.09,7.77,16.53,14.69,22.6,21.58,4.3,4.87,7.7,8.71,11.9,12.17,7.87,6.49,1.89,14.78,1,21.95a12,12,0,0,0-.09,3.85,13.46,13.46,0,0,0,1.45,4.21,11.08,11.08,0,0,0,3.16,3.34c.39.28.8.53,1.22.78a22.81,22.81,0,0,0,4.85,1.86,53.86,53.86,0,0,0,7.48,1.57c.42.06.85.15,1.29.18a31.3,31.3,0,0,0,7.62-.56,43.87,43.87,0,0,0,8.39-2.48l1-.44a54.67,54.67,0,0,0,6.7-3.4,29.56,29.56,0,0,0,7-5.93,49,49,0,0,0,7.68-12.16,70.41,70.41,0,0,0,4.38-13.74"/><path class="cls-3" d="M55.56,404c1,9.89,11,15.07,20.18,16.86,10.21,2,19,6.07,28.87,7.59,7.69,1.18,16.66-.11,23.21-6A65.16,65.16,0,0,0,137,412.23a67.15,67.15,0,0,0,6.6-11.46A73.24,73.24,0,0,0,149,382.63a38,38,0,0,0,.73-7.66,17.86,17.86,0,0,0-.37-3c-.26-1.27-.48-2.55-.73-3.83-.46-2.29-1-4.59-1.49-6.91s-1-4.65-1.29-7c-1.18-8.37.28-18.93,6.12-25.59,8.18-9.33,16.3-10.37,26-16.85a26.38,26.38,0,0,0,5.68-5.23c4-4.86,6.92-10.34,10.52-15.45a38.57,38.57,0,0,1,7.71-8.32c2.78-.84,5.56-1.77,8.35-2.69,1.91-.62,3.82-1.27,5.73-1.86.84-.26,1.66-.5,2.47-.76,2.76-.88,5.21-1.79,7.39-2.69.65-.27,1.28-.53,1.89-.8,1.43-.63,2.73-1.28,3.94-1.87a32.62,32.62,0,0,0,3.91-2.22c5.83-3.71,11.79-9.41,21.25-8.64A27.3,27.3,0,0,1,264,262.9c.93.33,1.86.69,2.78,1.06a96.84,96.84,0,0,1,31.07,17.75c1.9,1.61,3.69,3.3,5.42,5,8.05,7.89,16.47,15,22.49,22.08,4.26,5,7.62,9.06,11.81,12.72,7.89,6.88,1.79,15.58,1,23.14a13.55,13.55,0,0,0,0,4.06,14.48,14.48,0,0,0,1.53,4.45,11.88,11.88,0,0,0,3.26,3.56c.41.29.83.57,1.27.83a22.81,22.81,0,0,0,4.94,2,54.52,54.52,0,0,0,7.56,1.74c.43.06.87.16,1.31.2a31.42,31.42,0,0,0,7.71-.46,45,45,0,0,0,8.5-2.42c.36-.13.71-.28,1.06-.42a54.5,54.5,0,0,0,6.81-3.36,29.34,29.34,0,0,0,7.1-5.9,48.87,48.87,0,0,0,7.88-12.19,70.6,70.6,0,0,0,4.53-13.83"/><path class="cls-3" d="M56.8,407.23c1,10.08,11.18,15.33,20.48,17.14,10.06,1.95,18.79,5.87,28.48,7.28,7.59,1.11,16.41-.2,22.89-6a64.73,64.73,0,0,0,9.1-9.94,67.32,67.32,0,0,0,6.63-11.22A72.33,72.33,0,0,0,150,386.71a36.79,36.79,0,0,0,.82-7.53,18.57,18.57,0,0,0-.35-2.93c-.25-1.25-.46-2.51-.7-3.77-.44-2.27-.95-4.53-1.43-6.82s-.91-4.59-1.22-6.92c-1.11-8.31.32-18.73,6-25.4,7.93-9.35,15.83-10.72,25.35-17.28a27.69,27.69,0,0,0,5.58-5.22c4-4.83,6.87-10.23,10.48-15.26a38,38,0,0,1,7.71-8.16c2.81-.82,5.62-1.73,8.42-2.64,1.93-.63,3.84-1.27,5.77-1.87.84-.26,1.66-.51,2.47-.78,2.78-.9,5.23-1.84,7.42-2.78l1.89-.84c1.44-.67,2.75-1.36,4-2a32.38,32.38,0,0,0,3.94-2.38c5.87-4,11.85-9.94,21.4-9.29a27,27,0,0,1,7.21,1.57c.94.33,1.87.69,2.81,1.06a95,95,0,0,1,31.19,17.87c1.9,1.63,3.68,3.35,5.41,5.07,8,8,16.41,15.24,22.38,22.58,4.23,5.21,7.55,9.42,11.74,13.28,7.89,7.27,1.69,16.36.89,24.32a14.58,14.58,0,0,0,0,4.27,15.87,15.87,0,0,0,1.61,4.69,12.92,12.92,0,0,0,3.38,3.78c.41.31.85.61,1.3.89a23.45,23.45,0,0,0,5,2.2,53.82,53.82,0,0,0,7.65,1.89c.43.08.87.19,1.32.23a31.58,31.58,0,0,0,7.8-.37,44.67,44.67,0,0,0,8.61-2.34l1.08-.42a55,55,0,0,0,6.92-3.31,30,30,0,0,0,7.26-5.87A48.77,48.77,0,0,0,399.09,344a70.3,70.3,0,0,0,4.69-13.91"/><path class="cls-3" d="M58,410.46c1,10.27,11.35,15.58,20.78,17.4,9.91,1.91,18.55,5.67,28.1,7,7.49,1,16.15-.29,22.57-5.94a64.93,64.93,0,0,0,9.05-9.71,66.63,66.63,0,0,0,6.64-11,71.12,71.12,0,0,0,5.73-17.43,35.64,35.64,0,0,0,.89-7.4,16.6,16.6,0,0,0-.32-2.88c-.24-1.24-.44-2.49-.67-3.73-.42-2.23-.91-4.47-1.36-6.72s-.87-4.53-1.16-6.83c-1-8.24.36-18.52,5.83-25.2,7.68-9.36,15.36-11.08,24.69-17.71a28.4,28.4,0,0,0,5.49-5.22c3.91-4.78,6.82-10.1,10.44-15.06a37.24,37.24,0,0,1,7.72-8c2.84-.79,5.67-1.68,8.49-2.59,1.94-.62,3.86-1.27,5.79-1.88l2.49-.78a79.71,79.71,0,0,0,7.44-2.89c.65-.29,1.29-.58,1.9-.88,1.45-.7,2.75-1.42,4-2.1a32.3,32.3,0,0,0,4-2.54c5.91-4.21,11.92-10.46,21.55-9.93a26.52,26.52,0,0,1,7.27,1.51c.94.33,1.89.68,2.83,1a93,93,0,0,1,31.32,18c1.9,1.65,3.68,3.39,5.4,5.14,8,8.13,16.36,15.52,22.27,23.08,4.2,5.37,7.48,9.77,11.66,13.83,7.91,7.67,1.59,17.16.83,25.52a15.19,15.19,0,0,0,0,4.47,17.51,17.51,0,0,0,1.68,4.93,13.85,13.85,0,0,0,3.5,4c.42.33.87.65,1.33.95a24.73,24.73,0,0,0,5.14,2.36,51.83,51.83,0,0,0,7.73,2.06c.44.08.89.2,1.34.25a31.17,31.17,0,0,0,7.88-.28,45.69,45.69,0,0,0,8.73-2.26l1.1-.41a56.2,56.2,0,0,0,7-3.27,30.2,30.2,0,0,0,7.41-5.85,48.47,48.47,0,0,0,8.26-12.25,70.67,70.67,0,0,0,4.85-14"/><path class="cls-3" d="M59.26,413.68c1,10.46,11.51,15.83,21.08,17.67,9.76,1.88,18.31,5.48,27.72,6.68,7.39,1,15.9-.38,22.24-5.88a64.12,64.12,0,0,0,9-9.48A66.08,66.08,0,0,0,146,412a70.29,70.29,0,0,0,5.86-17.08,34.46,34.46,0,0,0,1-7.27,16.21,16.21,0,0,0-.3-2.84c-.23-1.22-.42-2.45-.64-3.67-.4-2.2-.86-4.41-1.29-6.63s-.83-4.46-1.11-6.73c-1-8.18.4-18.33,5.7-25,7.42-9.37,14.89-11.42,24-18.13a29,29,0,0,0,5.38-5.21c3.86-4.74,6.79-10,10.41-14.87a37.18,37.18,0,0,1,7.72-7.86c2.87-.76,5.72-1.64,8.56-2.54,2-.61,3.89-1.26,5.83-1.88l2.49-.8a72.12,72.12,0,0,0,7.47-3c.66-.31,1.29-.62,1.9-.93,1.46-.73,2.77-1.49,4-2.21a31.3,31.3,0,0,0,4-2.7c6-4.46,12-11,21.69-10.58a26.39,26.39,0,0,1,7.34,1.46c.95.32,1.9.67,2.85,1a91.24,91.24,0,0,1,31.45,18.13c1.9,1.68,3.67,3.44,5.39,5.21,8,8.26,16.3,15.8,22.17,23.6,4.16,5.53,7.4,10.12,11.58,14.38,7.91,8.06,1.48,17.94.76,26.7a16.29,16.29,0,0,0,0,4.69,18.51,18.51,0,0,0,1.76,5.16,14.83,14.83,0,0,0,3.6,4.21c.44.36.9.69,1.38,1a25.51,25.51,0,0,0,5.23,2.53,53.9,53.9,0,0,0,7.82,2.22c.45.09.89.21,1.35.27a31.38,31.38,0,0,0,8-.19,45.9,45.9,0,0,0,8.84-2.19l1.12-.4a55.93,55.93,0,0,0,7.14-3.21,30.48,30.48,0,0,0,7.56-5.83,49,49,0,0,0,8.46-12.29,71,71,0,0,0,5-14.07"/><path class="cls-3" d="M60.49,416.91c.93,10.65,11.67,16.08,21.38,17.93s18.07,5.28,27.34,6.38c7.29.87,15.64-.48,21.92-5.82a65.48,65.48,0,0,0,9-9.25,66.66,66.66,0,0,0,6.69-10.47,69.61,69.61,0,0,0,6-16.73,32.77,32.77,0,0,0,1.06-7.14,15.71,15.71,0,0,0-.27-2.8c-.22-1.2-.4-2.41-.61-3.61-.38-2.18-.82-4.35-1.23-6.54s-.79-4.4-1-6.63c-.92-8.12.44-18.13,5.56-24.83,7.17-9.39,14.42-11.77,23.36-18.56a30.61,30.61,0,0,0,5.29-5.21c3.8-4.7,6.74-9.87,10.37-14.67a36.11,36.11,0,0,1,7.72-7.7c2.9-.74,5.78-1.6,8.64-2.5,2-.61,3.91-1.25,5.86-1.88.84-.27,1.68-.54,2.5-.82a67.75,67.75,0,0,0,7.49-3.08c.66-.32,1.3-.64,1.91-1,1.46-.77,2.77-1.57,4-2.32a34.06,34.06,0,0,0,4.05-2.87c6-4.71,12-11.5,21.84-11.22a25.38,25.38,0,0,1,7.39,1.39c1,.32,1.92.67,2.88,1a89.61,89.61,0,0,1,31.57,18.26c1.9,1.7,3.68,3.49,5.39,5.29,7.95,8.38,16.25,16.08,22.06,24.1,4.13,5.7,7.32,10.47,11.5,14.93,7.92,8.46,1.39,18.74.69,27.89a17.32,17.32,0,0,0,.07,4.9,19.78,19.78,0,0,0,1.83,5.4,15.81,15.81,0,0,0,3.72,4.43c.45.38.92.73,1.41,1.07a26,26,0,0,0,5.33,2.7,51.47,51.47,0,0,0,7.9,2.38c.46.1.91.23,1.37.3a31.56,31.56,0,0,0,8.06-.1,46.56,46.56,0,0,0,9-2.11l1.13-.4a56.48,56.48,0,0,0,7.26-3.16,30.85,30.85,0,0,0,7.7-5.8,48.67,48.67,0,0,0,8.66-12.33,71.14,71.14,0,0,0,5.15-14.15"/><path class="cls-3" d="M61.72,420.13c.91,10.84,11.83,16.34,21.68,18.21,9.47,1.79,17.83,5.07,27,6.08,7.19.78,15.39-.58,21.6-5.78a63,63,0,0,0,15.6-19.23A68.24,68.24,0,0,0,153.7,403a31.82,31.82,0,0,0,1.13-7,14.46,14.46,0,0,0-.25-2.76c-.21-1.18-.37-2.37-.57-3.56-.36-2.14-.78-4.28-1.16-6.44s-.75-4.34-1-6.54c-.85-8.05.48-17.92,5.42-24.63,6.91-9.41,14-12.12,22.7-19a32.8,32.8,0,0,0,5.19-5.21c3.75-4.66,6.69-9.76,10.33-14.48a35.85,35.85,0,0,1,7.73-7.55c2.93-.71,5.83-1.55,8.71-2.44,2-.61,3.93-1.26,5.88-1.89.85-.28,1.69-.55,2.51-.84a63.55,63.55,0,0,0,7.52-3.17c.66-.34,1.3-.67,1.92-1,1.46-.8,2.78-1.64,4-2.43a34.38,34.38,0,0,0,4.09-3c6-5,12.1-12,22-11.87a25.35,25.35,0,0,1,7.46,1.34c1,.31,1.94.66,2.9,1a87.91,87.91,0,0,1,31.7,18.39c1.9,1.72,3.67,3.53,5.38,5.36,7.92,8.5,16.19,16.35,21.95,24.6,4.1,5.87,7.25,10.82,11.42,15.48,7.93,8.85,1.29,19.53.63,29.08a18.38,18.38,0,0,0,.1,5.11,20.85,20.85,0,0,0,1.91,5.64,16.56,16.56,0,0,0,3.82,4.65c.47.39,1,.77,1.46,1.13a26.62,26.62,0,0,0,5.42,2.86,51.35,51.35,0,0,0,8,2.55c.46.11.91.24,1.38.32a31.76,31.76,0,0,0,8.15,0,47.72,47.72,0,0,0,9.07-2l1.15-.38a58.36,58.36,0,0,0,7.37-3.12,31.28,31.28,0,0,0,7.86-5.77A48.87,48.87,0,0,0,405.85,373a72,72,0,0,0,5.31-14.23"/><path class="cls-3" d="M63,423.36c.89,11,12,16.58,22,18.47,9.32,1.76,17.58,4.88,26.57,5.78,7.09.71,15.13-.67,21.27-5.72a64.47,64.47,0,0,0,8.85-8.78,65.9,65.9,0,0,0,6.73-10,67.2,67.2,0,0,0,6.27-16,30.76,30.76,0,0,0,1.22-6.89,13.85,13.85,0,0,0-.23-2.71c-.2-1.17-.35-2.34-.54-3.51-.34-2.11-.73-4.22-1.1-6.35s-.7-4.27-.91-6.44c-.79-8,.52-17.72,5.27-24.44,6.67-9.43,13.48-12.47,22-19.41a34.07,34.07,0,0,0,5.1-5.21c3.69-4.61,6.65-9.63,10.29-14.28a35.48,35.48,0,0,1,7.73-7.39c3-.69,5.89-1.51,8.78-2.4,2-.6,4-1.25,5.92-1.9.85-.28,1.69-.56,2.52-.85a59,59,0,0,0,7.54-3.27c.66-.34,1.3-.69,1.92-1,1.47-.84,2.8-1.71,4.06-2.55a36.32,36.32,0,0,0,4.12-3.18c6.08-5.22,12.17-12.65,22.13-12.52a25.85,25.85,0,0,1,7.52,1.27c1,.32,1.95.66,2.92,1a86.35,86.35,0,0,1,31.83,18.51c1.9,1.74,3.67,3.58,5.37,5.44,7.9,8.62,16.13,16.63,21.84,25.11,4.07,6,7.18,11.17,11.35,16,7.93,9.24,1.18,20.32.56,30.27a19,19,0,0,0,.13,5.31,22.51,22.51,0,0,0,2,5.88,17.9,17.9,0,0,0,3.94,4.87c.48.41,1,.81,1.49,1.19a28,28,0,0,0,5.52,3,53.48,53.48,0,0,0,8.08,2.71c.46.11.92.26,1.39.34a32.42,32.42,0,0,0,8.24.09,48.86,48.86,0,0,0,9.18-2l1.16-.38a56.32,56.32,0,0,0,7.49-3.07,31.58,31.58,0,0,0,8-5.75,48.93,48.93,0,0,0,9.05-12.39A71.9,71.9,0,0,0,413,366"/><path class="cls-3" d="M64.19,426.59c.86,11.21,12.15,16.83,22.28,18.73,9.17,1.72,17.34,4.68,26.19,5.48,7,.63,14.88-.76,21-5.66a64.22,64.22,0,0,0,8.79-8.55,65.44,65.44,0,0,0,6.76-9.73,66.84,66.84,0,0,0,6.41-15.66,29.78,29.78,0,0,0,1.29-6.76,13.4,13.4,0,0,0-.2-2.67c-.19-1.15-.33-2.3-.51-3.46-.32-2.07-.69-4.15-1-6.25s-.66-4.21-.86-6.35c-.72-7.93.57-17.52,5.14-24.24,6.42-9.45,13-12.83,21.38-19.84a37,37,0,0,0,5-5.2c3.64-4.58,6.6-9.52,10.25-14.09a34.94,34.94,0,0,1,7.73-7.24c3-.66,6-1.47,8.86-2.35,2-.6,4-1.25,5.94-1.9.86-.29,1.71-.57,2.53-.87a56.59,56.59,0,0,0,7.57-3.36c.66-.36,1.31-.72,1.93-1.09,1.47-.86,2.8-1.78,4.07-2.66a36,36,0,0,0,4.16-3.34c6.13-5.47,12.23-13.08,22.28-13.16a24.47,24.47,0,0,1,7.58,1.21q1.49.46,2.94,1a85.12,85.12,0,0,1,32,18.65c1.9,1.76,3.66,3.62,5.36,5.5,7.87,8.74,16.08,16.91,21.74,25.62,4,6.2,7.09,11.52,11.26,16.58,7.93,9.64,1.09,21.12.5,31.46a20.49,20.49,0,0,0,.15,5.52,24.24,24.24,0,0,0,2.06,6.12,18.56,18.56,0,0,0,4.06,5.08c.49.44,1,.85,1.52,1.26a29.17,29.17,0,0,0,5.62,3.19,51.29,51.29,0,0,0,8.16,2.87c.47.12.93.28,1.41.36a31.75,31.75,0,0,0,8.33.19,47.56,47.56,0,0,0,9.29-1.9c.4-.11.79-.24,1.18-.36a57.57,57.57,0,0,0,7.6-3A31.78,31.78,0,0,0,400,400a49,49,0,0,0,9.25-12.42,73.25,73.25,0,0,0,5.62-14.4"/><path class="cls-3" d="M65.42,429.81c.84,11.41,12.31,17.09,22.58,19,9,1.68,17.1,4.5,25.81,5.18,6.89.56,14.63-.85,20.63-5.6a64.71,64.71,0,0,0,22.06-33.11,28.77,28.77,0,0,0,1.38-6.63,13.8,13.8,0,0,0-.18-2.63c-.18-1.13-.32-2.27-.48-3.4-.3-2.05-.65-4.1-1-6.16s-.61-4.15-.79-6.25c-.66-7.87.61-17.32,5-24.06,6.16-9.45,12.54-13.17,20.71-20.26a38.08,38.08,0,0,0,4.9-5.2c3.59-4.53,6.56-9.4,10.23-13.89a33.91,33.91,0,0,1,7.73-7.08c3-.64,6-1.43,8.92-2.3,2-.6,4-1.25,6-1.91.86-.29,1.71-.58,2.54-.88a55.51,55.51,0,0,0,7.59-3.47c.66-.37,1.31-.74,1.93-1.12,1.48-.9,2.82-1.86,4.1-2.78a37.17,37.17,0,0,0,4.19-3.5c6.17-5.72,12.29-13.6,22.42-13.81a24.14,24.14,0,0,1,7.65,1.16c1,.3,2,.63,3,1a83.6,83.6,0,0,1,32.08,18.77c1.9,1.79,3.67,3.67,5.36,5.58,7.85,8.86,16,17.19,21.63,26.12,4,6.37,7,11.87,11.18,17.14,7.94,10,1,21.9.43,32.64a22.08,22.08,0,0,0,.19,5.74,25.2,25.2,0,0,0,2.14,6.34,19.56,19.56,0,0,0,4.16,5.31c.5.46,1,.89,1.57,1.31a30.08,30.08,0,0,0,5.71,3.37,52.43,52.43,0,0,0,8.25,3c.47.13.94.29,1.42.38a31.49,31.49,0,0,0,8.41.28,48.63,48.63,0,0,0,9.41-1.82c.41-.11.81-.24,1.2-.36a58.76,58.76,0,0,0,7.71-3,32.27,32.27,0,0,0,8.31-5.7,49,49,0,0,0,9.45-12.46,72.93,72.93,0,0,0,5.77-14.47"/><path class="cls-3" d="M66.65,433c.82,11.59,12.47,17.34,22.88,19.27,8.88,1.64,16.86,4.29,25.43,4.87,6.79.48,14.37-.94,20.3-5.55a63.27,63.27,0,0,0,8.69-8.08,65.08,65.08,0,0,0,13.49-24.19,27.86,27.86,0,0,0,1.45-6.5,12.56,12.56,0,0,0-.15-2.59c-.17-1.11-.3-2.23-.45-3.34-.28-2-.6-4-.9-6.07s-.57-4.08-.73-6.15c-.6-7.81.65-17.12,4.86-23.87,5.91-9.47,12.07-13.52,20-20.69a41.32,41.32,0,0,0,4.8-5.19c3.54-4.49,6.52-9.29,10.19-13.7a33.37,33.37,0,0,1,7.73-6.93c3.05-.61,6.05-1.38,9-2.25,2-.59,4-1.25,6-1.92.86-.29,1.71-.58,2.54-.89a50.54,50.54,0,0,0,7.62-3.57c.67-.38,1.31-.76,1.94-1.16,1.48-.93,2.83-1.93,4.11-2.89a37.9,37.9,0,0,0,4.23-3.66c6.21-6,12.35-14.12,22.57-14.45a24,24,0,0,1,7.71,1.09c1,.3,2,.63,3,1a82.49,82.49,0,0,1,32.21,18.9c1.9,1.81,3.66,3.72,5.35,5.66,7.82,9,16,17.46,21.52,26.62,4,6.53,6.94,12.22,11.11,17.69,7.94,10.42.88,22.7.36,33.84a22.7,22.7,0,0,0,.22,5.94,26.41,26.41,0,0,0,2.21,6.58,20.58,20.58,0,0,0,4.28,5.53c.51.47,1.05.93,1.6,1.37a31.11,31.11,0,0,0,5.81,3.53,51.91,51.91,0,0,0,8.33,3.19c.48.14.95.31,1.44.41a31.74,31.74,0,0,0,8.5.37,49.24,49.24,0,0,0,9.53-1.74l1.21-.35a60.63,60.63,0,0,0,7.82-2.93,32.4,32.4,0,0,0,8.46-5.67,49.19,49.19,0,0,0,9.65-12.5,72.48,72.48,0,0,0,5.92-14.55"/><path class="cls-3" d="M67.88,436.26c.8,11.79,12.64,17.6,23.18,19.54,8.74,1.6,16.62,4.09,25,4.57,6.69.4,14.12-1,20-5.49a63.72,63.72,0,0,0,8.64-7.85,65.39,65.39,0,0,0,6.82-9,64.43,64.43,0,0,0,6.82-14.61,26.41,26.41,0,0,0,1.53-6.37,11.42,11.42,0,0,0-.12-2.54c-.17-1.1-.28-2.2-.42-3.3-.26-2-.56-4-.83-6s-.53-4-.67-6.06c-.53-7.74.68-16.91,4.71-23.67,5.66-9.49,11.61-13.87,19.39-21.12a43.77,43.77,0,0,0,4.71-5.19c3.48-4.45,6.47-9.16,10.15-13.51a33.24,33.24,0,0,1,7.73-6.77,93,93,0,0,0,9.07-2.2c2-.58,4.06-1.24,6-1.92.87-.3,1.72-.59,2.56-.91a48.81,48.81,0,0,0,7.63-3.66c.68-.39,1.33-.8,2-1.21,1.49-1,2.84-2,4.13-3a39.62,39.62,0,0,0,4.27-3.82c6.26-6.22,12.42-14.64,22.71-15.1a23.74,23.74,0,0,1,7.78,1c1,.3,2,.62,3,1a81.23,81.23,0,0,1,32.33,19c1.9,1.83,3.66,3.76,5.34,5.73,7.8,9.1,15.91,17.74,21.41,27.13,3.93,6.69,6.87,12.57,11,18.23,7.94,10.81.78,23.49.3,35a23.82,23.82,0,0,0,.25,6.15,28.35,28.35,0,0,0,2.28,6.82A22,22,0,0,0,351,423c.53.49,1.08,1,1.65,1.43a32.67,32.67,0,0,0,5.9,3.7,53.14,53.14,0,0,0,8.42,3.35,14.23,14.23,0,0,0,1.45.43,32.4,32.4,0,0,0,8.59.47,50.4,50.4,0,0,0,9.64-1.68l1.23-.34a61.11,61.11,0,0,0,7.94-2.88,33,33,0,0,0,8.61-5.64,49.44,49.44,0,0,0,9.84-12.53,73.84,73.84,0,0,0,6.08-14.64"/><path class="cls-3" d="M69.11,439.49c.78,12,12.8,17.85,23.49,19.8,8.58,1.57,16.37,3.89,24.66,4.28,6.59.31,13.86-1.13,19.66-5.44a63.58,63.58,0,0,0,8.58-7.62,65,65,0,0,0,6.84-8.73,63.48,63.48,0,0,0,7-14.26,25.94,25.94,0,0,0,1.61-6.24,11.66,11.66,0,0,0-.1-2.5c-.16-1.08-.26-2.16-.39-3.24-.24-2-.52-3.91-.77-5.88s-.48-4-.61-6c-.46-7.69.73-16.72,4.58-23.48,5.41-9.51,11.14-14.22,18.73-21.55a48.53,48.53,0,0,0,4.61-5.18c3.43-4.41,6.43-9.05,10.11-13.32a32.7,32.7,0,0,1,7.74-6.61c3.11-.56,6.16-1.3,9.14-2.15,2.06-.59,4.07-1.25,6.07-1.93.87-.3,1.73-.61,2.57-.93a46.58,46.58,0,0,0,7.65-3.76c.68-.4,1.33-.82,2-1.24,1.49-1,2.85-2.07,4.15-3.12a40.29,40.29,0,0,0,4.3-4c6.3-6.47,12.48-15.17,22.86-15.75a23.2,23.2,0,0,1,7.84,1c1,.29,2,.61,3,.94a80.06,80.06,0,0,1,32.45,19.16c1.9,1.85,3.66,3.81,5.34,5.8,7.77,9.23,15.85,18,21.31,27.64,3.89,6.86,6.78,12.92,10.95,18.79,7.94,11.2.68,24.28.22,36.21a24.93,24.93,0,0,0,.29,6.36,29.31,29.31,0,0,0,2.36,7.06,22.83,22.83,0,0,0,4.5,6c.54.52,1.1,1,1.68,1.49a33.93,33.93,0,0,0,6,3.87,54,54,0,0,0,8.52,3.52c.48.15,1,.34,1.46.45a32.23,32.23,0,0,0,8.68.56,51.54,51.54,0,0,0,9.75-1.6l1.25-.33a61,61,0,0,0,8.05-2.84,33.46,33.46,0,0,0,8.76-5.62,49.17,49.17,0,0,0,10-12.56,74.15,74.15,0,0,0,6.23-14.71"/><path class="cls-3" d="M70.35,442.71c.74,12.17,13,18.11,23.78,20.07,8.44,1.53,16.13,3.69,24.28,4,6.49.23,13.61-1.22,19.34-5.39a64,64,0,0,0,8.53-7.38,64.86,64.86,0,0,0,6.86-8.49,62.41,62.41,0,0,0,7.1-13.9,24.28,24.28,0,0,0,1.69-6.11,10.17,10.17,0,0,0-.08-2.46c-.14-1.06-.23-2.12-.35-3.19-.22-1.92-.47-3.84-.7-5.78s-.44-3.9-.55-5.87c-.4-7.62.77-16.51,4.44-23.28,5.15-9.53,10.66-14.57,18.06-22a52.41,52.41,0,0,0,4.52-5.18c3.37-4.36,6.38-8.93,10.07-13.12a32.38,32.38,0,0,1,7.74-6.46,86.19,86.19,0,0,0,9.21-2.1c2.07-.58,4.1-1.24,6.1-1.94.88-.3,1.74-.61,2.58-.94a45.47,45.47,0,0,0,7.68-3.85c.68-.42,1.33-.85,2-1.29,1.5-1,2.85-2.14,4.16-3.22a42.26,42.26,0,0,0,4.33-4.14c6.35-6.72,12.55-15.69,23-16.4a23.43,23.43,0,0,1,7.91.92c1,.29,2,.61,3.05.94a79,79,0,0,1,32.58,19.29,77.34,77.34,0,0,1,5.33,5.87c7.74,9.35,15.79,18.29,21.2,28.14,3.86,7,6.71,13.27,10.87,19.34,7.94,11.59.58,25.08.16,37.4a25.61,25.61,0,0,0,.32,6.57,30.71,30.71,0,0,0,2.43,7.3,23.9,23.9,0,0,0,4.61,6.18c.56.54,1.13,1.05,1.72,1.55a36.37,36.37,0,0,0,6.09,4,53.34,53.34,0,0,0,8.6,3.67,15,15,0,0,0,1.48.48,32.5,32.5,0,0,0,8.77.65,51,51,0,0,0,9.86-1.53l1.27-.32a60.82,60.82,0,0,0,8.16-2.79,33.69,33.69,0,0,0,8.91-5.59,49.47,49.47,0,0,0,10.24-12.59,74.07,74.07,0,0,0,6.38-14.8"/><path class="cls-3" d="M71.58,445.94c.72,12.35,13.11,18.37,24.08,20.34,8.29,1.48,15.89,3.48,23.9,3.67,6.39.15,13.36-1.31,19-5.33a64.84,64.84,0,0,0,8.49-7.15,66.93,66.93,0,0,0,6.88-8.24,62.06,62.06,0,0,0,7.23-13.55,23.46,23.46,0,0,0,1.78-6,10.35,10.35,0,0,0-.06-2.42c-.13-1-.21-2.08-.32-3.13-.2-1.89-.43-3.78-.64-5.69s-.4-3.83-.48-5.77c-.33-7.56.81-16.31,4.29-23.1,4.91-9.54,10.2-14.91,17.41-22.4a61.63,61.63,0,0,0,4.42-5.17c3.31-4.33,6.33-8.82,10-12.93a31.79,31.79,0,0,1,7.74-6.3,82.4,82.4,0,0,0,9.29-2.06c2.08-.57,4.12-1.23,6.13-1.94.88-.31,1.74-.62,2.59-1a44.75,44.75,0,0,0,7.7-3.95c.68-.43,1.34-.87,2-1.32,1.51-1.07,2.87-2.22,4.19-3.34a43.12,43.12,0,0,0,4.36-4.3c6.39-7,12.62-16.22,23.16-17a23.14,23.14,0,0,1,8,.86c1,.29,2.05.6,3.07.92a78.33,78.33,0,0,1,32.71,19.42c1.89,1.9,3.65,3.9,5.32,5.95,7.72,9.47,15.73,18.57,21.09,28.65,3.82,7.19,6.63,13.61,10.79,19.89,7.94,12,.48,25.86.1,38.59a27.28,27.28,0,0,0,.34,6.78,32.37,32.37,0,0,0,2.52,7.53,25.16,25.16,0,0,0,4.72,6.4c.57.56,1.15,1.09,1.76,1.61a37,37,0,0,0,6.18,4.2,54.71,54.71,0,0,0,8.69,3.84c.49.17,1,.37,1.49.5a26.37,26.37,0,0,0,8.86.74,79.18,79.18,0,0,0,10-1.45l1.28-.32a61.11,61.11,0,0,0,8.27-2.73,33.88,33.88,0,0,0,9.06-5.57,49.21,49.21,0,0,0,10.43-12.63,74.48,74.48,0,0,0,6.55-14.87"/><path class="cls-3" d="M72.81,449.16c.7,12.54,13.27,18.63,24.38,20.61,8.14,1.45,15.65,3.29,23.52,3.37a32.3,32.3,0,0,0,18.69-5.27,64.06,64.06,0,0,0,8.43-6.92,66.52,66.52,0,0,0,6.9-8,61.52,61.52,0,0,0,7.38-13.19,23.32,23.32,0,0,0,1.85-5.86,9.9,9.9,0,0,0,0-2.37c-.12-1-.19-2.06-.29-3.08-.18-1.86-.38-3.73-.57-5.6s-.36-3.77-.42-5.67c-.27-7.5.85-16.12,4.15-22.91,4.65-9.56,9.73-15.26,16.75-22.83,1.47-1.59,2.91-3.32,4.31-5.17,3.27-4.28,6.3-8.7,10-12.73a31.11,31.11,0,0,1,7.75-6.15,80.73,80.73,0,0,0,9.35-2c2.1-.58,4.15-1.24,6.17-1.95.88-.31,1.74-.63,2.59-1a43.82,43.82,0,0,0,7.73-4.05c.68-.45,1.34-.9,2-1.37,1.51-1.1,2.88-2.28,4.2-3.45a45.25,45.25,0,0,0,4.4-4.46c6.44-7.22,12.68-16.74,23.31-17.69a22.84,22.84,0,0,1,8,.81c1,.28,2.07.59,3.1.91a77.45,77.45,0,0,1,32.84,19.54,79.24,79.24,0,0,1,5.31,6c7.69,9.58,15.68,18.84,21,29.15,3.79,7.35,6.56,14,10.72,20.44,7.94,12.37.37,26.66,0,39.78a28,28,0,0,0,.37,7,34.28,34.28,0,0,0,2.59,7.77,26.05,26.05,0,0,0,4.84,6.62c.57.57,1.17,1.13,1.79,1.67a38.75,38.75,0,0,0,6.28,4.36,55.51,55.51,0,0,0,8.77,4c.5.17,1,.38,1.51.52a26.36,26.36,0,0,0,8.94.83,78.88,78.88,0,0,0,10.1-1.38l1.3-.3a62.43,62.43,0,0,0,8.38-2.69,34.38,34.38,0,0,0,9.21-5.54,49.58,49.58,0,0,0,10.63-12.67,74.1,74.1,0,0,0,6.7-14.95"/><path class="cls-3" d="M74,452.39c.68,12.73,13.44,18.88,24.69,20.87,8,1.41,15.4,3.09,23.13,3.07a33.09,33.09,0,0,0,18.37-5.21,65.56,65.56,0,0,0,8.38-6.69,66.38,66.38,0,0,0,6.92-7.74A61,61,0,0,0,163,443.85a22.13,22.13,0,0,0,1.93-5.73,9.09,9.09,0,0,0,0-2.33c-.12-1-.17-2-.26-3-.16-1.82-.34-3.66-.5-5.5s-.32-3.71-.36-5.58c-.2-7.44.89-15.91,4-22.71,4.4-9.58,9.26-15.61,16.08-23.25,1.43-1.61,2.84-3.35,4.22-5.17a149.29,149.29,0,0,1,10-12.54,30.57,30.57,0,0,1,7.74-6,75.35,75.35,0,0,0,9.43-1.95c2.11-.57,4.17-1.23,6.19-1.95.88-.32,1.76-.64,2.61-1a42.63,42.63,0,0,0,7.75-4.15c.68-.45,1.34-.92,2-1.4,1.52-1.14,2.89-2.36,4.23-3.57a46.32,46.32,0,0,0,4.43-4.62c6.48-7.47,12.74-17.26,23.45-18.33a22.58,22.58,0,0,1,8.09.74c1.05.28,2.09.58,3.12.91a74.3,74.3,0,0,1,38.27,25.76c7.67,9.71,15.6,19.13,20.88,29.66,3.74,7.53,6.47,14.31,10.63,21,7.94,12.76.28,27.45,0,41a30.08,30.08,0,0,0,.41,7.2,35.72,35.72,0,0,0,2.66,8,27.59,27.59,0,0,0,5,6.84c.59.59,1.21,1.16,1.84,1.72a40.34,40.34,0,0,0,6.37,4.54,55.16,55.16,0,0,0,8.86,4.16c.5.19,1,.41,1.52.55a26.69,26.69,0,0,0,9,.93,80.73,80.73,0,0,0,10.21-1.31c.44-.09.88-.19,1.31-.3a62,62,0,0,0,8.5-2.64,34.6,34.6,0,0,0,9.37-5.52,49.65,49.65,0,0,0,10.82-12.69,74.06,74.06,0,0,0,6.85-15"/><path class="cls-3" d="M75.27,455.61c.66,12.92,13.6,19.15,25,21.14,7.84,1.38,15.16,2.89,22.75,2.77a33.86,33.86,0,0,0,18-5.16,64.14,64.14,0,0,0,8.33-6.45,67.12,67.12,0,0,0,7-7.49A60.53,60.53,0,0,0,164,447.93a21.74,21.74,0,0,0,2-5.6,9.22,9.22,0,0,0,0-2.29c-.11-1-.15-2-.23-3-.14-1.8-.3-3.6-.44-5.41s-.27-3.64-.3-5.48c-.12-7.38.94-15.72,3.88-22.52,4.14-9.6,8.79-16,15.42-23.68,1.39-1.62,2.76-3.36,4.12-5.17a129.83,129.83,0,0,1,9.93-12.34,30,30,0,0,1,7.74-5.84,72.75,72.75,0,0,0,9.51-1.91c2.12-.56,4.19-1.23,6.22-2,.88-.32,1.76-.65,2.61-1a41.59,41.59,0,0,0,7.78-4.24c.69-.47,1.35-.95,2-1.45,1.52-1.17,2.9-2.43,4.24-3.68a48.49,48.49,0,0,0,4.47-4.77c6.52-7.73,12.8-17.79,23.6-19a22.6,22.6,0,0,1,8.15.69c1.06.27,2.1.57,3.14.89a73.25,73.25,0,0,1,38.39,26c7.64,9.83,15.55,19.41,20.77,30.16,3.71,7.69,6.39,14.66,10.55,21.55,7.94,13.14.18,28.24-.1,42.16a30.66,30.66,0,0,0,.44,7.4,36.84,36.84,0,0,0,2.74,8.25,28.4,28.4,0,0,0,5.06,7.05c.6.62,1.23,1.21,1.87,1.79a41.63,41.63,0,0,0,6.47,4.7,55.66,55.66,0,0,0,8.94,4.33c.51.19,1,.42,1.54.57a27,27,0,0,0,9.12,1A84.26,84.26,0,0,0,394,473.93l1.33-.29a62.49,62.49,0,0,0,8.62-2.6,34.93,34.93,0,0,0,9.51-5.49,49.67,49.67,0,0,0,11-12.73,75.26,75.26,0,0,0,7-15.11"/><path class="cls-3" d="M76.51,458.84c.63,13.11,13.75,19.4,25.28,21.41,7.7,1.33,14.92,2.68,22.37,2.46a34.94,34.94,0,0,0,17.72-5.1,65.09,65.09,0,0,0,8.28-6.22,67,67,0,0,0,7-7.25A59.32,59.32,0,0,0,164.91,452a20.77,20.77,0,0,0,2.09-5.47,8.46,8.46,0,0,0,.05-2.25c-.1-1-.13-1.94-.2-2.92-.12-1.76-.26-3.53-.37-5.31s-.23-3.58-.24-5.39c-.06-7.31,1-15.51,3.73-22.33,3.9-9.62,8.33-16.3,14.76-24.1,1.35-1.64,2.69-3.37,4-5.16a114.41,114.41,0,0,1,9.89-12.15,29.51,29.51,0,0,1,7.75-5.69,70.11,70.11,0,0,0,9.57-1.85q3.21-.86,6.25-2c.89-.32,1.77-.66,2.63-1a41.19,41.19,0,0,0,7.8-4.34c.69-.48,1.35-1,2-1.48,1.52-1.21,2.91-2.51,4.25-3.8a51,51,0,0,0,4.51-4.93c6.57-8,12.87-18.31,23.74-19.63a22.2,22.2,0,0,1,8.22.63c1.06.27,2.12.56,3.16.88A72.43,72.43,0,0,1,317,349.9c7.62,10,15.5,19.68,20.66,30.67,3.68,7.85,6.32,15,10.48,22.09,7.94,13.53.07,29-.17,43.35a31.35,31.35,0,0,0,.47,7.61,37.78,37.78,0,0,0,2.81,8.49,29.79,29.79,0,0,0,5.17,7.27c.62.64,1.26,1.25,1.91,1.85a43.88,43.88,0,0,0,6.57,4.87,58,58,0,0,0,9,4.49c.51.2,1,.43,1.55.59a27,27,0,0,0,9.21,1.11,82.37,82.37,0,0,0,10.43-1.16l1.35-.28a62.8,62.8,0,0,0,8.73-2.55,35.14,35.14,0,0,0,9.66-5.46,50,50,0,0,0,11.22-12.76,75.53,75.53,0,0,0,7.16-15.2"/><path class="cls-3" d="M77.74,462.06c.61,13.3,13.91,19.67,25.58,21.68,7.55,1.3,14.68,2.48,22,2.17a36.19,36.19,0,0,0,17.4-5.05,65,65,0,0,0,8.22-6,67.92,67.92,0,0,0,7-7,58.88,58.88,0,0,0,7.93-11.78,20.4,20.4,0,0,0,2.17-5.34,8.09,8.09,0,0,0,.07-2.2c-.09-1-.12-1.91-.17-2.87-.1-1.73-.21-3.47-.31-5.22s-.18-3.52-.17-5.29c0-7.25,1-15.32,3.59-22.14a85.8,85.8,0,0,1,14.1-24.53c1.3-1.65,2.61-3.38,3.93-5.16a103.41,103.41,0,0,1,9.85-11.95,28.93,28.93,0,0,1,7.75-5.53,69.45,69.45,0,0,0,9.65-1.81c2.15-.56,4.24-1.23,6.28-2,.89-.33,1.77-.67,2.63-1a40.31,40.31,0,0,0,7.83-4.43c.69-.5,1.36-1,2-1.53,1.53-1.24,2.92-2.57,4.28-3.91a52.31,52.31,0,0,0,4.54-5.09c6.61-8.23,12.93-18.81,23.89-20.27a22.18,22.18,0,0,1,8.28.56q1.6.4,3.18.87a73.72,73.72,0,0,1,33.34,20.06,72,72,0,0,1,5.29,6.32c7.59,10.07,15.44,19.95,20.56,31.17,3.64,8,6.23,15.35,10.39,22.65,7.94,13.91,0,29.82-.23,44.53a32.49,32.49,0,0,0,.5,7.82,39.24,39.24,0,0,0,2.89,8.73,30.58,30.58,0,0,0,5.28,7.49c.63.65,1.28,1.29,1.95,1.9a45.44,45.44,0,0,0,6.66,5A57,57,0,0,0,375,487.6c.51.21,1,.45,1.56.62a27.3,27.3,0,0,0,9.3,1.2,84.55,84.55,0,0,0,10.55-1.08l1.36-.27a65.52,65.52,0,0,0,8.84-2.5,35.94,35.94,0,0,0,9.81-5.44,50,50,0,0,0,11.42-12.8,75.45,75.45,0,0,0,7.31-15.28"/><path class="cls-3" d="M79,465.29c.59,13.49,14.07,19.93,25.88,21.94,7.41,1.26,14.44,2.28,21.61,1.87a37.59,37.59,0,0,0,17.07-5,65.54,65.54,0,0,0,8.18-5.76,70,70,0,0,0,7-6.75,58.12,58.12,0,0,0,8.06-11.43A19.08,19.08,0,0,0,169,455a7.8,7.8,0,0,0,.1-2.16c-.09-.93-.1-1.87-.14-2.81-.08-1.71-.17-3.41-.24-5.13s-.14-3.45-.11-5.19a70.49,70.49,0,0,1,3.45-21.95,86.26,86.26,0,0,1,13.43-25c1.26-1.66,2.54-3.39,3.84-5.15a91.84,91.84,0,0,1,9.81-11.76,28.47,28.47,0,0,1,7.75-5.38,65.74,65.74,0,0,0,9.72-1.76,61,61,0,0,0,6.31-2c.9-.33,1.78-.67,2.65-1.05a39.52,39.52,0,0,0,7.85-4.53c.69-.51,1.36-1,2-1.57,1.53-1.27,2.93-2.64,4.29-4a55,55,0,0,0,4.58-5.26c6.65-8.48,13-19.33,24-20.92a22.21,22.21,0,0,1,8.34.51c1.08.26,2.14.55,3.2.86a70.77,70.77,0,0,1,38.75,26.58c7.57,10.19,15.39,20.22,20.45,31.67,3.61,8.18,6.15,15.7,10.32,23.2,7.93,14.3-.14,30.62-.31,45.72a34.35,34.35,0,0,0,.53,8,41.34,41.34,0,0,0,3,9,32,32,0,0,0,5.4,7.71c.64.67,1.3,1.33,2,2a47.15,47.15,0,0,0,6.76,5.21,58.81,58.81,0,0,0,9.2,4.81,15.29,15.29,0,0,0,1.58.63,27.65,27.65,0,0,0,9.39,1.31,86.23,86.23,0,0,0,10.66-1l1.38-.26a64,64,0,0,0,8.95-2.45,36.42,36.42,0,0,0,10-5.42,50.2,50.2,0,0,0,11.61-12.83A76.4,76.4,0,0,0,437,459.23"/><path class="cls-3" d="M80.2,468.52c.57,13.67,14.23,20.19,26.19,22.2,7.25,1.23,14.19,2.08,21.22,1.57a39.26,39.26,0,0,0,16.75-4.94,67.37,67.37,0,0,0,8.12-5.52,71.11,71.11,0,0,0,7-6.5,57.34,57.34,0,0,0,8.21-11.08,18.42,18.42,0,0,0,2.32-5.08,7.15,7.15,0,0,0,.12-2.12c-.07-.91-.07-1.84-.1-2.76-.06-1.67-.13-3.35-.18-5s-.08-3.39,0-5.1a77.91,77.91,0,0,1,3.32-21.75A86,86,0,0,1,185.92,397l3.73-5.15a85,85,0,0,1,9.78-11.57,28.5,28.5,0,0,1,7.75-5.22,64,64,0,0,0,9.8-1.7,62.33,62.33,0,0,0,6.34-2c.9-.33,1.79-.68,2.66-1.06a39.2,39.2,0,0,0,7.87-4.63c.69-.52,1.36-1.06,2-1.61,1.54-1.31,2.95-2.72,4.32-4.13a56.53,56.53,0,0,0,4.61-5.42c6.69-8.73,13.06-19.86,24.18-21.56a21.85,21.85,0,0,1,8.41.45c1.08.26,2.16.54,3.23.84a72.2,72.2,0,0,1,33.59,20.32,70.41,70.41,0,0,1,5.27,6.46c7.55,10.32,15.34,20.5,20.34,32.19,3.58,8.34,6.08,16,10.24,23.75,7.93,14.68-.23,31.4-.37,46.91a35.49,35.49,0,0,0,.56,8.24,42.81,42.81,0,0,0,3,9.2,33.15,33.15,0,0,0,5.51,7.92c.65.7,1.33,1.37,2,2a49.45,49.45,0,0,0,6.86,5.37,59.09,59.09,0,0,0,9.29,5,14.78,14.78,0,0,0,1.59.66,27.69,27.69,0,0,0,9.47,1.4,88.08,88.08,0,0,0,10.78-.94l1.4-.26a63.93,63.93,0,0,0,9.06-2.4,36.67,36.67,0,0,0,10.12-5.39,50.56,50.56,0,0,0,11.81-12.86,76.41,76.41,0,0,0,7.62-15.44"/><path class="cls-3" d="M81.43,471.74c.55,13.87,14.39,20.46,26.49,22.48a82.25,82.25,0,0,0,20.84,1.26,41.38,41.38,0,0,0,16.43-4.88,67.55,67.55,0,0,0,8.07-5.29,73.7,73.7,0,0,0,7.05-6.25,56.9,56.9,0,0,0,8.34-10.73,18.07,18.07,0,0,0,2.41-4.94,7,7,0,0,0,.14-2.09c-.06-.89,0-1.8-.07-2.7,0-1.64-.08-3.29-.11-4.94s0-3.33,0-5a88.06,88.06,0,0,1,3.17-21.56,86.72,86.72,0,0,1,12.11-25.82c1.18-1.69,2.39-3.41,3.64-5.14a76.53,76.53,0,0,1,9.74-11.38,27.83,27.83,0,0,1,7.76-5.06,62,62,0,0,0,9.86-1.66,59.9,59.9,0,0,0,6.38-2c.9-.34,1.79-.7,2.66-1.08a38.37,38.37,0,0,0,7.9-4.73c.69-.53,1.37-1.08,2-1.65,1.54-1.34,2.95-2.79,4.33-4.24a59.49,59.49,0,0,0,4.65-5.58c6.74-9,13.12-20.38,24.33-22.21a22.07,22.07,0,0,1,8.47.39c1.09.26,2.17.54,3.25.84A71.49,71.49,0,0,1,315,358.23a73.05,73.05,0,0,1,5.26,6.54c7.52,10.43,15.29,20.77,20.23,32.69,3.56,8.5,6,16.39,10.16,24.3,7.94,15.07-.33,32.2-.43,48.1a36.14,36.14,0,0,0,.59,8.45,43.94,43.94,0,0,0,3.12,9.44,34,34,0,0,0,5.62,8.14c.66.72,1.35,1.41,2.06,2.09a52,52,0,0,0,6.95,5.54,59.37,59.37,0,0,0,9.37,5.13,16.16,16.16,0,0,0,1.61.68,27.76,27.76,0,0,0,9.56,1.49A87.84,87.84,0,0,0,400,510c.48-.07.95-.15,1.42-.24a65.62,65.62,0,0,0,9.17-2.36A37.05,37.05,0,0,0,420.87,502a50.46,50.46,0,0,0,12-12.9,76.11,76.11,0,0,0,7.77-15.52"/><path class="cls-3" d="M82.67,475c.52,14,14.54,20.72,26.78,22.74a76,76,0,0,0,20.46,1,43.88,43.88,0,0,0,16.1-4.82,67.38,67.38,0,0,0,8-5.06,74,74,0,0,0,7.08-6,56.94,56.94,0,0,0,8.48-10.38,17.47,17.47,0,0,0,2.48-4.81,6.66,6.66,0,0,0,.17-2c-.05-.88,0-1.77,0-2.66,0-1.6,0-3.22,0-4.84s0-3.27.07-4.91a100.75,100.75,0,0,1,3-21.37c2.64-9.71,6-18,11.45-26.24,1.13-1.7,2.3-3.42,3.54-5.14A69.75,69.75,0,0,1,200,389.22a27.12,27.12,0,0,1,7.75-4.91,60.65,60.65,0,0,0,9.94-1.61,54.08,54.08,0,0,0,6.4-2c.91-.34,1.8-.7,2.68-1.09a37.93,37.93,0,0,0,7.92-4.82c.7-.55,1.37-1.11,2-1.69,1.56-1.38,3-2.86,4.36-4.36a63.78,63.78,0,0,0,4.68-5.73c6.78-9.23,13.19-20.91,24.47-22.86a21.75,21.75,0,0,1,8.54.33c1.1.25,2.19.53,3.27.83a68.79,68.79,0,0,1,39.1,27.18c7.5,10.55,15.24,21,20.13,33.19,3.52,8.67,5.91,16.73,10.08,24.85,7.93,15.46-.44,33-.5,49.29a37.34,37.34,0,0,0,.62,8.66,46,46,0,0,0,3.19,9.68,35.8,35.8,0,0,0,5.73,8.36c.68.74,1.38,1.45,2.1,2.14a53.12,53.12,0,0,0,7.05,5.71,60.55,60.55,0,0,0,9.46,5.3c.54.24,1.06.51,1.62.7a34.92,34.92,0,0,0,9.65,1.58,56.31,56.31,0,0,0,11-.79q.72-.1,1.44-.24a66.37,66.37,0,0,0,9.29-2.31,37.26,37.26,0,0,0,10.41-5.33,50.83,50.83,0,0,0,12.21-12.93,78.18,78.18,0,0,0,7.93-15.6"/><path class="cls-3" d="M83.9,478.19c.5,14.25,14.7,21,27.08,23a70.72,70.72,0,0,0,20.08.66,47,47,0,0,0,15.78-4.76,69.81,69.81,0,0,0,8-4.83,74.25,74.25,0,0,0,7.09-5.76,55.76,55.76,0,0,0,8.62-10,17.12,17.12,0,0,0,2.57-4.68,6.73,6.73,0,0,0,.19-2c0-.86,0-1.73,0-2.6,0-1.58,0-3.16,0-4.75s.05-3.2.14-4.81a117.39,117.39,0,0,1,2.89-21.18c2.38-9.74,5.55-18.37,10.78-26.67,1.09-1.71,2.23-3.43,3.45-5.13a63.94,63.94,0,0,1,9.67-11,26.71,26.71,0,0,1,7.75-4.75,60.12,60.12,0,0,0,10-1.56,56.07,56.07,0,0,0,6.44-2c.91-.34,1.8-.71,2.68-1.11a37.23,37.23,0,0,0,8-4.92c.7-.56,1.37-1.13,2-1.73,1.56-1.41,3-2.93,4.37-4.47a64,64,0,0,0,4.72-5.89c6.82-9.48,13.25-21.44,24.62-23.51a21.79,21.79,0,0,1,8.6.28c1.1.24,2.2.51,3.29.81a70.07,70.07,0,0,1,34,20.7,71.94,71.94,0,0,1,5.26,6.69c7.46,10.67,15.15,21.32,20,33.7,3.47,8.83,5.83,17.07,10,25.4,7.93,15.84-.54,33.78-.57,50.47a39,39,0,0,0,.66,8.87,47.48,47.48,0,0,0,3.26,9.92,37.15,37.15,0,0,0,5.85,8.58c.69.75,1.4,1.49,2.14,2.2a54.26,54.26,0,0,0,7.14,5.87,59.79,59.79,0,0,0,9.55,5.46c.54.25,1.07.53,1.63.73a34.85,34.85,0,0,0,9.74,1.67,57.58,57.58,0,0,0,11.12-.71l1.45-.23a69.14,69.14,0,0,0,9.4-2.26,38.08,38.08,0,0,0,10.56-5.31,51.09,51.09,0,0,0,12.41-13,77.61,77.61,0,0,0,8.08-15.68"/><path class="cls-3" d="M85.13,481.42c.48,14.43,14.86,21.25,27.38,23.27a65.86,65.86,0,0,0,19.7.37,50.77,50.77,0,0,0,15.46-4.72,67.56,67.56,0,0,0,7.91-4.59,75.94,75.94,0,0,0,7.12-5.51,54.86,54.86,0,0,0,8.75-9.66A16.56,16.56,0,0,0,174.1,476a6.22,6.22,0,0,0,.22-2c0-.84,0-1.69,0-2.54,0-1.55,0-3.1.09-4.66s.09-3.14.19-4.71a144.53,144.53,0,0,1,2.76-21c2.12-9.76,5.08-18.72,10.12-27.1,1-1.72,2.15-3.44,3.35-5.13a58.74,58.74,0,0,1,9.63-10.79,26,26,0,0,1,7.76-4.6A58,58,0,0,0,218.32,392a52.16,52.16,0,0,0,6.46-2c.92-.35,1.82-.72,2.7-1.13a37.27,37.27,0,0,0,8-5c.7-.57,1.38-1.17,2-1.77,1.56-1.45,3-3,4.38-4.59a67.36,67.36,0,0,0,4.76-6c6.87-9.73,13.31-22,24.77-24.15a21.57,21.57,0,0,1,8.65.21c1.12.24,2.22.51,3.32.81a69.47,69.47,0,0,1,34.1,20.82,72.76,72.76,0,0,1,5.25,6.76c7.44,10.8,15.09,21.6,19.9,34.21,3.44,9,5.76,17.42,9.92,25.95,7.93,16.23-.64,34.58-.63,51.67a39.81,39.81,0,0,0,.69,9.08A48.23,48.23,0,0,0,355.94,507a37.61,37.61,0,0,0,6,8.8c.7.78,1.43,1.53,2.17,2.27a59.43,59.43,0,0,0,7.24,6,62.56,62.56,0,0,0,9.63,5.62,17.42,17.42,0,0,0,1.65.75,35.59,35.59,0,0,0,9.83,1.77,58.72,58.72,0,0,0,11.23-.65l1.47-.22a69,69,0,0,0,9.51-2.21,38.16,38.16,0,0,0,10.72-5.29,50.9,50.9,0,0,0,12.59-13,77.67,77.67,0,0,0,8.25-15.76"/><path class="cls-3" d="M86.36,484.64c.46,14.62,15,21.55,27.69,23.55a61,61,0,0,0,19.31.06,56.31,56.31,0,0,0,15.13-4.66,68.5,68.5,0,0,0,7.87-4.36A77.6,77.6,0,0,0,163.5,494a54.94,54.94,0,0,0,8.89-9.31,16.21,16.21,0,0,0,2.72-4.43,5.7,5.7,0,0,0,.25-1.92c0-.82,0-1.65,0-2.49q.06-2.26.15-4.56c.07-1.53.14-3.08.26-4.62a190.77,190.77,0,0,1,2.61-20.79c1.88-9.79,4.62-19.07,9.46-27.53,1-1.74,2.09-3.45,3.26-5.12a54.57,54.57,0,0,1,9.59-10.6,25.7,25.7,0,0,1,7.76-4.45,56.91,56.91,0,0,0,10.16-1.46,51,51,0,0,0,6.49-2c.92-.36,1.82-.73,2.7-1.14a36.83,36.83,0,0,0,8-5.12c.7-.58,1.38-1.19,2-1.81,1.57-1.48,3-3.08,4.41-4.7a69.41,69.41,0,0,0,4.79-6.21c6.91-10,13.38-22.48,24.91-24.8a21.49,21.49,0,0,1,8.72.16c1.13.24,2.24.5,3.34.79a68.84,68.84,0,0,1,34.23,21,72.28,72.28,0,0,1,5.24,6.83c7.41,10.92,15,21.87,19.79,34.71,3.4,9.16,5.68,17.77,9.85,26.51,7.92,16.61-.74,35.37-.7,52.85a41,41,0,0,0,.72,9.29,49.92,49.92,0,0,0,3.41,10.38,39.34,39.34,0,0,0,6.07,9c.72.8,1.46,1.57,2.21,2.32a60.69,60.69,0,0,0,7.34,6.21,63.47,63.47,0,0,0,9.72,5.79c.55.26,1.09.56,1.66.77a35.89,35.89,0,0,0,9.92,1.86,59,59,0,0,0,11.34-.57l1.48-.21A70.22,70.22,0,0,0,416,536.4a39,39,0,0,0,10.87-5.26,51.45,51.45,0,0,0,12.79-13,78.16,78.16,0,0,0,8.4-15.84"/><path class="cls-3" d="M87.59,487.87c.43,14.81,15.18,21.79,28,23.81,14.58,2.29,29.16-1.38,41.56-9a73.38,73.38,0,0,0,7.15-5,46.16,46.16,0,0,0,9-9c1.6-1.87,3.23-4,3.08-6.17.11-3.77.3-7.59.62-11.43,2.22-22.91,4.78-48.25,24-64.08a25.4,25.4,0,0,1,7.76-4.29A56.44,56.44,0,0,0,219,401.36a48.65,48.65,0,0,0,9.24-3.18,37.14,37.14,0,0,0,8-5.21,53.56,53.56,0,0,0,6.47-6.66c10.82-12.26,18-36,38.67-31.72a68.37,68.37,0,0,1,37.71,21.86,67.46,67.46,0,0,1,5.24,6.91c7.45,11,15,22.13,19.69,35.21,3.39,9.32,5.48,18.17,9.76,27.06,7.7,17.1-1.17,36.17-.76,54,0,3.31-.1,6.62.74,9.5a42.45,42.45,0,0,0,3.5,10.62,40.77,40.77,0,0,0,6.18,9.24,62.41,62.41,0,0,0,9.68,8.76,65.52,65.52,0,0,0,11.48,6.74,55.88,55.88,0,0,0,10,2,71.91,71.91,0,0,0,11.45-.5,70.52,70.52,0,0,0,11.24-2.32c16.12-4.73,26.54-19.32,32.56-34.22"/></g></g></g></svg>