<svg width="28" height="28" viewBox="0 0 28 28" fill="none" xmlns="http://www.w3.org/2000/svg">
<path fill-rule="evenodd" clip-rule="evenodd" d="M4.95833 0H23.0417C25.7833 0 28 2.2735 28 5.08547V22.9145C28 25.7265 25.7833 28 23.0417 28H4.95833C2.21667 28 0 25.7265 0 22.9145V5.08547C0 2.2735 2.21667 0 4.95833 0ZM14.7233 7.35897L11.2233 13.2821L14.9567 19.5641C14.98 19.612 14.9917 19.6598 14.98 19.7077C14.9728 19.7371 14.9525 19.7349 14.9217 19.7316C14.9023 19.7295 14.8787 19.727 14.8517 19.7316H12.18C11.9933 19.7316 11.865 19.7197 11.7833 19.6C11.6608 19.3487 11.5354 19.1004 11.41 18.8521C11.2846 18.6038 11.1592 18.3555 11.0367 18.1043C10.7917 17.6137 10.5233 17.1111 10.2433 16.5966L10.2433 16.5965C9.96329 16.082 9.68331 15.5675 9.40333 15.041H9.38C9.13501 15.5555 8.86669 16.07 8.59837 16.5846L8.59833 16.5846C8.33 17.0991 8.06167 17.6137 7.805 18.1162C7.71555 18.2838 7.6261 18.4526 7.53665 18.6215C7.35777 18.9592 7.17888 19.2969 7 19.6239C6.95333 19.7436 6.86 19.7556 6.73167 19.7556H4.165C4.15363 19.7556 4.14295 19.757 4.1333 19.7583C4.10335 19.7622 4.08333 19.7649 4.08333 19.7197C4.07167 19.6718 4.08333 19.6239 4.10667 19.588L7.735 13.4855L4.2 7.34701C4.165 7.29914 4.15333 7.25128 4.17667 7.22735C4.2 7.19145 4.24667 7.17948 4.29333 7.17948H6.94167C7 7.17948 7.05833 7.19145 7.105 7.20342C7.15167 7.22735 7.18667 7.26324 7.22167 7.31111C7.44333 7.82564 7.7 8.34017 7.96833 8.8547L8.1199 9.13385L8.11991 9.13386C8.34655 9.55173 8.56962 9.96304 8.80833 10.3744C9.08833 10.8769 9.345 11.3795 9.59 11.894H9.61333C9.85833 11.3675 10.115 10.853 10.3717 10.3504C10.6283 9.84786 10.8967 9.3453 11.165 8.84273C11.3238 8.54526 11.4786 8.2436 11.6316 7.9452C11.7372 7.73945 11.8419 7.53525 11.9467 7.33504C11.9583 7.28718 11.9817 7.23931 12.0167 7.21538C12.0633 7.19145 12.11 7.17948 12.1683 7.19145H14.63C14.6883 7.17948 14.7467 7.21538 14.7583 7.27521C14.77 7.28718 14.7467 7.33504 14.7233 7.35897ZM17.605 19.4444C18.3867 19.8154 19.25 19.9949 20.1133 19.9829C20.72 19.9829 21.315 19.9231 21.91 19.8154C22.5633 19.6957 23.205 19.5043 23.8117 19.241C23.8933 19.2051 23.9283 19.1333 23.9283 19.0496C23.9265 19.0182 23.9247 18.986 23.9229 18.953C23.9128 18.7721 23.9014 18.5681 23.8817 18.3556C23.8806 18.3314 23.8795 18.3075 23.8785 18.2838C23.868 18.0486 23.8583 17.8332 23.8583 17.6376V6.24615V6.22222C23.8467 6.17436 23.8 6.1265 23.7417 6.13846H21.3733C21.2917 6.13846 21.2567 6.18633 21.2567 6.27009V10.0513C21.1919 10.0457 21.1321 10.0428 21.0762 10.04C21.0112 10.0368 20.9514 10.0338 20.895 10.0274C20.79 10.0154 20.7083 10.0154 20.65 10.0154C19.495 10.0154 18.515 10.2427 17.6983 10.7094C16.9283 11.1402 16.2867 11.7863 15.8433 12.5641C15.4117 13.3299 15.19 14.2034 15.2017 15.0889C15.2017 16.1778 15.4117 17.0872 15.8433 17.8171C16.2633 18.5231 16.87 19.0974 17.605 19.4444ZM21.2567 12.3248V17.5897C21.1167 17.6376 20.9883 17.6615 20.8367 17.6496C20.685 17.6615 20.5217 17.6735 20.3467 17.6735C20.02 17.6735 19.6933 17.6256 19.3783 17.518C19.075 17.4222 18.8067 17.2547 18.585 17.0393C18.3517 16.8 18.1767 16.5128 18.06 16.1897C17.92 15.7949 17.85 15.3761 17.8617 14.9573C17.8617 14.335 17.99 13.8205 18.2467 13.4376C18.5033 13.0547 18.8417 12.7556 19.2383 12.5521C19.6467 12.3368 20.1017 12.241 20.5567 12.241C20.685 12.241 20.8133 12.253 20.9417 12.265C21.0467 12.2769 21.1517 12.3009 21.2567 12.3248Z" fill="black"/>
</svg>
