<svg width="24" height="24" viewBox="0 0 24 24" fill="none" xmlns="http://www.w3.org/2000/svg">
<path d="M8.04689 23.8593C8.07038 23.8672 8.09442 23.8732 8.11881 23.8775C8.52812 23.9491 8.9011 23.8735 9.17402 23.6318C9.43507 23.4006 9.53 23.0823 9.53 22.815C9.53 22.7133 9.52814 22.5303 9.52576 22.295C9.52473 22.1933 9.5236 22.0817 9.52248 21.9628C9.51873 21.5659 9.515 21.0802 9.515 20.58C9.515 20.4315 9.44903 20.2908 9.33495 20.1958C9.22087 20.1008 9.07048 20.0614 8.92448 20.0883C7.48791 20.3527 6.66845 20.162 6.20143 19.9001C5.74014 19.6415 5.54645 19.2706 5.45111 19.0025L5.44562 18.9878C5.36222 18.7747 5.16384 18.3909 4.92339 18.0253C4.80143 17.8398 4.66188 17.6486 4.5127 17.4801C4.49836 17.4639 4.48372 17.4477 4.46879 17.4315C4.51534 17.4642 4.56112 17.4996 4.60606 17.5374C4.8656 17.7552 5.05713 18.0176 5.15334 18.1707C5.7767 19.2151 6.621 19.6274 7.42797 19.7016C8.20327 19.7729 8.89948 19.5298 9.28265 19.3548C9.43891 19.2835 9.54761 19.1369 9.57053 18.9667C9.66179 18.2888 9.92787 17.8812 10.1681 17.6723C10.3178 17.5421 10.3764 17.3357 10.3174 17.1463C10.2584 16.9569 10.093 16.8203 9.89583 16.7981C8.59066 16.6515 7.34738 16.332 6.43116 15.5591C5.5388 14.8063 4.88 13.5559 4.88 11.37C4.88 10.1936 5.29574 9.23265 5.97967 8.48167C6.10865 8.34004 6.14538 8.13716 6.07424 7.95931C5.98839 7.74469 5.64818 6.78099 6.08813 5.44202C6.17254 5.44765 6.28128 5.46119 6.41543 5.4897C6.87707 5.58782 7.64325 5.86418 8.75078 6.60977C8.87251 6.69172 9.0241 6.71606 9.16537 6.67633C10.079 6.41936 11.0533 6.29 12.03 6.29C13.0067 6.29 13.981 6.41936 14.8946 6.67633C15.0367 6.71627 15.1891 6.69145 15.3111 6.60851C16.4182 5.85599 17.1832 5.58054 17.6429 5.48442C17.7777 5.45625 17.8865 5.4434 17.9707 5.43845C18.4124 6.77928 18.0717 7.7445 17.9858 7.95931C17.9146 8.13716 17.9513 8.34004 18.0803 8.48167C18.7648 9.23328 19.18 10.1794 19.18 11.37C19.18 13.5631 18.5177 14.8128 17.6224 15.5638C16.7027 16.3353 15.4556 16.6513 14.1492 16.7981C13.9516 16.8203 13.786 16.9574 13.7273 17.1473C13.6686 17.3373 13.728 17.5439 13.8785 17.6737C14.1788 17.9326 14.515 18.4996 14.515 19.515C14.515 20.316 14.5113 21.0385 14.5075 21.6117C14.5063 21.7998 14.505 21.9723 14.5039 22.1264C14.5017 22.4402 14.5 22.6777 14.5 22.815C14.5 23.08 14.5934 23.4011 14.853 23.6348C15.1285 23.8827 15.5075 23.9584 15.9231 23.8753C15.944 23.8711 15.9647 23.8656 15.9849 23.8587C18.4662 23.021 20.6223 21.4263 22.1498 19.299C23.6773 17.1717 24.4993 14.619 24.5 12.0001V12C24.5 5.09386 18.9061 -0.5 12 -0.5C5.09386 -0.5 -0.5 5.09386 -0.5 12C-0.5 17.532 3.07923 22.2035 8.04689 23.8593Z" fill="black" stroke="white" stroke-linejoin="round"/>
</svg>
