<?xml version="1.0" encoding="utf-8"?>
<!-- Generator: Adobe Illustrator 22.0.1, SVG Export Plug-In . SVG Version: 6.00 Build 0)  -->
<svg version="1.1" id="Layer_1" xmlns="http://www.w3.org/2000/svg" xmlns:xlink="http://www.w3.org/1999/xlink" x="0px" y="0px"
	 viewBox="0 0 24 24" style="enable-background:new 0 0 24 24;" xml:space="preserve">
<style type="text/css">
	.st0{fill:#FFFFFF;}
</style>
<g>
	<g>
		<path d="M5,22.6c-1,0-1.9-0.4-2.5-1.1C1.8,20.9,1.4,20,1.4,19V8c0-1,0.4-1.9,1.1-2.5C3.1,4.8,4,4.4,5,4.4h6c0.9,0,1.6,0.7,1.6,1.6
			S11.9,7.6,11,7.6H5c-0.1,0-0.2,0-0.3,0.1C4.6,7.8,4.6,7.9,4.6,8v11c0,0.1,0,0.2,0.1,0.3c0.1,0.1,0.1,0.1,0.3,0.1h11
			c0.1,0,0.2,0,0.3-0.1c0.1-0.1,0.1-0.1,0.1-0.3v-6c0-0.9,0.7-1.6,1.6-1.6s1.6,0.7,1.6,1.6v6c0,1-0.4,1.9-1.1,2.5
			c-0.6,0.7-1.5,1.1-2.5,1.1H5z"/>
		<path class="st0" d="M11,5c0.6,0,1,0.4,1,1s-0.4,1-1,1H5C4.7,7,4.5,7.1,4.3,7.3C4.1,7.5,4,7.7,4,8v11c0,0.3,0.1,0.5,0.3,0.7
			C4.5,19.9,4.7,20,5,20h11c0.3,0,0.5-0.1,0.7-0.3S17,19.3,17,19v-6c0-0.6,0.4-1,1-1s1,0.4,1,1v6c0,0.8-0.3,1.6-0.9,2.1
			C17.6,21.7,16.8,22,16,22H5c-0.8,0-1.6-0.3-2.1-0.9C2.3,20.6,2,19.8,2,19V8c0-0.8,0.3-1.6,0.9-2.1C3.4,5.3,4.2,5,5,5H11 M11,3.8H5
			C3.8,3.8,2.7,4.2,2,5C1.2,5.7,0.8,6.8,0.8,8v11c0,1.2,0.5,2.3,1.3,3c0.7,0.8,1.8,1.3,3,1.3h11c1.2,0,2.3-0.5,3-1.3
			c0.8-0.7,1.3-1.8,1.3-3v-6c0-1.3-1-2.2-2.2-2.2s-2.2,1-2.2,2.2v5.7l-10.5,0l0-10.5l5.8,0c1.3,0,2.2-1,2.2-2.2S12.3,3.8,11,3.8
			L11,3.8z"/>
	</g>
	<g>
		<path d="M10,15.6c-0.4,0-0.8-0.2-1.1-0.5c-0.6-0.6-0.6-1.6,0-2.3l8.2-8.2H15c-0.9,0-1.6-0.7-1.6-1.6s0.7-1.6,1.6-1.6h6
			c0.2,0,0.5,0,0.8,0.2C22,1.7,22.3,2,22.4,2.2c0.2,0.3,0.2,0.6,0.2,0.8v6c0,0.9-0.7,1.6-1.6,1.6S19.4,9.9,19.4,9V6.9l-8.2,8.2
			C10.8,15.5,10.4,15.6,10,15.6z"/>
		<path class="st0" d="M21,2c0.1,0,0.3,0,0.4,0.1c0.2,0.1,0.4,0.3,0.5,0.5C22,2.7,22,2.9,22,3v6c0,0.6-0.4,1-1,1c-0.6,0-1-0.4-1-1
			V5.4l-9.3,9.3C10.5,14.9,10.3,15,10,15c-0.3,0-0.5-0.1-0.7-0.3c-0.4-0.4-0.4-1,0-1.4L18.6,4H15c-0.6,0-1-0.4-1-1s0.4-1,1-1H21
			 M21,0.8h-6c-1.3,0-2.2,1-2.2,2.2s1,2.2,2.2,2.2h0.6l-7.2,7.2c-0.9,0.9-0.9,2.3,0,3.2c0.4,0.4,1,0.7,1.6,0.7
			c0.6,0,1.1-0.2,1.6-0.7l7.2-7.2V9c0,1.3,1,2.2,2.2,2.2c1.3,0,2.2-1,2.2-2.2V3c0-0.2,0-0.7-0.3-1.1c-0.2-0.3-0.5-0.6-0.9-0.9
			C21.7,0.8,21.2,0.8,21,0.8L21,0.8z"/>
	</g>
</g>
</svg>
