<svg width="28" height="25" viewBox="0 0 28 25" fill="none" xmlns="http://www.w3.org/2000/svg">
<path d="M28 12.4705C28 10.6155 25.6772 8.85733 22.1153 7.76767C22.9378 4.13817 22.5727 1.2495 20.9627 0.324333C20.5726 0.10584 20.131 -0.0041392 19.684 0.00583333V1.2775C19.9465 1.2775 20.1577 1.33 20.335 1.42683C21.1108 1.8725 21.448 3.5665 21.1855 5.747C21.1225 6.28367 21.0198 6.84833 20.8938 7.42467C19.7011 7.13724 18.4905 6.92951 17.2702 6.80283C16.5432 5.79984 15.75 4.8465 14.896 3.94917C16.7568 2.22017 18.5033 1.27283 19.691 1.27283V0C18.1207 0 16.0662 1.11883 13.9883 3.059C11.9117 1.13167 9.856 0.0233333 8.28683 0.0233333V1.295C9.46867 1.295 11.221 2.23767 13.0818 3.955C12.2827 4.795 11.4835 5.747 10.724 6.80283C9.50114 6.9281 8.28841 7.13782 7.0945 7.4305C6.96267 6.86 6.86583 6.307 6.797 5.77617C6.52867 3.5945 6.86 1.9005 7.63117 1.45017C7.8015 1.3475 8.02433 1.30083 8.28683 1.30083V0.0291666C7.8085 0.0291666 7.37333 0.131833 6.99767 0.347667C5.3935 1.27283 5.03417 4.1545 5.86133 7.7735C2.31117 8.87017 0 10.6213 0 12.4705C0 14.3255 2.32283 16.0837 5.88467 17.1722C5.06217 20.8028 5.42733 23.6915 7.03733 24.6155C7.40833 24.8325 7.84233 24.9352 8.32067 24.9352C9.891 24.9352 11.9455 23.8163 14.0233 21.8762C16.1 23.8047 18.1545 24.9118 19.7248 24.9118C20.1753 24.9213 20.6202 24.811 21.014 24.5922C22.6182 23.6682 22.9775 20.7865 22.1503 17.1675C25.6888 16.0778 28 14.3197 28 12.4705ZM20.5683 8.66367C20.3466 9.4265 20.0897 10.1786 19.7983 10.9177C19.3214 9.98988 18.7976 9.08689 18.2292 8.21217C19.04 8.33233 19.8217 8.4805 20.5695 8.66367H20.5683ZM17.955 14.742C17.5105 15.512 17.0532 16.2435 16.5795 16.9225C14.8671 17.0734 13.1449 17.0754 11.4322 16.9283C10.4498 15.525 9.59062 14.0394 8.86433 12.488C9.58951 10.933 10.445 9.44208 11.4217 8.03133C13.1336 7.8801 14.8555 7.87776 16.5678 8.02433C17.0415 8.70333 17.5047 9.429 17.9492 10.1943C18.3832 10.941 18.7775 11.6993 19.1368 12.4647C18.7735 13.2393 18.3793 13.999 17.955 14.742ZM19.7983 14C20.1063 14.7642 20.37 15.5295 20.5858 16.2715C19.8392 16.4547 19.0505 16.6087 18.235 16.7277C18.8011 15.845 19.3229 14.9346 19.7983 14ZM14.0117 20.09C13.4808 19.5417 12.95 18.9315 12.425 18.263C12.9383 18.2863 13.4633 18.3038 13.9942 18.3038C14.5308 18.3038 15.0617 18.2922 15.5808 18.263C15.0675 18.9315 14.5367 19.5417 14.0117 20.09ZM9.765 16.7277C8.97837 16.6137 8.19742 16.4634 7.42467 16.2773C7.63583 15.5412 7.89833 14.7817 8.19467 14.0233C8.42917 14.4783 8.67533 14.9357 8.94367 15.393C9.212 15.8492 9.485 16.2948 9.765 16.7277ZM13.9825 4.851C14.5133 5.39933 15.0442 6.0095 15.5692 6.678C15.0558 6.65467 14.5308 6.63717 14 6.63717C13.4633 6.63717 12.9325 6.64883 12.4133 6.678C12.9267 6.0095 13.4575 5.39933 13.9825 4.851ZM9.75917 8.21333C9.19318 9.09409 8.67142 10.0025 8.19583 10.9352C7.89625 10.1914 7.63343 9.43329 7.40833 8.66367C8.155 8.48633 8.94367 8.33233 9.75917 8.21333ZM4.59433 15.358C2.57367 14.497 1.267 13.3665 1.267 12.4705C1.267 11.5745 2.57367 10.4382 4.59433 9.583C5.08433 9.37183 5.621 9.18283 6.17517 9.00667C6.50067 10.1243 6.92883 11.2887 7.4585 12.4822C6.95843 13.6047 6.5355 14.7601 6.19267 15.9402C5.65069 15.7724 5.11727 15.5781 4.59433 15.358ZM7.665 23.513C6.88917 23.0697 6.552 21.3733 6.8145 19.194C6.8775 18.6573 6.98017 18.0915 7.10617 17.5152C8.22383 17.7893 9.44533 18.0005 10.7298 18.1382C11.4569 19.1411 12.25 20.0945 13.104 20.9918C11.2432 22.7208 9.49667 23.6682 8.309 23.6682C8.08493 23.6706 7.86372 23.6177 7.665 23.5142V23.513ZM21.203 19.1648C21.4713 21.3453 21.14 23.0405 20.3688 23.4908C20.1985 23.5935 19.9757 23.639 19.7132 23.639C18.5313 23.639 16.779 22.6975 14.9182 20.979C15.7173 20.1413 16.5165 19.1882 17.276 18.1323C18.4989 18.0071 19.7116 17.7973 20.9055 17.5047C21.0373 18.081 21.1388 18.634 21.203 19.1648ZM23.3998 15.358C22.9098 15.5692 22.3732 15.7582 21.819 15.9343C21.4701 14.7482 21.0414 13.587 20.5357 12.4588C21.0607 11.2723 21.4818 10.1138 21.8015 9.00083C22.3673 9.177 22.9028 9.37183 23.4057 9.583C25.4263 10.444 26.733 11.5745 26.733 12.4705C26.7272 13.3665 25.4205 14.5028 23.3998 15.358Z" fill="black"/>
</svg>
