<svg width="23" height="28" viewBox="0 0 23 28" fill="none" xmlns="http://www.w3.org/2000/svg">
<path fill-rule="evenodd" clip-rule="evenodd" d="M16.7271 0.268483L16.5952 3.44164C16.5931 3.49042 16.6082 3.53838 16.6377 3.57728C16.7078 3.66968 16.8395 3.68776 16.9319 3.61767L18.1645 2.68266L19.2056 3.50278C19.2446 3.53352 19.2932 3.54943 19.3429 3.54769C19.4588 3.54365 19.5494 3.4464 19.5454 3.33049L19.4326 0.0993907L20.9782 0.00278929C21.7542 -0.0457091 22.4225 0.544026 22.471 1.32C22.4729 1.34924 22.4738 1.37852 22.4738 1.40781V26.5922C22.4738 27.3697 21.8435 28 21.066 28C21.0449 28 21.0239 27.9995 21.0028 27.9986L2.212 27.1546C1.48017 27.1217 0.895864 26.5331 0.868391 25.8011L0.00100813 2.68925C-0.0276381 1.92596 0.557627 1.27907 1.31997 1.23143L16.7271 0.268483ZM17.327 10.4541C16.8318 10.8388 13.1425 11.1013 13.1425 10.5536C13.2205 8.46364 12.2848 8.37202 11.765 8.37202C11.2712 8.37202 10.4395 8.5213 10.4395 9.64091C10.4395 10.7818 11.6549 11.4259 13.0816 12.1819C15.1082 13.2559 17.561 14.5557 17.561 17.8265C17.561 20.9614 15.0139 22.6931 11.765 22.6931C8.41223 22.6931 5.48225 21.3366 5.81316 16.6337C5.94311 16.0814 10.2056 16.2127 10.2056 16.6337C10.1536 18.5743 10.5955 19.1451 11.7131 19.1451C12.5707 19.1451 12.9606 18.6724 12.9606 17.8762C12.9606 16.6713 11.6942 15.9603 10.2374 15.1424C8.26482 14.0349 5.94311 12.7314 5.94311 9.74043C5.94311 6.75481 7.99638 4.76441 11.6611 4.76441C15.3258 4.76441 17.327 6.72432 17.327 10.4541Z" fill="black"/>
</svg>
